<svg width="16" height="17" viewBox="0 0 16 17" fill="none" xmlns="http://www.w3.org/2000/svg">
<path fill-rule="evenodd" clip-rule="evenodd" d="M8 0.5C3.58473 0.5 0 4.08473 0 8.5C0 12.9153 3.58473 16.5 8 16.5C12.4154 16.5 16.0002 12.9153 16.0002 8.5C16.0002 4.08473 12.4154 0.5 8 0.5ZM8 1.95367C11.613 1.95367 14.5463 4.88701 14.5463 8.5C14.5463 12.113 11.613 15.0463 8 15.0463C4.38701 15.0463 1.45385 12.113 1.45385 8.5C1.45385 4.88701 4.38701 1.95367 8 1.95367ZM6.97216 8.5L5.66781 9.80435C5.38416 10.088 5.38416 10.5485 5.66781 10.8322C5.95146 11.1158 6.412 11.1158 6.69583 10.8322L8 9.52785L9.30435 10.8322C9.588 11.1158 10.0487 11.1158 10.3324 10.8322C10.616 10.5485 10.616 10.088 10.3324 9.80435L9.02802 8.5L10.3324 7.19565C10.616 6.912 10.616 6.45146 10.3324 6.16781C10.0487 5.88398 9.588 5.88398 9.30435 6.16781L8 7.47198L6.69583 6.16781C6.412 5.88398 5.95146 5.88398 5.66781 6.16781C5.38416 6.45146 5.38416 6.912 5.66781 7.19565L6.97216 8.5Z" fill="#FF5630"/>
</svg>
