<svg xmlns="http://www.w3.org/2000/svg" width="15" height="11" viewBox="0 0 15 11" fill="none">
  <path fill-rule="evenodd" clip-rule="evenodd" d="M14.5547 5.50005C14.5547 5.03982 14.1816 4.66672 13.7214 4.66672L2.95512 4.66672L5.97725 1.6449C6.3027 1.31948 6.30273 0.791838 5.97731 0.466385C5.65189 0.140931 5.12425 0.140904 4.79879 0.466326L0.353904 4.91077C0.197605 5.06705 0.109797 5.27903 0.109797 5.50005C0.109797 5.72108 0.197605 5.93306 0.353904 6.08934L4.79879 10.5338C5.12425 10.8592 5.65189 10.8592 5.97731 10.5337C6.30273 10.2083 6.3027 9.68063 5.97725 9.35521L2.95512 6.33339L13.7214 6.33339C14.1816 6.33339 14.5547 5.96029 14.5547 5.50005Z" fill="#1D1D1D"/>
</svg>