<svg width="16" height="17" viewBox="0 0 16 17" fill="none" xmlns="http://www.w3.org/2000/svg">
<path fill-rule="evenodd" clip-rule="evenodd" d="M8 0.5C3.58473 0.5 0 4.08473 0 8.5C0 12.9153 3.58473 16.5 8 16.5C12.4153 16.5 16 12.9153 16 8.5C16 4.08473 12.4153 0.5 8 0.5ZM8 1.95367C11.613 1.95367 14.5463 4.88701 14.5463 8.5C14.5463 12.113 11.613 15.0463 8 15.0463C4.38701 15.0463 1.45367 12.113 1.45367 8.5C1.45367 4.88701 4.38701 1.95367 8 1.95367ZM5.06649 8.89914L6.75601 10.5887C7.04001 10.8727 7.50021 10.8727 7.78403 10.5887L10.9335 7.43918C11.2173 7.15553 11.2173 6.69481 10.9335 6.41116C10.6499 6.12751 10.1893 6.12751 9.90567 6.41116L7.27011 9.04689L6.09433 7.87112C5.81068 7.58746 5.35014 7.58746 5.06649 7.87112C4.78283 8.15477 4.78283 8.61548 5.06649 8.89914Z" fill="#14AC7A"/>
</svg>
