<svg width="16" height="18" viewBox="0 0 16 18" fill="none" xmlns="http://www.w3.org/2000/svg">
<g clip-path="url(#clip0_1809_3583)">
<path d="M7.01315 2.74904C7.54208 2.16829 8.45581 2.16829 8.98475 2.74904L9.66488 3.49586C9.93215 3.78937 10.3163 3.94851 10.7129 3.92997L11.7219 3.88282C12.5065 3.84615 13.1527 4.4923 13.1161 5.27695L13.0689 6.28595C13.0503 6.68251 13.2095 7.0667 13.503 7.33399L14.2498 8.01412C14.8306 8.54306 14.8306 9.45679 14.2498 9.98572L13.503 10.6659C13.2095 10.9331 13.0503 11.3173 13.0689 11.7139L13.1161 12.7229C13.1527 13.5075 12.5065 14.1537 11.7219 14.1171L10.7129 14.0699C10.3163 14.0513 9.93215 14.2105 9.66488 14.504L8.98475 15.2508C8.45581 15.8316 7.54208 15.8316 7.01315 15.2508L6.33302 14.504C6.06572 14.2105 5.68153 14.0513 5.28498 14.0699L4.27597 14.1171C3.49133 14.1537 2.84517 13.5075 2.88184 12.7229L2.929 11.7139C2.94753 11.3173 2.7884 10.9331 2.49488 10.6659L1.74806 9.98572C1.16731 9.45679 1.16731 8.54306 1.74806 8.01412L2.49488 7.33399C2.7884 7.0667 2.94753 6.68251 2.929 6.28595L2.88184 5.27694C2.84517 4.4923 3.49133 3.84615 4.27597 3.88282L5.28498 3.92997C5.68153 3.94851 6.06572 3.78937 6.33302 3.49586L7.01315 2.74904Z" fill="#00AFF0" stroke="#00AFF0" stroke-width="1.06667"/>
<path d="M6 9.00002L7.33333 10.3334L10 7.66669" stroke="white" stroke-width="1.06667" stroke-linecap="round" stroke-linejoin="round"/>
</g>
<defs>
<clipPath id="clip0_1809_3583">
<rect width="16" height="16" fill="white" transform="translate(0 1)"/>
</clipPath>
</defs>
</svg>
