<svg width="20" height="20" viewBox="0 0 20 20" fill="none" xmlns="http://www.w3.org/2000/svg">
<rect width="20" height="20" rx="10" fill="#5F6165" fill-opacity="0.5"/>
<path d="M14.7273 8.5011V8.51573L10.1129 3.91151L10.0246 3.82342L9.93635 3.91151L5.11421 8.72305C5.04612 8.77658 4.98985 8.84372 4.94898 8.92022C4.90675 8.99928 4.88196 9.0865 4.87627 9.17598C4.87057 9.26546 4.88412 9.35512 4.91598 9.43891C4.94785 9.5227 4.9973 9.59868 5.06102 9.66168C5.12474 9.72468 5.20124 9.77324 5.28534 9.80405C5.36945 9.83485 5.45918 9.84718 5.54847 9.84018C5.63775 9.83318 5.72448 9.80702 5.80278 9.76349C5.87813 9.7216 5.94397 9.66457 5.99621 9.59603L9.39988 6.21042V15.4987C9.39988 15.6647 9.46561 15.824 9.58274 15.9414C9.69987 16.0589 9.85882 16.125 10.0246 16.125C10.1905 16.125 10.3494 16.0589 10.4665 15.9414C10.5837 15.824 10.6494 15.6647 10.6494 15.4987V6.21042L14.0594 9.60235C14.177 9.71948 14.3363 9.78501 14.5022 9.78443C14.6681 9.78384 14.8268 9.71717 14.9436 9.59922C15.0604 9.48128 15.1256 9.32173 15.125 9.15568C15.1244 8.98964 15.0581 8.83055 14.9405 8.71344L14.7273 8.5011Z" fill="white" stroke="white" stroke-width="0.25"/>
</svg>
