<svg width="34" height="32" viewBox="0 0 34 32" fill="none" xmlns="http://www.w3.org/2000/svg">
<path d="M16.7871 15.7815C16.2399 15.5822 15.8759 15.0623 15.8759 14.4845C15.8759 13.9076 16.2399 13.3869 16.7823 13.1892L17.6863 12.8629C18.326 12.6331 18.8258 12.1325 19.0564 11.4928L19.3819 10.5928C19.5755 10.0504 20.0963 9.68234 20.678 9.68234C21.255 9.68234 21.7757 10.0464 21.9726 10.5888L22.0216 10.7238V1.28572C22.0216 0.578576 21.4495 0 20.7359 0H11.093C10.3858 0 9.80725 0.578576 9.80725 1.28572V14.548C9.80725 15.2552 10.3858 15.8337 11.093 15.8337H16.9326L16.7871 15.7815ZM12.5033 1.99525H14.6907C15.0459 1.99525 15.3335 2.28292 15.3335 2.63811C15.3335 2.9933 15.0459 3.28097 14.6907 3.28097H12.5033C12.1481 3.28097 11.8604 2.9933 11.8604 2.63811C11.8604 2.28292 12.1481 1.99525 12.5033 1.99525ZM12.5033 4.63335H19.329C19.6841 4.63335 19.9718 4.92102 19.9718 5.27621C19.9718 5.6314 19.6841 5.91907 19.329 5.91907H12.5033C12.1481 5.91907 11.8604 5.6314 11.8604 5.27621C11.8604 4.92102 12.1481 4.63335 12.5033 4.63335ZM12.5033 7.27227H19.329C19.6841 7.27227 19.9718 7.55995 19.9718 7.91514C19.9718 8.27033 19.6841 8.558 19.329 8.558H12.5033C12.1481 8.558 11.8604 8.27033 11.8604 7.91514C11.8604 7.55995 12.1481 7.27227 12.5033 7.27227ZM11.858 10.5557C11.858 10.2005 12.1457 9.91284 12.5009 9.91284H18.3702C18.7254 9.91284 19.013 10.2005 19.013 10.5557C19.013 10.9109 18.7254 11.1986 18.3702 11.1986H12.5009C12.1449 11.1986 11.858 10.9109 11.858 10.5557Z" fill="#1D1D1D"/>
<path d="M20.7639 11.0299L21.0877 11.9291C21.4477 12.9272 22.2336 13.7139 23.2325 14.0739L24.1317 14.3978C24.2129 14.4275 24.2129 14.5416 24.1317 14.5713L23.2325 14.8952C22.2345 15.2552 21.4478 16.0411 21.0877 17.04L20.7639 17.9392C20.7342 18.0203 20.6201 18.0203 20.5903 17.9392L20.2665 17.04C19.9065 16.0419 19.1206 15.2552 18.1217 14.8952L17.2225 14.5713C17.1413 14.5416 17.1413 14.4275 17.2225 14.3978L18.1217 14.0739C19.1197 13.7139 19.9064 12.928 20.2665 11.9291L20.5903 11.0299C20.6201 10.9496 20.735 10.9496 20.7639 11.0299Z" fill="#1D1D1D"/>
<path d="M14.1815 30H13.4428L15.5792 24.1818H16.3065L18.4428 30H17.7042L15.9656 25.1023H15.9201L14.1815 30ZM14.4542 27.7273H17.4315V28.3523H14.4542V27.7273ZM20.0536 24.1818V30H19.3491V24.1818H20.0536Z" fill="#1D1D1D"/>
</svg>
