<svg xmlns="http://www.w3.org/2000/svg" width="33" height="33" viewBox="0 0 33 33" fill="none">
                <path d="M16.5013 5.83464C22.3826 5.83464 27.168 10.62 27.168 16.5013C27.168 22.3826 22.3826 27.168 16.5013 27.168C10.62 27.168 5.83464 22.3826 5.83464 16.5013C5.83464 10.62 10.62 5.83464 16.5013 5.83464ZM16.5013 3.16797C9.1373 3.16797 3.16797 9.1373 3.16797 16.5013C3.16797 23.8653 9.1373 29.8346 16.5013 29.8346C23.8653 29.8346 29.8346 23.8653 29.8346 16.5013C29.8346 9.1373 23.8653 3.16797 16.5013 3.16797ZM23.168 15.168H17.8346V9.83463H15.168V15.168H9.83463V17.8346H15.168V23.168H17.8346V17.8346H23.168V15.168Z" fill="#5F6165" fillOpacity="0.2" />
              </svg>