<svg width="20" height="21" viewBox="0 0 20 21" fill="none" xmlns="http://www.w3.org/2000/svg">
<g clip-path="url(#clip0_3021_42462)">
<path d="M20 10.75C20 13.4022 18.9464 15.9457 17.0711 17.8211C15.1957 19.6964 12.6522 20.75 10 20.75C7.34784 20.75 4.8043 19.6964 2.92893 17.8211C1.05357 15.9457 0 13.4022 0 10.75C0 8.09784 1.05357 5.5543 2.92893 3.67893C4.8043 1.80357 7.34784 0.75 10 0.75C12.6522 0.75 15.1957 1.80357 17.0711 3.67893C18.9464 5.5543 20 8.09784 20 10.75ZM15.0375 6.9625C14.9482 6.87352 14.8419 6.80347 14.7249 6.75652C14.6079 6.70957 14.4827 6.6867 14.3567 6.68926C14.2306 6.69183 14.1064 6.71979 13.9914 6.77146C13.8765 6.82313 13.7731 6.89746 13.6875 6.99L9.34625 12.5212L6.73 9.90375C6.55228 9.73815 6.31722 9.648 6.07435 9.65228C5.83147 9.65657 5.59974 9.75496 5.42797 9.92672C5.25621 10.0985 5.15782 10.3302 5.15353 10.5731C5.14925 10.816 5.2394 11.051 5.405 11.2288L8.7125 14.5375C8.8016 14.6264 8.90771 14.6965 9.02448 14.7436C9.14125 14.7906 9.26631 14.8137 9.39218 14.8113C9.51806 14.809 9.64217 14.7813 9.75712 14.73C9.87207 14.6786 9.9755 14.6047 10.0612 14.5125L15.0513 8.275C15.2214 8.09812 15.3153 7.86159 15.313 7.6162C15.3107 7.3708 15.2122 7.1361 15.0387 6.9625H15.0375Z" fill="#212529"/>
</g>
<defs>
<clipPath id="clip0_3021_42462">
<rect width="20" height="20" fill="white" transform="translate(0 0.75)"/>
</clipPath>
</defs>
</svg>
