<svg width="14" height="13" viewBox="0 0 14 13" fill="none" xmlns="http://www.w3.org/2000/svg">
<path id="icon/action/chrome_reader_mode_24px" fill-rule="evenodd" clip-rule="evenodd" d="M12.7273 0.200195H1.27273C0.572727 0.200195 0 0.867254 0 1.68255V11.3178C0 12.1331 0.572727 12.8002 1.27273 12.8002H12.7273C13.4273 12.8002 14 12.1331 14 11.3178V1.68255C14 0.867254 13.4273 0.200195 12.7273 0.200195ZM13.6706 10.8443C13.6706 11.252 13.3371 11.5855 12.9294 11.5855H7V1.9502H12.9294C13.3371 1.9502 13.6706 2.28372 13.6706 2.69137V10.8443ZM8.29026 4.54785H12.3667C12.6706 4.54785 12.9226 4.79985 12.9226 5.10373C12.9226 5.40762 12.6706 5.65962 12.3667 5.65962H8.29026C7.98637 5.65962 7.73437 5.40762 7.73437 5.10373C7.73437 4.79985 7.98637 4.54785 8.29026 4.54785ZM12.3667 6.39811H8.29026C7.98637 6.39811 7.73437 6.65011 7.73437 6.95399C7.73437 7.25788 7.98637 7.50988 8.29026 7.50988H12.3667C12.6706 7.50988 12.9226 7.25788 12.9226 6.95399C12.9226 6.65011 12.6706 6.39811 12.3667 6.39811ZM8.29026 8.25293H12.3667C12.6706 8.25293 12.9226 8.50493 12.9226 8.80881C12.9226 9.11269 12.6706 9.36469 12.3667 9.36469H8.29026C7.98637 9.36469 7.73437 9.11269 7.73437 8.80881C7.73437 8.50493 7.98637 8.25293 8.29026 8.25293Z" fill="#55565B"/>
</svg>
