<svg width="22" height="23" viewBox="0 0 22 23" fill="none" xmlns="http://www.w3.org/2000/svg">
<path d="M20.1898 7.17993L20.5671 6.55733C20.5671 6.55733 20.8993 6.0066 20.8993 5.26703C20.8993 3.4755 19.1899 3.5228 19.1899 3.5228L15.4656 2.50897L13.4339 0.5L10.7606 1.22783L9.88387 0.989133L9.21763 1.64803L5.36873 2.69597C5.36873 2.69597 3.8874 2.65527 3.8874 4.20773C3.8874 4.84867 4.1756 5.32607 4.1756 5.32607L4.67097 6.14373L4.23573 6.57347L2.08707 7.15867C2.08707 7.15867 0.377667 7.11137 0.377667 8.9029C0.381085 9.3203 0.478725 9.73154 0.6633 10.1059L0 10.7619L0.347967 10.8998C0.355667 10.9185 0.3586 10.9394 0.373633 10.9544C1.04647 11.6287 0.9911 12.5344 0.895033 13.0235L0.4884 13.4309L3.56877 14.9118L7.79937 21.895C8.47733 22.9605 9.9165 22.2939 9.9165 22.2939L20.7878 17.0667L20.3812 16.6594C20.2851 16.1702 20.2297 15.2646 20.9026 14.5899C20.9176 14.5749 20.9205 14.554 20.9282 14.5356L21.2762 14.3974L19.2548 12.3991L21.5758 11.2833L21.2234 10.9302C21.1402 10.5063 21.0921 9.7213 21.6755 9.13683C21.6883 9.12363 21.6905 9.10603 21.6975 9.08953L22 8.96963L20.1898 7.17993ZM18.1053 3.94043L17.6469 4.6657L16.4611 3.4931L18.1053 3.94043ZM13.6312 2.38613L15.3336 4.2059L9.17767 6.43047L7.72383 4.17327L13.6312 2.38613ZM5.03947 6.7524L9.24037 13.6864L1.23713 10.5118L5.03947 6.7524ZM3.28863 7.5103L2.79547 7.99797L2.5982 7.69547L3.28863 7.5103ZM1.7314 7.88943L2.19047 8.596L1.1957 9.5794C1.11743 9.36235 1.0764 9.13363 1.07433 8.9029C1.07433 8.23337 1.40653 7.97853 1.7314 7.88943ZM1.15647 13.3429L1.16197 13.3216L10.3825 17.3575L1.2342 12.9964C1.24263 12.9469 1.24923 12.8922 1.2562 12.8372L8.4183 15.8366L1.28113 12.494C1.28295 12.3413 1.27241 12.1886 1.2496 12.0375L7.87857 14.7674L1.1605 11.6467C1.11738 11.5022 1.05963 11.3625 0.988167 11.2298L10.1119 15.1256L10.3195 15.4681C10.7474 16.1405 11.5236 16.0162 11.9148 15.8996C12.4557 16.1666 13.4251 16.784 13.1769 17.6937C13.046 18.1748 12.7582 18.408 12.2973 18.408C11.8305 18.408 11.3645 18.1638 11.3597 18.1605L1.15647 13.3429ZM10.34 18.1678L9.61913 18.4663L9.0068 17.5265L10.34 18.1678ZM7.5482 20.1409L4.71423 15.4626L7.53097 16.8167L8.86307 18.8671C8.3259 19.0966 7.72567 19.6206 7.5482 20.1409ZM20.027 15.6734C20.0042 15.8245 19.9936 15.9771 19.9954 16.1299L12.8583 19.4724L20.0204 16.4731C20.0273 16.5277 20.0336 16.5827 20.0424 16.6322L10.894 20.9937L20.1146 16.9578C20.1166 16.9649 20.1185 16.972 20.1201 16.9791L9.91687 21.796C9.9121 21.7993 9.4468 22.0435 8.9793 22.0435C8.51803 22.0435 8.23057 21.8099 8.09967 21.3292C7.76307 20.0947 9.67707 19.3947 9.70567 19.3841L11.3832 18.6683C11.5632 18.745 12.8476 19.2491 13.4772 18.2595L13.8743 17.6046L20.2888 14.8656C20.2173 14.9984 20.1595 15.1381 20.1161 15.2825L13.398 18.4032L20.027 15.6734ZM20.0394 14.1477L14.6036 16.4005L16.1121 13.9105L18.5933 12.7177L20.0394 14.1477ZM20.9169 10.0751C20.8974 10.2061 20.8882 10.3384 20.8894 10.4708L14.7044 13.3674L20.9114 10.7681C20.9176 10.8154 20.9227 10.8635 20.9304 10.906L13.0016 14.6856L20.9928 11.188C20.9947 11.194 20.9963 11.2001 20.9975 11.2063L12.1546 15.3815C12.1506 15.3841 11.7469 15.596 11.3421 15.596C10.9421 15.596 10.6931 15.3933 10.5798 14.9767C10.2879 13.9068 11.9467 13.3003 11.9717 13.2912L21.1435 9.37517C21.0816 9.49032 21.0316 9.61145 20.9942 9.7367L15.1716 12.4412L20.9169 10.0751Z" fill="white"/>
</svg>
