<svg width="13" height="12" viewBox="0 0 13 12" fill="none" xmlns="http://www.w3.org/2000/svg">
<path d="M11.2236 0H2.25994C1.30608 0 0.535156 0.770926 0.535156 1.71172V7.82686C0.535156 8.78072 1.30608 9.55164 2.25994 9.55164H5.04311L6.0623 11.59C6.34977 12.1388 7.13376 12.1388 7.42123 11.577L8.44042 9.53858H11.2367C12.1905 9.53858 12.9614 8.76765 12.9614 7.81379V1.71172C12.9484 0.770926 12.1774 0 11.2236 0ZM4.28525 7.57859C3.97166 7.57859 3.72339 7.33033 3.72339 7.01673C3.72339 6.70314 3.97166 6.45487 4.28525 6.45487C4.59885 6.45487 4.84712 6.70314 4.84712 7.01673C4.84712 7.33033 4.58578 7.57859 4.28525 7.57859ZM5.68337 4.52102C5.46124 4.83462 5.22605 4.99142 5.05618 5.10902C4.86018 5.25275 4.76872 5.31808 4.74258 5.64475C4.72952 5.76235 4.62498 5.86688 4.50739 5.86688H4.07619C4.01086 5.86688 3.94552 5.84074 3.89326 5.78848C3.84099 5.73621 3.82793 5.67088 3.82793 5.60555C3.88019 4.87382 4.16766 4.62556 4.52045 4.36423C4.66418 4.25969 4.79485 4.16823 4.93858 3.97223C5.08231 3.77623 5.09538 3.50183 4.97778 3.2797C4.89938 3.1229 4.69032 2.86157 4.20686 2.86157C3.57966 2.86157 3.3706 3.25357 3.31833 3.58023C3.2922 3.69783 3.20073 3.77623 3.08313 3.77623H2.65194C2.5866 3.77623 2.5082 3.7501 2.469 3.69783C2.42981 3.64557 2.40367 3.58023 2.41674 3.5149C2.52127 2.75704 3.057 1.95998 4.21992 1.95998C4.92552 1.95998 5.51351 2.29971 5.80097 2.87464C6.08844 3.42343 6.03617 4.05063 5.68337 4.52102ZM10.4135 7.47406H7.66949C7.42122 7.47406 7.22523 7.27806 7.22523 7.0298C7.22523 6.78154 7.42122 6.58554 7.66949 6.58554H10.4265C10.6748 6.58554 10.8708 6.78154 10.8708 7.0298C10.8708 7.27806 10.6617 7.47406 10.4135 7.47406ZM10.4135 5.21355H7.66949C7.42122 5.21355 7.22523 5.01755 7.22523 4.76929C7.22523 4.52102 7.42122 4.32503 7.66949 4.32503H10.4265C10.6748 4.32503 10.8708 4.52102 10.8708 4.76929C10.8708 5.01755 10.6617 5.21355 10.4135 5.21355ZM10.4135 2.95304H7.66949C7.42122 2.95304 7.22523 2.75704 7.22523 2.50878C7.22523 2.26051 7.42122 2.06451 7.66949 2.06451H10.4265C10.6748 2.06451 10.8708 2.26051 10.8708 2.50878C10.8708 2.75704 10.6617 2.95304 10.4135 2.95304Z" fill="#55565B"/>
</svg>
