<svg width="12" height="11" viewBox="0 0 12 11" fill="none" xmlns="http://www.w3.org/2000/svg">
<path fill-rule="evenodd" clip-rule="evenodd" d="M10.8536 1.35355C11.0488 1.15829 11.0488 0.841709 10.8536 0.646447C10.6583 0.451184 10.3417 0.451184 10.1464 0.646447L6 4.79289L1.85355 0.646447C1.65829 0.451184 1.34171 0.451184 1.14645 0.646447C0.951185 0.841709 0.951185 1.15829 1.14645 1.35355L5.29289 5.5L1.14645 9.64645C0.951185 9.84171 0.951185 10.1583 1.14645 10.3536C1.34171 10.5488 1.65829 10.5488 1.85355 10.3536L6 6.20711L10.1464 10.3536C10.3417 10.5488 10.6583 10.5488 10.8536 10.3536C11.0488 10.1583 11.0488 9.84171 10.8536 9.64645L6.70711 5.5L10.8536 1.35355Z" fill="#5F6165"/>
<path d="M10.8536 0.646447L11.0303 0.46967L11.0303 0.46967L10.8536 0.646447ZM10.8536 1.35355L11.0303 1.53033L11.0303 1.53033L10.8536 1.35355ZM10.1464 0.646447L9.96967 0.46967V0.46967L10.1464 0.646447ZM6 4.79289L5.82322 4.96967L6 5.14645L6.17678 4.96967L6 4.79289ZM1.85355 0.646447L1.67678 0.823223V0.823223L1.85355 0.646447ZM1.14645 0.646447L1.32322 0.823223L1.32322 0.823223L1.14645 0.646447ZM1.14645 1.35355L1.32322 1.17678L1.32322 1.17678L1.14645 1.35355ZM5.29289 5.5L5.46967 5.67678L5.64645 5.5L5.46967 5.32322L5.29289 5.5ZM1.14645 9.64645L0.96967 9.46967L0.969669 9.46967L1.14645 9.64645ZM1.14645 10.3536L0.969669 10.5303L0.96967 10.5303L1.14645 10.3536ZM1.85355 10.3536L2.03033 10.5303H2.03033L1.85355 10.3536ZM6 6.20711L6.17678 6.03033L6 5.85355L5.82322 6.03033L6 6.20711ZM10.1464 10.3536L9.96967 10.5303L10.1464 10.3536ZM10.8536 10.3536L11.0303 10.5303L11.0303 10.5303L10.8536 10.3536ZM10.8536 9.64645L11.0303 9.46967L11.0303 9.46967L10.8536 9.64645ZM6.70711 5.5L6.53033 5.32322L6.35355 5.5L6.53033 5.67678L6.70711 5.5ZM10.6768 0.823223C10.7744 0.920854 10.7744 1.07915 10.6768 1.17678L11.0303 1.53033C11.3232 1.23744 11.3232 0.762563 11.0303 0.46967L10.6768 0.823223ZM10.3232 0.823224C10.4209 0.725592 10.5791 0.725592 10.6768 0.823224L11.0303 0.46967C10.7374 0.176777 10.2626 0.176777 9.96967 0.46967L10.3232 0.823224ZM6.17678 4.96967L10.3232 0.823223L9.96967 0.46967L5.82322 4.61612L6.17678 4.96967ZM1.67678 0.823223L5.82322 4.96967L6.17678 4.61612L2.03033 0.46967L1.67678 0.823223ZM1.32322 0.823223C1.42086 0.725592 1.57915 0.725592 1.67678 0.823223L2.03033 0.46967C1.73744 0.176777 1.26256 0.176777 0.969671 0.46967L1.32322 0.823223ZM1.32322 1.17678C1.22559 1.07915 1.22559 0.920854 1.32322 0.823223L0.969671 0.46967C0.676777 0.762563 0.676777 1.23744 0.969671 1.53033L1.32322 1.17678ZM5.46967 5.32322L1.32322 1.17678L0.969671 1.53033L5.11612 5.67678L5.46967 5.32322ZM1.32322 9.82322L5.46967 5.67678L5.11612 5.32322L0.96967 9.46967L1.32322 9.82322ZM1.32322 10.1768C1.22559 10.0791 1.22559 9.92085 1.32322 9.82322L0.969669 9.46967C0.676777 9.76256 0.676777 10.2374 0.969669 10.5303L1.32322 10.1768ZM1.67678 10.1768C1.57915 10.2744 1.42085 10.2744 1.32322 10.1768L0.96967 10.5303C1.26256 10.8232 1.73744 10.8232 2.03033 10.5303L1.67678 10.1768ZM5.82322 6.03033L1.67678 10.1768L2.03033 10.5303L6.17678 6.38388L5.82322 6.03033ZM10.3232 10.1768L6.17678 6.03033L5.82322 6.38388L9.96967 10.5303L10.3232 10.1768ZM10.6768 10.1768C10.5791 10.2744 10.4209 10.2744 10.3232 10.1768L9.96967 10.5303C10.2626 10.8232 10.7374 10.8232 11.0303 10.5303L10.6768 10.1768ZM10.6768 9.82322C10.7744 9.92085 10.7744 10.0791 10.6768 10.1768L11.0303 10.5303C11.3232 10.2374 11.3232 9.76256 11.0303 9.46967L10.6768 9.82322ZM6.53033 5.67678L10.6768 9.82322L11.0303 9.46967L6.88388 5.32322L6.53033 5.67678ZM10.6768 1.17678L6.53033 5.32322L6.88388 5.67678L11.0303 1.53033L10.6768 1.17678Z" fill="#5F6165"/>
</svg>
