<svg width="18" height="21" viewBox="0 0 18 21" fill="none" xmlns="http://www.w3.org/2000/svg">
<path id="Vector" d="M1.08848 1.42676V1.42686L1.08848 5.13895L1.08848 5.13905C1.08879 5.45548 1.21463 5.75885 1.43838 5.9826C1.66213 6.20635 1.9655 6.33219 2.28193 6.3325H2.28203H2.45541V19.2398L2.45541 19.2399C2.45573 19.5563 2.58157 19.8597 2.80532 20.0834C3.02906 20.3072 3.33244 20.433 3.64886 20.4333H3.64896H14.3511H14.3512C14.6676 20.433 14.971 20.3072 15.1948 20.0834C15.4185 19.8597 15.5444 19.5563 15.5447 19.2399V19.2398V6.3325H15.7181H15.7182C16.0346 6.33219 16.338 6.20635 16.5617 5.9826C16.7855 5.75885 16.9113 5.45548 16.9116 5.13905V5.13895V1.42686V1.42676C16.9113 1.11034 16.7855 0.806962 16.5617 0.583216C16.338 0.359469 16.0346 0.233629 15.7182 0.233313H15.7181L2.28203 0.233313L2.28193 0.233313C1.9655 0.233629 1.66213 0.359469 1.43838 0.583216C1.21463 0.806962 1.08879 1.11034 1.08848 1.42676ZM3.74896 7.77283V6.3325H14.2511V7.77283H12.6259H12.6258C12.3094 7.77314 12.006 7.89898 11.7823 8.12273C11.5585 8.34647 11.4327 8.64985 11.4323 8.96628V8.96638V16.5059V16.506C11.4327 16.8224 11.5585 17.1258 11.7823 17.3495C12.006 17.5733 12.3094 17.6991 12.6258 17.6994H12.6259H14.2511V19.1398H3.74896V17.6994H8.72666H8.72675C9.04318 17.6991 9.34656 17.5733 9.5703 17.3495C9.79405 17.1258 9.91989 16.8224 9.92021 16.506V16.5059V8.96638V8.96628C9.91989 8.64985 9.79405 8.34648 9.5703 8.12273C9.34656 7.89898 9.04318 7.77314 8.72676 7.77283H8.72666H3.74896ZM3.82078 14.8075H6.65222C6.82376 14.8075 6.98827 14.7394 7.10956 14.6181C7.23085 14.4968 7.299 14.3323 7.299 14.1607C7.299 13.9892 7.23085 13.8247 7.10956 13.7034C6.98827 13.5821 6.82376 13.514 6.65222 13.514H3.82078V12.0736H6.65222C6.82376 12.0736 6.98827 12.0055 7.10956 11.8842C7.23085 11.7629 7.299 11.5984 7.299 11.4269C7.299 11.2553 7.23085 11.0908 7.10956 10.9695C6.98827 10.8482 6.82376 10.7801 6.65222 10.7801H3.82078V9.06636L8.62666 9.06559V16.4059H3.82078V14.8075ZM14.2511 9.06638V16.4062L12.7259 16.4067V9.06638H14.2511ZM2.38203 1.52686L15.6181 1.52608V5.03895H2.38203V1.52686Z" fill="#5F6165" stroke="#5F6165" stroke-width="0.2"/>
</svg>
