<svg width="16" height="17" viewBox="0 0 16 17" fill="none" xmlns="http://www.w3.org/2000/svg">
<g id="Vector">
<path d="M5.30705 9.21975H2.78374L3.57428 10.0092C3.89289 10.3278 3.89289 10.8443 3.57428 11.1624C3.41498 11.3217 3.2062 11.4011 2.99742 11.4011C2.78864 11.4011 2.57986 11.3217 2.42055 11.1624L0.239228 8.98052C0.163653 8.90494 0.102759 8.8136 0.061438 8.71302C0.0598069 8.70921 0.0592633 8.70486 0.0576322 8.70106C0.021748 8.60863 0 8.50913 0 8.40365C0 8.29872 0.021748 8.19922 0.0576322 8.10679C0.0592633 8.10299 0.0598069 8.09864 0.061438 8.09429C0.103303 7.9937 0.16311 7.90291 0.239228 7.82733L2.42055 5.64601C2.73916 5.3274 3.25513 5.3274 3.57374 5.64601C3.89235 5.96407 3.89235 6.48113 3.57374 6.79919L2.78429 7.58865H5.30705C5.75724 7.58865 6.1226 7.95347 6.1226 8.4042C6.1226 8.85493 5.75724 9.21975 5.30705 9.21975Z" fill="#8A8A8A"/>
<path d="M7.18445 3.18468L6.39445 3.97467C6.07585 4.29328 5.55933 4.29274 5.24072 3.97413C4.92211 3.65552 4.92211 3.13901 5.24072 2.82094L7.42259 0.639618C7.46065 0.602103 7.50197 0.567849 7.54656 0.537946C7.55689 0.531421 7.56776 0.527072 7.57809 0.521091C7.61289 0.499887 7.64877 0.479227 7.68683 0.463459C7.70151 0.456935 7.71836 0.454216 7.73359 0.448779L7.73984 0.446594C7.77208 0.435316 7.80485 0.42385 7.83907 0.416701C7.8918 0.405827 7.94509 0.400391 8 0.400391C8.05491 0.400391 8.1082 0.405827 8.16094 0.416701C8.19791 0.424313 8.2327 0.437361 8.26696 0.449323C8.28218 0.454216 8.29849 0.456935 8.31317 0.463459C8.35177 0.47977 8.3882 0.500431 8.42354 0.522179C8.43333 0.52816 8.44366 0.531966 8.45345 0.53849C8.49803 0.568394 8.5399 0.602103 8.57741 0.640162L10.7587 2.82149C11.0773 3.14009 11.0773 3.65661 10.7587 3.97467C10.5994 4.13398 10.3906 4.21336 10.1819 4.21336C9.97309 4.21336 9.76431 4.13398 9.605 3.97467L8.81555 3.18468V5.70799C8.81555 6.15872 8.45018 6.52354 8 6.52354C7.54982 6.52354 7.18445 6.15872 7.18445 5.70799V3.18468Z" fill="#8A8A8A"/>
<path d="M8.81555 13.6161L9.605 12.8267C9.92361 12.508 10.4396 12.508 10.7593 12.8261C11.0779 13.1442 11.0779 13.6607 10.7593 13.9793L8.57795 16.1606C8.53989 16.1987 8.49857 16.2324 8.45399 16.2623C8.4442 16.2688 8.43387 16.2726 8.42409 16.2786C8.38875 16.3004 8.35232 16.3216 8.31371 16.3373C8.29904 16.3433 8.28272 16.346 8.2675 16.3515C8.23325 16.364 8.19845 16.3765 8.16148 16.3841C8.10874 16.395 8.05546 16.4004 8.00054 16.4004C7.94563 16.4004 7.89235 16.395 7.83961 16.3841C7.80539 16.3769 7.77262 16.3655 7.74038 16.3542L7.73413 16.352C7.71891 16.3466 7.70205 16.3438 7.68737 16.3373C7.64931 16.3216 7.61343 16.3009 7.57863 16.2797C7.5683 16.2737 7.55743 16.2694 7.5471 16.2628C7.50251 16.2329 7.46065 16.1992 7.42313 16.1612L5.24127 13.9798C4.92266 13.6618 4.92266 13.1453 5.24127 12.8267C5.55988 12.508 6.07585 12.508 6.39445 12.8267L7.18445 13.6166V11.0933C7.18445 10.6426 7.54982 10.2778 8 10.2778C8.45018 10.2778 8.81555 10.6426 8.81555 11.0933V13.6161Z" fill="#8A8A8A"/>
<path d="M15.9424 8.70214C15.9407 8.70595 15.9402 8.7103 15.9386 8.71411C15.8967 8.81469 15.8363 8.90549 15.7613 8.98215L13.58 11.164C13.4207 11.3233 13.2119 11.4027 13.0031 11.4027C12.7943 11.4027 12.5856 11.3233 12.4263 11.164C12.1077 10.846 12.1077 10.3294 12.4263 10.0108L13.2163 9.22083H10.6929C10.2428 9.22083 9.8774 8.85601 9.8774 8.40528C9.8774 7.95456 10.2428 7.58973 10.6929 7.58973H13.2157L12.4263 6.79974C12.1077 6.48113 12.1077 5.96461 12.4263 5.64655C12.7449 5.32794 13.2608 5.32794 13.5794 5.64655L15.7608 7.82787C15.8363 7.90345 15.8972 7.99425 15.9386 8.09538C15.9402 8.09918 15.9407 8.10353 15.9424 8.10734C15.9783 8.19977 16 8.29981 16 8.40474C16 8.50968 15.9783 8.60971 15.9424 8.70214Z" fill="#8A8A8A"/>
</g>
</svg>
