<svg xmlns="http://www.w3.org/2000/svg" width="12" height="18" viewBox="0 0 12 18" fill="none">
  <path fill-rule="evenodd" clip-rule="evenodd" d="M0.789057 18C0.353119 18 0 17.6469 0 17.2109C0 16.775 0.353119 16.4219 0.789057 16.4219H10.2436C10.6788 16.4219 11.0311 16.775 11.0311 17.2109C11.0311 17.6469 10.678 18 10.2436 18H0.789057ZM0.342959 10.6782L4.69614 3.13846L8.88512 5.55725L4.53194 13.097L0.342959 10.6782ZM5.15534 2.34307L9.34292 4.76186L9.91792 3.76732C10.5296 2.70639 10.382 1.70713 9.86089 1.00173C9.45855 0.456415 8.82573 0.0907963 8.15307 0.0150167C7.28042 -0.0826389 6.34058 0.288456 5.72728 1.35017L5.15463 2.34313L5.15534 2.34307ZM3.91002 13.797L0.0482401 11.5674L0.00136604 15.2776C-0.0166027 15.6815 0.395124 15.8846 0.693543 15.7081L3.90913 13.7964L3.91002 13.797Z" fill="#55565B"/>
</svg>