<svg width="20" height="20" viewBox="0 0 20 20" fill="none" xmlns="http://www.w3.org/2000/svg">
<g id="Group 1261156653">
<path id="Vector" d="M19.6774 3.55025C19.6774 1.59116 18.0871 0 16.129 0H3.54839C1.59032 0 0 1.59116 0 3.55025V16.1375C0 18.0966 1.59032 19.6877 3.54839 19.6877H5.16129C5.69355 19.6877 6.12903 19.252 6.12903 18.7195C6.12903 18.187 5.69355 17.7512 5.16129 17.7512H3.54839C2.65806 17.7512 1.93548 17.0283 1.93548 16.1375V3.55025C1.93548 2.65946 2.65806 1.9365 3.54839 1.9365H16.129C17.0194 1.9365 17.7419 2.65946 17.7419 3.55025V5.164C17.7419 5.69653 18.1774 6.13225 18.7097 6.13225C19.2419 6.13225 19.6774 5.69653 19.6774 5.164V3.55025Z" fill="#5F6165"/>
<path id="Vector_2" d="M19.7157 18.3579L16.848 15.4887L16.9802 15.2724C17.477 14.4591 17.7415 13.5296 17.7415 12.5872C17.7415 9.7405 15.4254 7.42316 12.5802 7.42316C9.73507 7.42316 7.41895 9.7405 7.41895 12.5872C7.41895 15.4338 9.73507 17.7512 12.5802 17.7512C13.5222 17.7512 14.448 17.4865 15.2641 16.9895L15.4802 16.8571L18.348 19.7264C18.7125 20.0911 19.3512 20.0911 19.7157 19.7264C19.8996 19.5424 19.9996 19.3004 19.9996 19.0422C19.9996 18.784 19.8996 18.5419 19.7157 18.3579ZM12.5802 15.8147C10.8028 15.8147 9.35443 14.3655 9.35443 12.5872C9.35443 10.8088 10.8028 9.35966 12.5802 9.35966C14.3577 9.35966 15.806 10.8088 15.806 12.5872C15.806 14.3655 14.3577 15.8147 12.5802 15.8147Z" fill="#5F6165"/>
</g>
</svg>
