<svg xmlns="http://www.w3.org/2000/svg" width="16" height="16" viewBox="0 0 16 16" fill="none">
<path fill-rule="evenodd" clip-rule="evenodd" d="M12.1379 0C12.3955 0 12.6188 0.172285 12.6759 0.415077L12.9812 1.71278C13.1224 2.31301 13.6072 2.78171 14.2282 2.91819L15.5706 3.21328C15.8218 3.26848 16 3.48435 16 3.73333C16 3.98232 15.8218 4.19819 15.5706 4.25339L14.2282 4.54848C13.6072 4.68496 13.1224 5.15365 12.9812 5.75389L12.6759 7.0516C12.6188 7.29437 12.3955 7.46667 12.1379 7.46667C11.8804 7.46667 11.657 7.29437 11.5999 7.0516L11.2947 5.75389C11.1535 5.15365 10.6686 4.68496 10.0477 4.54848L8.70524 4.25339C8.4541 4.19819 8.27586 3.98232 8.27586 3.73333C8.27586 3.48435 8.4541 3.26848 8.70524 3.21328L10.0477 2.91819C10.6686 2.78171 11.1535 2.31301 11.2947 1.71278L11.5999 0.415077C11.657 0.172285 11.8804 0 12.1379 0ZM12.1379 2.57024C11.8738 3.07045 11.4522 3.47805 10.9347 3.73333C11.4522 3.98861 11.8738 4.39621 12.1379 4.89643C12.402 4.39621 12.8237 3.98861 13.3411 3.73333C12.8237 3.47805 12.402 3.07045 12.1379 2.57024Z" fill="#55565B"/>
<path fill-rule="evenodd" clip-rule="evenodd" d="M8.87945 5.6C8.04882 5.6 7.3622 6.24955 7.3622 7.06667C7.3622 7.88379 8.04882 8.53333 8.87945 8.53333C9.71009 8.53333 10.3967 7.88379 10.3967 7.06667C10.3967 6.24955 9.71009 5.6 8.87945 5.6ZM8.43263 7.06667C8.43263 6.84059 8.62535 6.64445 8.87945 6.64445C9.13357 6.64445 9.32629 6.84059 9.32629 7.06667C9.32629 7.29275 9.13357 7.48888 8.87945 7.48888C8.62535 7.48888 8.43263 7.29275 8.43263 7.06667Z" fill="#55565B"/>
<path fill-rule="evenodd" clip-rule="evenodd" d="M2.2069 3.2H7.56331C7.48905 3.36432 7.44828 3.54504 7.44828 3.73333C7.44828 3.92163 7.48905 4.10235 7.56331 4.26667H2.2069C1.59748 4.26667 1.10345 4.74424 1.10345 5.33333V9.87245C3.53172 9.27867 5.9813 9.91107 7.75619 11.376C8.9288 10.6507 10.3112 10.4705 11.5862 10.7748V8.15547C11.7562 8.22725 11.9431 8.26667 12.1379 8.26667C12.3327 8.26667 12.5197 8.22725 12.6897 8.15547V11.5013C12.6898 11.5094 12.6898 11.5174 12.6897 11.5255V13.8667C12.6897 15.0449 11.7016 16 10.4828 16H2.2069C0.988061 16 0 15.0449 0 13.8667V5.33333C0 4.15512 0.988061 3.2 2.2069 3.2ZM1.10345 10.9574V13.8667C1.10345 14.4558 1.59748 14.9333 2.2069 14.9333H8.94982C7.88337 11.842 4.52607 10.0702 1.24929 10.9383C1.20059 10.9513 1.15162 10.9574 1.10345 10.9574ZM10.1039 14.9333H10.4828C11.0922 14.9333 11.5862 14.4558 11.5862 13.8667V11.8829C10.5945 11.5739 9.50383 11.651 8.56326 12.1524C9.26006 12.9338 9.79517 13.873 10.1039 14.9333Z" fill="#55565B"/>
</svg>