<svg width="29" height="30" viewBox="0 0 29 30" fill="none" xmlns="http://www.w3.org/2000/svg">
<path d="M26.0389 9.23077H2.96199C2.35014 9.23138 1.76352 9.47471 1.33088 9.90735C0.898235 10.34 0.654908 10.9266 0.654297 11.5385V27.6923C0.654908 28.3042 0.898235 28.8908 1.33088 29.3234C1.76352 29.7561 2.35014 29.9994 2.96199 30H26.0389C26.6508 29.9994 27.2374 29.7561 27.67 29.3234C28.1027 28.8908 28.346 28.3042 28.3466 27.6923V11.5385C28.346 10.9266 28.1027 10.34 27.67 9.90735C27.2374 9.47471 26.6508 9.23138 26.0389 9.23077ZM11.0389 24.2308V15L19.1158 19.6154L11.0389 24.2308Z" fill="black" fill-opacity="0.5"/>
<path d="M2.96199 4.61538H26.0389V6.92308H2.96199V4.61538Z" fill="black" fill-opacity="0.5"/>
<path d="M5.26968 0H23.7312V2.30769H5.26968V0Z" fill="black" fill-opacity="0.5"/>
</svg>
