<svg width="30" height="30" viewBox="0 0 30 30" fill="none" xmlns="http://www.w3.org/2000/svg">
<path d="M22.5 15C22.5 16.9891 21.7098 18.8968 20.3033 20.3033C18.8968 21.7098 16.9891 22.5 15 22.5C13.0109 22.5 11.1032 21.7098 9.6967 20.3033C8.29018 18.8968 7.5 16.9891 7.5 15C7.5 13.0109 8.29018 11.1032 9.6967 9.6967C11.1032 8.29018 13.0109 7.5 15 7.5C16.9891 7.5 18.8968 8.29018 20.3033 9.6967C21.7098 11.1032 22.5 13.0109 22.5 15ZM15.9375 4.6875C15.9375 4.93614 15.8387 5.1746 15.6629 5.35041C15.4871 5.52623 15.2486 5.625 15 5.625C14.7514 5.625 14.5129 5.52623 14.3371 5.35041C14.1613 5.1746 14.0625 4.93614 14.0625 4.6875C14.0625 4.43886 14.1613 4.2004 14.3371 4.02459C14.5129 3.84877 14.7514 3.75 15 3.75C15.2486 3.75 15.4871 3.84877 15.6629 4.02459C15.8387 4.2004 15.9375 4.43886 15.9375 4.6875ZM15.9375 25.3125C15.9375 25.5611 15.8387 25.7996 15.6629 25.9754C15.4871 26.1512 15.2486 26.25 15 26.25C14.7514 26.25 14.5129 26.1512 14.3371 25.9754C14.1613 25.7996 14.0625 25.5611 14.0625 25.3125C14.0625 25.0639 14.1613 24.8254 14.3371 24.6496C14.5129 24.4738 14.7514 24.375 15 24.375C15.2486 24.375 15.4871 24.4738 15.6629 24.6496C15.8387 24.8254 15.9375 25.0639 15.9375 25.3125ZM25.3125 15.9375C25.0639 15.9375 24.8254 15.8387 24.6496 15.6629C24.4738 15.4871 24.375 15.2486 24.375 15C24.375 14.7514 24.4738 14.5129 24.6496 14.3371C24.8254 14.1613 25.0639 14.0625 25.3125 14.0625C25.5611 14.0625 25.7996 14.1613 25.9754 14.3371C26.1512 14.5129 26.25 14.7514 26.25 15C26.25 15.2486 26.1512 15.4871 25.9754 15.6629C25.7996 15.8387 25.5611 15.9375 25.3125 15.9375ZM4.6875 15.9375C4.43886 15.9375 4.2004 15.8387 4.02459 15.6629C3.84877 15.4871 3.75 15.2486 3.75 15C3.75 14.7514 3.84877 14.5129 4.02459 14.3371C4.2004 14.1613 4.43886 14.0625 4.6875 14.0625C4.93614 14.0625 5.1746 14.1613 5.35041 14.3371C5.52623 14.5129 5.625 14.7514 5.625 15C5.625 15.2486 5.52623 15.4871 5.35041 15.6629C5.1746 15.8387 4.93614 15.9375 4.6875 15.9375ZM22.9556 8.37C22.8691 8.45954 22.7657 8.53096 22.6513 8.5801C22.5369 8.62923 22.4139 8.65509 22.2894 8.65617C22.165 8.65725 22.0415 8.63353 21.9263 8.5864C21.8111 8.53926 21.7064 8.46965 21.6184 8.38162C21.5304 8.2936 21.4607 8.18892 21.4136 8.07371C21.3665 7.95849 21.3427 7.83504 21.3438 7.71056C21.3449 7.58608 21.3708 7.46306 21.4199 7.34868C21.469 7.2343 21.5405 7.13086 21.63 7.04437C21.8068 6.8736 22.0436 6.77911 22.2894 6.78124C22.5352 6.78338 22.7704 6.88197 22.9442 7.05579C23.118 7.22961 23.2166 7.46475 23.2188 7.71056C23.2209 7.95637 23.1264 8.19319 22.9556 8.37ZM8.37 22.9556C8.28352 23.0452 8.18007 23.1166 8.06569 23.1657C7.95131 23.2149 7.82829 23.2407 7.70381 23.2418C7.57933 23.2429 7.45588 23.2192 7.34067 23.172C7.22545 23.1249 7.12078 23.0553 7.03275 22.9672C6.94473 22.8792 6.87512 22.7745 6.82798 22.6593C6.78084 22.5441 6.75712 22.4207 6.7582 22.2962C6.75928 22.1717 6.78515 22.0487 6.83428 21.9343C6.88341 21.8199 6.95483 21.7165 7.04437 21.63C7.22119 21.4592 7.458 21.3647 7.70381 21.3669C7.94962 21.369 8.18476 21.4676 8.35858 21.6414C8.5324 21.8152 8.631 22.0504 8.63313 22.2962C8.63527 22.542 8.54077 22.7788 8.37 22.9556ZM21.63 22.9556C21.5405 22.8691 21.469 22.7657 21.4199 22.6513C21.3708 22.5369 21.3449 22.4139 21.3438 22.2894C21.3427 22.165 21.3665 22.0415 21.4136 21.9263C21.4607 21.8111 21.5304 21.7064 21.6184 21.6184C21.7064 21.5304 21.8111 21.4607 21.9263 21.4136C22.0415 21.3665 22.165 21.3427 22.2894 21.3438C22.4139 21.3449 22.5369 21.3708 22.6513 21.4199C22.7657 21.469 22.8691 21.5405 22.9556 21.63C23.1264 21.8068 23.2209 22.0436 23.2188 22.2894C23.2166 22.5352 23.118 22.7704 22.9442 22.9442C22.7704 23.118 22.5352 23.2166 22.2894 23.2188C22.0436 23.2209 21.8068 23.1264 21.63 22.9556ZM7.04437 8.37C6.95483 8.28352 6.88341 8.18007 6.83428 8.06569C6.78515 7.95131 6.75928 7.82829 6.7582 7.70381C6.75712 7.57933 6.78084 7.45588 6.82798 7.34067C6.87512 7.22545 6.94473 7.12078 7.03275 7.03275C7.12078 6.94473 7.22545 6.87512 7.34067 6.82798C7.45588 6.78084 7.57933 6.75712 7.70381 6.7582C7.82829 6.75928 7.95131 6.78515 8.06569 6.83428C8.18007 6.88341 8.28352 6.95483 8.37 7.04437C8.54077 7.22119 8.63527 7.458 8.63313 7.70381C8.631 7.94962 8.5324 8.18476 8.35858 8.35858C8.18476 8.5324 7.94962 8.631 7.70381 8.63313C7.458 8.63527 7.22119 8.54077 7.04437 8.37Z" fill="white"/>
</svg>
