<svg width="66" height="67" viewBox="0 0 66 67" fill="none" xmlns="http://www.w3.org/2000/svg">
<g filter="url(#filter0_dd_2668_9454)">
<rect x="1" y="1" width="64" height="64" rx="12" fill="white"/>
<g clip-path="url(#clip0_2668_9454)">
<path fill-rule="evenodd" clip-rule="evenodd" d="M32.7916 29.7089L35.3781 37.135C37.8977 37.8443 39.5235 36.9955 39.1952 34.7674C38.8978 32.7457 38.2678 30.6821 36.9504 28.8542C35.8526 27.3304 33.7841 27.8408 32.7916 29.7089Z" fill="#DAFF00"/>
<path fill-rule="evenodd" clip-rule="evenodd" d="M24.6093 26.2534L30.8333 24.0863L31.2911 25.4004C33.9971 21.433 38.0172 20.8707 40.4826 23.1272C44.156 26.489 46.8319 32.4782 45.6029 37.8309C44.831 41.1943 40.5569 42.5761 36.9529 41.6588L42.1426 56.5613C39.8526 56.8988 37.191 55.7551 34.9879 52.3039L33.8676 52.8395L24.6093 26.2534ZM32.7916 29.7088L35.3781 37.135C37.8977 37.8442 39.5235 36.9954 39.1952 34.7673C38.8977 32.7456 38.2678 30.6821 36.9503 28.8541C35.8526 27.3303 33.7841 27.8408 32.7916 29.7088Z" fill="#1CABF2"/>
<path fill-rule="evenodd" clip-rule="evenodd" d="M17.7387 28.6027L23.5416 26.5818L28.2451 40.0874C30.1031 45.4217 26.5183 49.4008 21.9476 50.9923C17.377 52.5838 12.0962 51.6924 10.239 46.3582L8.0769 40.1492L11.3393 30.8316L16.011 44.2462C16.8632 46.6915 18.986 46.598 20.2634 46.1535C21.5399 45.7091 23.2626 44.4634 22.4113 42.0181L17.7395 28.6035L17.7387 28.6027Z" fill="#F9993A"/>
<path fill-rule="evenodd" clip-rule="evenodd" d="M47.4125 32.5025C47.836 35.2845 50.4576 35.8017 52.3089 34.1667C55.634 31.231 60.7769 32.8041 61 38.1451C60.7777 43.486 55.644 45.0583 52.3181 42.1226C50.4083 40.4375 47.6748 41.0382 47.3799 44.0508L47.4125 32.5017V32.5025Z" fill="#1CABF2"/>
<path fill-rule="evenodd" clip-rule="evenodd" d="M21.3862 18.6343C24.5509 18.4304 25.2083 15.6284 23.4907 13.6818C20.5558 10.356 22.1281 5.22223 27.469 5C32.81 5.22306 34.3831 10.3652 31.4474 13.691C29.7681 15.5933 30.3605 18.3076 33.3463 18.6167L21.3862 18.6343Z" fill="#F9993A"/>
<path fill-rule="evenodd" clip-rule="evenodd" d="M47.4125 32.5024L47.3799 44.0515L47.3632 49.8118C47.3465 55.6983 42.1309 56.5629 42.1426 56.5613L36.9529 41.6588C40.5569 42.5761 44.831 41.1943 45.603 37.8308C45.9756 36.2093 45.9889 34.5292 45.7249 32.8809L47.4125 32.5024Z" fill="#99FFFF"/>
<path fill-rule="evenodd" clip-rule="evenodd" d="M24.6093 26.2534L33.8676 52.8394L20.2801 59.3324C17.8156 60.5104 15.3293 61.3634 13.1589 59.4252L6.64248 53.6072C4.87887 52.0324 4.63743 49.9739 5.43444 47.6965L8.07608 40.15L10.2382 46.359C12.0962 51.6932 17.377 52.5846 21.9468 50.9931C26.5175 49.4016 30.1023 45.4225 28.2443 40.0882L23.5408 26.5826L24.6085 26.2534H24.6093Z" fill="#99CCCC"/>
<path fill-rule="evenodd" clip-rule="evenodd" d="M17.7387 28.6026L22.4104 42.0172C23.2626 44.4634 21.5391 45.7082 20.2625 46.1526C18.986 46.5971 16.8623 46.6915 16.0102 44.2453L11.3384 30.8307L17.7387 28.6018V28.6026Z" fill="#DAFF00"/>
<path fill-rule="evenodd" clip-rule="evenodd" d="M11.2507 18.6493L21.3862 18.6342L33.3463 18.6167L31.2911 25.4004L30.8333 24.0863L24.6093 26.2534L23.5416 26.5826L17.7387 28.6035L11.3384 30.8324L7.6433 28.0554C4.16623 25.4422 6.84964 18.6568 11.2499 18.6501L11.2507 18.6493Z" fill="#15E879"/>
<path fill-rule="evenodd" clip-rule="evenodd" d="M33.3463 18.6168L42.5536 18.6034C45.3523 18.5992 47.4468 20.5266 47.4409 22.7956L47.4133 32.5025L45.7258 32.881C45.1209 29.0864 43.0449 25.4723 40.4826 23.1273C38.0181 20.8716 33.9971 21.433 31.2911 25.4005L33.3463 18.6168Z" fill="#FF6666"/>
</g>
</g>
<defs>
<filter id="filter0_dd_2668_9454" x="0" y="0" width="66" height="67" filterUnits="userSpaceOnUse" color-interpolation-filters="sRGB">
<feFlood flood-opacity="0" result="BackgroundImageFix"/>
<feColorMatrix in="SourceAlpha" type="matrix" values="0 0 0 0 0 0 0 0 0 0 0 0 0 0 0 0 0 0 127 0" result="hardAlpha"/>
<feOffset/>
<feGaussianBlur stdDeviation="0.5"/>
<feComposite in2="hardAlpha" operator="out"/>
<feColorMatrix type="matrix" values="0 0 0 0 0 0 0 0 0 0 0 0 0 0 0 0 0 0 0.25 0"/>
<feBlend mode="normal" in2="BackgroundImageFix" result="effect1_dropShadow_2668_9454"/>
<feColorMatrix in="SourceAlpha" type="matrix" values="0 0 0 0 0 0 0 0 0 0 0 0 0 0 0 0 0 0 127 0" result="hardAlpha"/>
<feOffset dy="1"/>
<feGaussianBlur stdDeviation="0.5"/>
<feComposite in2="hardAlpha" operator="out"/>
<feColorMatrix type="matrix" values="0 0 0 0 0 0 0 0 0 0 0 0 0 0 0 0 0 0 0.1 0"/>
<feBlend mode="normal" in2="effect1_dropShadow_2668_9454" result="effect2_dropShadow_2668_9454"/>
<feBlend mode="normal" in="SourceGraphic" in2="effect2_dropShadow_2668_9454" result="shape"/>
</filter>
<clipPath id="clip0_2668_9454">
<rect width="56" height="55.5731" fill="white" transform="translate(5 5)"/>
</clipPath>
</defs>
</svg>
