<svg width="10" height="14" viewBox="0 0 10 14" fill="none" xmlns="http://www.w3.org/2000/svg">
<path fill-rule="evenodd" clip-rule="evenodd" d="M5.6 11.1445V12.6005H7.0735C7.4186 12.6005 7.7 12.8819 7.7 13.227V13.3747C7.7 13.7191 7.4186 14.0005 7.0735 14.0005H2.7265C2.3814 14.0005 2.1 13.7191 2.1 13.3747V13.227C2.1 12.8819 2.3814 12.6005 2.7265 12.6005H4.2V11.1445C1.8291 10.8029 0 8.7645 0 6.3005C0 5.9141 0.3129 5.6005 0.7 5.6005C1.0871 5.6005 1.4 5.9141 1.4 6.3005C1.4 8.2304 2.9701 9.8005 4.9 9.8005C6.8299 9.8005 8.4 8.2304 8.4 6.3005C8.4 5.9141 8.7129 5.6005 9.1 5.6005C9.4871 5.6005 9.8 5.9141 9.8 6.3005C9.8 8.7645 7.9709 10.8029 5.6 11.1445V11.1445ZM3.5 2.7995C3.5 2.0274 4.1279 1.3995 4.9 1.3995C5.6721 1.3995 6.3 2.0274 6.3 2.7995V6.2995C6.3 7.0716 5.6721 7.6995 4.9 7.6995C4.1279 7.6995 3.5 7.0716 3.5 6.2995V2.7995ZM4.89988 9.1C6.44408 9.1 7.69988 7.8442 7.69988 6.3V2.8C7.69988 1.2565 6.44408 0 4.89988 0C3.35568 0 2.09988 1.2565 2.09988 2.8V6.3C2.09988 7.8442 3.35568 9.1 4.89988 9.1V9.1Z" fill="#747475"/>
</svg>
