<svg width="19" height="18" viewBox="0 0 19 18" fill="none" xmlns="http://www.w3.org/2000/svg">
<rect x="1.00391" y="0.25" width="17.5" height="17.5" rx="8.75" stroke="#1D1D1D" stroke-width="0.5"/>
<path d="M9.76784 5.62944C9.54007 5.62944 9.34734 5.55059 9.18966 5.3929C9.03197 5.23522 8.95312 5.04249 8.95312 4.81472C8.95312 4.58695 9.03197 4.39422 9.18966 4.23653C9.34734 4.07884 9.54007 4 9.76784 4C9.98685 4 10.1708 4.07884 10.3197 4.23653C10.4774 4.39422 10.5563 4.58695 10.5563 4.81472C10.5563 5.04249 10.4774 5.23522 10.3197 5.3929C10.1708 5.55059 9.98685 5.62944 9.76784 5.62944ZM10.346 6.79895V14H9.15023V6.79895H10.346Z" fill="black"/>
</svg>
