<svg width="25" height="31" viewBox="0 0 25 31" fill="none" xmlns="http://www.w3.org/2000/svg">
<path d="M6.90053 19.5201C6.62453 19.5201 6.43853 19.5471 6.34253 19.5741V21.3411C6.45653 21.3681 6.59903 21.3756 6.79553 21.3756C7.51403 21.3756 7.95653 21.0126 7.95653 20.3991C7.95653 19.8501 7.57553 19.5201 6.90053 19.5201ZM12.131 19.5381C11.831 19.5381 11.636 19.5651 11.5205 19.5921V23.5071C11.636 23.5341 11.822 23.5341 11.99 23.5341C13.2155 23.5431 14.0135 22.8681 14.0135 21.4401C14.0225 20.1951 13.295 19.5381 12.131 19.5381Z" fill="#1D1D1D" fill-opacity="0.5"/>
<path d="M15.5 0.5H3.5C2.70435 0.5 1.94129 0.81607 1.37868 1.37868C0.81607 1.94129 0.5 2.70435 0.5 3.5V27.5C0.5 28.2956 0.81607 29.0587 1.37868 29.6213C1.94129 30.1839 2.70435 30.5 3.5 30.5H21.5C22.2956 30.5 23.0587 30.1839 23.6213 29.6213C24.1839 29.0587 24.5 28.2956 24.5 27.5V9.5L15.5 0.5ZM8.747 21.785C8.2835 22.22 7.5995 22.415 6.803 22.415C6.64856 22.4167 6.49419 22.4077 6.341 22.388V24.527H5V18.623C5.60518 18.5327 6.21668 18.4916 6.8285 18.5C7.664 18.5 8.258 18.659 8.6585 18.9785C9.0395 19.2815 9.2975 19.778 9.2975 20.363C9.296 20.951 9.101 21.4475 8.747 21.785ZM14.4575 23.8175C13.8275 24.341 12.869 24.59 11.6975 24.59C10.9955 24.59 10.499 24.545 10.1615 24.5V18.6245C10.7669 18.5361 11.3782 18.4945 11.99 18.5C13.1255 18.5 13.8635 18.704 14.4395 19.139C15.062 19.601 15.452 20.3375 15.452 21.395C15.452 22.5395 15.0335 23.33 14.4575 23.8175ZM20 19.655H17.702V21.0215H19.85V22.1225H17.702V24.5285H16.343V18.545H20V19.655ZM14 11V3.5L21.5 11H14Z" fill="#1D1D1D" fill-opacity="0.5"/>
</svg>
