<svg width="22" height="22" viewBox="0 0 22 22" fill="none" xmlns="http://www.w3.org/2000/svg">
<path d="M20.3139 21.7921L20.0269 21.0992C19.7865 21.1988 19.5289 21.25 19.2687 21.25H15.8126C15.7771 21.25 15.7431 21.2359 15.718 21.2108C15.6928 21.1857 15.6787 21.1516 15.6787 21.1161V20.0883C15.6787 18.6252 14.4806 17.3571 13.0124 17.3222C12.2513 17.3035 11.4963 17.5725 10.9564 18.0974C10.7329 18.3113 10.555 18.5683 10.4336 18.853C10.3118 19.1386 10.2494 19.446 10.2502 19.7564M20.3139 21.7921L17.9907 14.9166C17.7294 14.6531 17.5227 14.3406 17.3825 13.9969C17.2424 13.6532 17.1716 13.2852 17.1742 12.914L17.1743 12.9087C17.1944 11.4863 18.3576 10.2502 19.7946 10.2502H21.1161C21.1516 10.2502 21.1857 10.2361 21.2108 10.211L21.7388 10.739L21.2108 10.211C21.2359 10.1859 21.25 10.1519 21.25 10.1163V6.66026C21.25 6.40007 21.1988 6.14243 21.0992 5.90205C20.9996 5.66167 20.8537 5.44326 20.6697 5.25928L21.2 4.72895L20.6697 5.25928C20.2981 4.88772 19.7942 4.67898 19.2687 4.67898H16.5561C16.253 4.67898 15.9623 4.55857 15.748 4.34424C15.5337 4.12992 15.4133 3.83923 15.4133 3.53613V3.21792C15.4133 2.89018 15.348 2.56573 15.2212 2.26349C15.0945 1.96126 14.9088 1.68729 14.675 1.45759C14.4413 1.22789 14.1641 1.04705 13.8597 0.925626C13.5553 0.804203 13.2297 0.744629 12.902 0.75038L12.902 0.750381C11.5771 0.773525 10.4784 1.89248 10.4784 3.2577V3.53613C10.4784 3.83923 10.358 4.12992 10.1437 4.34425C9.92935 4.55857 9.63866 4.67898 9.33556 4.67898H6.62294C6.36765 4.67898 6.11487 4.72926 5.87902 4.82695C5.64317 4.92465 5.42887 5.06784 5.24835 5.24835C5.06784 5.42886 4.92465 5.64316 4.82696 5.87901C4.72926 6.11487 4.67898 6.36765 4.67898 6.62294V9.33555C4.67898 9.63866 4.55857 9.92934 4.34425 10.1437C4.12992 10.358 3.83924 10.4784 3.53613 10.4784H3.25819C1.85766 10.4784 0.7505 11.5849 0.7505 12.9026C0.7505 14.2957 1.86738 15.4133 3.21793 15.4133H3.53613C3.83924 15.4133 4.12992 15.5337 4.34425 15.748C4.55857 15.9623 4.67898 16.253 4.67898 16.5561V19.306C4.67898 19.5613 4.72926 19.8141 4.82696 20.05C4.92465 20.2858 5.06784 20.5001 5.24835 20.6806C5.42887 20.8611 5.64317 21.0043 5.87902 21.102C6.11487 21.1997 6.36765 21.25 6.62294 21.25H10.1163C10.1519 21.25 10.1859 21.2359 10.211 21.2108C10.2361 21.1857 10.2502 21.1516 10.2502 21.1161V19.7564M20.3139 21.7921L20.0269 21.0992C20.2673 20.9996 20.4857 20.8537 20.6697 20.6697M20.3139 21.7921L20.6697 20.6697M10.2502 19.7564C10.2502 19.7569 10.2503 19.7573 10.2503 19.7577L11.0002 19.7554H10.2502V19.7564ZM20.6697 20.6697C21.0413 20.2981 21.25 19.7942 21.25 19.2687M20.6697 20.6697L21.25 19.2687M21.25 19.2687V15.8126M21.25 19.2687V15.8126M21.25 15.8126C21.25 15.7771 21.2359 15.7431 21.2108 15.718M21.25 15.8126L21.2108 15.718M21.2108 15.718C21.1857 15.6928 21.1516 15.6787 21.1161 15.6787M21.2108 15.718L21.1161 15.6787M21.1161 15.6787H19.7554M21.1161 15.6787H19.7554M19.7554 15.6787C19.0858 15.6787 18.4618 15.3917 17.9909 14.9168L19.7554 15.6787Z" stroke="white" stroke-width="1.5"/>
</svg>
