<svg width="31" height="31" viewBox="0 0 31 31" fill="none" xmlns="http://www.w3.org/2000/svg">
<path d="M5 18.9058V16.6558H7.25V18.9058H5Z" fill="white" fill-opacity="0.5"/>
<path fill-rule="evenodd" clip-rule="evenodd" d="M21.5 30.1558H3.5C2.70435 30.1558 1.94129 29.8397 1.37868 29.2771C0.81607 28.7145 0.5 27.9514 0.5 27.1558V3.15576C0.5 2.36011 0.81607 1.59705 1.37868 1.03444C1.94129 0.471832 2.70435 0.155762 3.5 0.155762H21.5C22.2956 0.155762 23.0587 0.471832 23.6213 1.03444C24.1839 1.59705 24.5 2.36011 24.5 3.15576V27.1558C24.5 27.9514 24.1839 28.7145 23.6213 29.2771C23.0587 29.8397 22.2956 30.1558 21.5 30.1558ZM11 6.90576C11 6.70685 11.079 6.51608 11.2197 6.37543C11.3603 6.23478 11.5511 6.15576 11.75 6.15576H20.75C20.9489 6.15576 21.1397 6.23478 21.2803 6.37543C21.421 6.51608 21.5 6.70685 21.5 6.90576C21.5 7.10467 21.421 7.29544 21.2803 7.43609C21.1397 7.57674 20.9489 7.65576 20.75 7.65576H11.75C11.5511 7.65576 11.3603 7.57674 11.2197 7.43609C11.079 7.29544 11 7.10467 11 6.90576ZM11.75 9.15576C11.5511 9.15576 11.3603 9.23478 11.2197 9.37543C11.079 9.51608 11 9.70685 11 9.90576C11 10.1047 11.079 10.2954 11.2197 10.4361C11.3603 10.5767 11.5511 10.6558 11.75 10.6558H20.75C20.9489 10.6558 21.1397 10.5767 21.2803 10.4361C21.421 10.2954 21.5 10.1047 21.5 9.90576C21.5 9.70685 21.421 9.51608 21.2803 9.37543C21.1397 9.23478 20.9489 9.15576 20.75 9.15576H11.75ZM9.28025 6.37551C9.42085 6.51616 9.49984 6.70689 9.49984 6.90576C9.49984 7.10463 9.42085 7.29537 9.28025 7.43601L5.75 10.9663L3.71975 8.93601C3.64812 8.86683 3.59098 8.78407 3.55167 8.69256C3.51237 8.60106 3.49168 8.50265 3.49081 8.40306C3.48995 8.30348 3.50892 8.20472 3.54663 8.11255C3.58434 8.02037 3.64003 7.93664 3.71045 7.86622C3.78087 7.7958 3.86461 7.74011 3.95678 7.7024C4.04896 7.66469 4.14772 7.64571 4.2473 7.64657C4.34689 7.64744 4.4453 7.66813 4.5368 7.70744C4.62831 7.74674 4.71106 7.80388 4.78025 7.87551L5.75 8.84526L8.21975 6.37551C8.3604 6.23491 8.55113 6.15592 8.75 6.15592C8.94887 6.15592 9.1396 6.23491 9.28025 6.37551ZM11.75 15.1558C11.5511 15.1558 11.3603 15.2348 11.2197 15.3754C11.079 15.5161 11 15.7068 11 15.9058C11 16.1047 11.079 16.2954 11.2197 16.4361C11.3603 16.5767 11.5511 16.6558 11.75 16.6558H20.75C20.9489 16.6558 21.1397 16.5767 21.2803 16.4361C21.421 16.2954 21.5 16.1047 21.5 15.9058C21.5 15.7068 21.421 15.5161 21.2803 15.3754C21.1397 15.2348 20.9489 15.1558 20.75 15.1558H11.75ZM11 18.9058C11 18.7069 11.079 18.5161 11.2197 18.3754C11.3603 18.2348 11.5511 18.1558 11.75 18.1558H20.75C20.9489 18.1558 21.1397 18.2348 21.2803 18.3754C21.421 18.5161 21.5 18.7069 21.5 18.9058C21.5 19.1047 21.421 19.2954 21.2803 19.4361C21.1397 19.5767 20.9489 19.6558 20.75 19.6558H11.75C11.5511 19.6558 11.3603 19.5767 11.2197 19.4361C11.079 19.2954 11 19.1047 11 18.9058ZM8 15.1558H4.25C4.05109 15.1558 3.86032 15.2348 3.71967 15.3754C3.57902 15.5161 3.5 15.7068 3.5 15.9058V19.6558C3.5 19.8547 3.57902 20.0454 3.71967 20.1861C3.86032 20.3267 4.05109 20.4058 4.25 20.4058H8C8.19891 20.4058 8.38968 20.3267 8.53033 20.1861C8.67098 20.0454 8.75 19.8547 8.75 19.6558V15.9058C8.75 15.7068 8.67098 15.5161 8.53033 15.3754C8.38968 15.2348 8.19891 15.1558 8 15.1558Z" fill="white" fill-opacity="0.5"/>
<path fill-rule="evenodd" clip-rule="evenodd" d="M30.5 27.1558L28.25 30.1558L26 27.1558V13.6558H30.5V27.1558Z" fill="white" fill-opacity="0.5"/>
<path fill-rule="evenodd" clip-rule="evenodd" d="M27.5 8.40576H29C29.3978 8.40576 29.7794 8.5638 30.0607 8.8451C30.342 9.12641 30.5 9.50794 30.5 9.90576V12.9058H26V9.90576C26 9.50794 26.158 9.12641 26.4393 8.8451C26.7206 8.5638 27.1022 8.40576 27.5 8.40576Z" fill="white" fill-opacity="0.5"/>
</svg>
