<svg width="11" height="14" viewBox="0 0 11 14" fill="none" xmlns="http://www.w3.org/2000/svg">
<path fill-rule="evenodd" clip-rule="evenodd" d="M5.92422 11.144V12.6H7.39772C7.74282 12.6 8.02422 12.8814 8.02422 13.2265V13.3742C8.02422 13.7186 7.74282 14 7.39772 14H3.05072C2.70562 14 2.42422 13.7186 2.42422 13.3742V13.2265C2.42422 12.8814 2.70562 12.6 3.05072 12.6H4.52422V11.144C2.15332 10.8024 0.324219 8.76401 0.324219 6.30001C0.324219 5.91361 0.637119 5.60001 1.02422 5.60001C1.41132 5.60001 1.72422 5.91361 1.72422 6.30001C1.72422 8.22991 3.29432 9.80001 5.22422 9.80001C7.15412 9.80001 8.72422 8.22991 8.72422 6.30001C8.72422 5.91361 9.03712 5.60001 9.42422 5.60001C9.81132 5.60001 10.1242 5.91361 10.1242 6.30001C10.1242 8.76401 8.29512 10.8024 5.92422 11.144ZM3.82422 2.79901C3.82422 2.02691 4.45212 1.39901 5.22422 1.39901C5.99632 1.39901 6.62422 2.02691 6.62422 2.79901V6.29901C6.62422 7.07111 5.99632 7.69901 5.22422 7.69901C4.45212 7.69901 3.82422 7.07111 3.82422 6.29901V2.79901ZM5.22409 9.09951C6.76829 9.09951 8.0241 7.84371 8.0241 6.29951V2.79951C8.0241 1.25601 6.76829 -0.000488281 5.22409 -0.000488281C3.67989 -0.000488281 2.42409 1.25601 2.42409 2.79951V6.29951C2.42409 7.84371 3.67989 9.09951 5.22409 9.09951Z" fill="#747475"/>
</svg>
