<svg width="24" height="19" viewBox="0 0 24 19" fill="none" xmlns="http://www.w3.org/2000/svg">
<path d="M6.1619 0.25H1.2265C0.933301 0.25 0.75 0.509938 0.75 0.7586V6.39402C0.75 6.64268 0.933302 6.90262 1.2265 6.90262C1.5197 6.90262 1.703 6.64268 1.703 6.39402V1.2672H6.16235C6.45555 1.2672 6.63885 1.00726 6.63885 0.7586C6.63885 0.509596 6.45525 0.25 6.1619 0.25Z" fill="#1D1D1D" stroke="#1D1D1D" stroke-width="0.5"/>
<path d="M17.8377 1.2672H22.2971V6.39402C22.2971 6.64268 22.4804 6.90262 22.7736 6.90262C23.0668 6.90262 23.2501 6.64268 23.2501 6.39402L23.2501 0.7586L23.2501 0.75781C23.2493 0.509342 23.0668 0.25 22.7731 0.25H17.8377C17.5445 0.25 17.3612 0.509938 17.3612 0.7586C17.3612 1.00726 17.5445 1.2672 17.8377 1.2672Z" fill="#1D1D1D" stroke="#1D1D1D" stroke-width="0.5"/>
<path d="M22.2967 12.6067V17.7331H17.8378C17.5446 17.7331 17.3613 17.993 17.3613 18.2417C17.3613 18.4903 17.5446 18.7503 17.8378 18.7503H22.7737C23.0669 18.7503 23.2502 18.4903 23.2502 18.2417L23.2502 12.6067L23.2502 12.606C23.2494 12.3575 23.0669 12.0981 22.7732 12.0981C22.48 12.0981 22.2967 12.3581 22.2967 12.6067Z" fill="#1D1D1D" stroke="#1D1D1D" stroke-width="0.5"/>
<path d="M6.1619 17.7325H1.703V12.6067C1.703 12.3581 1.5197 12.0981 1.2265 12.0981C0.933301 12.0981 0.75 12.3581 0.75 12.6067V18.2417C0.75 18.4903 0.933302 18.7503 1.2265 18.7503H6.16235C6.45555 18.7503 6.63885 18.4903 6.63885 18.2417C6.63885 17.9933 6.45585 17.7325 6.1619 17.7325Z" fill="#1D1D1D" stroke="#1D1D1D" stroke-width="0.5"/>
<path d="M11.9997 5.35767C9.99924 5.35767 8.37207 7.21545 8.37207 9.49941C8.37207 11.7829 9.99924 13.6412 11.9997 13.6412C13.9997 13.6412 15.6273 11.7829 15.6273 9.49941C15.6273 7.21545 13.9997 5.35767 11.9997 5.35767Z" fill="#1D1D1D"/>
<path d="M4.9128 3.1483C5.03783 3.1483 5.1393 3.03245 5.1393 2.8897C5.1393 2.74696 5.03783 2.6311 4.9128 2.6311H3.26751C3.14249 2.6311 3.04102 2.74696 3.04102 2.8897C3.04102 3.03245 3.14249 3.1483 3.26751 3.1483H4.9128Z" fill="black"/>
</svg>
