<svg width="29" height="20" viewBox="0 0 29 20" fill="none" xmlns="http://www.w3.org/2000/svg">
<path d="M24.5558 20.0005H4.55577C2.10162 20.0005 0.111328 18.0102 0.111328 15.556V4.44493C0.111328 1.99078 2.10162 0.000488281 4.55577 0.000488281H24.5558C25.7349 0.000488281 26.8655 0.468542 27.6988 1.30189C28.5321 2.13524 29.0002 3.26577 29.0002 4.44493V15.556C29.0002 16.7352 28.5322 17.8658 27.6988 18.6991C26.8655 19.5324 25.7349 20.0005 24.5558 20.0005ZM4.55577 2.22271C3.328 2.22271 2.33355 3.21716 2.33355 4.44493V15.556C2.33355 16.1449 2.56827 16.7102 2.98493 17.1269C3.40158 17.5436 3.96687 17.7783 4.55577 17.7783H24.5558C25.1446 17.7783 25.7099 17.5435 26.1266 17.1269C26.5433 16.7102 26.778 16.145 26.778 15.556V4.44493C26.778 3.85606 26.5433 3.29076 26.1266 2.87409C25.71 2.45741 25.1447 2.22271 24.5558 2.22271H4.55577Z" fill="white"/>
<path d="M10.3116 15.5557C8.48659 15.5571 6.77825 14.6626 5.73949 13.1626C4.70074 11.6626 4.46589 9.74732 5.10895 8.04047C5.7534 6.33352 7.19368 5.05018 8.9646 4.60993C10.7354 4.16826 12.609 4.62521 13.9786 5.83077C14.2023 6.02382 14.3397 6.29882 14.3606 6.59326C14.3814 6.8877 14.2828 7.17936 14.0884 7.40158C13.8939 7.6238 13.6189 7.75991 13.3231 7.77936C13.0287 7.7988 12.7384 7.6988 12.5162 7.50297C11.5342 6.63491 10.1342 6.4224 8.93856 6.96131C7.7429 7.50023 6.97469 8.6891 6.97469 10.0002C6.97469 11.3113 7.74276 12.5002 8.93856 13.0391C10.1344 13.578 11.5344 13.3655 12.5162 12.4975C12.9787 12.0975 13.6773 12.1461 14.08 12.6058C14.4828 13.0669 14.437 13.7655 13.9786 14.1697C12.9647 15.0599 11.662 15.553 10.3122 15.5558L10.3116 15.5557Z" fill="white"/>
<path d="M20.3116 15.5557C18.4866 15.5571 16.7782 14.6626 15.7395 13.1626C14.7007 11.6626 14.4659 9.74732 15.109 8.04047C15.7534 6.33352 17.1937 5.05018 18.9646 4.60993C20.7354 4.16826 22.609 4.62521 23.9786 5.83077C24.2023 6.02382 24.3397 6.29882 24.3606 6.59326C24.3814 6.8877 24.2828 7.17936 24.0884 7.40158C23.8939 7.6238 23.6189 7.75991 23.3231 7.77936C23.0287 7.7988 22.7384 7.6988 22.5162 7.50297C21.5342 6.63491 20.1342 6.4224 18.9386 6.96131C17.7429 7.50023 16.9747 8.6891 16.9747 10.0002C16.9747 11.3113 17.7428 12.5002 18.9386 13.0391C20.1344 13.578 21.5344 13.3655 22.5162 12.4975C22.9787 12.0975 23.6773 12.1461 24.08 12.6058C24.4828 13.0669 24.437 13.7655 23.9786 14.1697C22.9647 15.0599 21.662 15.553 20.3122 15.5558L20.3116 15.5557Z" fill="white"/>
</svg>
