<svg width="15" height="14" viewBox="0 0 15 14" fill="none" xmlns="http://www.w3.org/2000/svg">
<path d="M5.33117 8.64706L5.72423 8.71459C5.73372 8.65563 5.73067 8.59524 5.71529 8.53761C5.69991 8.47999 5.67257 8.42652 5.63517 8.38091C5.59776 8.33531 5.5512 8.29866 5.4987 8.27351C5.4462 8.24836 5.38904 8.23532 5.33117 8.23529V8.64706ZM14.1014 8.64706V9.05882C14.2071 9.05882 14.3085 9.01544 14.3832 8.93822C14.458 8.861 14.5 8.75627 14.5 8.64706H14.1014ZM12.5068 0H3.44956V0.823529H12.5068V0ZM2.49282 9.05882H5.33117V8.23529H2.49282V9.05882ZM4.9381 8.57953L4.29549 12.5613L5.08162 12.6972L5.72423 8.71459L4.9381 8.57953ZM5.47468 14H5.6445V13.1765H5.47468V14ZM7.96701 12.7161L9.97299 9.60894L9.30964 9.15188L7.30446 12.2599L7.96701 12.7161ZM10.968 9.05882H14.1014V8.23529H10.968V9.05882ZM14.5 8.64706V2.05882H13.7027V8.64706H14.5ZM1.49461 1.65529L0.537864 6.59647L1.31921 6.75788L2.27595 1.8167L1.49461 1.65529ZM9.97299 9.60894C10.0822 9.43973 10.2301 9.30099 10.4037 9.20502C10.5773 9.10906 10.7711 9.05884 10.968 9.05882V8.23529C10.6399 8.23529 10.3169 8.31894 10.0276 8.47884C9.73828 8.63873 9.49168 8.86992 9.30964 9.15188L9.97299 9.60894ZM4.29549 12.5613C4.26689 12.7382 4.27595 12.9195 4.32203 13.0925C4.36811 13.2654 4.45012 13.426 4.56234 13.5629C4.67456 13.6998 4.81431 13.8098 4.97186 13.8853C5.12942 13.9608 5.301 13.9999 5.47468 14V13.1765C5.41675 13.1766 5.35949 13.1636 5.3069 13.1385C5.2543 13.1134 5.20763 13.0768 5.17014 13.0312C5.13265 12.9855 5.10524 12.932 5.08981 12.8743C5.07439 12.8167 5.07132 12.7562 5.08082 12.6972L4.29549 12.5613ZM2.49282 8.23529C2.31588 8.23531 2.14115 8.19477 1.98121 8.11659C1.82128 8.03842 1.68013 7.92457 1.56795 7.78325C1.45576 7.64193 1.37533 7.47665 1.33245 7.29934C1.28958 7.12203 1.28453 6.9371 1.31921 6.75788L0.537864 6.59647C0.480087 6.89505 0.487941 7.20314 0.559324 7.49856C0.630708 7.79398 0.764641 8.06937 0.951472 8.30488C1.1383 8.5404 1.37339 8.73018 1.63978 8.86055C1.90617 8.99092 2.19724 9.05864 2.49202 9.05882L2.49282 8.23529ZM3.44956 0C2.98867 -9.34601e-05 2.54199 0.164795 2.18555 0.466599C1.82911 0.768401 1.58495 1.18847 1.49461 1.65529L2.27595 1.8167C2.33018 1.5365 2.47677 1.28437 2.69077 1.10328C2.90476 0.922185 3.17292 0.82332 3.44956 0.823529V0ZM5.6453 14C6.10484 14.0001 6.55729 13.8829 6.96245 13.6589C7.36761 13.435 7.71296 13.1111 7.96781 12.7161L7.30446 12.2599C7.12243 12.5418 6.87582 12.773 6.58653 12.9329C6.29724 13.0928 5.9742 13.1765 5.6461 13.1765L5.6453 14ZM12.5068 0.823529C12.824 0.823529 13.1281 0.953676 13.3524 1.18534C13.5767 1.417 13.7027 1.7312 13.7027 2.05882H14.5C14.5 1.78846 14.4484 1.52073 14.3483 1.27095C14.2481 1.02116 14.1013 0.794195 13.9162 0.603015C13.7311 0.411836 13.5114 0.260184 13.2695 0.156719C13.0277 0.0532532 12.7685 0 12.5068 0V0.823529Z" fill="#1D1D1D"/>
<path d="M10.9141 8.64795V0.412655" stroke="#1D1D1D"/>
</svg>
