<svg width="21" height="20" viewBox="0 0 21 20" fill="none" xmlns="http://www.w3.org/2000/svg">
<path d="M18.7507 20H2.24933C1.78538 20 1.34043 19.8106 1.01237 19.4736C0.684304 19.1365 0.5 18.6794 0.5 18.2027V1.79726C0.5 1.3206 0.684304 0.863457 1.01237 0.526405C1.34043 0.189354 1.78538 0 2.24933 0H18.7507C19.2146 0 19.6596 0.189354 19.9876 0.526405C20.3157 0.863457 20.5 1.3206 20.5 1.79726V18.2027C20.5 18.6794 20.3157 19.1365 19.9876 19.4736C19.6596 19.8106 19.2146 20 18.7507 20ZM13.7347 10.4959C13.7762 10.5615 13.8309 10.6171 13.8951 10.6592C13.9592 10.7012 14.0314 10.7286 14.1068 10.7396C14.1822 10.7506 14.259 10.7449 14.332 10.7229C14.405 10.7008 14.4726 10.663 14.5303 10.6119C14.5879 10.5608 14.6342 10.4976 14.6661 10.4266C14.6979 10.3555 14.7147 10.2783 14.7151 10.2001C14.7155 10.1219 14.6996 10.0445 14.6685 9.97314C14.6374 9.90176 14.5917 9.83806 14.5347 9.7863L10.8947 5.40274C10.8446 5.34443 10.7831 5.29774 10.7141 5.26575C10.6451 5.23377 10.5703 5.21723 10.4947 5.21723C10.419 5.21723 10.3442 5.23377 10.2752 5.26575C10.2063 5.29774 10.1447 5.34443 10.0947 5.40274L6.45467 9.7863C6.39759 9.83806 6.35197 9.90176 6.32085 9.97314C6.28973 10.0445 6.27385 10.1219 6.27427 10.2001C6.27468 10.2783 6.29139 10.3555 6.32327 10.4266C6.35514 10.4976 6.40144 10.5608 6.45906 10.6119C6.51668 10.663 6.58429 10.7008 6.65733 10.7229C6.73037 10.7449 6.80715 10.7506 6.88252 10.7396C6.95789 10.7286 7.03009 10.7012 7.09428 10.6592C7.15847 10.6171 7.21316 10.5615 7.25467 10.4959L9.96667 7.2411V15.8904C9.96667 16.0357 10.0229 16.1751 10.1229 16.2779C10.2229 16.3806 10.3586 16.4384 10.5 16.4384C10.6414 16.4384 10.7771 16.3806 10.8771 16.2779C10.9771 16.1751 11.0333 16.0357 11.0333 15.8904V7.2411L13.7347 10.4959Z" fill="white"/>
</svg>
