<svg width="26" height="26" viewBox="0 0 26 26" fill="none" xmlns="http://www.w3.org/2000/svg">
<path d="M6.04848 7.54212C6.04848 9.80164 7.1577 11.8058 8.85845 13.0408C4.14515 14.6603 0.75 19.0709 0.75 24.2523C0.75 24.8035 1.19676 25.25 1.74765 25.25C2.29855 25.25 2.74531 24.8035 2.74531 24.2523C2.74531 18.8096 7.26925 14.3721 12.8406 14.3721C18.412 14.3721 22.9359 18.8096 22.9359 24.2523C22.9359 24.8035 23.3827 25.25 23.9335 25.25C24.4844 25.25 24.9312 24.8035 24.9312 24.2523C24.9311 19.0708 21.5358 14.6603 16.8225 13.0408C18.5232 11.8058 19.6324 9.80164 19.6324 7.54212C19.6324 3.79678 16.5858 0.75 12.8405 0.75C9.09509 0.75 6.04848 3.79678 6.04848 7.54212ZM8.04378 7.54212C8.04378 4.89742 10.1959 2.74531 12.8405 2.74531C15.485 2.74531 17.6371 4.89742 17.6371 7.54212C17.6371 10.1867 15.4851 12.3388 12.8405 12.3388C10.1958 12.3388 8.04378 10.1867 8.04378 7.54212Z" fill="#7C7C8D" stroke="#7C7C8D" stroke-width="0.5"/>
</svg>
