<svg width="22" height="19" viewBox="0 0 22 19" fill="none" xmlns="http://www.w3.org/2000/svg">
<path d="M14.8101 7.23539L9.63363 3.78441C9.53612 3.71935 9.42277 3.68201 9.30569 3.67636C9.18861 3.67071 9.07219 3.69697 8.96887 3.75234C8.86555 3.80771 8.77921 3.8901 8.71908 3.99072C8.65895 4.09134 8.62728 4.20641 8.62745 4.32363V11.2256C8.62728 11.3428 8.65895 11.4579 8.71908 11.5585C8.77921 11.6591 8.86555 11.7415 8.96887 11.7969C9.07219 11.8522 9.18861 11.8785 9.30569 11.8729C9.42277 11.8672 9.53612 11.8299 9.63363 11.7648L14.8101 8.31382C14.8991 8.2548 14.9721 8.17467 15.0226 8.08059C15.0731 7.9865 15.0995 7.88138 15.0995 7.77461C15.0995 7.66783 15.0731 7.56271 15.0226 7.46862C14.9721 7.37454 14.8991 7.29441 14.8101 7.23539ZM9.92157 10.0167V5.53255L13.2841 7.77461L9.92157 10.0167ZM20.4902 0.225586H1.5098C1.10938 0.225586 0.725355 0.384654 0.442211 0.667797C0.159068 0.95094 0 1.33496 0 1.73539V13.8138C0 14.2142 0.159068 14.5983 0.442211 14.8814C0.725355 15.1646 1.10938 15.3236 1.5098 15.3236H20.4902C20.8906 15.3236 21.2746 15.1646 21.5578 14.8814C21.8409 14.5983 22 14.2142 22 13.8138V1.73539C22 1.33496 21.8409 0.95094 21.5578 0.667797C21.2746 0.384654 20.8906 0.225586 20.4902 0.225586ZM20.7059 13.8138C20.7059 13.871 20.6832 13.9259 20.6427 13.9663C20.6023 14.0068 20.5474 14.0295 20.4902 14.0295H1.5098C1.4526 14.0295 1.39774 14.0068 1.35729 13.9663C1.31684 13.9259 1.29412 13.871 1.29412 13.8138V1.73539C1.29412 1.67819 1.31684 1.62333 1.35729 1.58288C1.39774 1.54243 1.4526 1.5197 1.5098 1.5197H20.4902C20.5474 1.5197 20.6023 1.54243 20.6427 1.58288C20.6832 1.62333 20.7059 1.67819 20.7059 1.73539V13.8138ZM22 18.1275C22 18.2992 21.9318 18.4637 21.8105 18.5851C21.6891 18.7064 21.5246 18.7746 21.3529 18.7746H0.647059C0.475448 18.7746 0.310866 18.7064 0.189519 18.5851C0.068172 18.4637 0 18.2992 0 18.1275C0 17.9559 0.068172 17.7914 0.189519 17.67C0.310866 17.5487 0.475448 17.4805 0.647059 17.4805H21.3529C21.5246 17.4805 21.6891 17.5487 21.8105 17.67C21.9318 17.7914 22 17.9559 22 18.1275Z" fill="#1D1D1D"/>
</svg>
