<svg width="34" height="32" viewBox="0 0 34 32" fill="none" xmlns="http://www.w3.org/2000/svg">
<path d="M9.80078 6.30156C9.80078 5.58548 10.0852 4.89872 10.5916 4.39237C11.0979 3.88603 11.7847 3.60156 12.5008 3.60156H17.0008C17.7169 3.60156 18.4036 3.88603 18.91 4.39237C19.4163 4.89872 19.7008 5.58548 19.7008 6.30156V11.7016C19.7008 12.4176 19.4163 13.1044 18.91 13.6108C18.4036 14.1171 17.7169 14.4016 17.0008 14.4016H12.5008C11.7847 14.4016 11.0979 14.1171 10.5916 13.6108C10.0852 13.1044 9.80078 12.4176 9.80078 11.7016V6.30156ZM22.4341 13.3L20.6008 12.0337V5.96856L22.4341 4.70316C22.6029 4.58667 22.8003 4.51853 23.005 4.50613C23.2098 4.49373 23.414 4.53752 23.5956 4.63279C23.7773 4.72805 23.9294 4.87116 24.0356 5.04663C24.1418 5.2221 24.198 5.42326 24.1981 5.62836V12.3739C24.1981 12.579 24.142 12.7803 24.0359 12.9559C23.9298 13.1315 23.7777 13.2748 23.596 13.3701C23.4144 13.4655 23.2101 13.5094 23.0053 13.497C22.8005 13.4846 22.6029 13.4165 22.4341 13.3Z" fill="#1D1D1D"/>
<path d="M7.09162 24.1818L8.81889 29.0795H8.88707L10.6143 24.1818H11.353L9.21662 30H8.48935L6.35298 24.1818H7.09162ZM12.1683 30V25.6364H12.8388V30H12.1683ZM12.5092 24.9091C12.3786 24.9091 12.2659 24.8646 12.1712 24.7756C12.0784 24.6866 12.032 24.5795 12.032 24.4545C12.032 24.3295 12.0784 24.2225 12.1712 24.1335C12.2659 24.0445 12.3786 24 12.5092 24C12.6399 24 12.7517 24.0445 12.8445 24.1335C12.9392 24.2225 12.9865 24.3295 12.9865 24.4545C12.9865 24.5795 12.9392 24.6866 12.8445 24.7756C12.7517 24.8646 12.6399 24.9091 12.5092 24.9091ZM15.7145 30.0909C15.3509 30.0909 15.0298 29.9991 14.7514 29.8153C14.473 29.6297 14.2552 29.3684 14.098 29.0312C13.9408 28.6922 13.8622 28.2917 13.8622 27.8295C13.8622 27.3712 13.9408 26.9735 14.098 26.6364C14.2552 26.2992 14.474 26.0388 14.7543 25.8551C15.0346 25.6714 15.3584 25.5795 15.7259 25.5795C16.0099 25.5795 16.2344 25.6269 16.3991 25.7216C16.5658 25.8144 16.6927 25.9205 16.7798 26.0398C16.8688 26.1572 16.938 26.2538 16.9872 26.3295H17.044V24.1818H17.7145V30H17.0668V29.3295H16.9872C16.938 29.4091 16.8679 29.5095 16.777 29.6307C16.6861 29.75 16.5563 29.857 16.3878 29.9517C16.2192 30.0445 15.9948 30.0909 15.7145 30.0909ZM15.8054 29.4886C16.0743 29.4886 16.3016 29.4186 16.4872 29.2784C16.6728 29.1364 16.8139 28.9403 16.9105 28.6903C17.0071 28.4384 17.0554 28.1477 17.0554 27.8182C17.0554 27.4924 17.008 27.2074 16.9134 26.9631C16.8187 26.7169 16.6785 26.5256 16.4929 26.3892C16.3073 26.2509 16.0781 26.1818 15.8054 26.1818C15.5213 26.1818 15.2846 26.2547 15.0952 26.4006C14.9077 26.5445 14.7666 26.7405 14.6719 26.9886C14.5791 27.2348 14.5327 27.5114 14.5327 27.8182C14.5327 28.1288 14.58 28.411 14.6747 28.6648C14.7713 28.9167 14.9134 29.1174 15.1009 29.267C15.2902 29.4148 15.5251 29.4886 15.8054 29.4886ZM20.8651 30.0909C20.4446 30.0909 20.0819 29.9981 19.777 29.8125C19.474 29.625 19.2401 29.3636 19.0753 29.0284C18.9124 28.6913 18.831 28.2992 18.831 27.8523C18.831 27.4053 18.9124 27.0114 19.0753 26.6705C19.2401 26.3277 19.4692 26.0606 19.7628 25.8693C20.0582 25.6761 20.4029 25.5795 20.7969 25.5795C21.0241 25.5795 21.2486 25.6174 21.4702 25.6932C21.6918 25.7689 21.8935 25.892 22.0753 26.0625C22.2571 26.2311 22.402 26.4545 22.5099 26.733C22.6179 27.0114 22.6719 27.3542 22.6719 27.7614V28.0455H19.3082V27.4659H21.9901C21.9901 27.2197 21.9408 27 21.8423 26.8068C21.7457 26.6136 21.6075 26.4612 21.4276 26.3494C21.2495 26.2377 21.0393 26.1818 20.7969 26.1818C20.5298 26.1818 20.2988 26.2481 20.1037 26.3807C19.9105 26.5114 19.7618 26.6818 19.6577 26.892C19.5535 27.1023 19.5014 27.3277 19.5014 27.5682V27.9545C19.5014 28.2841 19.5582 28.5634 19.6719 28.7926C19.7874 29.0199 19.9474 29.1932 20.152 29.3125C20.3565 29.4299 20.5942 29.4886 20.8651 29.4886C21.0412 29.4886 21.2003 29.464 21.3423 29.4148C21.4863 29.3636 21.6103 29.2879 21.7145 29.1875C21.8187 29.0852 21.8991 28.9583 21.956 28.8068L22.6037 28.9886C22.5355 29.2083 22.4209 29.4015 22.2599 29.5682C22.099 29.733 21.9001 29.8617 21.6634 29.9545C21.4266 30.0455 21.1605 30.0909 20.8651 30.0909ZM25.4645 30.0909C25.0705 30.0909 24.7249 29.9972 24.4276 29.8097C24.1321 29.6222 23.901 29.3598 23.7344 29.0227C23.5696 28.6856 23.4872 28.2917 23.4872 27.8409C23.4872 27.3864 23.5696 26.9896 23.7344 26.6506C23.901 26.3116 24.1321 26.0483 24.4276 25.8608C24.7249 25.6733 25.0705 25.5795 25.4645 25.5795C25.8584 25.5795 26.2031 25.6733 26.4986 25.8608C26.7959 26.0483 27.027 26.3116 27.1918 26.6506C27.3584 26.9896 27.4418 27.3864 27.4418 27.8409C27.4418 28.2917 27.3584 28.6856 27.1918 29.0227C27.027 29.3598 26.7959 29.6222 26.4986 29.8097C26.2031 29.9972 25.8584 30.0909 25.4645 30.0909ZM25.4645 29.4886C25.7637 29.4886 26.0099 29.4119 26.2031 29.2585C26.3963 29.1051 26.5393 28.9034 26.6321 28.6534C26.7249 28.4034 26.7713 28.1326 26.7713 27.8409C26.7713 27.5492 26.7249 27.2775 26.6321 27.0256C26.5393 26.7737 26.3963 26.5701 26.2031 26.4148C26.0099 26.2595 25.7637 26.1818 25.4645 26.1818C25.1652 26.1818 24.919 26.2595 24.7259 26.4148C24.5327 26.5701 24.3897 26.7737 24.2969 27.0256C24.2041 27.2775 24.1577 27.5492 24.1577 27.8409C24.1577 28.1326 24.2041 28.4034 24.2969 28.6534C24.3897 28.9034 24.5327 29.1051 24.7259 29.2585C24.919 29.4119 25.1652 29.4886 25.4645 29.4886Z" fill="#1D1D1D"/>
</svg>
