<svg width="63" height="15" viewBox="0 0 63 15" fill="none" xmlns="http://www.w3.org/2000/svg">
<path d="M19.5835 2.69059C19.3529 1.83412 18.6776 1.15882 17.8212 0.928235C16.2565 0.5 9.99765 0.5 9.99765 0.5C9.99765 0.5 3.73882 0.5 2.17412 0.911765C1.33412 1.14235 0.642353 1.83412 0.411765 2.69059C0 4.25529 0 7.5 0 7.5C0 7.5 0 10.7612 0.411765 12.3094C0.642353 13.1659 1.31765 13.8412 2.17412 14.0718C3.75529 14.5 9.99765 14.5 9.99765 14.5C9.99765 14.5 16.2565 14.5 17.8212 14.0882C18.6776 13.8576 19.3529 13.1824 19.5835 12.3259C19.9953 10.7612 19.9953 7.51647 19.9953 7.51647C19.9953 7.51647 20.0118 4.25529 19.5835 2.69059Z" fill="#E33B2E"/>
<path d="M8.00391 4.50244V10.4977L13.2086 7.50009L8.00391 4.50244Z" fill="white"/>
<path d="M29.0363 13.2481C28.641 12.9846 28.361 12.5728 28.1963 11.9964C28.0316 11.4364 27.9492 10.6787 27.9492 9.75635V8.48812C27.9492 7.54929 28.048 6.79164 28.2292 6.21517C28.4269 5.6387 28.7233 5.22694 29.1186 4.96341C29.5304 4.69988 30.0575 4.56812 30.7163 4.56812C31.3586 4.56812 31.8857 4.69988 32.281 4.96341C32.6763 5.22694 32.9563 5.65517 33.1375 6.21517C33.3186 6.77517 33.4175 7.53282 33.4175 8.48812V9.75635C33.4175 10.6952 33.3351 11.4364 33.1539 12.0128C32.9727 12.5728 32.6927 13.0011 32.2975 13.2646C31.9022 13.5281 31.3586 13.6599 30.6833 13.6599C29.9916 13.6434 29.4316 13.5116 29.0363 13.2481ZM31.2598 11.8646C31.3751 11.5846 31.4245 11.1069 31.4245 10.4646V7.73047C31.4245 7.10459 31.3751 6.64341 31.2598 6.34694C31.1445 6.05047 30.9633 5.9187 30.6833 5.9187C30.4198 5.9187 30.2222 6.06694 30.1233 6.34694C30.008 6.64341 29.9586 7.10459 29.9586 7.73047V10.4646C29.9586 11.1069 30.008 11.5846 30.1233 11.8646C30.2222 12.1446 30.4198 12.2928 30.6998 12.2928C30.9633 12.2928 31.1445 12.1611 31.2598 11.8646Z" fill="#55565B"/>
<path d="M59.4418 9.7728V10.2175C59.4418 10.7775 59.4583 11.2057 59.4913 11.4857C59.5242 11.7657 59.5901 11.9799 59.7054 12.0952C59.8042 12.2269 59.9689 12.2928 60.1995 12.2928C60.496 12.2928 60.6936 12.1775 60.8089 11.9469C60.9242 11.7163 60.9736 11.3375 60.9901 10.794L62.6865 10.8928C62.703 10.9752 62.703 11.074 62.703 11.2057C62.703 12.0128 62.4889 12.6222 62.0442 13.0175C61.5995 13.4128 60.9736 13.6104 60.1665 13.6104C59.1948 13.6104 58.5195 13.2975 58.1242 12.6881C57.7289 12.0787 57.5312 11.1399 57.5312 9.85516V8.32339C57.5312 7.00574 57.7289 6.05045 58.1407 5.44104C58.5524 4.83163 59.2442 4.53516 60.216 4.53516C60.8913 4.53516 61.4183 4.66692 61.7807 4.91398C62.143 5.16104 62.3901 5.55633 62.5383 6.06692C62.6865 6.59398 62.7524 7.31869 62.7524 8.24104V9.73986H59.4418V9.7728ZM59.6889 6.08339C59.5901 6.21516 59.5242 6.4128 59.4913 6.6928C59.4583 6.9728 59.4418 7.40104 59.4418 7.97751V8.60339H60.8913V7.97751C60.8913 7.41751 60.8748 6.98927 60.8418 6.6928C60.8089 6.39633 60.7265 6.19869 60.6277 6.08339C60.5289 5.9681 60.3642 5.90221 60.1665 5.90221C59.936 5.88574 59.7877 5.95163 59.6889 6.08339Z" fill="#55565B"/>
<path d="M24.2283 9.60828L21.9883 1.48828H23.9483L24.7389 5.16122C24.9365 6.06711 25.0848 6.84122 25.1836 7.48358H25.233C25.2989 7.0224 25.4471 6.26475 25.6777 5.17769L26.5012 1.48828H28.4612L26.1883 9.60828V13.4953H24.2448V9.60828H24.2283Z" fill="#55565B"/>
<path d="M39.7943 4.73291V13.5117H38.2461L38.0814 12.4411H38.032C37.6202 13.2482 36.9779 13.66 36.1379 13.66C35.5614 13.66 35.1332 13.4623 34.8532 13.0835C34.5732 12.7047 34.4414 12.1117 34.4414 11.2882V4.73291H36.4179V11.1729C36.4179 11.5682 36.4673 11.8482 36.5496 12.0129C36.632 12.1776 36.7802 12.26 36.9779 12.26C37.1426 12.26 37.3073 12.2106 37.472 12.0953C37.6367 11.9964 37.752 11.8647 37.8179 11.7V4.73291H39.7943Z" fill="#55565B"/>
<path d="M49.9233 4.73291V13.5117H48.375L48.2103 12.4411H48.1609C47.7491 13.2482 47.1068 13.66 46.2668 13.66C45.6903 13.66 45.2621 13.4623 44.9821 13.0835C44.7021 12.7047 44.5703 12.1117 44.5703 11.2882V4.73291H46.5468V11.1729C46.5468 11.5682 46.5962 11.8482 46.6785 12.0129C46.7609 12.1776 46.9091 12.26 47.1068 12.26C47.2715 12.26 47.4362 12.2106 47.6009 12.0953C47.7656 11.9964 47.8809 11.8647 47.9468 11.7V4.73291H49.9233Z" fill="#55565B"/>
<path d="M45.1596 3.08593H43.1996V13.4953H41.2725V3.08593H39.3125V1.48828H45.1596V3.08593Z" fill="#55565B"/>
<path d="M56.4623 6.13287C56.347 5.57287 56.1494 5.17758 55.8858 4.93052C55.6223 4.68346 55.2435 4.55169 54.7823 4.55169C54.42 4.55169 54.0741 4.65052 53.7611 4.86463C53.4482 5.06228 53.2011 5.34228 53.0364 5.67169H53.02V1.04346H51.1094V13.4952H52.74L52.9376 12.6717H52.987C53.1353 12.9682 53.3658 13.1988 53.6788 13.3799C53.9917 13.5446 54.3211 13.6435 54.7 13.6435C55.3753 13.6435 55.8529 13.3305 56.1658 12.7211C56.4788 12.1117 56.6435 11.1399 56.6435 9.83875V8.45522C56.627 7.45052 56.5776 6.6764 56.4623 6.13287ZM54.6506 9.70699C54.6506 10.3493 54.6176 10.8435 54.5682 11.2058C54.5188 11.5682 54.42 11.8317 54.3047 11.9799C54.1729 12.1282 54.0082 12.2105 53.8106 12.2105C53.6458 12.2105 53.4976 12.1776 53.3658 12.0952C53.2341 12.0129 53.1188 11.8976 53.0364 11.7493V6.77522C53.1023 6.54463 53.2176 6.34699 53.3823 6.18228C53.547 6.03405 53.7282 5.95169 53.9094 5.95169C54.107 5.95169 54.2717 6.03405 54.3706 6.18228C54.4858 6.34699 54.5517 6.61052 54.6011 6.97287C54.6506 7.35169 54.667 7.87875 54.667 8.55405V9.70699H54.6506Z" fill="#55565B"/>
</svg>
