<svg width="14" height="15" viewBox="0 0 14 15" fill="none" xmlns="http://www.w3.org/2000/svg">
<path d="M14 7.49976C14 7.61826 13.9529 7.7319 13.8691 7.8157C13.7853 7.89949 13.6717 7.94656 13.5532 7.94656H7.44681V14.0529C7.44681 14.1714 7.39973 14.2851 7.31594 14.3689C7.23215 14.4527 7.1185 14.4998 7 14.4998C6.8815 14.4998 6.76785 14.4527 6.68406 14.3689C6.60027 14.2851 6.55319 14.1714 6.55319 14.0529V7.94656H0.446809C0.328308 7.94656 0.21466 7.89949 0.130867 7.8157C0.0470743 7.7319 0 7.61826 0 7.49976C0 7.38125 0.0470743 7.26761 0.130867 7.18381C0.21466 7.10002 0.328308 7.05295 0.446809 7.05295H6.55319V0.946564C6.55319 0.828063 6.60027 0.714416 6.68406 0.630623C6.76785 0.54683 6.8815 0.499756 7 0.499756C7.1185 0.499756 7.23215 0.54683 7.31594 0.630623C7.39973 0.714416 7.44681 0.828063 7.44681 0.946564V7.05295H13.5532C13.6717 7.05295 13.7853 7.10002 13.8691 7.18381C13.9529 7.26761 14 7.38125 14 7.49976Z" fill="#1D1D1D"/>
</svg>
