<svg width="22" height="23" viewBox="0 0 22 23" fill="none" xmlns="http://www.w3.org/2000/svg">
<path d="M20.2876 11.2459C19.2109 10.0497 17.7498 9.28494 16.1653 9.08611C16.1108 8.98061 16.0246 8.82652 16.0008 8.7851L15.9372 8.67208C16.1828 8.29641 16.307 7.90616 16.307 7.5109V5.20709C16.307 4.86675 16.2128 4.52472 16.0291 4.19482L16.0096 4.15698C16.0801 3.97906 16.1145 3.81132 16.1145 3.64614C16.1145 2.71212 15.2186 1.92533 13.524 1.37071C12.0806 0.898382 10.1232 0.627441 8.15347 0.627441C6.18329 0.627441 4.22545 0.898381 2.78222 1.37076C1.08749 1.92548 0.191775 2.71242 0.191775 3.6468C0.191775 3.81127 0.226142 3.9788 0.296664 4.15703L0.278458 4.19104C0.0936886 4.526 5.1112e-05 4.86787 5.1112e-05 5.20714V7.51095C5.1112e-05 7.90825 0.124322 8.29779 0.369743 8.67039L0.304846 8.78382C0.102587 9.13485 0 9.49288 0 9.84789V12.1522C0 12.539 0.117929 12.9198 0.350719 13.2847L0.304846 13.3643C0.102587 13.7153 0 14.0729 0 14.4269V16.7326C0 17.7858 0.854755 18.7559 2.40681 19.4644C3.92106 20.1557 5.96201 20.5363 8.15347 20.5363C8.9581 20.5363 9.77046 20.4801 10.5694 20.3692C11.8354 21.6617 13.523 22.3726 15.3303 22.3726C19.008 22.3726 22 19.3807 22 15.703C22.0001 14.0554 21.3919 12.4725 20.2876 11.2459ZM3.11152 2.47278C4.43932 2.03226 6.22999 1.78965 8.15362 1.78965C10.0764 1.78965 11.867 2.03241 13.1954 2.47319C14.4082 2.87561 14.951 3.35264 14.951 3.64685C14.951 3.94203 14.4082 4.42024 13.1953 4.82297C11.8674 5.2639 10.0769 5.50672 8.15362 5.50672C6.22978 5.50672 4.43911 5.2639 3.11157 4.82297C1.89924 4.42035 1.35664 3.94209 1.35664 3.64685C1.35654 3.35229 1.89919 2.875 3.11152 2.47278ZM1.164 5.90239C2.48607 6.81703 5.16719 7.39716 8.15362 7.39716C11.1378 7.39716 13.8195 6.81693 15.1443 5.90198V7.51192C15.1443 8.10545 14.4341 8.76055 13.2447 9.26423C11.8903 9.83777 10.0822 10.1537 8.15357 10.1537C6.22508 10.1537 4.41722 9.83777 3.06309 9.26423C1.87393 8.7605 1.164 8.1055 1.164 7.51187V5.90239ZM8.15347 19.3711C6.22543 19.3711 4.41753 19.0554 3.06293 18.482C1.87382 17.9788 1.1639 17.3247 1.1639 16.7325V14.8945C2.59521 16.0076 5.22549 16.6891 8.15347 16.6891C8.35097 16.6891 8.54382 16.6796 8.73099 16.6695C8.86718 17.601 9.20465 18.5016 9.71447 19.2966C9.1955 19.3461 8.67167 19.3711 8.15347 19.3711ZM8.72634 14.7706C8.54106 14.7818 8.35015 14.7922 8.15357 14.7922C6.22528 14.7922 4.41743 14.4764 3.06309 13.9029C1.87398 13.3994 1.164 12.7448 1.164 12.1521V10.3129C2.59229 11.4265 5.22242 12.1085 8.15357 12.1085C8.66584 12.1085 9.19729 12.0812 9.76944 12.0253C9.22188 12.8511 8.86411 13.7917 8.72634 14.7706ZM15.3304 20.7431C12.5513 20.7431 10.2904 18.4821 10.2904 15.703C10.2904 12.9239 12.5513 10.663 15.3304 10.663C18.1096 10.663 20.3706 12.9239 20.3706 15.703C20.3705 18.4821 18.1096 20.7431 15.3304 20.7431Z" fill="white"/>
</svg>
