<svg width="34" height="32" viewBox="0 0 34 32" fill="none" xmlns="http://www.w3.org/2000/svg">
<path d="M22.7857 9.32149C22.7857 9.12863 22.6571 9.00006 22.4643 9.00006C22.2714 9.00006 22.1428 9.12863 22.1428 9.32149C22.1428 12.1501 19.8286 14.4644 17 14.4644C14.1714 14.4644 11.8571 12.1501 11.8571 9.32149C11.8571 9.12863 11.7285 9.00006 11.5357 9.00006C11.3428 9.00006 11.2142 9.12863 11.2142 9.32149C11.2142 12.4072 13.625 14.9145 16.6784 15.0751V17.3573H14.7499C14.557 17.3573 14.4284 17.4859 14.4284 17.6788C14.4284 17.8716 14.557 18.0002 14.7499 18.0002H19.2499C19.4427 18.0002 19.5713 17.8716 19.5713 17.6788C19.5713 17.4859 19.4427 17.3573 19.2499 17.3573H17.3213V15.0751C20.3749 14.9144 22.7857 12.4072 22.7857 9.32149Z" fill="#1D1D1D"/>
<path d="M16.9999 12.5358C18.7678 12.5358 20.2142 11.0894 20.2142 9.3215V9.22507H17.6428C17.4499 9.22507 17.3214 9.0965 17.3214 8.90364C17.3214 8.71078 17.4499 8.58221 17.6428 8.58221H20.2142V7.45719H17.6428C17.4499 7.45719 17.3214 7.32862 17.3214 7.13576C17.3214 6.94291 17.4499 6.81433 17.6428 6.81433H20.2142V5.68932H17.6428C17.4499 5.68932 17.3214 5.56075 17.3214 5.36789C17.3214 5.17503 17.4499 5.04646 17.6428 5.04646H20.2142V3.92144H17.6428C17.4499 3.92144 17.3214 3.79287 17.3214 3.60001C17.3214 3.40716 17.4499 3.27858 17.6428 3.27858H20.2142V3.2143C20.2142 1.44642 18.7678 0 16.9999 0C15.2321 0 13.7856 1.44642 13.7856 3.2143V9.32157C13.7856 11.0894 15.2321 12.5358 16.9999 12.5358Z" fill="#1D1D1D"/>
<path d="M7.09553 30H6.35689L8.49325 24.1818H9.22053L11.3569 30H10.6183L8.87962 25.1023H8.83416L7.09553 30ZM7.36825 27.7273H10.3455V28.3523H7.36825V27.7273ZM14.9222 28.2159V25.6364H15.5927V30H14.9222V29.2614H14.8768C14.7745 29.483 14.6154 29.6714 14.3995 29.8267C14.1836 29.9801 13.9109 30.0568 13.5813 30.0568C13.3086 30.0568 13.0662 29.9972 12.854 29.8778C12.6419 29.7566 12.4753 29.5748 12.354 29.3324C12.2328 29.0881 12.1722 28.7803 12.1722 28.4091V25.6364H12.8427V28.3636C12.8427 28.6818 12.9317 28.9356 13.1097 29.125C13.2897 29.3144 13.5188 29.4091 13.7972 29.4091C13.9639 29.4091 14.1334 29.3665 14.3058 29.2812C14.48 29.196 14.6258 29.0653 14.7433 28.8892C14.8626 28.7131 14.9222 28.4886 14.9222 28.2159ZM18.4684 30.0909C18.1048 30.0909 17.7837 29.9991 17.5053 29.8153C17.2269 29.6297 17.0091 29.3684 16.8519 29.0312C16.6947 28.6922 16.6161 28.2917 16.6161 27.8295C16.6161 27.3712 16.6947 26.9735 16.8519 26.6364C17.0091 26.2992 17.2279 26.0388 17.5082 25.8551C17.7885 25.6714 18.1123 25.5795 18.4798 25.5795C18.7638 25.5795 18.9883 25.6269 19.1531 25.7216C19.3197 25.8144 19.4466 25.9205 19.5337 26.0398C19.6228 26.1572 19.6919 26.2538 19.7411 26.3295H19.7979V24.1818H20.4684V30H19.8207V29.3295H19.7411C19.6919 29.4091 19.6218 29.5095 19.5309 29.6307C19.44 29.75 19.3103 29.857 19.1417 29.9517C18.9731 30.0445 18.7487 30.0909 18.4684 30.0909ZM18.5593 29.4886C18.8282 29.4886 19.0555 29.4186 19.2411 29.2784C19.4267 29.1364 19.5678 28.9403 19.6644 28.6903C19.761 28.4384 19.8093 28.1477 19.8093 27.8182C19.8093 27.4924 19.762 27.2074 19.6673 26.9631C19.5726 26.7169 19.4324 26.5256 19.2468 26.3892C19.0612 26.2509 18.832 26.1818 18.5593 26.1818C18.2752 26.1818 18.0385 26.2547 17.8491 26.4006C17.6616 26.5445 17.5205 26.7405 17.4258 26.9886C17.333 27.2348 17.2866 27.5114 17.2866 27.8182C17.2866 28.1288 17.3339 28.411 17.4286 28.6648C17.5252 28.9167 17.6673 29.1174 17.8548 29.267C18.0442 29.4148 18.279 29.4886 18.5593 29.4886ZM21.7894 30V25.6364H22.4599V30H21.7894ZM22.1303 24.9091C21.9996 24.9091 21.887 24.8646 21.7923 24.7756C21.6995 24.6866 21.6531 24.5795 21.6531 24.4545C21.6531 24.3295 21.6995 24.2225 21.7923 24.1335C21.887 24.0445 21.9996 24 22.1303 24C22.261 24 22.3728 24.0445 22.4656 24.1335C22.5603 24.2225 22.6076 24.3295 22.6076 24.4545C22.6076 24.5795 22.5603 24.6866 22.4656 24.7756C22.3728 24.8646 22.261 24.9091 22.1303 24.9091ZM25.4606 30.0909C25.0666 30.0909 24.721 29.9972 24.4237 29.8097C24.1282 29.6222 23.8971 29.3598 23.7305 29.0227C23.5657 28.6856 23.4833 28.2917 23.4833 27.8409C23.4833 27.3864 23.5657 26.9896 23.7305 26.6506C23.8971 26.3116 24.1282 26.0483 24.4237 25.8608C24.721 25.6733 25.0666 25.5795 25.4606 25.5795C25.8545 25.5795 26.1992 25.6733 26.4947 25.8608C26.792 26.0483 27.0231 26.3116 27.1879 26.6506C27.3545 26.9896 27.4379 27.3864 27.4379 27.8409C27.4379 28.2917 27.3545 28.6856 27.1879 29.0227C27.0231 29.3598 26.792 29.6222 26.4947 29.8097C26.1992 29.9972 25.8545 30.0909 25.4606 30.0909ZM25.4606 29.4886C25.7598 29.4886 26.006 29.4119 26.1992 29.2585C26.3924 29.1051 26.5354 28.9034 26.6282 28.6534C26.721 28.4034 26.7674 28.1326 26.7674 27.8409C26.7674 27.5492 26.721 27.2775 26.6282 27.0256C26.5354 26.7737 26.3924 26.5701 26.1992 26.4148C26.006 26.2595 25.7598 26.1818 25.4606 26.1818C25.1613 26.1818 24.9151 26.2595 24.7219 26.4148C24.5288 26.5701 24.3858 26.7737 24.293 27.0256C24.2002 27.2775 24.1538 27.5492 24.1538 27.8409C24.1538 28.1326 24.2002 28.4034 24.293 28.6534C24.3858 28.9034 24.5288 29.1051 24.7219 29.2585C24.9151 29.4119 25.1613 29.4886 25.4606 29.4886Z" fill="#1D1D1D"/>
</svg>
