<svg xmlns="http://www.w3.org/2000/svg" width="24" height="18" viewBox="0 0 24 18" fill="none">
  <path fill-rule="evenodd" clip-rule="evenodd" d="M24 8.9997C24 9.7644 23.3801 10.3843 22.6154 10.3843L4.72761 10.3843L9.74899 15.4052C10.2897 15.9459 10.2898 16.8226 9.74909 17.3633C9.20839 17.9041 8.3317 17.9041 7.79095 17.3634L0.405593 9.97882C0.145898 9.71915 -3.99368e-07 9.36694 -3.83315e-07 8.9997C-3.67262e-07 8.63245 0.145898 8.28024 0.405594 8.02058L7.79095 0.635963C8.3317 0.0952646 9.20839 0.0953087 9.74909 0.636062C10.2898 1.17681 10.2897 2.0535 9.74899 2.5942L4.72761 7.61508L22.6154 7.61508C23.3801 7.61508 24 8.23499 24 8.9997Z" fill="#303030"/>
</svg>