<svg width="67" height="66" viewBox="0 0 67 66" fill="none" xmlns="http://www.w3.org/2000/svg">
<g filter="url(#filter0_d_1928_6051)">
<path d="M44.6538 0H22.3462C17.6131 0 13.0738 1.88021 9.72702 5.22702C6.38021 8.57382 4.5 13.1131 4.5 17.8462V40.1538C4.5 44.8869 6.38021 49.4262 9.72702 52.773C13.0738 56.1198 17.6131 58 22.3462 58H44.6538C49.3869 58 53.9262 56.1198 57.273 52.773C60.6198 49.4262 62.5 44.8869 62.5 40.1538V17.8462C62.5 13.1131 60.6198 8.57382 57.273 5.22702C53.9262 1.88021 49.3869 0 44.6538 0ZM44.6538 31.2308H35.7308V40.1538C35.7308 40.7455 35.4957 41.3129 35.0774 41.7312C34.659 42.1496 34.0916 42.3846 33.5 42.3846C32.9084 42.3846 32.341 42.1496 31.9226 41.7312C31.5043 41.3129 31.2692 40.7455 31.2692 40.1538V31.2308H22.3462C21.7545 31.2308 21.1871 30.9957 20.7688 30.5774C20.3504 30.159 20.1154 29.5916 20.1154 29C20.1154 28.4084 20.3504 27.841 20.7688 27.4226C21.1871 27.0043 21.7545 26.7692 22.3462 26.7692H31.2692V17.8462C31.2692 17.2545 31.5043 16.6871 31.9226 16.2688C32.341 15.8504 32.9084 15.6154 33.5 15.6154C34.0916 15.6154 34.659 15.8504 35.0774 16.2688C35.4957 16.6871 35.7308 17.2545 35.7308 17.8462V26.7692H44.6538C45.2455 26.7692 45.8129 27.0043 46.2312 27.4226C46.6496 27.841 46.8846 28.4084 46.8846 29C46.8846 29.5916 46.6496 30.159 46.2312 30.5774C45.8129 30.9957 45.2455 31.2308 44.6538 31.2308Z" fill="#00AFF0"/>
</g>
<defs>
<filter id="filter0_d_1928_6051" x="0.5" y="0" width="66" height="66" filterUnits="userSpaceOnUse" color-interpolation-filters="sRGB">
<feFlood flood-opacity="0" result="BackgroundImageFix"/>
<feColorMatrix in="SourceAlpha" type="matrix" values="0 0 0 0 0 0 0 0 0 0 0 0 0 0 0 0 0 0 127 0" result="hardAlpha"/>
<feOffset dy="4"/>
<feGaussianBlur stdDeviation="2"/>
<feComposite in2="hardAlpha" operator="out"/>
<feColorMatrix type="matrix" values="0 0 0 0 0 0 0 0 0 0.686275 0 0 0 0 0.941176 0 0 0 0.2 0"/>
<feBlend mode="normal" in2="BackgroundImageFix" result="effect1_dropShadow_1928_6051"/>
<feBlend mode="normal" in="SourceGraphic" in2="effect1_dropShadow_1928_6051" result="shape"/>
</filter>
</defs>
</svg>
