<svg xmlns="http://www.w3.org/2000/svg" width="16" height="16" viewBox="0 0 16 16" fill="none">
                                <path d="M2.40195 2.39989C2.18978 2.39989 1.9863 2.48417 1.83627 2.6342C1.68624 2.78423 1.60195 2.98771 1.60195 3.19989V10.3999C1.60195 10.6121 1.68624 10.8155 1.83627 10.9656C1.9863 11.1156 2.18978 11.1999 2.40195 11.1999H13.602C13.8141 11.1999 14.0176 11.1156 14.1676 10.9656C14.3177 10.8155 14.402 10.6121 14.402 10.3999V3.19989C14.402 2.98771 14.3177 2.78423 14.1676 2.6342C14.0176 2.48417 13.8141 2.39989 13.602 2.39989H2.40195ZM2.40195 0.799887H13.602C14.2385 0.799887 14.8489 1.05274 15.299 1.50283C15.7491 1.95292 16.002 2.56337 16.002 3.19989V10.3999C16.002 11.0364 15.7491 11.6469 15.299 12.0969C14.8489 12.547 14.2385 12.7999 13.602 12.7999H2.40195C1.76543 12.7999 1.15498 12.547 0.704897 12.0969C0.25481 11.6469 0.00195313 11.0364 0.00195312 10.3999V3.19989C0.00195313 2.56337 0.25481 1.95292 0.704897 1.50283C1.15498 1.05274 1.76543 0.799887 2.40195 0.799887ZM5.60195 13.5999H10.402C10.6141 13.5999 10.8176 13.6842 10.9676 13.8342C11.1177 13.9842 11.202 14.1877 11.202 14.3999C11.202 14.6121 11.1177 14.8155 10.9676 14.9656C10.8176 15.1156 10.6141 15.1999 10.402 15.1999H5.60195C5.38978 15.1999 5.1863 15.1156 5.03627 14.9656C4.88624 14.8155 4.80195 14.6121 4.80195 14.3999C4.80195 14.1877 4.88624 13.9842 5.03627 13.8342C5.1863 13.6842 5.38978 13.5999 5.60195 13.5999Z" fill="#FF2525" />
                                <path fillRule="evenodd" clipRule="evenodd" d="M0 16.0001L16.875 0.000113487L17.9505 0.896372L1.07551 16.8964L0 16.0001Z" fill="#FF2525" />
                            </svg>