  <svg xmlns="http://www.w3.org/2000/svg" width="17" height="16" viewBox="0 0 17 16" fill="none">
                    <path d="M12.25 8C12.25 10.2401 10.4901 12 8.25 12C6.00993 12 4.25 10.2401 4.25 8C4.25 5.75993 6.00993 4 8.25 4C10.4901 4 12.25 5.75993 12.25 8ZM16.25 8C16.25 12.4007 12.6507 16 8.25 16C3.84932 16 0.25 12.4007 0.25 8C0.25 3.59932 3.84932 0 8.25 0C12.6507 0 16.25 3.59932 16.25 8ZM14.6507 8C14.6507 4.48013 11.7699 1.59932 8.25 1.59932C4.73013 1.59932 1.84932 4.48013 1.84932 8C1.84932 11.5199 4.73013 14.4007 8.25 14.4007C11.7699 14.4007 14.6507 11.5199 14.6507 8Z" fill="#5F6165" />
                  </svg>