 <svg xmlns="http://www.w3.org/2000/svg" width="14" height="14" viewBox="0 0 14 14" fill="none">
                                <path fillRule="evenodd" clipRule="evenodd" d="M12.9114 1.57227C13.0285 1.45511 13.0285 1.26516 12.9114 1.148C12.7942 1.03085 12.6043 1.03085 12.4871 1.148L7.0592 6.57593L1.63127 1.148C1.51412 1.03085 1.32417 1.03085 1.20701 1.148C1.08985 1.26516 1.08985 1.45511 1.20701 1.57227L6.63493 7.00019L1.2074 12.4277C1.09024 12.5449 1.09024 12.7348 1.2074 12.852C1.32455 12.9691 1.5145 12.9691 1.63166 12.852L7.0592 7.42445L12.4867 12.852C12.6039 12.9691 12.7938 12.9691 12.911 12.852C13.0282 12.7348 13.0282 12.5449 12.911 12.4277L7.48346 7.00019L12.9114 1.57227Z" fill="#B5B5BB" />
                                <path d="M12.9114 1.148L13.2649 0.79445L13.2649 0.794449L12.9114 1.148ZM12.9114 1.57227L13.2649 1.92582V1.92582L12.9114 1.57227ZM12.4871 1.148L12.1336 0.794448L12.1336 0.794449L12.4871 1.148ZM7.0592 6.57593L6.70564 6.92948L7.0592 7.28303L7.41275 6.92948L7.0592 6.57593ZM1.63127 1.148L1.27772 1.50156L1.63127 1.148ZM1.20701 1.148L1.56056 1.50156V1.50156L1.20701 1.148ZM1.20701 1.57227L0.853455 1.92582L1.20701 1.57227ZM6.63493 7.00019L6.98849 7.35374L7.34204 7.00019L6.98849 6.64664L6.63493 7.00019ZM1.2074 12.4277L0.853842 12.0742H0.853842L1.2074 12.4277ZM1.2074 12.852L1.56095 12.4984L1.56095 12.4984L1.2074 12.852ZM1.63166 12.852L1.27811 12.4984L1.2781 12.4984L1.63166 12.852ZM7.0592 7.42445L7.41275 7.0709L7.0592 6.71735L6.70564 7.0709L7.0592 7.42445ZM12.4867 12.852L12.8403 12.4984L12.8403 12.4984L12.4867 12.852ZM12.911 12.852L12.5574 12.4984L12.5574 12.4984L12.911 12.852ZM12.911 12.4277L13.2646 12.0742L12.911 12.4277ZM7.48346 7.00019L7.12991 6.64664L6.77635 7.00019L7.12991 7.35374L7.48346 7.00019ZM12.5578 1.50156C12.4797 1.42345 12.4797 1.29682 12.5578 1.21871L13.2649 1.92582C13.5774 1.6134 13.5774 1.10687 13.2649 0.79445L12.5578 1.50156ZM12.8407 1.50156C12.7626 1.57966 12.6359 1.57966 12.5578 1.50156L13.2649 0.794449C12.9525 0.48203 12.446 0.48203 12.1336 0.794448L12.8407 1.50156ZM7.41275 6.92948L12.8407 1.50156L12.1336 0.794449L6.70564 6.22237L7.41275 6.92948ZM1.27772 1.50156L6.70564 6.92948L7.41275 6.22237L1.98483 0.794449L1.27772 1.50156ZM1.56056 1.50156C1.48246 1.57966 1.35582 1.57966 1.27772 1.50156L1.98483 0.794449C1.67241 0.48203 1.16587 0.48203 0.853455 0.79445L1.56056 1.50156ZM1.56056 1.21871C1.63867 1.29682 1.63867 1.42345 1.56056 1.50156L0.853455 0.794449C0.541036 1.10687 0.541036 1.6134 0.853455 1.92582L1.56056 1.21871ZM6.98849 6.64664L1.56056 1.21871L0.853455 1.92582L6.28138 7.35374L6.98849 6.64664ZM1.56095 12.7813L6.98849 7.35374L6.28138 6.64664L0.853842 12.0742L1.56095 12.7813ZM1.56095 12.4984C1.63905 12.5765 1.63905 12.7032 1.56095 12.7813L0.853842 12.0742C0.541423 12.3866 0.541422 12.8931 0.853842 13.2055L1.56095 12.4984ZM1.2781 12.4984C1.35621 12.4203 1.48284 12.4203 1.56095 12.4984L0.85384 13.2055C1.16626 13.518 1.67279 13.518 1.98521 13.2055L1.2781 12.4984ZM6.70564 7.0709L1.27811 12.4984L1.98521 13.2055L7.41275 7.77801L6.70564 7.0709ZM12.8403 12.4984L7.41275 7.0709L6.70564 7.77801L12.1332 13.2055L12.8403 12.4984ZM12.5574 12.4984C12.6355 12.4203 12.7622 12.4203 12.8403 12.4984L12.1332 13.2055C12.4456 13.518 12.9521 13.518 13.2646 13.2055L12.5574 12.4984ZM12.5574 12.7813C12.4793 12.7032 12.4793 12.5765 12.5574 12.4984L13.2646 13.2055C13.577 12.8931 13.577 12.3866 13.2646 12.0742L12.5574 12.7813ZM7.12991 7.35374L12.5574 12.7813L13.2646 12.0742L7.83701 6.64664L7.12991 7.35374ZM12.5578 1.21871L7.12991 6.64664L7.83701 7.35374L13.2649 1.92582L12.5578 1.21871Z" fill="#B5B5BB" />
                            </svg>