<svg width="10" height="9" viewBox="0 0 10 9" fill="none" xmlns="http://www.w3.org/2000/svg">
<g id="vuesax/outline/edit-2">
<g id="Vector">
<path d="M2.30833 7.6338C2.05417 7.6338 1.81667 7.5463 1.64583 7.3838C1.42917 7.17964 1.325 6.8713 1.3625 6.53797L1.51667 5.18797C1.54583 4.9338 1.7 4.5963 1.87917 4.41297L5.3 0.792135C6.15417 -0.112032 7.04583 -0.137032 7.95 0.717135C8.85417 1.5713 8.87917 2.46297 8.025 3.36713L4.60417 6.98797C4.42917 7.17547 4.10417 7.35047 3.85 7.39214L2.50833 7.6213C2.4375 7.62547 2.375 7.6338 2.30833 7.6338ZM6.6375 0.712968C6.31667 0.712968 6.0375 0.912968 5.75417 1.21297L2.33333 4.83797C2.25 4.92547 2.15417 5.1338 2.1375 5.25464L1.98333 6.60463C1.96667 6.74214 2 6.85464 2.075 6.92547C2.15 6.9963 2.2625 7.0213 2.4 7.00047L3.74167 6.7713C3.8625 6.75047 4.0625 6.64214 4.14583 6.55464L7.56667 2.9338C8.08333 2.3838 8.27083 1.87547 7.51667 1.16713C7.18333 0.846301 6.89583 0.712968 6.6375 0.712968Z" fill="#D4D5D6"/>
<path d="M7.225 4.06297C7.21667 4.06297 7.20417 4.06297 7.19583 4.06297C5.89583 3.9338 4.85 2.9463 4.65 1.65463C4.625 1.4838 4.74167 1.32547 4.9125 1.2963C5.08333 1.2713 5.24167 1.38797 5.27083 1.5588C5.42917 2.56714 6.24583 3.34214 7.2625 3.44214C7.43333 3.4588 7.55833 3.61297 7.54167 3.7838C7.52083 3.94214 7.38333 4.06297 7.225 4.06297Z" fill="#D4D5D6"/>
<path d="M8.75 8.97964H1.25C1.07917 8.97964 0.9375 8.83797 0.9375 8.66714C0.9375 8.4963 1.07917 8.35464 1.25 8.35464H8.75C8.92083 8.35464 9.0625 8.4963 9.0625 8.66714C9.0625 8.83797 8.92083 8.97964 8.75 8.97964Z" fill="#D4D5D6"/>
</g>
</g>
</svg>
