<svg width="22" height="22" viewBox="0 0 22 22" fill="none" xmlns="http://www.w3.org/2000/svg">
<g id="Group 38790">
<path id="Vector" fill-rule="evenodd" clip-rule="evenodd" d="M20.8545 0.958357C19.5767 -0.319406 17.5051 -0.319417 16.2273 0.958357L14.3953 2.79042L5.77265 11.413C5.63287 11.5528 5.53372 11.728 5.48578 11.9197L4.39514 16.2823C4.30221 16.654 4.41111 17.0471 4.68201 17.3179C4.9529 17.5889 5.34607 17.6978 5.71774 17.6049L10.0803 16.5142C10.2721 16.4663 10.4472 16.3671 10.587 16.2273L19.1469 7.66747L21.0417 5.77268C22.3194 4.49492 22.3194 2.42324 21.0417 1.14548L20.8545 0.958357ZM17.7697 2.50075C18.1956 2.07484 18.8862 2.07484 19.3121 2.50075L19.4993 2.68788C19.9252 3.1138 19.9252 3.80437 19.4993 4.23028L18.3906 5.33894L16.6942 3.57626L17.7697 2.50075ZM15.1515 5.11894L16.8479 6.88162L9.25824 14.4714L6.95216 15.0479L7.52866 12.7418L15.1515 5.11894ZM2.18128 6.73101C2.18128 6.12867 2.66959 5.64036 3.27193 5.64036H8.72514C9.3275 5.64036 9.81578 5.15207 9.81578 4.54972C9.81578 3.94738 9.3275 3.45908 8.72514 3.45908H3.27193C1.4649 3.45908 0 4.92398 0 6.73101V18.728C0 20.5351 1.4649 22 3.27193 22H15.269C17.0761 22 18.5409 20.5351 18.5409 18.728V13.2748C18.5409 12.6726 18.0526 12.1842 17.4503 12.1842C16.8479 12.1842 16.3596 12.6726 16.3596 13.2748V18.728C16.3596 19.3304 15.8714 19.8187 15.269 19.8187H3.27193C2.66959 19.8187 2.18128 19.3304 2.18128 18.728V6.73101Z" fill="#5F6165"/>
</g>
</svg>
