<svg width="22" height="23" viewBox="0 0 22 23" fill="none" xmlns="http://www.w3.org/2000/svg">
<path fill-rule="evenodd" clip-rule="evenodd" d="M20.8545 1.45833C19.5767 0.180563 17.5051 0.180552 16.2273 1.45833L14.3953 3.29039L5.77265 11.9129C5.63287 12.0528 5.53372 12.2279 5.48578 12.4197L4.39514 16.7822C4.30221 17.1539 4.41111 17.5471 4.68201 17.8179C4.9529 18.0888 5.34607 18.1978 5.71774 18.1049L10.0803 17.0142C10.2721 16.9662 10.4472 16.8671 10.587 16.7273L19.1469 8.16743L21.0417 6.27265C22.3194 4.99489 22.3194 2.92321 21.0417 1.64545L20.8545 1.45833ZM17.7697 3.00072C18.1956 2.57481 18.8862 2.57481 19.3121 3.00072L19.4993 3.18785C19.9252 3.61377 19.9252 4.30434 19.4993 4.73025L18.3906 5.83891L16.6942 4.07623L17.7697 3.00072ZM15.1515 5.61891L16.8479 7.38159L9.25824 14.9713L6.95216 15.5478L7.52866 13.2418L15.1515 5.61891ZM2.18128 7.23098C2.18128 6.62864 2.66959 6.14033 3.27193 6.14033H8.72514C9.3275 6.14033 9.81578 5.65204 9.81578 5.04969C9.81578 4.44735 9.3275 3.95905 8.72514 3.95905H3.27193C1.4649 3.95905 0 5.42395 0 7.23098V19.228C0 21.0351 1.4649 22.4999 3.27193 22.4999H15.269C17.0761 22.4999 18.5409 21.0351 18.5409 19.228V13.7748C18.5409 13.1725 18.0526 12.6841 17.4503 12.6841C16.8479 12.6841 16.3596 13.1725 16.3596 13.7748V19.228C16.3596 19.8304 15.8714 20.3186 15.269 20.3186H3.27193C2.66959 20.3186 2.18128 19.8304 2.18128 19.228V7.23098Z" fill="white"/>
</svg>
