<svg width="18" height="21" viewBox="0 0 18 21" fill="none" xmlns="http://www.w3.org/2000/svg">
<g id="Group">
<path id="Vector" fill-rule="evenodd" clip-rule="evenodd" d="M2.48936 16.9066V14.8612C2.48936 14.4848 2.74672 14.1793 3.06383 14.1793C4.09443 14.1793 6.246 14.1793 7.2766 14.1793C7.5937 14.1793 7.85106 14.4848 7.85106 14.8612V16.9066H17.4255C17.7426 16.9066 18 17.2121 18 17.5884C18 17.9648 17.7426 18.2702 17.4255 18.2702H7.85106V19.8612C7.85106 20.2375 7.5937 20.543 7.2766 20.543C6.246 20.543 4.09443 20.543 3.06383 20.543C2.74672 20.543 2.48936 20.2375 2.48936 19.8612V18.2702H0.574468C0.257362 18.2702 0 17.9648 0 17.5884C0 17.2121 0.257362 16.9066 0.574468 16.9066H2.48936ZM6.70213 15.543H3.6383V19.1793H6.70213V15.543ZM15.5106 10.0721V8.0266C15.5106 7.65024 15.2533 7.34479 14.9362 7.34479C13.9056 7.34479 11.754 7.34479 10.7234 7.34479C10.4063 7.34479 10.1489 7.65024 10.1489 8.0266V10.0721H0.574468C0.257362 10.0721 0 10.3775 0 10.7539C0 11.1307 0.257362 11.4357 0.574468 11.4357H10.1489V13.0266C10.1489 13.4034 10.4063 13.7084 10.7234 13.7084C11.754 13.7084 13.9056 13.7084 14.9362 13.7084C15.2533 13.7084 15.5106 13.4034 15.5106 13.0266V11.4357H17.4255C17.7426 11.4357 18 11.1307 18 10.7539C18 10.3775 17.7426 10.0721 17.4255 10.0721H15.5106ZM14.3617 12.3448V8.70842H11.2979V12.3448H14.3617ZM2.48936 3.27024V1.22479C2.48936 0.848423 2.74672 0.542969 3.06383 0.542969C4.09443 0.542969 6.246 0.542969 7.2766 0.542969C7.5937 0.542969 7.85106 0.848423 7.85106 1.22479V3.27024H17.4255C17.7426 3.27024 18 3.5757 18 3.95206C18 4.32706 17.7449 4.63161 17.4294 4.63388H17.4255H7.85106V6.22479C7.85106 6.60115 7.5937 6.90661 7.2766 6.90661H3.06383C2.74672 6.90661 2.48936 6.60115 2.48936 6.22479V4.63388H0.574468C0.257362 4.63388 0 4.32842 0 3.95206C0 3.5757 0.257362 3.27024 0.574468 3.27024H2.48936ZM6.70213 1.90661H3.6383V5.54297H6.70213V1.90661Z" fill="black"/>
</g>
</svg>
