<svg width="75" height="25" viewBox="0 0 75 25" fill="none" xmlns="http://www.w3.org/2000/svg">
<path fill-rule="evenodd" clip-rule="evenodd" d="M17.8244 2.4136L19.4894 7.63945L21.1544 2.4136H23.5423L19.3919 14.5566H17.1096L18.3523 10.794L15.4446 2.4136H17.8244ZM43.4658 2.16656C45.6425 2.16656 47.2019 4.11437 47.2019 6.90783C47.2019 9.70129 45.6425 11.6491 43.4658 11.6491C42.6373 11.6491 42.0119 11.4021 41.4921 10.9175V14.6801H39.2098V2.53712H41.2809V3.38275C41.5977 2.53711 42.4261 2.16656 43.4658 2.16656ZM27.8876 2.16656C30.2755 2.16656 32.038 4.11437 32.038 6.90783C32.038 9.70129 30.373 11.6491 27.8876 11.6491C25.4997 11.6491 23.7372 9.70129 23.7372 6.90783C23.7372 4.11437 25.4023 2.16656 27.8876 2.16656ZM35.8879 0.342256V2.29008H37.7559V4.59895H35.8879V7.87699C35.8879 8.60861 36.1965 8.96967 36.7163 8.96967C37.1305 8.96967 37.3417 8.84615 37.6504 8.60861L37.7559 8.48509V11.0315H37.6504C37.2361 11.2785 37.025 11.3926 36.4077 11.3926C34.5396 11.3926 33.5 10.1764 33.5 7.99101V7.86749V7.74397V4.35191H32.6715V2.04303H33.6056V0.0952148H35.8879V0.342256ZM52.2864 2.16656C54.6742 2.16656 56.4367 4.11437 56.4367 6.90783C56.4367 9.70129 54.7717 11.6491 52.2864 11.6491C49.8985 11.6491 48.136 9.70129 48.136 6.90783C48.136 4.11437 49.8985 2.16656 52.2864 2.16656ZM58.3129 8.60861C59.0358 8.60861 59.5556 9.34023 59.5556 10.0624C59.5556 10.908 58.9302 11.5161 58.3129 11.5161C57.5901 11.5161 57.0703 10.7845 57.0703 10.0624C57.0621 9.33073 57.582 8.60861 58.3129 8.60861ZM43.0515 4.59895C42.0119 4.59895 41.2891 5.44459 41.2891 6.90783C41.2891 8.24755 42.0119 9.21671 43.0515 9.21671C44.0912 9.21671 44.814 8.37107 44.814 6.90783C44.814 5.56811 44.1886 4.59895 43.0515 4.59895ZM27.8876 4.59895C26.848 4.59895 26.1251 5.56811 26.1251 6.90783C26.1251 8.24755 26.848 9.21671 27.8876 9.21671C28.9272 9.21671 29.6501 8.24755 29.6501 6.90783C29.6501 5.56811 28.9272 4.59895 27.8876 4.59895ZM52.2864 4.59895C51.2467 4.59895 50.5239 5.56811 50.5239 6.90783C50.5239 8.24755 51.2467 9.21671 52.2864 9.21671C53.326 9.21671 54.0488 8.24755 54.0488 6.90783C54.0488 5.56811 53.326 4.59895 52.2864 4.59895Z" fill="black"/>
<path d="M4.63862 22.9053L2.90726 20.7365C2.86315 20.7389 2.79576 20.7402 2.70509 20.7402C2.46248 20.7402 2.1782 20.7279 1.85227 20.7034V22.9053H1.03622V17.5936C1.59251 17.4686 2.16718 17.4061 2.76022 17.4061C3.56648 17.4061 4.16443 17.5384 4.55407 17.8031C4.94372 18.0653 5.13854 18.4844 5.13854 19.0603C5.13854 19.4769 5.02092 19.8175 4.78566 20.0822C4.55285 20.3468 4.20731 20.5319 3.74905 20.6372L5.57598 22.9053H4.63862ZM1.85227 20.0785C2.01891 20.0956 2.16473 20.1079 2.28971 20.1153C2.41714 20.1226 2.56663 20.1263 2.73817 20.1263C3.30181 20.1263 3.71229 20.0417 3.9696 19.8726C4.22692 19.7011 4.35557 19.434 4.35557 19.0713C4.35557 18.814 4.30166 18.6081 4.19383 18.4537C4.08846 18.2993 3.92304 18.1878 3.69758 18.1192C3.47458 18.0506 3.18051 18.0163 2.81536 18.0163C2.63157 18.0163 2.46615 18.0237 2.31911 18.0384C2.17208 18.0531 2.01646 18.0751 1.85227 18.1045V20.0785ZM9.62776 21.1482H6.72746C6.74216 21.4374 6.80466 21.6714 6.91493 21.8503C7.02521 22.0267 7.19063 22.1566 7.41118 22.2399C7.63174 22.3233 7.91478 22.3649 8.26032 22.3649C8.60341 22.3649 8.98325 22.3122 9.39985 22.2068V22.8134C8.9661 22.9237 8.54827 22.9788 8.14637 22.9788C7.40138 22.9788 6.84264 22.8109 6.47015 22.4752C6.1001 22.137 5.91508 21.6163 5.91508 20.9129C5.91508 20.4718 5.98983 20.0969 6.13931 19.7881C6.2888 19.4793 6.50446 19.2453 6.78628 19.086C7.07055 18.9243 7.41241 18.8434 7.81186 18.8434C8.4 18.8434 8.84969 19.0235 9.16092 19.3837C9.47215 19.7415 9.62776 20.2586 9.62776 20.935V21.1482ZM7.80083 19.3837C7.45774 19.3837 7.19553 19.4879 7.01418 19.6962C6.83284 19.902 6.73604 20.2219 6.72379 20.6556H8.85949C8.84969 20.2219 8.75657 19.902 8.58012 19.6962C8.40368 19.4879 8.14392 19.3837 7.80083 19.3837ZM13.6069 18.9059H14.412L12.688 22.9053H11.6844L9.96411 18.9059H10.8316L12.2211 22.2142L13.6069 18.9059ZM15.085 22.9053V18.9059H15.9011V22.9053H15.085ZM15.493 18.1266C15.319 18.1266 15.1867 18.0886 15.096 18.0126C15.0078 17.9367 14.9637 17.8276 14.9637 17.6855C14.9637 17.5409 15.0078 17.4306 15.096 17.3546C15.1867 17.2762 15.319 17.237 15.493 17.237C15.667 17.237 15.7981 17.2762 15.8864 17.3546C15.977 17.4306 16.0224 17.5409 16.0224 17.6855C16.0224 17.8276 15.977 17.9367 15.8864 18.0126C15.7981 18.0886 15.667 18.1266 15.493 18.1266ZM20.6053 21.1482H17.705C17.7197 21.4374 17.7822 21.6714 17.8924 21.8503C18.0027 22.0267 18.1681 22.1566 18.3887 22.2399C18.6092 22.3233 18.8923 22.3649 19.2378 22.3649C19.5809 22.3649 19.9608 22.3122 20.3774 22.2068V22.8134C19.9436 22.9237 19.5258 22.9788 19.1239 22.9788C18.3789 22.9788 17.8201 22.8109 17.4476 22.4752C17.0776 22.137 16.8926 21.6163 16.8926 20.9129C16.8926 20.4718 16.9673 20.0969 17.1168 19.7881C17.2663 19.4793 17.482 19.2453 17.7638 19.086C18.048 18.9243 18.3899 18.8434 18.7894 18.8434C19.3775 18.8434 19.8272 19.0235 20.1384 19.3837C20.4496 19.7415 20.6053 20.2586 20.6053 20.935V21.1482ZM18.7783 19.3837C18.4352 19.3837 18.173 19.4879 17.9917 19.6962C17.8103 19.902 17.7135 20.2219 17.7013 20.6556H19.837C19.8272 20.2219 19.7341 19.902 19.5576 19.6962C19.3812 19.4879 19.1214 19.3837 18.7783 19.3837ZM26.9517 18.9059H27.7163L26.4481 22.9053H25.4997L24.4448 19.6374L23.3824 22.9053H22.4377L21.1585 18.9059H21.9598L22.956 22.1076L23.9816 18.9059H24.9263L25.9482 22.0855L26.9517 18.9059ZM29.7599 22.9788C29.2575 22.9788 28.8017 22.92 28.3924 22.8023V22.2105C28.8311 22.3331 29.2881 22.3943 29.7635 22.3943C30.1311 22.3943 30.3958 22.3453 30.5575 22.2473C30.7193 22.1468 30.8001 22.001 30.8001 21.8098C30.8001 21.7069 30.7818 21.6224 30.745 21.5562C30.7082 21.4876 30.6458 21.4312 30.5575 21.3871C30.4693 21.3406 30.348 21.305 30.1936 21.2805L29.4842 21.1702C29.0725 21.1041 28.7747 20.9791 28.5909 20.7953C28.4096 20.6115 28.3189 20.3652 28.3189 20.0564C28.3189 19.6815 28.4733 19.3862 28.7821 19.1705C29.0933 18.9524 29.5675 18.8434 30.2046 18.8434C30.4056 18.8434 30.6053 18.8569 30.8038 18.8838C31.0048 18.9083 31.1898 18.9451 31.3589 18.9941V19.5822C30.9864 19.4793 30.6029 19.4279 30.2083 19.4279C29.804 19.4279 29.5185 19.4805 29.3518 19.5859C29.1852 19.6913 29.1019 19.8371 29.1019 20.0234C29.1019 20.163 29.1448 20.277 29.2305 20.3652C29.3163 20.451 29.4695 20.5135 29.69 20.5527L30.3995 20.663C30.8087 20.7267 31.1089 20.8443 31.3001 21.0159C31.4912 21.1874 31.5868 21.4361 31.5868 21.7621C31.5868 22.0145 31.5182 22.2314 31.3809 22.4127C31.2462 22.594 31.0415 22.7337 30.7671 22.8318C30.495 22.9298 30.1593 22.9788 29.7599 22.9788Z" fill="black"/>
<path d="M39.1027 16.7295L39.928 19.2695H42.5987L40.438 20.8393L41.2633 23.3793L39.1027 21.8095L36.942 23.3793L37.7673 20.8393L35.6067 19.2695H38.2774L39.1027 16.7295Z" fill="black"/>
<path d="M47.0673 16.7295L47.8926 19.2695H50.5633L48.4026 20.8393L49.2279 23.3793L47.0673 21.8095L44.9066 23.3793L45.7319 20.8393L43.5713 19.2695H46.242L47.0673 16.7295Z" fill="black"/>
<path d="M55.0316 16.7295L55.8569 19.2695H58.5276L56.367 20.8393L57.1923 23.3793L55.0316 21.8095L52.871 23.3793L53.6963 20.8393L51.5356 19.2695H54.2063L55.0316 16.7295Z" fill="black"/>
<path d="M62.9962 16.7295L63.8215 19.2695H66.4922L64.3316 20.8393L65.1569 23.3793L62.9962 21.8095L60.8356 23.3793L61.6609 20.8393L59.5002 19.2695H62.1709L62.9962 16.7295Z" fill="black"/>
<path d="M70.9606 16.7295L71.7859 19.2695H74.4566L72.2959 20.8393L73.1212 23.3793L70.9606 21.8095L68.7999 23.3793L69.6252 20.8393L67.4646 19.2695H70.1353L70.9606 16.7295Z" fill="black"/>
</svg>
