<svg width="24" height="24" viewBox="0 0 24 24" fill="none" xmlns="http://www.w3.org/2000/svg">
<g id="Group">
<path id="Vector" d="M22.5703 4.25165C22.2226 4.25165 21.9406 4.53361 21.9406 4.88134V21.9407H21.0389V8.16149C21.0389 7.81376 20.7569 7.5318 20.4092 7.5318H18.9549V1.42975C18.9549 1.08202 18.6729 0.800061 18.3252 0.800061H14.7778C14.43 0.800061 14.1481 1.08202 14.1481 1.42975V4.31471C14.1481 4.66244 14.43 4.9444 14.7778 4.9444H17.6955V7.53176H16.2412C15.8935 7.53176 15.6115 7.81372 15.6115 8.16145V21.9407H14.7544V10.7259C14.7544 10.3782 14.4725 10.0962 14.1248 10.0962H9.95679C9.60906 10.0962 9.32711 10.3782 9.32711 10.7259V21.9407H8.47001V15.3659C8.47001 15.0182 8.18805 14.7362 7.84032 14.7362H3.67236C3.32463 14.7362 3.04267 15.0182 3.04267 15.3659V21.9407H1.42969C1.08196 21.9407 0.8 22.2226 0.8 22.5704C0.8 22.9181 1.08196 23.2001 1.42969 23.2001H22.5703C22.918 23.2001 23.2 22.9181 23.2 22.5704V4.88134C23.2 4.53356 22.918 4.25165 22.5703 4.25165ZM15.4074 3.68503V2.05944H17.6955V3.68503H15.4074ZM19.7795 8.79118V21.9407H16.8709V8.79118H19.7795ZM10.5865 11.3556H13.4951V21.9407H10.5865V11.3556ZM4.30204 15.9956H7.21064V21.9407H4.30204V15.9956Z" fill="#5F6165" stroke="#5F6165" stroke-width="0.4"/>
</g>
</svg>
