<svg width="22" height="20" viewBox="0 0 22 20" fill="none" xmlns="http://www.w3.org/2000/svg">
<path id="Vector" d="M20.7353 9.84863C20.8777 9.95863 21.0456 10.0117 21.2135 10.0117C21.4493 10.0117 21.682 9.90658 21.8372 9.70523C22.1014 9.36149 22.0375 8.86749 21.6928 8.6033L11.4788 0.746343C11.1959 0.529295 10.8031 0.529295 10.5212 0.746343L0.307174 8.6033C-0.0375511 8.86749 -0.101387 9.36051 0.162803 9.70523C0.427978 10.049 0.920992 10.1138 1.26474 9.84862L2.43541 8.94802V17.8441H2.35782C1.92372 17.8441 1.57213 18.1957 1.57213 18.6298C1.57213 19.0639 1.92372 19.4155 2.35782 19.4155H3.21621C3.21817 19.4155 3.22013 19.4165 3.2221 19.4165H7.85783C7.85979 19.4165 7.86176 19.4155 7.86372 19.4155H19.6434C20.0775 19.4155 20.4291 19.0639 20.4291 18.6298C20.4291 18.1957 20.0775 17.8441 19.6434 17.8441H19.5648V8.94802L20.7353 9.84863ZM12.5718 17.8441H9.42904V13.9156H12.5718V17.8441ZM17.993 17.8441H14.1432V13.1299C14.1432 12.6958 13.7916 12.3443 13.3575 12.3443H8.64335C8.20924 12.3443 7.85765 12.6958 7.85765 13.1299V17.8441H4.00787V7.7392L11.0004 2.36001L17.993 7.7392V17.8441Z" fill="#5F6165"/>
</svg>
