<svg width="15" height="14" viewBox="0 0 15 14" fill="none" xmlns="http://www.w3.org/2000/svg">
<path d="M9.66883 5.35294L9.27577 5.28541C9.26628 5.34437 9.26933 5.40476 9.28471 5.46239C9.30009 5.52001 9.32743 5.57348 9.36483 5.61909C9.40224 5.66469 9.4488 5.70134 9.5013 5.72649C9.5538 5.75164 9.61096 5.76468 9.66883 5.76471V5.35294ZM0.898645 5.35294V4.94118C0.792918 4.94118 0.691521 4.98456 0.61676 5.06178C0.542 5.139 0.5 5.24373 0.5 5.35294H0.898645ZM2.49322 14H11.5504V13.1765H2.49322V14ZM12.5072 4.94118H9.66883V5.76471H12.5072V4.94118ZM10.0619 5.42047L10.7045 1.43871L9.91838 1.30282L9.27577 5.28541L10.0619 5.42047ZM9.52532 3.22532e-08H9.3555V0.823529H9.52532V3.22532e-08ZM7.03299 1.28388L5.02701 4.39106L5.69036 4.84812L7.69554 1.74012L7.03299 1.28388ZM4.03199 4.94118H0.898645V5.76471H4.03199V4.94118ZM0.5 5.35294V11.9412H1.29729V5.35294H0.5ZM13.5054 12.3447L14.4621 7.40353L13.6808 7.24212L12.724 12.1833L13.5054 12.3447ZM5.02701 4.39106C4.91781 4.56027 4.76985 4.69901 4.59628 4.79498C4.4227 4.89094 4.22887 4.94116 4.03199 4.94118V5.76471C4.3601 5.76471 4.68313 5.68106 4.97242 5.52116C5.26172 5.36127 5.50832 5.13008 5.69036 4.84812L5.02701 4.39106ZM10.7045 1.43871C10.7331 1.26176 10.7241 1.0805 10.678 0.907533C10.6319 0.734566 10.5499 0.574043 10.4377 0.437123C10.3254 0.300204 10.1857 0.190175 10.0281 0.114687C9.87058 0.0391988 9.699 6.26889e-05 9.52532 3.22532e-08V0.823529C9.58325 0.823437 9.64051 0.836389 9.6931 0.861484C9.7457 0.886578 9.79237 0.923212 9.82986 0.968834C9.86735 1.01446 9.89476 1.06797 9.91019 1.12565C9.92561 1.18333 9.92868 1.24379 9.91918 1.30282L10.7045 1.43871ZM12.5072 5.76471C12.6841 5.76469 12.8589 5.80523 13.0188 5.88341C13.1787 5.96158 13.3199 6.07543 13.4321 6.21675C13.5442 6.35807 13.6247 6.52335 13.6675 6.70066C13.7104 6.87797 13.7155 7.0629 13.6808 7.24212L14.4621 7.40353C14.5199 7.10495 14.5121 6.79686 14.4407 6.50144C14.3693 6.20602 14.2354 5.93063 14.0485 5.69512C13.8617 5.4596 13.6266 5.26982 13.3602 5.13945C13.0938 5.00908 12.8028 4.94136 12.508 4.94118L12.5072 5.76471ZM11.5504 14C12.0113 14.0001 12.458 13.8352 12.8144 13.5334C13.1709 13.2316 13.4151 12.8115 13.5054 12.3447L12.724 12.1833C12.6698 12.4635 12.5232 12.7156 12.3092 12.8967C12.0952 13.0778 11.8271 13.1767 11.5504 13.1765V14ZM9.3547 3.22532e-08C8.89516 -7.09689e-05 8.44271 0.117084 8.03755 0.341059C7.63239 0.565034 7.28704 0.888897 7.03219 1.28388L7.69554 1.74012C7.87757 1.45816 8.12418 1.22697 8.41347 1.06707C8.70276 0.90718 9.0258 0.823524 9.3539 0.823529L9.3547 3.22532e-08ZM2.49322 13.1765C2.17604 13.1765 1.87185 13.0463 1.64757 12.8147C1.42329 12.583 1.29729 12.2688 1.29729 11.9412H0.5C0.5 12.2115 0.551556 12.4793 0.651725 12.7291C0.751894 12.9788 0.898714 13.2058 1.0838 13.397C1.26889 13.5882 1.48862 13.7398 1.73045 13.8433C1.97228 13.9467 2.23147 14 2.49322 14V13.1765Z" fill="#1D1D1D"/>
<path d="M4.08984 5.35107V13.5864" stroke="#1D1D1D"/>
</svg>
