<svg width="14" height="15" viewBox="0 0 14 15" fill="none" xmlns="http://www.w3.org/2000/svg">
<path id="icon/communication/list_alt_24px" fill-rule="evenodd" clip-rule="evenodd" d="M13.2222 0.5H0.777778C0.35 0.5 0 0.85 0 1.27778V13.7222C0 14.15 0.35 14.5 0.777778 14.5H13.2222C13.65 14.5 14 14.15 14 13.7222V1.27778C14 0.85 13.65 0.5 13.2222 0.5ZM4.66493 3.60807H3.10937V5.16363H4.66493V3.60807ZM10.1154 5.16363H7.00434C6.57656 5.16363 6.22656 4.81363 6.22656 4.38585C6.22656 3.95807 6.57656 3.60807 7.00434 3.60807H10.1154C10.5432 3.60807 10.8932 3.95807 10.8932 4.38585C10.8932 4.81363 10.5432 5.16363 10.1154 5.16363ZM10.1154 8.27626H7.00434C6.57656 8.27626 6.22656 7.92626 6.22656 7.49848C6.22656 7.0707 6.57656 6.7207 7.00434 6.7207H10.1154C10.5432 6.7207 10.8932 7.0707 10.8932 7.49848C10.8932 7.92626 10.5432 8.27626 10.1154 8.27626ZM7.00434 11.3934H10.1154C10.5432 11.3934 10.8932 11.0434 10.8932 10.6157C10.8932 10.1879 10.5432 9.83789 10.1154 9.83789H7.00434C6.57656 9.83789 6.22656 10.1879 6.22656 10.6157C6.22656 11.0434 6.57656 11.3934 7.00434 11.3934ZM3.10937 6.7207H4.66493V8.27626H3.10937V6.7207ZM4.66493 9.83789H3.10937V11.3934H4.66493V9.83789ZM1.5625 12.9429H12.4514V2.05404H1.5625V12.9429Z" fill="#55565B"/>
</svg>
