<svg width="14" height="14" viewBox="0 0 14 14" fill="none" xmlns="http://www.w3.org/2000/svg">
<path fill-rule="evenodd" clip-rule="evenodd" d="M1.3282 14.0005H6.78906V12.2731C5.07655 12.6518 3.9939 10.5888 5.18742 9.39526C5.60739 8.97529 6.19196 8.80693 6.78906 8.93899V7.21094H4.77116C4.62721 7.21094 4.50892 7.06323 4.58527 6.90237C4.92262 6.19074 4.4169 5.10735 3.3942 5.10735C2.45349 5.10735 1.842 6.07498 2.2094 6.91615C2.26949 7.05385 2.16684 7.21031 2.01726 7.21031L0 7.21094V12.6718C0 13.4022 0.598352 14.0006 1.32876 14.0006L1.3282 14.0005ZM13.9999 12.6717C13.9999 13.4022 13.4016 14.0005 12.6712 14.0005H7.20966V11.9826C7.20966 11.833 7.05319 11.7304 6.9155 11.7905C6.0743 12.1572 5.10669 11.5458 5.10669 10.6057C5.10669 9.58297 6.18948 9.07725 6.90172 9.41461C7.06194 9.49034 7.21028 9.37267 7.21028 9.22871V7.21081H8.93833C8.80627 7.80791 8.97463 8.39248 9.39461 8.81246C10.5882 10.006 12.6511 8.92324 12.2724 7.21081H13.9999L13.9999 12.6717ZM6.7897 0.000672034V2.01857C6.7897 2.16315 6.93741 2.28082 7.09827 2.20447C7.80927 1.86711 8.89329 2.37283 8.89329 3.39553C8.89329 4.41823 7.81051 4.92395 7.09827 4.58659C6.93804 4.51086 6.7897 4.62853 6.7897 4.77249V6.79039H5.06165C5.19372 6.19329 5.02535 5.60872 4.60537 5.18874C3.41181 3.99518 1.34892 5.07796 1.72754 6.79039H0.000128203V1.32889C0.000128203 0.598479 0.59848 0.00012721 1.32889 0.00012721H6.78975L6.7897 0.000672034ZM12.6718 0.000672034H7.2103V1.72808C8.9228 1.34942 10.0055 3.41303 8.81194 4.60592C8.39197 5.02589 7.8074 5.19426 7.2103 5.0622V6.79025L9.2282 6.79087C9.37591 6.79087 9.48105 6.94484 9.42034 7.08441C9.05357 7.9256 9.66506 8.89321 10.6051 8.89321C11.6278 8.89321 12.1336 7.81043 11.7962 7.09819C11.7205 6.93796 11.8381 6.78962 11.9821 6.78962H14V1.32876C14 0.598352 13.4016 0 12.6712 0L12.6718 0.000672034Z" fill="white"/>
</svg>
