<svg width="23" height="31" viewBox="0 0 23 31" fill="none" xmlns="http://www.w3.org/2000/svg">
<path d="M11.4983 18.9058C14.6423 18.9058 17.1903 16.3879 17.1903 13.2808V5.78076C17.1903 2.67362 14.6423 0.155762 11.4983 0.155762C8.35435 0.155762 5.80636 2.67362 5.80636 5.78076V13.2808C5.80636 16.3879 8.35435 18.9058 11.4983 18.9058ZM22.5474 13.2138C22.5474 13.0665 22.4269 12.9459 22.2796 12.9459H20.2706C20.1233 12.9459 20.0028 13.0665 20.0028 13.2138C20.0028 17.9113 16.1959 21.7183 11.4983 21.7183C6.80078 21.7183 2.99386 17.9113 2.99386 13.2138C2.99386 13.0665 2.87333 12.9459 2.726 12.9459H0.717076C0.569754 12.9459 0.449219 13.0665 0.449219 13.2138C0.449219 18.8622 4.68806 23.5229 10.159 24.1825V27.6111H5.29409C4.83538 27.6111 4.46708 28.0899 4.46708 28.6825V29.8879C4.46708 30.0352 4.56083 30.1558 4.67467 30.1558H18.322C18.4358 30.1558 18.5296 30.0352 18.5296 29.8879V28.6825C18.5296 28.0899 18.1613 27.6111 17.7026 27.6111H12.7037V24.1993C18.2383 23.5966 22.5474 18.9091 22.5474 13.2138Z" fill="#1D1D1D" fill-opacity="0.5"/>
</svg>
