<svg xmlns="http://www.w3.org/2000/svg" width="12" height="17" viewBox="0 0 12 17" fill="none">
                                <path d="M10.4634 8.07895C10.4634 10.6053 8.32442 12.3737 6.00021 12.3737C3.676 12.3737 1.53705 10.6053 1.53705 8.07895H0.105469C0.105469 10.9505 2.396 13.3253 5.1581 13.7379V16.5H6.84231V13.7379C9.60442 13.3253 11.8949 10.9505 11.8949 8.07895M4.98968 2.94211C4.98968 2.38632 5.44442 1.93158 6.00021 1.93158C6.55599 1.93158 7.01073 2.38632 7.01073 2.94211L7.00231 8.16316C7.00231 8.71895 6.55599 9.17368 6.00021 9.17368C5.44442 9.17368 4.98968 8.71895 4.98968 8.16316M6.00021 10.6053C6.67023 10.6053 7.3128 10.3391 7.78658 9.86532C8.26036 9.39155 8.52652 8.74897 8.52652 8.07895V3.02632C8.52652 2.3563 8.26036 1.71372 7.78658 1.23994C7.3128 0.766165 6.67023 0.5 6.00021 0.5C5.33018 0.5 4.68761 0.766165 4.21383 1.23994C3.74005 1.71372 3.47389 2.3563 3.47389 3.02632V8.07895C3.47389 8.74897 3.74005 9.39155 4.21383 9.86532C4.68761 10.3391 5.33018 10.6053 6.00021 10.6053Z" fill="#1D1D1D" />
                            </svg>