<svg width="34" height="32" viewBox="0 0 34 32" fill="none" xmlns="http://www.w3.org/2000/svg">
<path d="M23.6675 3.88499V12.36C23.6675 13.845 22.46 15.0525 20.975 15.0525C19.4975 15.0525 18.2825 13.845 18.2825 12.36C18.2825 10.8825 19.4975 9.67499 20.975 9.67499C21.605 9.67499 22.1675 9.89249 22.625 10.2525V5.78999L15.7175 7.75499V13.8075C15.7175 15.2925 14.5025 16.5 13.025 16.5C11.54 16.5 10.3325 15.2925 10.3325 13.8075C10.3325 12.33 11.54 11.1225 13.025 11.1225C13.6475 11.1225 14.21 11.34 14.6675 11.6925V5.06249C14.6675 3.95999 15.335 3.10499 16.3925 2.81999L20.7275 1.63499C21.605 1.39499 22.3475 1.47749 22.8725 1.88249C23.405 2.27999 23.6675 2.95499 23.6675 3.88499Z" fill="#1D1D1D"/>
<path d="M8.80043 25.6364C8.76634 25.3485 8.62808 25.125 8.38565 24.9659C8.14323 24.8068 7.84588 24.7273 7.49361 24.7273C7.23603 24.7273 7.01065 24.7689 6.81747 24.8523C6.62618 24.9356 6.47656 25.0502 6.36861 25.196C6.26255 25.3419 6.20952 25.5076 6.20952 25.6932C6.20952 25.8485 6.24645 25.982 6.32031 26.0938C6.39607 26.2036 6.49266 26.2955 6.61009 26.3693C6.72751 26.4413 6.85062 26.5009 6.9794 26.5483C7.10819 26.5937 7.22656 26.6307 7.33452 26.6591L7.92543 26.8182C8.07694 26.858 8.2455 26.9129 8.43111 26.983C8.61861 27.053 8.79759 27.1487 8.96804 27.2699C9.14039 27.3892 9.28243 27.5426 9.39418 27.7301C9.50592 27.9176 9.56179 28.1477 9.56179 28.4205C9.56179 28.7348 9.4794 29.0189 9.31463 29.2727C9.15175 29.5265 8.91312 29.7282 8.59872 29.8778C8.28622 30.0275 7.90649 30.1023 7.45952 30.1023C7.04285 30.1023 6.68205 30.035 6.37713 29.9006C6.0741 29.7661 5.83546 29.5786 5.66122 29.3381C5.48887 29.0975 5.39134 28.8182 5.36861 28.5H6.09588C6.11482 28.7197 6.18868 28.9015 6.31747 29.0455C6.44815 29.1875 6.61293 29.2936 6.81179 29.3636C7.01255 29.4318 7.22846 29.4659 7.45952 29.4659C7.72846 29.4659 7.96993 29.4223 8.18395 29.3352C8.39796 29.2462 8.56747 29.1231 8.69247 28.9659C8.81747 28.8068 8.87997 28.6212 8.87997 28.4091C8.87997 28.2159 8.82599 28.0587 8.71804 27.9375C8.61009 27.8163 8.46804 27.7178 8.2919 27.642C8.11577 27.5663 7.92543 27.5 7.72088 27.4432L7.00497 27.2386C6.55043 27.108 6.19058 26.9214 5.92543 26.679C5.66027 26.4366 5.5277 26.1193 5.5277 25.7273C5.5277 25.4015 5.61577 25.1174 5.7919 24.875C5.96993 24.6307 6.20857 24.4413 6.50781 24.3068C6.80895 24.1705 7.14512 24.1023 7.51634 24.1023C7.89134 24.1023 8.22467 24.1695 8.51634 24.304C8.808 24.4366 9.03906 24.6184 9.20952 24.8494C9.38187 25.0805 9.47277 25.3428 9.48224 25.6364H8.80043ZM12.402 30.0909C12.008 30.0909 11.6624 29.9972 11.3651 29.8097C11.0696 29.6222 10.8385 29.3598 10.6719 29.0227C10.5071 28.6856 10.4247 28.2917 10.4247 27.8409C10.4247 27.3864 10.5071 26.9896 10.6719 26.6506C10.8385 26.3116 11.0696 26.0483 11.3651 25.8608C11.6624 25.6733 12.008 25.5795 12.402 25.5795C12.7959 25.5795 13.1406 25.6733 13.4361 25.8608C13.7334 26.0483 13.9645 26.3116 14.1293 26.6506C14.2959 26.9896 14.3793 27.3864 14.3793 27.8409C14.3793 28.2917 14.2959 28.6856 14.1293 29.0227C13.9645 29.3598 13.7334 29.6222 13.4361 29.8097C13.1406 29.9972 12.7959 30.0909 12.402 30.0909ZM12.402 29.4886C12.7012 29.4886 12.9474 29.4119 13.1406 29.2585C13.3338 29.1051 13.4768 28.9034 13.5696 28.6534C13.6624 28.4034 13.7088 28.1326 13.7088 27.8409C13.7088 27.5492 13.6624 27.2775 13.5696 27.0256C13.4768 26.7737 13.3338 26.5701 13.1406 26.4148C12.9474 26.2595 12.7012 26.1818 12.402 26.1818C12.1027 26.1818 11.8565 26.2595 11.6634 26.4148C11.4702 26.5701 11.3272 26.7737 11.2344 27.0256C11.1416 27.2775 11.0952 27.5492 11.0952 27.8409C11.0952 28.1326 11.1416 28.4034 11.2344 28.6534C11.3272 28.9034 11.4702 29.1051 11.6634 29.2585C11.8565 29.4119 12.1027 29.4886 12.402 29.4886ZM18.1527 28.2159V25.6364H18.8232V30H18.1527V29.2614H18.1072C18.005 29.483 17.8459 29.6714 17.63 29.8267C17.4141 29.9801 17.1413 30.0568 16.8118 30.0568C16.5391 30.0568 16.2966 29.9972 16.0845 29.8778C15.8724 29.7566 15.7057 29.5748 15.5845 29.3324C15.4633 29.0881 15.4027 28.7803 15.4027 28.4091V25.6364H16.0732V28.3636C16.0732 28.6818 16.1622 28.9356 16.3402 29.125C16.5201 29.3144 16.7493 29.4091 17.0277 29.4091C17.1944 29.4091 17.3639 29.3665 17.5362 29.2812C17.7105 29.196 17.8563 29.0653 17.9737 28.8892C18.093 28.7131 18.1527 28.4886 18.1527 28.2159ZM20.7216 27.375V30H20.0511V25.6364H20.6989V26.3182H20.7557C20.858 26.0966 21.0133 25.9186 21.2216 25.7841C21.4299 25.6477 21.6989 25.5795 22.0284 25.5795C22.3239 25.5795 22.5824 25.6402 22.804 25.7614C23.0256 25.8807 23.1979 26.0625 23.321 26.3068C23.4441 26.5492 23.5057 26.8561 23.5057 27.2273V30H22.8352V27.2727C22.8352 26.9299 22.7462 26.6629 22.5682 26.4716C22.3902 26.2784 22.1458 26.1818 21.8352 26.1818C21.6212 26.1818 21.4299 26.2282 21.2614 26.321C21.0947 26.4138 20.9631 26.5492 20.8665 26.7273C20.7699 26.9053 20.7216 27.1212 20.7216 27.375ZM26.3786 30.0909C26.0149 30.0909 25.6939 29.9991 25.4155 29.8153C25.1371 29.6297 24.9193 29.3684 24.7621 29.0312C24.6049 28.6922 24.5263 28.2917 24.5263 27.8295C24.5263 27.3712 24.6049 26.9735 24.7621 26.6364C24.9193 26.2992 25.138 26.0388 25.4183 25.8551C25.6986 25.6714 26.0225 25.5795 26.3899 25.5795C26.674 25.5795 26.8984 25.6269 27.0632 25.7216C27.2299 25.8144 27.3568 25.9205 27.4439 26.0398C27.5329 26.1572 27.602 26.2538 27.6513 26.3295H27.7081V24.1818H28.3786V30H27.7308V29.3295H27.6513C27.602 29.4091 27.532 29.5095 27.4411 29.6307C27.3501 29.75 27.2204 29.857 27.0518 29.9517C26.8833 30.0445 26.6589 30.0909 26.3786 30.0909ZM26.4695 29.4886C26.7384 29.4886 26.9657 29.4186 27.1513 29.2784C27.3369 29.1364 27.478 28.9403 27.5746 28.6903C27.6712 28.4384 27.7195 28.1477 27.7195 27.8182C27.7195 27.4924 27.6721 27.2074 27.5774 26.9631C27.4827 26.7169 27.3426 26.5256 27.157 26.3892C26.9714 26.2509 26.7422 26.1818 26.4695 26.1818C26.1854 26.1818 25.9486 26.2547 25.7592 26.4006C25.5717 26.5445 25.4306 26.7405 25.3359 26.9886C25.2431 27.2348 25.1967 27.5114 25.1967 27.8182C25.1967 28.1288 25.2441 28.411 25.3388 28.6648C25.4354 28.9167 25.5774 29.1174 25.7649 29.267C25.9543 29.4148 26.1892 29.4886 26.4695 29.4886Z" fill="#1D1D1D"/>
</svg>
