<svg width="68" height="67" viewBox="0 0 68 67" fill="none" xmlns="http://www.w3.org/2000/svg">
<mask id="path-1-outside-1_3491_82250" maskUnits="userSpaceOnUse" x="0.935547" y="0.5" width="67" height="66" fill="black">
<rect fill="white" x="0.935547" y="0.5" width="67" height="66"/>
<path d="M33.9988 9.5C29.2395 9.5 24.5872 10.9076 20.63 13.5447C16.6728 16.1819 13.5886 19.9302 11.7673 24.3156C9.94597 28.701 9.46944 33.5266 10.3979 38.1822C11.3264 42.8377 13.6182 47.1141 16.9835 50.4706C20.3488 53.827 24.6365 56.1128 29.3043 57.0388C33.9721 57.9649 38.8104 57.4896 43.2074 55.6731C47.6044 53.8566 51.3625 50.7805 54.0066 46.8337C56.6507 42.8869 58.062 38.2467 58.062 33.5C58.062 27.1348 55.5268 21.0303 51.0141 16.5294C46.5013 12.0286 40.3808 9.5 33.9988 9.5ZM46.7987 35.0343L26.1731 45.32C25.911 45.4506 25.6197 45.5123 25.327 45.499C25.0343 45.4858 24.7498 45.3982 24.5006 45.2444C24.2514 45.0907 24.0458 44.876 23.9032 44.6207C23.7606 44.3654 23.6858 44.078 23.686 43.7857V23.2143C23.6861 22.9222 23.7611 22.635 23.9038 22.3799C24.0465 22.1248 24.2522 21.9103 24.5014 21.7568C24.7505 21.6033 25.0349 21.5158 25.3274 21.5026C25.62 21.4895 25.9111 21.5511 26.1731 21.6817L46.7987 31.9674C47.0838 32.1099 47.3236 32.3288 47.4911 32.5994C47.6586 32.8701 47.7474 33.1819 47.7474 33.5C47.7474 33.8181 47.6586 34.1299 47.4911 34.4006C47.3236 34.6712 47.0838 34.89 46.7987 35.0326"/>
</mask>
<path d="M33.9988 9.5C29.2395 9.5 24.5872 10.9076 20.63 13.5447C16.6728 16.1819 13.5886 19.9302 11.7673 24.3156C9.94597 28.701 9.46944 33.5266 10.3979 38.1822C11.3264 42.8377 13.6182 47.1141 16.9835 50.4706C20.3488 53.827 24.6365 56.1128 29.3043 57.0388C33.9721 57.9649 38.8104 57.4896 43.2074 55.6731C47.6044 53.8566 51.3625 50.7805 54.0066 46.8337C56.6507 42.8869 58.062 38.2467 58.062 33.5C58.062 27.1348 55.5268 21.0303 51.0141 16.5294C46.5013 12.0286 40.3808 9.5 33.9988 9.5ZM46.7987 35.0343L26.1731 45.32C25.911 45.4506 25.6197 45.5123 25.327 45.499C25.0343 45.4858 24.7498 45.3982 24.5006 45.2444C24.2514 45.0907 24.0458 44.876 23.9032 44.6207C23.7606 44.3654 23.6858 44.078 23.686 43.7857V23.2143C23.6861 22.9222 23.7611 22.635 23.9038 22.3799C24.0465 22.1248 24.2522 21.9103 24.5014 21.7568C24.7505 21.6033 25.0349 21.5158 25.3274 21.5026C25.62 21.4895 25.9111 21.5511 26.1731 21.6817L46.7987 31.9674C47.0838 32.1099 47.3236 32.3288 47.4911 32.5994C47.6586 32.8701 47.7474 33.1819 47.7474 33.5C47.7474 33.8181 47.6586 34.1299 47.4911 34.4006C47.3236 34.6712 47.0838 34.89 46.7987 35.0326" fill="white"/>
<path d="M26.1731 45.32L30.1876 53.375L30.1895 53.3741L26.1731 45.32ZM23.686 43.7857L32.686 43.7899V43.7857H23.686ZM23.686 23.2143L14.686 23.2095V23.2143H23.686ZM26.1731 21.6817L30.1895 13.6276L30.1876 13.6267L26.1731 21.6817ZM46.7987 31.9674L50.8228 23.9172L50.8152 23.9134L46.7987 31.9674ZM47.7474 33.5H38.7474H47.7474ZM33.9988 0.5C27.4648 0.5 21.0755 2.43236 15.6389 6.05543L25.621 21.034C28.0988 19.3828 31.0143 18.5 33.9988 18.5V0.5ZM15.6389 6.05543C10.2021 9.67869 5.96095 14.8311 3.45556 20.8637L20.079 27.7675C21.2162 25.0293 23.1435 22.6851 25.621 21.034L15.6389 6.05543ZM3.45556 20.8637C0.950069 26.8966 0.294145 33.5364 1.57174 39.9424L19.2241 36.4219C18.6447 33.5169 18.9419 30.5055 20.079 27.7675L3.45556 20.8637ZM1.57174 39.9424C2.84932 46.3483 6.00218 52.2293 10.6279 56.8429L23.3391 44.0982C21.2342 41.9989 19.8035 39.3271 19.2241 36.4219L1.57174 39.9424ZM10.6279 56.8429C15.2534 61.4562 21.1438 64.5953 27.5529 65.8668L31.0557 48.2109C28.1292 47.6303 25.4442 46.1978 23.3391 44.0982L10.6279 56.8429ZM27.5529 65.8668C33.9619 67.1383 40.6052 66.4859 46.6438 63.9912L39.771 47.355C37.0156 48.4933 33.9823 48.7915 31.0557 48.2109L27.5529 65.8668ZM46.6438 63.9912C52.6826 61.4964 57.8479 57.2701 61.4838 51.8429L46.5295 41.8244C44.8772 44.2909 42.5261 46.2168 39.771 47.355L46.6438 63.9912ZM61.4838 51.8429C65.1198 46.4155 67.062 40.0321 67.062 33.5H49.062C49.062 36.4614 48.1817 39.3583 46.5295 41.8244L61.4838 51.8429ZM67.062 33.5C67.062 24.7402 63.5728 16.344 57.3697 10.1571L44.6585 22.9018C47.4808 25.7166 49.062 29.5294 49.062 33.5H67.062ZM57.3697 10.1571C51.1673 3.97104 42.7601 0.5 33.9988 0.5V18.5C38.0014 18.5 41.8354 20.0861 44.6585 22.9018L57.3697 10.1571ZM42.7823 26.9802L22.1566 37.2659L30.1895 53.3741L50.8152 43.0884L42.7823 26.9802ZM22.1586 37.265C23.2672 36.7124 24.4976 36.4524 25.7331 36.5082L24.9209 54.4899C26.7419 54.5721 28.5547 54.1888 30.1876 53.375L22.1586 37.265ZM25.7331 36.5082C26.9688 36.564 28.171 36.934 29.2259 37.5847L19.7754 52.9042C21.3286 53.8624 23.0999 54.4076 24.9209 54.4899L25.7331 36.5082ZM29.2259 37.5847C30.2809 38.2355 31.1543 39.1462 31.7609 40.2324L16.0455 49.009C16.9373 50.6058 18.222 51.9459 19.7754 52.9042L29.2259 37.5847ZM31.7609 40.2324C32.3676 41.3188 32.6866 42.5435 32.686 43.7899L14.686 43.7815C14.6851 45.6124 15.1537 47.412 16.0455 49.009L31.7609 40.2324ZM32.686 43.7857V23.2143H14.686V43.7857H32.686ZM32.686 23.2191C32.6853 24.4649 32.3654 25.6887 31.7582 26.7741L16.0494 17.9857C15.1568 19.5812 14.687 21.3794 14.686 23.2095L32.686 23.2191ZM31.7582 26.7741C31.1511 27.8592 30.2776 28.769 29.2228 29.4189L19.7799 14.0947C18.2268 15.0517 16.942 16.3904 16.0494 17.9857L31.7582 26.7741ZM29.2228 29.4189C28.1681 30.0688 26.9663 30.4381 25.7313 30.4936L24.9236 12.5117C23.1034 12.5935 21.3329 13.1377 19.7799 14.0947L29.2228 29.4189ZM25.7313 30.4936C24.4963 30.5491 23.2666 30.289 22.1586 29.7367L30.1876 13.6267C28.5556 12.8133 26.7437 12.43 24.9236 12.5117L25.7313 30.4936ZM22.1566 29.7358L42.7823 40.0215L50.8152 23.9134L30.1895 13.6276L22.1566 29.7358ZM42.7746 40.0177C41.5685 39.4148 40.551 38.4874 39.8386 37.3364L55.1437 27.8625C54.0961 26.1702 52.5992 24.8051 50.8228 23.9172L42.7746 40.0177ZM39.8386 37.3364C39.126 36.1852 38.7474 34.8568 38.7474 33.5H56.7474C56.7474 31.507 56.1913 29.555 55.1437 27.8625L39.8386 37.3364ZM38.7474 33.5C38.7474 32.1432 39.126 30.8148 39.8386 29.6636L55.1437 39.1375C56.1913 37.445 56.7474 35.4929 56.7474 33.5L38.7474 33.5ZM39.8386 29.6636C40.5511 28.5126 41.5685 27.5852 42.7746 26.9823L50.8228 43.0828C52.5991 42.1949 54.0961 40.8298 55.1437 39.1375L39.8386 29.6636Z" fill="white" fill-opacity="0.1" mask="url(#path-1-outside-1_3491_82250)"/>
</svg>
