<svg width="17" height="16" viewBox="0 0 17 16" fill="none" xmlns="http://www.w3.org/2000/svg">
<path d="M5.31668 16H7.85734C8.02783 16 8.19134 15.9323 8.3119 15.8117C8.43245 15.6912 8.50018 15.5276 8.50018 15.3572V14.3675C8.4997 14.2155 8.5302 14.065 8.58982 13.9252C8.64945 13.7854 8.73694 13.6592 8.84696 13.5543C9.12481 13.2833 9.52837 13.1329 9.95015 13.1433C10.713 13.1611 11.3573 13.8325 11.3573 14.6097V15.3572C11.3573 15.5276 11.425 15.6912 11.5455 15.8117C11.6661 15.9323 11.8296 16 12.0001 16H14.5136C14.7745 16 15.0328 15.9486 15.2738 15.8488C15.5148 15.749 15.7337 15.6027 15.9182 15.4182C16.2907 15.0457 16.5 14.5404 16.5 14.0136V11.5001C16.5 11.3296 16.4323 11.1661 16.3117 11.0455C16.1912 10.925 16.0276 10.8573 15.8572 10.8573H14.8675C14.5404 10.8573 14.2222 10.7173 13.9715 10.4644C13.832 10.3238 13.7217 10.157 13.6469 9.97365C13.5722 9.79026 13.5344 9.5939 13.5358 9.39586C13.5465 8.63909 14.1693 8.00018 14.8961 8.00018H15.8572C16.0276 8.00018 16.1912 7.93245 16.3117 7.8119C16.4323 7.69134 16.5 7.52783 16.5 7.35734V4.84382C16.5 4.58297 16.4486 4.32467 16.3488 4.08367C16.249 3.84267 16.1027 3.62369 15.9182 3.43924C15.5457 3.06672 15.0404 2.85744 14.5136 2.85744H12.5408C12.465 2.85744 12.3924 2.82734 12.3388 2.77376C12.2852 2.72018 12.2551 2.64751 12.2551 2.57173V2.34031C12.2551 2.02952 12.1932 1.72184 12.073 1.43523C11.9528 1.14863 11.7767 0.888828 11.5551 0.671003C11.3334 0.453178 11.0705 0.281689 10.7819 0.166545C10.4932 0.0514001 10.1845 -0.00509368 9.87372 0.000360432C8.60625 0.0225028 7.5752 1.08534 7.5752 2.36924V2.57173C7.5752 2.64751 7.5451 2.72018 7.49152 2.77376C7.43794 2.82734 7.36527 2.85744 7.28949 2.85744H5.31668C5.05939 2.85744 4.80462 2.90812 4.56691 3.00658C4.32921 3.10504 4.11322 3.24935 3.93129 3.43129C3.74936 3.61322 3.60504 3.8292 3.50658 4.06691C3.40812 4.30462 3.35744 4.55939 3.35744 4.81668V6.78949C3.35744 6.86527 3.32734 6.93794 3.27376 6.99152C3.22018 7.0451 3.14751 7.0752 3.07173 7.0752H2.86959C1.5632 7.0752 0.500363 8.11089 0.500363 9.38372C0.500363 10.6912 1.54998 11.7551 2.84031 11.7551H3.07173C3.14751 11.7551 3.22018 11.7852 3.27376 11.8388C3.32734 11.8924 3.35744 11.965 3.35744 12.0408V14.0408C3.35744 14.298 3.40812 14.5528 3.50658 14.7905C3.60504 15.0282 3.74936 15.2442 3.93129 15.4262C4.11322 15.6081 4.32921 15.7524 4.56691 15.8509C4.80462 15.9493 5.05939 16 5.31668 16Z" fill="#55565B"/>
</svg>
