<svg width="21" height="20" viewBox="0 0 21 20" fill="none" xmlns="http://www.w3.org/2000/svg">
<path id="Vector" fill-rule="evenodd" clip-rule="evenodd" d="M2.23313 20.0002H10.0344V17.5325C7.58791 18.0735 6.04127 15.1264 7.74629 13.4213C8.34625 12.8214 9.18135 12.5808 10.0344 12.7695V10.3009H7.15164C6.94599 10.3009 6.777 10.0898 6.88607 9.86004C7.36801 8.84343 6.64555 7.29572 5.18455 7.29572C3.84068 7.29572 2.96713 8.67805 3.49198 9.87973C3.57782 10.0764 3.43118 10.3 3.21749 10.3L0.335693 10.3009V18.1021C0.335693 19.1455 1.19048 20.0003 2.23393 20.0003L2.23313 20.0002ZM20.3356 18.102C20.3356 19.1455 19.4808 20.0002 18.4373 20.0002H10.6352V17.1175C10.6352 16.9038 10.4117 16.7572 10.215 16.843C9.01327 17.367 7.63097 16.4934 7.63097 15.1505C7.63097 13.6895 9.1778 12.967 10.1953 13.4489C10.4242 13.5571 10.6361 13.389 10.6361 13.1834V10.3007H13.1047C12.9161 11.1537 13.1566 11.9888 13.7566 12.5887C15.4617 14.2938 18.4086 12.747 17.8678 10.3007H20.3355L20.3356 18.102ZM10.0353 0.000471767V2.88319C10.0353 3.08973 10.2463 3.25782 10.4761 3.14875C11.4918 2.66681 13.0404 3.38927 13.0404 4.85027C13.0404 6.31127 11.4936 7.03373 10.4761 6.55179C10.2472 6.4436 10.0353 6.6117 10.0353 6.81736V9.70007H7.56663C7.75529 8.84706 7.51477 8.01196 6.9148 7.412C5.20971 5.70691 2.26272 7.25374 2.8036 9.70007H0.335877V1.89793C0.335877 0.854482 1.19067 -0.000306553 2.23411 -0.000306553H10.0353L10.0353 0.000471767ZM18.4383 0.000471767H10.6361V2.4682C13.0826 1.92725 14.6292 4.87527 12.9242 6.57939C12.3242 7.17935 11.4891 7.41988 10.6361 7.23122V9.69986L13.5188 9.70076C13.7298 9.70076 13.8801 9.92071 13.7933 10.1201C13.2694 11.3218 14.1429 12.7041 15.4859 12.7041C16.9469 12.7041 17.6694 11.1573 17.1874 10.1398C17.0792 9.91088 17.2473 9.69897 17.453 9.69897H20.3357V1.89774C20.3357 0.8543 19.4809 -0.000488281 18.4375 -0.000488281L18.4383 0.000471767Z" fill="white"/>
</svg>
