  <svg xmlns="http://www.w3.org/2000/svg" width="16" height="17" viewBox="0 0 16 17" fill="none">
                                            <path fillRule="evenodd" clipRule="evenodd" d="M8.50064 11.0667H6.2273V12.5307H7.96264C8.0346 12.5307 8.10361 12.5593 8.1545 12.6101C8.20538 12.661 8.23397 12.73 8.23397 12.802C8.23397 12.874 8.20538 12.943 8.1545 12.9939C8.10361 13.0447 8.0346 13.0733 7.96264 13.0733H3.9493C3.87734 13.0733 3.80833 13.0447 3.75744 12.9939C3.70656 12.943 3.67797 12.874 3.67797 12.802C3.67797 12.73 3.70656 12.661 3.75744 12.6101C3.80833 12.5593 3.87734 12.5307 3.9493 12.5307H5.68464V11.066H1.94264C1.60457 11.066 1.28036 10.9317 1.04131 10.6927C0.802264 10.4536 0.667969 10.1294 0.667969 9.79133V4.77467C0.667969 4.07067 1.23864 3.5 1.94264 3.5H9.9693C10.674 3.5 11.244 4.07067 11.244 4.77467V6.028C11.058 6.06933 10.8773 6.12333 10.702 6.19067V4.77467C10.702 4.37 10.374 4.04267 9.96997 4.04267H1.94264C1.53797 4.04267 1.21064 4.37 1.21064 4.77467V9.79133C1.21064 10.196 1.53797 10.524 1.94264 10.524H8.3433C8.38264 10.71 8.4353 10.8907 8.50064 11.066V11.0667Z" fill="#212121" />
                                            <path d="M6.2247 11.066V10.7327C6.13629 10.7327 6.05151 10.7678 5.989 10.8303C5.92648 10.8928 5.89136 10.9776 5.89136 11.066H6.2247ZM8.49803 11.066V11.3993C8.55192 11.3993 8.605 11.3863 8.65273 11.3613C8.70047 11.3363 8.74142 11.3001 8.7721 11.2558C8.80277 11.2114 8.82224 11.1604 8.82885 11.1069C8.83546 11.0534 8.829 10.9991 8.81003 10.9487L8.49803 11.0653V11.066ZM6.2247 12.53H5.89136C5.89136 12.6184 5.92648 12.7032 5.989 12.7657C6.05151 12.8282 6.13629 12.8633 6.2247 12.8633V12.53ZM5.68203 12.53V12.8633C5.77044 12.8633 5.85522 12.8282 5.91773 12.7657C5.98025 12.7032 6.01536 12.6184 6.01536 12.53H5.68203ZM5.68203 11.0653H6.01536C6.01536 10.9769 5.98025 10.8922 5.91773 10.8296C5.85522 10.7671 5.77044 10.732 5.68203 10.732V11.0653ZM11.242 6.02802L11.3127 6.35335C11.3869 6.33709 11.4533 6.29598 11.501 6.23681C11.5486 6.17765 11.5746 6.10398 11.5747 6.02802H11.242ZM10.6994 6.19002H10.366C10.366 6.24409 10.3792 6.29736 10.4043 6.34522C10.4295 6.39309 10.4659 6.43411 10.5105 6.46475C10.555 6.4954 10.6064 6.51474 10.6601 6.52112C10.7138 6.52749 10.7682 6.52071 10.8187 6.50135L10.6987 6.19002H10.6994ZM5.95003 10.5233V10.8567H5.95203L5.95003 10.5233ZM5.95336 10.5233L5.95603 10.19H5.95136L5.95336 10.5233ZM5.95736 10.5233L5.95537 10.8567H5.95736V10.5233ZM8.3407 10.5233L8.66737 10.4547C8.65159 10.3798 8.61051 10.3126 8.55102 10.2644C8.49153 10.2162 8.41726 10.1899 8.3407 10.19V10.5233ZM6.2247 11.3987L8.49803 11.3993V10.732H6.2247V11.3987ZM6.55803 12.53V11.0653H5.89136V12.53H6.55803ZM7.96003 12.1967H6.22536V12.8633H7.9607L7.96003 12.1967ZM8.5647 12.8013C8.5647 12.4673 8.29403 12.1967 7.96003 12.1967L7.9607 12.8633C7.94425 12.8633 7.92782 12.8568 7.91619 12.8452C7.90456 12.8336 7.89803 12.8178 7.89803 12.8013H8.5647ZM7.96003 13.406C8.29403 13.406 8.5647 13.1347 8.5647 12.8013H7.89803C7.89803 12.7667 7.92603 12.7393 7.96003 12.7393V13.406ZM3.9467 13.406H7.96003V12.7393H3.9467V13.406ZM3.34203 12.8013C3.34203 13.1347 3.6127 13.406 3.9467 13.406V12.7393C3.9807 12.7393 4.0087 12.7667 4.0087 12.8013H3.34203ZM3.9467 12.1967C3.61336 12.1967 3.34203 12.4673 3.34203 12.8013H4.0087C4.0087 12.8095 4.00709 12.8176 4.00398 12.8251C4.00086 12.8326 3.9963 12.8394 3.99054 12.8452C3.98478 12.8509 3.97795 12.8555 3.97042 12.8586C3.9629 12.8617 3.95484 12.8633 3.9467 12.8633V12.1967ZM5.68203 12.1967H3.9467V12.8633H5.68203V12.1967ZM5.3487 11.0653V12.53H6.01536V11.0653H5.3487ZM1.94003 11.3987H5.68203V10.732H1.94003V11.3987ZM0.332031 9.79068C0.332031 10.2172 0.501445 10.6262 0.803004 10.9277C1.10456 11.2293 1.51356 11.3987 1.94003 11.3987V10.732C1.42003 10.732 0.998698 10.3107 0.998698 9.79068H0.332031ZM0.332031 4.77402V9.79068H0.998698V4.77402H0.332031ZM1.94003 3.16602C1.51356 3.16602 1.10456 3.33543 0.803004 3.63699C0.501445 3.93855 0.332031 4.34755 0.332031 4.77402H0.998698C0.998698 4.25402 1.42003 3.83268 1.94003 3.83268V3.16602ZM9.9667 3.16602H1.9407V3.83268H9.96737V3.16602H9.9667ZM11.5747 4.77402C11.5747 4.34778 11.4055 3.93898 11.1042 3.63746C10.8029 3.33594 10.3943 3.16637 9.96803 3.16602V3.83268C10.488 3.83268 10.9094 4.25402 10.9094 4.77402H11.576H11.5747ZM11.5747 6.02735V4.77402H10.908V6.02735H11.5747ZM10.8187 6.50068C10.978 6.44068 11.1427 6.39002 11.3127 6.35335L11.1707 5.70202C10.9697 5.746 10.7722 5.80505 10.58 5.87868L10.8187 6.50135V6.50068ZM11.032 6.19002V4.77402H10.3654L10.366 6.19002H11.032ZM11.032 4.77402C11.032 4.18535 10.5554 3.70868 9.96737 3.70868V4.37535C10.1874 4.37535 10.3654 4.55335 10.3654 4.77402H11.0327H11.032ZM9.96737 3.70868H1.94003V4.37535H9.9667V3.70868H9.96737ZM1.94003 3.70868C1.35136 3.70868 0.874698 4.18535 0.874698 4.77402H1.54136C1.54136 4.55402 1.71936 4.37535 1.94003 4.37535V3.70868ZM0.874698 4.77402V9.79068H1.54136V4.77402H0.874698ZM0.874698 9.79068C0.874698 10.3793 1.35136 10.8567 1.94003 10.8567V10.19C1.88762 10.19 1.83573 10.1797 1.78731 10.1596C1.7389 10.1395 1.69492 10.1101 1.6579 10.073C1.62087 10.0359 1.59152 9.9919 1.57152 9.94345C1.55152 9.895 1.54128 9.84309 1.54136 9.79068H0.874698ZM1.94003 10.8567H5.94936V10.19H1.9407V10.8567H1.94003ZM5.95203 10.8567H5.95537L5.95136 10.19H5.94736L5.95203 10.8567ZM5.95136 10.8567H5.95537L5.95936 10.19H5.95603L5.95136 10.8567ZM5.95736 10.8567H8.3407V10.19H5.95736V10.8567ZM8.8107 10.9487C8.75044 10.7878 8.7023 10.6227 8.6667 10.4547L8.0147 10.592C8.05736 10.7947 8.1147 10.992 8.18603 11.182L8.81003 10.9487H8.8107Z" fill="#212121" />
                                            <path fillRule="evenodd" clipRule="evenodd" d="M12.668 8.33333C12.2259 8.33333 11.802 8.50893 11.4895 8.82149C11.1769 9.13405 11.0013 9.55797 11.0013 10C11.0013 10.442 11.1769 10.866 11.4895 11.1785C11.802 11.4911 12.2259 11.6667 12.668 11.6667C13.11 11.6667 13.5339 11.4911 13.8465 11.1785C14.159 10.866 14.3346 10.442 14.3346 10C14.3346 9.55797 14.159 9.13405 13.8465 8.82149C13.5339 8.50893 13.11 8.33333 12.668 8.33333ZM9.66797 10C9.66797 9.20435 9.98404 8.44129 10.5466 7.87868C11.1093 7.31607 11.8723 7 12.668 7C13.4636 7 14.2267 7.31607 14.7893 7.87868C15.3519 8.44129 15.668 9.20435 15.668 10C15.668 10.7956 15.3519 11.5587 14.7893 12.1213C14.2267 12.6839 13.4636 13 12.668 13C11.8723 13 11.1093 12.6839 10.5466 12.1213C9.98404 11.5587 9.66797 10.7956 9.66797 10Z" fill="#212121" />
                                        </svg>