<svg width="16" height="16" viewBox="0 0 16 16" fill="none" xmlns="http://www.w3.org/2000/svg">
<path d="M14.125 16H10.375C9.341 16 8.5 15.1587 8.5 14.125V10.375C8.5 9.341 9.341 8.5 10.375 8.5H14.125C15.1587 8.5 16 9.34133 16 10.375V14.125C16 15.1587 15.1587 16 14.125 16ZM10.375 9.75C10.0303 9.75 9.75 10.0303 9.75 10.375V14.125C9.75 14.4697 10.0303 14.75 10.375 14.75H14.125C14.4697 14.75 14.75 14.4697 14.75 14.125V10.375C14.75 10.0303 14.4697 9.75 14.125 9.75H10.375Z" fill="#55565B"/>
<path d="M1.875 7.5H5.625C6.65867 7.5 7.5 6.65867 7.5 5.625V1.875C7.5 0.841333 6.65867 0 5.625 0H1.875C0.841 0 0 0.841333 0 1.875V5.625C0 6.65867 0.841333 7.5 1.875 7.5ZM1.25 1.875C1.25 1.53033 1.53033 1.25 1.875 1.25H5.625C5.96967 1.25 6.25 1.53033 6.25 1.875V5.625C6.25 5.96967 5.96967 6.25 5.625 6.25H1.875C1.53033 6.25 1.25 5.96967 1.25 5.625V1.875Z" fill="#55565B"/>
<path d="M16 1.874C15.9993 0.840667 15.1587 0 14.125 0H10.375C9.341 0 8.5 0.841333 8.5 1.875V5.625C8.5 6.65867 9.341 7.5 10.375 7.5H14.125C15.1587 7.5 16 6.65867 16 5.625V1.874ZM14.125 6.25H10.375C10.0303 6.25 9.75 5.96967 9.75 5.625V1.875C9.75 1.53033 10.0303 1.25 10.375 1.25H14.125C14.3927 1.25 14.6207 1.41933 14.7097 1.65633L12.875 3.491L12.067 2.683C11.823 2.439 11.4273 2.439 11.1833 2.683C10.9393 2.927 10.9393 3.32267 11.1833 3.56667L12.4333 4.81667C12.5553 4.93867 12.7153 4.99967 12.8753 4.99967C13.0353 4.99967 13.1953 4.93867 13.3173 4.81667L14.7503 3.38367V5.62467C14.75 5.96967 14.4697 6.25 14.125 6.25Z" fill="#55565B"/>
<path d="M7.5 10.374C7.49933 9.34033 6.65867 8.5 5.625 8.5H1.875C0.841333 8.5 0 9.341 0 10.375V14.125C0 15.159 0.841 16 1.875 16H5.625C6.65867 16 7.5 15.1587 7.5 14.125V10.374ZM5.625 14.75H1.875C1.53033 14.75 1.25 14.4697 1.25 14.125V10.375C1.25 10.0303 1.53033 9.75 1.875 9.75H5.625C5.89267 9.75 6.12067 9.91933 6.20967 10.1563L4.375 11.991L3.567 11.183C3.323 10.939 2.92733 10.939 2.68333 11.183C2.43933 11.427 2.43933 11.8227 2.68333 12.0667L3.93333 13.3167C4.055 13.439 4.215 13.5 4.375 13.5C4.535 13.5 4.695 13.439 4.817 13.317L6.25 11.884V14.125C6.25 14.4697 5.96967 14.75 5.625 14.75Z" fill="#55565B"/>
</svg>
