<svg width="20" height="16" viewBox="0 0 20 16" fill="none" xmlns="http://www.w3.org/2000/svg">
<path d="M9.25462 -3.18204C9.00769 -3.18127 8.73462 -3.0705 8.48538 -2.82204L4.08615 2.15411H0.769231C0.345385 2.15411 0 2.4995 0 2.92334V9.07719C0 9.50103 0.345385 9.84642 0.769231 9.84642H4.08692L8.46154 14.7987C9.23077 15.568 10 15.1741 10 14.1257V-2.24589C10 -2.85435 9.66692 -3.18589 9.25462 -3.18358V-3.18204ZM14.8315 -1.64358C14.6679 -1.61504 14.518 -1.53432 14.404 -1.41349C14.2901 -1.29266 14.2184 -1.1382 14.1995 -0.973207C14.1806 -0.808212 14.2156 -0.64154 14.2993 -0.498104C14.383 -0.354668 14.5109 -0.242171 14.6638 -0.177428C15.8084 0.397691 16.77 1.28038 17.4408 2.37159C18.1116 3.4628 18.4651 4.71936 18.4615 6.00026C18.4615 8.71103 16.9231 11.0387 14.6631 12.178C14.5602 12.2137 14.4662 12.271 14.3871 12.3458C14.308 12.4207 14.2457 12.5115 14.2043 12.6122C14.1629 12.7129 14.1434 12.8213 14.1471 12.9301C14.1507 13.0389 14.1774 13.1458 14.2254 13.2435C14.2734 13.3413 14.3416 13.4277 14.4255 13.4971C14.5094 13.5665 14.607 13.6174 14.712 13.6462C14.817 13.6751 14.927 13.6813 15.0346 13.6645C15.1422 13.6477 15.245 13.6082 15.3362 13.5487C18.1 12.1541 20 9.29873 20 6.00026C20 2.7018 18.0992 -0.153582 15.3362 -1.5482C15.2045 -1.62167 15.0542 -1.65484 14.9038 -1.64358C14.8798 -1.64472 14.8556 -1.64472 14.8315 -1.64358ZM13.0046 1.33642C12.839 1.34858 12.6817 1.41402 12.5564 1.52296C12.431 1.6319 12.3443 1.77848 12.3091 1.94079C12.274 2.10311 12.2923 2.27244 12.3614 2.42347C12.4305 2.57451 12.5465 2.69914 12.6923 2.77873C13.8792 3.51642 14.6154 4.68488 14.6154 6.00026C14.6154 7.32488 13.8677 8.50873 12.6685 9.24565C12.5742 9.2948 12.4912 9.36294 12.4247 9.44576C12.3581 9.52859 12.3094 9.62431 12.2817 9.72689C12.2539 9.82947 12.2478 9.93668 12.2635 10.0418C12.2793 10.1469 12.3167 10.2475 12.3733 10.3375C12.4299 10.4274 12.5045 10.5046 12.5925 10.5643C12.6804 10.6239 12.7797 10.6647 12.8842 10.684C12.9887 10.7034 13.0961 10.7009 13.1995 10.6766C13.303 10.6524 13.4003 10.607 13.4854 10.5433C15.0777 9.56642 16.1538 7.90488 16.1538 6.00026C16.1538 4.10719 15.0869 2.43642 13.5092 1.45719C13.3803 1.37485 13.2298 1.3328 13.0769 1.33642C13.0528 1.33528 13.0287 1.33528 13.0046 1.33642Z" fill="#1D1D1D"/>
</svg>
