<svg width="78" height="78" viewBox="0 0 78 78" fill="none" xmlns="http://www.w3.org/2000/svg">
<rect width="78" height="78" rx="39" fill="#1D1D1D" fill-opacity="0.9"/>
<rect width="78" height="78" rx="39" fill="url(#paint0_linear_2641_36199)"/>
<path d="M31.3313 31.8189C31.3029 31.5324 31.181 31.3099 30.9656 31.1513C30.7501 30.9927 30.4577 30.9134 30.0884 30.9134C29.8375 30.9134 29.6256 30.9489 29.4528 31.0199C29.2799 31.0885 29.1474 31.1844 29.055 31.3075C28.9651 31.4306 28.9201 31.5703 28.9201 31.7266C28.9154 31.8568 28.9426 31.9704 29.0018 32.0675C29.0633 32.1645 29.1474 32.2486 29.2539 32.3196C29.3604 32.3883 29.4835 32.4486 29.6232 32.5007C29.7629 32.5504 29.9121 32.593 30.0707 32.6286L30.7241 32.7848C31.0413 32.8558 31.3325 32.9505 31.5977 33.0689C31.8628 33.1873 32.0924 33.3329 32.2866 33.5057C32.4807 33.6785 32.631 33.8821 32.7376 34.1165C32.8465 34.3509 32.9021 34.6196 32.9045 34.9226C32.9021 35.3677 32.7885 35.7536 32.5636 36.0803C32.341 36.4046 32.0191 36.6567 31.5977 36.8366C31.1786 37.0142 30.6732 37.103 30.0813 37.103C29.4942 37.103 28.9828 37.013 28.5472 36.8331C28.114 36.6532 27.7754 36.3868 27.5316 36.0341C27.2901 35.679 27.1635 35.2398 27.1516 34.7166H28.6396C28.6561 34.9605 28.726 35.1641 28.8491 35.3274C28.9746 35.4884 29.1415 35.6103 29.3498 35.6932C29.5605 35.7737 29.7984 35.8139 30.0636 35.8139C30.324 35.8139 30.5501 35.776 30.7418 35.7003C30.936 35.6245 31.0863 35.5192 31.1928 35.3842C31.2994 35.2493 31.3526 35.0942 31.3526 34.919C31.3526 34.7557 31.3041 34.6184 31.207 34.5071C31.1123 34.3958 30.9727 34.3011 30.788 34.223C30.6057 34.1449 30.382 34.0739 30.1168 34.0099L29.3249 33.8111C28.7118 33.6619 28.2276 33.4287 27.8725 33.1115C27.5174 32.7943 27.341 32.367 27.3434 31.8295C27.341 31.3892 27.4582 31.0045 27.695 30.6754C27.9341 30.3464 28.262 30.0895 28.6786 29.9048C29.0953 29.7202 29.5688 29.6278 30.0991 29.6278C30.6388 29.6278 31.11 29.7202 31.5124 29.9048C31.9173 30.0895 32.2321 30.3464 32.457 30.6754C32.6819 31.0045 32.7979 31.3857 32.805 31.8189H31.3313ZM36.8116 31.5455V32.6818H33.5268V31.5455H36.8116ZM34.2725 30.2386H35.7853V35.3239C35.7853 35.4635 35.8066 35.5724 35.8493 35.6506C35.8919 35.7263 35.9511 35.7796 36.0268 35.8104C36.1049 35.8411 36.1949 35.8565 36.2967 35.8565C36.3677 35.8565 36.4387 35.8506 36.5098 35.8388C36.5808 35.8246 36.6352 35.8139 36.6731 35.8068L36.911 36.9325C36.8353 36.9562 36.7288 36.9834 36.5914 37.0142C36.4541 37.0473 36.2872 37.0675 36.0907 37.0746C35.7261 37.0888 35.4065 37.0402 35.1319 36.929C34.8597 36.8177 34.6478 36.6449 34.4963 36.4105C34.3448 36.1761 34.2702 35.8802 34.2725 35.5227V30.2386ZM39.3525 37.103C39.0044 37.103 38.6943 37.0426 38.4221 36.9219C38.1498 36.7988 37.9344 36.6177 37.7757 36.3786C37.6195 36.1371 37.5414 35.8364 37.5414 35.4766C37.5414 35.1735 37.597 34.919 37.7083 34.7131C37.8195 34.5071 37.9711 34.3414 38.1628 34.2159C38.3546 34.0904 38.5724 33.9957 38.8162 33.9318C39.0624 33.8679 39.3205 33.8229 39.5904 33.7969C39.9076 33.7637 40.1633 33.733 40.3574 33.7045C40.5516 33.6738 40.6924 33.6288 40.78 33.5696C40.8676 33.5104 40.9114 33.4228 40.9114 33.3068V33.2855C40.9114 33.0606 40.8404 32.8866 40.6983 32.7635C40.5587 32.6404 40.3598 32.5788 40.1017 32.5788C39.8295 32.5788 39.6129 32.6392 39.4519 32.7599C39.2909 32.8783 39.1844 33.0275 39.1323 33.2074L37.7331 33.0938C37.8042 32.7623 37.9438 32.4759 38.1522 32.2344C38.3605 31.9905 38.6292 31.8035 38.9583 31.6733C39.2897 31.5407 39.6732 31.4744 40.1088 31.4744C40.4119 31.4744 40.7019 31.5099 40.9789 31.581C41.2582 31.652 41.5056 31.7621 41.7211 31.9112C41.9389 32.0604 42.1105 32.2521 42.236 32.4865C42.3614 32.7185 42.4242 32.9967 42.4242 33.321V37H40.9895V36.2436H40.9469C40.8593 36.4141 40.7421 36.5644 40.5953 36.6946C40.4486 36.8224 40.2722 36.9231 40.0662 36.9964C39.8603 37.0675 39.6223 37.103 39.3525 37.103ZM39.7857 36.0589C40.0082 36.0589 40.2047 36.0152 40.3752 35.9276C40.5456 35.8376 40.6794 35.7169 40.7765 35.5653C40.8735 35.4138 40.9221 35.2422 40.9221 35.0504V34.4716C40.8747 34.5024 40.8096 34.5308 40.7267 34.5568C40.6462 34.5805 40.5551 34.603 40.4533 34.6243C40.3515 34.6432 40.2497 34.661 40.1479 34.6776C40.0461 34.6918 39.9538 34.7048 39.8709 34.7166C39.6934 34.7427 39.5383 34.7841 39.4057 34.8409C39.2731 34.8977 39.1702 34.9747 39.0968 35.0717C39.0234 35.1664 38.9867 35.2848 38.9867 35.4268C38.9867 35.6328 39.0613 35.7902 39.2104 35.8991C39.3619 36.0057 39.5537 36.0589 39.7857 36.0589ZM43.5978 37V31.5455H45.0645V32.4972H45.1213C45.2207 32.1586 45.3876 31.9029 45.622 31.7301C45.8564 31.5549 46.1262 31.4673 46.4316 31.4673C46.5074 31.4673 46.5891 31.4721 46.6767 31.4815C46.7643 31.491 46.8412 31.504 46.9075 31.5206V32.8629C46.8365 32.8416 46.7382 32.8227 46.6127 32.8061C46.4873 32.7895 46.3725 32.7812 46.2683 32.7812C46.0458 32.7812 45.8469 32.8298 45.6717 32.9268C45.4989 33.0215 45.3616 33.1541 45.2598 33.3246C45.1603 33.495 45.1106 33.6915 45.1106 33.9141V37H43.5978ZM50.8643 31.5455V32.6818H47.5795V31.5455H50.8643ZM48.3253 30.2386H49.8381V35.3239C49.8381 35.4635 49.8594 35.5724 49.902 35.6506C49.9446 35.7263 50.0038 35.7796 50.0795 35.8104C50.1577 35.8411 50.2476 35.8565 50.3494 35.8565C50.4205 35.8565 50.4915 35.8506 50.5625 35.8388C50.6335 35.8246 50.688 35.8139 50.7259 35.8068L50.9638 36.9325C50.888 36.9562 50.7815 36.9834 50.6442 37.0142C50.5069 37.0473 50.34 37.0675 50.1435 37.0746C49.7789 37.0888 49.4593 37.0402 49.1847 36.929C48.9124 36.8177 48.7005 36.6449 48.549 36.4105C48.3975 36.1761 48.3229 35.8802 48.3253 35.5227V30.2386ZM14.6712 49V41.7273H17.5405C18.0897 41.7273 18.5585 41.8255 18.9467 42.022C19.3374 42.2161 19.6345 42.492 19.8381 42.8494C20.044 43.2045 20.147 43.6224 20.147 44.103C20.147 44.5859 20.0429 45.0014 19.8345 45.3494C19.6262 45.6951 19.3243 45.9602 18.929 46.1449C18.536 46.3295 18.0601 46.4219 17.5014 46.4219H15.5803V45.1861H17.2528C17.5464 45.1861 17.7902 45.1458 17.9844 45.0653C18.1785 44.9848 18.3229 44.8641 18.4176 44.7031C18.5147 44.5421 18.5632 44.3421 18.5632 44.103C18.5632 43.8615 18.5147 43.6579 18.4176 43.4922C18.3229 43.3265 18.1773 43.201 17.9808 43.1158C17.7867 43.0282 17.5417 42.9844 17.2457 42.9844H16.2088V49H14.6712ZM18.5987 45.6903L20.4062 49H18.7088L16.9403 45.6903H18.5987ZM23.6032 49.1065C23.0421 49.1065 22.5591 48.9929 22.1543 48.7656C21.7518 48.536 21.4417 48.2116 21.2239 47.7926C21.0061 47.3712 20.8972 46.8729 20.8972 46.2976C20.8972 45.7365 21.0061 45.2441 21.2239 44.8203C21.4417 44.3965 21.7483 44.0663 22.1436 43.8295C22.5414 43.5928 23.0078 43.4744 23.5428 43.4744C23.9026 43.4744 24.2376 43.5324 24.5478 43.6484C24.8603 43.7621 25.1325 43.9337 25.3645 44.1634C25.5989 44.393 25.7812 44.6818 25.9114 45.0298C26.0416 45.3755 26.1067 45.7803 26.1067 46.2443V46.6598H21.5009V45.7223H24.6827C24.6827 45.5045 24.6354 45.3116 24.5407 45.1435C24.446 44.9754 24.3146 44.844 24.1465 44.7493C23.9808 44.6522 23.7878 44.6037 23.5676 44.6037C23.338 44.6037 23.1344 44.657 22.9569 44.7635C22.7817 44.8677 22.6444 45.0085 22.5449 45.1861C22.4455 45.3613 22.3946 45.5566 22.3922 45.772V46.6634C22.3922 46.9332 22.4419 47.1664 22.5414 47.3629C22.6432 47.5594 22.7864 47.7109 22.9711 47.8175C23.1557 47.924 23.3747 47.9773 23.628 47.9773C23.7961 47.9773 23.95 47.9536 24.0897 47.9062C24.2293 47.8589 24.3489 47.7879 24.4483 47.6932C24.5478 47.5985 24.6235 47.4825 24.6756 47.3452L26.0748 47.4375C26.0037 47.7737 25.8581 48.0672 25.638 48.3182C25.4202 48.5668 25.1384 48.7609 24.7928 48.9006C24.4495 49.0379 24.053 49.1065 23.6032 49.1065ZM29.5584 49.1065C28.9997 49.1065 28.5191 48.9882 28.1167 48.7514C27.7166 48.5123 27.4088 48.1809 27.1934 47.7571C26.9803 47.3333 26.8738 46.8456 26.8738 46.294C26.8738 45.7353 26.9815 45.2453 27.1969 44.8239C27.4147 44.4001 27.7237 44.0698 28.1238 43.8331C28.5239 43.594 28.9997 43.4744 29.5513 43.4744C30.0272 43.4744 30.4438 43.5608 30.8013 43.7337C31.1588 43.9065 31.4417 44.1491 31.65 44.4616C31.8584 44.7741 31.9732 45.1411 31.9945 45.5625H30.5669C30.5267 45.2902 30.4202 45.0713 30.2473 44.9055C30.0769 44.7375 29.8532 44.6534 29.5762 44.6534C29.3418 44.6534 29.137 44.7173 28.9618 44.8452C28.789 44.9706 28.6541 45.1541 28.557 45.3956C28.4599 45.6371 28.4114 45.9295 28.4114 46.2727C28.4114 46.6207 28.4587 46.9167 28.5534 47.1605C28.6505 47.4044 28.7866 47.5902 28.9618 47.718C29.137 47.8459 29.3418 47.9098 29.5762 47.9098C29.749 47.9098 29.9041 47.8743 30.0414 47.8033C30.181 47.7322 30.2959 47.6293 30.3858 47.4943C30.4782 47.357 30.5385 47.1925 30.5669 47.0007H31.9945C31.9708 47.4174 31.8572 47.7843 31.6536 48.1016C31.4524 48.4164 31.1742 48.6626 30.8191 48.8402C30.464 49.0178 30.0437 49.1065 29.5584 49.1065ZM35.4276 49.1065C34.8759 49.1065 34.3989 48.9893 33.9964 48.755C33.5964 48.5182 33.2874 48.1892 33.0696 47.7678C32.8518 47.344 32.7429 46.8527 32.7429 46.294C32.7429 45.7306 32.8518 45.2382 33.0696 44.8168C33.2874 44.393 33.5964 44.0639 33.9964 43.8295C34.3989 43.5928 34.8759 43.4744 35.4276 43.4744C35.9792 43.4744 36.455 43.5928 36.8551 43.8295C37.2576 44.0639 37.5677 44.393 37.7855 44.8168C38.0033 45.2382 38.1122 45.7306 38.1122 46.294C38.1122 46.8527 38.0033 47.344 37.7855 47.7678C37.5677 48.1892 37.2576 48.5182 36.8551 48.755C36.455 48.9893 35.9792 49.1065 35.4276 49.1065ZM35.4347 47.9347C35.6856 47.9347 35.8951 47.8636 36.0632 47.7216C36.2313 47.5772 36.358 47.3807 36.4432 47.1321C36.5308 46.8835 36.5746 46.6006 36.5746 46.2834C36.5746 45.9661 36.5308 45.6832 36.4432 45.4347C36.358 45.1861 36.2313 44.9896 36.0632 44.8452C35.8951 44.7008 35.6856 44.6286 35.4347 44.6286C35.1813 44.6286 34.9683 44.7008 34.7955 44.8452C34.625 44.9896 34.496 45.1861 34.4084 45.4347C34.3232 45.6832 34.2805 45.9661 34.2805 46.2834C34.2805 46.6006 34.3232 46.8835 34.4084 47.1321C34.496 47.3807 34.625 47.5772 34.7955 47.7216C34.9683 47.8636 35.1813 47.9347 35.4347 47.9347ZM39.0959 49V43.5455H40.5625V44.4972H40.6193C40.7188 44.1586 40.8857 43.9029 41.12 43.7301C41.3544 43.5549 41.6243 43.4673 41.9297 43.4673C42.0054 43.4673 42.0871 43.4721 42.1747 43.4815C42.2623 43.491 42.3393 43.504 42.4055 43.5206V44.8629C42.3345 44.8416 42.2363 44.8227 42.1108 44.8061C41.9853 44.7895 41.8705 44.7812 41.7663 44.7812C41.5438 44.7812 41.3449 44.8298 41.1697 44.9268C40.9969 45.0215 40.8596 45.1541 40.7578 45.3246C40.6584 45.495 40.6087 45.6915 40.6087 45.9141V49H39.0959ZM44.9437 49.0888C44.5294 49.0888 44.1542 48.9822 43.818 48.7692C43.4842 48.5537 43.219 48.2377 43.0225 47.821C42.8284 47.402 42.7314 46.8883 42.7314 46.2798C42.7314 45.6548 42.832 45.1352 43.0332 44.7209C43.2344 44.3042 43.502 43.9929 43.8358 43.7869C44.1719 43.5786 44.5401 43.4744 44.9402 43.4744C45.2456 43.4744 45.5001 43.5265 45.7037 43.6307C45.9096 43.7325 46.0753 43.8603 46.2008 44.0142C46.3287 44.1657 46.4257 44.3149 46.492 44.4616H46.5382V41.7273H48.0474V49H46.5559V48.1264H46.492C46.421 48.2779 46.3204 48.4283 46.1902 48.5774C46.0623 48.7242 45.8954 48.8461 45.6895 48.9432C45.4859 49.0402 45.2373 49.0888 44.9437 49.0888ZM45.4231 47.8849C45.667 47.8849 45.8729 47.8187 46.041 47.6861C46.2115 47.5511 46.3417 47.3629 46.4316 47.1214C46.524 46.88 46.5701 46.5971 46.5701 46.2727C46.5701 45.9484 46.5252 45.6667 46.4352 45.4276C46.3452 45.1884 46.215 45.0038 46.0446 44.8736C45.8741 44.7434 45.667 44.6783 45.4231 44.6783C45.1745 44.6783 44.965 44.7457 44.7946 44.8807C44.6241 45.0156 44.4951 45.2027 44.4075 45.4418C44.3199 45.6809 44.2761 45.9579 44.2761 46.2727C44.2761 46.59 44.3199 46.8705 44.4075 47.1143C44.4975 47.3558 44.6265 47.5452 44.7946 47.6825C44.965 47.8175 45.1745 47.8849 45.4231 47.8849ZM49.2912 49V43.5455H50.804V49H49.2912ZM50.0511 42.8423C49.8262 42.8423 49.6333 42.7678 49.4723 42.6186C49.3137 42.4671 49.2344 42.286 49.2344 42.0753C49.2344 41.867 49.3137 41.6882 49.4723 41.5391C49.6333 41.3875 49.8262 41.3118 50.0511 41.3118C50.276 41.3118 50.4678 41.3875 50.6264 41.5391C50.7874 41.6882 50.8679 41.867 50.8679 42.0753C50.8679 42.286 50.7874 42.4671 50.6264 42.6186C50.4678 42.7678 50.276 42.8423 50.0511 42.8423ZM53.5286 45.8466V49H52.0158V43.5455H53.4576V44.5078H53.5215C53.6422 44.1906 53.8446 43.9396 54.1287 43.755C54.4128 43.5679 54.7573 43.4744 55.1621 43.4744C55.5409 43.4744 55.8712 43.5573 56.1529 43.723C56.4346 43.8887 56.6536 44.1255 56.8098 44.4332C56.9661 44.7386 57.0442 45.1032 57.0442 45.527V49H55.5314V45.7969C55.5338 45.4631 55.4486 45.2027 55.2757 45.0156C55.1029 44.8262 54.865 44.7315 54.562 44.7315C54.3584 44.7315 54.1784 44.7753 54.0222 44.8629C53.8683 44.9505 53.7476 45.0784 53.66 45.2464C53.5748 45.4122 53.531 45.6122 53.5286 45.8466ZM60.6939 51.1591C60.2038 51.1591 59.7836 51.0916 59.4332 50.9567C59.0852 50.8241 58.8082 50.643 58.6023 50.4134C58.3963 50.1837 58.2625 49.9257 58.201 49.6392L59.6001 49.451C59.6428 49.5599 59.7102 49.6617 59.8026 49.7564C59.8949 49.8511 60.0168 49.9268 60.1683 49.9837C60.3222 50.0429 60.5092 50.0724 60.7294 50.0724C61.0585 50.0724 61.3295 49.992 61.5426 49.831C61.758 49.6723 61.8658 49.406 61.8658 49.032V48.0341H61.8018C61.7356 48.1856 61.6361 48.3288 61.5036 48.4638C61.371 48.5987 61.2005 48.7088 60.9922 48.794C60.7839 48.8793 60.5353 48.9219 60.2464 48.9219C59.8369 48.9219 59.464 48.8272 59.1278 48.6378C58.794 48.446 58.5277 48.1536 58.3288 47.7607C58.1323 47.3653 58.0341 46.8658 58.0341 46.2621C58.0341 45.6442 58.1347 45.1281 58.3359 44.7138C58.5372 44.2995 58.8047 43.9893 59.1385 43.7834C59.4747 43.5774 59.8428 43.4744 60.2429 43.4744C60.5483 43.4744 60.804 43.5265 61.0099 43.6307C61.2159 43.7325 61.3816 43.8603 61.5071 44.0142C61.6349 44.1657 61.7332 44.3149 61.8018 44.4616H61.8587V43.5455H63.3608V49.0533C63.3608 49.5173 63.2472 49.9055 63.0199 50.218C62.7926 50.5305 62.4777 50.7649 62.0753 50.9212C61.6752 51.0798 61.2147 51.1591 60.6939 51.1591ZM60.7259 47.7855C60.9697 47.7855 61.1757 47.7251 61.3438 47.6044C61.5142 47.4813 61.6444 47.3061 61.7344 47.0788C61.8267 46.8492 61.8729 46.5746 61.8729 46.255C61.8729 45.9354 61.8279 45.6584 61.7379 45.424C61.648 45.1873 61.5178 45.0038 61.3473 44.8736C61.1768 44.7434 60.9697 44.6783 60.7259 44.6783C60.4773 44.6783 60.2678 44.7457 60.0973 44.8807C59.9268 45.0133 59.7978 45.1979 59.7102 45.4347C59.6226 45.6714 59.5788 45.9448 59.5788 46.255C59.5788 46.5698 59.6226 46.8421 59.7102 47.0717C59.8002 47.299 59.9292 47.4754 60.0973 47.6009C60.2678 47.724 60.4773 47.7855 60.7259 47.7855Z" fill="#F8FAFB"/>
<defs>
<linearGradient id="paint0_linear_2641_36199" x1="68.1107" y1="-3.76071" x2="5.57143" y2="85.2429" gradientUnits="userSpaceOnUse">
<stop stop-color="#5B5BF0"/>
<stop offset="1" stop-color="#00AFF0"/>
</linearGradient>
</defs>
</svg>
