<svg width="78" height="78" viewBox="0 0 78 78" fill="none" xmlns="http://www.w3.org/2000/svg">
<rect width="78" height="78" rx="39" fill="#1D1D1D" fill-opacity="0.9"/>
<rect width="78" height="78" rx="39" fill="url(#paint0_linear_2238_11675)"/>
<path d="M32.1565 31.8189C32.1281 31.5324 32.0062 31.3099 31.7907 31.1513C31.5753 30.9927 31.2829 30.9134 30.9136 30.9134C30.6627 30.9134 30.4508 30.9489 30.278 31.0199C30.1051 31.0885 29.9726 31.1844 29.8802 31.3075C29.7903 31.4306 29.7453 31.5703 29.7453 31.7266C29.7406 31.8568 29.7678 31.9704 29.827 32.0675C29.8885 32.1645 29.9726 32.2486 30.0791 32.3196C30.1856 32.3883 30.3087 32.4486 30.4484 32.5007C30.5881 32.5504 30.7372 32.593 30.8959 32.6286L31.5493 32.7848C31.8665 32.8558 32.1577 32.9505 32.4229 33.0689C32.688 33.1873 32.9176 33.3329 33.1118 33.5057C33.3059 33.6785 33.4562 33.8821 33.5628 34.1165C33.6717 34.3509 33.7273 34.6196 33.7297 34.9226C33.7273 35.3677 33.6137 35.7536 33.3888 36.0803C33.1662 36.4046 32.8443 36.6567 32.4229 36.8366C32.0038 37.0142 31.4984 37.103 30.9065 37.103C30.3194 37.103 29.808 37.013 29.3724 36.8331C28.9392 36.6532 28.6006 36.3868 28.3568 36.0341C28.1153 35.679 27.9887 35.2398 27.9768 34.7166H29.4648C29.4813 34.9605 29.5512 35.1641 29.6743 35.3274C29.7997 35.4884 29.9666 35.6103 30.175 35.6932C30.3857 35.7737 30.6236 35.8139 30.8888 35.8139C31.1492 35.8139 31.3753 35.776 31.567 35.7003C31.7612 35.6245 31.9115 35.5192 32.018 35.3842C32.1246 35.2493 32.1778 35.0942 32.1778 34.919C32.1778 34.7557 32.1293 34.6184 32.0322 34.5071C31.9375 34.3958 31.7979 34.3011 31.6132 34.223C31.4309 34.1449 31.2072 34.0739 30.942 34.0099L30.1501 33.8111C29.537 33.6619 29.0528 33.4287 28.6977 33.1115C28.3426 32.7943 28.1662 32.367 28.1686 31.8295C28.1662 31.3892 28.2834 31.0045 28.5202 30.6754C28.7593 30.3464 29.0872 30.0895 29.5038 29.9048C29.9205 29.7202 30.394 29.6278 30.9243 29.6278C31.464 29.6278 31.9352 29.7202 32.3376 29.9048C32.7425 30.0895 33.0573 30.3464 33.2822 30.6754C33.5071 31.0045 33.6231 31.3857 33.6302 31.8189H32.1565ZM37.6368 31.5455V32.6818H34.352V31.5455H37.6368ZM35.0977 30.2386H36.6105V35.3239C36.6105 35.4635 36.6318 35.5724 36.6744 35.6506C36.7171 35.7263 36.7762 35.7796 36.852 35.8104C36.9301 35.8411 37.0201 35.8565 37.1219 35.8565C37.1929 35.8565 37.2639 35.8506 37.335 35.8388C37.406 35.8246 37.4604 35.8139 37.4983 35.8068L37.7362 36.9325C37.6605 36.9562 37.5539 36.9834 37.4166 37.0142C37.2793 37.0473 37.1124 37.0675 36.9159 37.0746C36.5513 37.0888 36.2317 37.0402 35.9571 36.929C35.6849 36.8177 35.473 36.6449 35.3215 36.4105C35.17 36.1761 35.0954 35.8802 35.0977 35.5227V30.2386ZM41.0281 37.1065C40.4765 37.1065 39.9995 36.9893 39.597 36.755C39.1969 36.5182 38.888 36.1892 38.6702 35.7678C38.4524 35.344 38.3435 34.8527 38.3435 34.294C38.3435 33.7306 38.4524 33.2382 38.6702 32.8168C38.888 32.393 39.1969 32.0639 39.597 31.8295C39.9995 31.5928 40.4765 31.4744 41.0281 31.4744C41.5798 31.4744 42.0556 31.5928 42.4557 31.8295C42.8582 32.0639 43.1683 32.393 43.3861 32.8168C43.6039 33.2382 43.7128 33.7306 43.7128 34.294C43.7128 34.8527 43.6039 35.344 43.3861 35.7678C43.1683 36.1892 42.8582 36.5182 42.4557 36.755C42.0556 36.9893 41.5798 37.1065 41.0281 37.1065ZM41.0352 35.9347C41.2862 35.9347 41.4957 35.8636 41.6638 35.7216C41.8319 35.5772 41.9585 35.3807 42.0438 35.1321C42.1314 34.8835 42.1752 34.6006 42.1752 34.2834C42.1752 33.9661 42.1314 33.6832 42.0438 33.4347C41.9585 33.1861 41.8319 32.9896 41.6638 32.8452C41.4957 32.7008 41.2862 32.6286 41.0352 32.6286C40.7819 32.6286 40.5689 32.7008 40.396 32.8452C40.2256 32.9896 40.0966 33.1861 40.009 33.4347C39.9237 33.6832 39.8811 33.9661 39.8811 34.2834C39.8811 34.6006 39.9237 34.8835 40.009 35.1321C40.0966 35.3807 40.2256 35.5772 40.396 35.7216C40.5689 35.8636 40.7819 35.9347 41.0352 35.9347ZM44.6965 39.0455V31.5455H46.1879V32.4616H46.2554C46.3217 32.3149 46.4176 32.1657 46.5431 32.0142C46.6709 31.8603 46.8366 31.7325 47.0402 31.6307C47.2462 31.5265 47.5019 31.4744 47.8073 31.4744C48.205 31.4744 48.5719 31.5786 48.9081 31.7869C49.2443 31.9929 49.513 32.3042 49.7142 32.7209C49.9155 33.1352 50.0161 33.6548 50.0161 34.2798C50.0161 34.8883 49.9178 35.402 49.7213 35.821C49.5272 36.2377 49.262 36.5537 48.9259 36.7692C48.5921 36.9822 48.218 37.0888 47.8037 37.0888C47.5102 37.0888 47.2604 37.0402 47.0544 36.9432C46.8508 36.8461 46.6839 36.7242 46.5537 36.5774C46.4235 36.4283 46.3241 36.2779 46.2554 36.1264H46.2093V39.0455H44.6965ZM46.1773 34.2727C46.1773 34.5971 46.2223 34.88 46.3122 35.1214C46.4022 35.3629 46.5324 35.5511 46.7029 35.6861C46.8733 35.8187 47.0805 35.8849 47.3243 35.8849C47.5705 35.8849 47.7789 35.8175 47.9493 35.6825C48.1198 35.5452 48.2488 35.3558 48.3364 35.1143C48.4263 34.8705 48.4713 34.59 48.4713 34.2727C48.4713 33.9579 48.4275 33.6809 48.3399 33.4418C48.2523 33.2027 48.1233 33.0156 47.9529 32.8807C47.7824 32.7457 47.5729 32.6783 47.3243 32.6783C47.0781 32.6783 46.8698 32.7434 46.6993 32.8736C46.5312 33.0038 46.4022 33.1884 46.3122 33.4276C46.2223 33.6667 46.1773 33.9484 46.1773 34.2727ZM14.6712 49V41.7273H17.5405C18.0897 41.7273 18.5585 41.8255 18.9467 42.022C19.3374 42.2161 19.6345 42.492 19.8381 42.8494C20.044 43.2045 20.147 43.6224 20.147 44.103C20.147 44.5859 20.0429 45.0014 19.8345 45.3494C19.6262 45.6951 19.3243 45.9602 18.929 46.1449C18.536 46.3295 18.0601 46.4219 17.5014 46.4219H15.5803V45.1861H17.2528C17.5464 45.1861 17.7902 45.1458 17.9844 45.0653C18.1785 44.9848 18.3229 44.8641 18.4176 44.7031C18.5147 44.5421 18.5632 44.3421 18.5632 44.103C18.5632 43.8615 18.5147 43.6579 18.4176 43.4922C18.3229 43.3265 18.1773 43.201 17.9808 43.1158C17.7867 43.0282 17.5417 42.9844 17.2457 42.9844H16.2088V49H14.6712ZM18.5987 45.6903L20.4062 49H18.7088L16.9403 45.6903H18.5987ZM23.6032 49.1065C23.0421 49.1065 22.5591 48.9929 22.1543 48.7656C21.7518 48.536 21.4417 48.2116 21.2239 47.7926C21.0061 47.3712 20.8972 46.8729 20.8972 46.2976C20.8972 45.7365 21.0061 45.2441 21.2239 44.8203C21.4417 44.3965 21.7483 44.0663 22.1436 43.8295C22.5414 43.5928 23.0078 43.4744 23.5428 43.4744C23.9026 43.4744 24.2376 43.5324 24.5478 43.6484C24.8603 43.7621 25.1325 43.9337 25.3645 44.1634C25.5989 44.393 25.7812 44.6818 25.9114 45.0298C26.0416 45.3755 26.1067 45.7803 26.1067 46.2443V46.6598H21.5009V45.7223H24.6827C24.6827 45.5045 24.6354 45.3116 24.5407 45.1435C24.446 44.9754 24.3146 44.844 24.1465 44.7493C23.9808 44.6522 23.7878 44.6037 23.5676 44.6037C23.338 44.6037 23.1344 44.657 22.9569 44.7635C22.7817 44.8677 22.6444 45.0085 22.5449 45.1861C22.4455 45.3613 22.3946 45.5566 22.3922 45.772V46.6634C22.3922 46.9332 22.4419 47.1664 22.5414 47.3629C22.6432 47.5594 22.7864 47.7109 22.9711 47.8175C23.1557 47.924 23.3747 47.9773 23.628 47.9773C23.7961 47.9773 23.95 47.9536 24.0897 47.9062C24.2293 47.8589 24.3489 47.7879 24.4483 47.6932C24.5478 47.5985 24.6235 47.4825 24.6756 47.3452L26.0748 47.4375C26.0037 47.7737 25.8581 48.0672 25.638 48.3182C25.4202 48.5668 25.1384 48.7609 24.7928 48.9006C24.4495 49.0379 24.053 49.1065 23.6032 49.1065ZM29.5584 49.1065C28.9997 49.1065 28.5191 48.9882 28.1167 48.7514C27.7166 48.5123 27.4088 48.1809 27.1934 47.7571C26.9803 47.3333 26.8738 46.8456 26.8738 46.294C26.8738 45.7353 26.9815 45.2453 27.1969 44.8239C27.4147 44.4001 27.7237 44.0698 28.1238 43.8331C28.5239 43.594 28.9997 43.4744 29.5513 43.4744C30.0272 43.4744 30.4438 43.5608 30.8013 43.7337C31.1588 43.9065 31.4417 44.1491 31.65 44.4616C31.8584 44.7741 31.9732 45.1411 31.9945 45.5625H30.5669C30.5267 45.2902 30.4202 45.0713 30.2473 44.9055C30.0769 44.7375 29.8532 44.6534 29.5762 44.6534C29.3418 44.6534 29.137 44.7173 28.9618 44.8452C28.789 44.9706 28.6541 45.1541 28.557 45.3956C28.4599 45.6371 28.4114 45.9295 28.4114 46.2727C28.4114 46.6207 28.4587 46.9167 28.5534 47.1605C28.6505 47.4044 28.7866 47.5902 28.9618 47.718C29.137 47.8459 29.3418 47.9098 29.5762 47.9098C29.749 47.9098 29.9041 47.8743 30.0414 47.8033C30.181 47.7322 30.2959 47.6293 30.3858 47.4943C30.4782 47.357 30.5385 47.1925 30.5669 47.0007H31.9945C31.9708 47.4174 31.8572 47.7843 31.6536 48.1016C31.4524 48.4164 31.1742 48.6626 30.8191 48.8402C30.464 49.0178 30.0437 49.1065 29.5584 49.1065ZM35.4276 49.1065C34.8759 49.1065 34.3989 48.9893 33.9964 48.755C33.5964 48.5182 33.2874 48.1892 33.0696 47.7678C32.8518 47.344 32.7429 46.8527 32.7429 46.294C32.7429 45.7306 32.8518 45.2382 33.0696 44.8168C33.2874 44.393 33.5964 44.0639 33.9964 43.8295C34.3989 43.5928 34.8759 43.4744 35.4276 43.4744C35.9792 43.4744 36.455 43.5928 36.8551 43.8295C37.2576 44.0639 37.5677 44.393 37.7855 44.8168C38.0033 45.2382 38.1122 45.7306 38.1122 46.294C38.1122 46.8527 38.0033 47.344 37.7855 47.7678C37.5677 48.1892 37.2576 48.5182 36.8551 48.755C36.455 48.9893 35.9792 49.1065 35.4276 49.1065ZM35.4347 47.9347C35.6856 47.9347 35.8951 47.8636 36.0632 47.7216C36.2313 47.5772 36.358 47.3807 36.4432 47.1321C36.5308 46.8835 36.5746 46.6006 36.5746 46.2834C36.5746 45.9661 36.5308 45.6832 36.4432 45.4347C36.358 45.1861 36.2313 44.9896 36.0632 44.8452C35.8951 44.7008 35.6856 44.6286 35.4347 44.6286C35.1813 44.6286 34.9683 44.7008 34.7955 44.8452C34.625 44.9896 34.496 45.1861 34.4084 45.4347C34.3232 45.6832 34.2805 45.9661 34.2805 46.2834C34.2805 46.6006 34.3232 46.8835 34.4084 47.1321C34.496 47.3807 34.625 47.5772 34.7955 47.7216C34.9683 47.8636 35.1813 47.9347 35.4347 47.9347ZM39.0959 49V43.5455H40.5625V44.4972H40.6193C40.7188 44.1586 40.8857 43.9029 41.12 43.7301C41.3544 43.5549 41.6243 43.4673 41.9297 43.4673C42.0054 43.4673 42.0871 43.4721 42.1747 43.4815C42.2623 43.491 42.3393 43.504 42.4055 43.5206V44.8629C42.3345 44.8416 42.2363 44.8227 42.1108 44.8061C41.9853 44.7895 41.8705 44.7812 41.7663 44.7812C41.5438 44.7812 41.3449 44.8298 41.1697 44.9268C40.9969 45.0215 40.8596 45.1541 40.7578 45.3246C40.6584 45.495 40.6087 45.6915 40.6087 45.9141V49H39.0959ZM44.9437 49.0888C44.5294 49.0888 44.1542 48.9822 43.818 48.7692C43.4842 48.5537 43.219 48.2377 43.0225 47.821C42.8284 47.402 42.7314 46.8883 42.7314 46.2798C42.7314 45.6548 42.832 45.1352 43.0332 44.7209C43.2344 44.3042 43.502 43.9929 43.8358 43.7869C44.1719 43.5786 44.5401 43.4744 44.9402 43.4744C45.2456 43.4744 45.5001 43.5265 45.7037 43.6307C45.9096 43.7325 46.0753 43.8603 46.2008 44.0142C46.3287 44.1657 46.4257 44.3149 46.492 44.4616H46.5382V41.7273H48.0474V49H46.5559V48.1264H46.492C46.421 48.2779 46.3204 48.4283 46.1902 48.5774C46.0623 48.7242 45.8954 48.8461 45.6895 48.9432C45.4859 49.0402 45.2373 49.0888 44.9437 49.0888ZM45.4231 47.8849C45.667 47.8849 45.8729 47.8187 46.041 47.6861C46.2115 47.5511 46.3417 47.3629 46.4316 47.1214C46.524 46.88 46.5701 46.5971 46.5701 46.2727C46.5701 45.9484 46.5252 45.6667 46.4352 45.4276C46.3452 45.1884 46.215 45.0038 46.0446 44.8736C45.8741 44.7434 45.667 44.6783 45.4231 44.6783C45.1745 44.6783 44.965 44.7457 44.7946 44.8807C44.6241 45.0156 44.4951 45.2027 44.4075 45.4418C44.3199 45.6809 44.2761 45.9579 44.2761 46.2727C44.2761 46.59 44.3199 46.8705 44.4075 47.1143C44.4975 47.3558 44.6265 47.5452 44.7946 47.6825C44.965 47.8175 45.1745 47.8849 45.4231 47.8849ZM49.2912 49V43.5455H50.804V49H49.2912ZM50.0511 42.8423C49.8262 42.8423 49.6333 42.7678 49.4723 42.6186C49.3137 42.4671 49.2344 42.286 49.2344 42.0753C49.2344 41.867 49.3137 41.6882 49.4723 41.5391C49.6333 41.3875 49.8262 41.3118 50.0511 41.3118C50.276 41.3118 50.4678 41.3875 50.6264 41.5391C50.7874 41.6882 50.8679 41.867 50.8679 42.0753C50.8679 42.286 50.7874 42.4671 50.6264 42.6186C50.4678 42.7678 50.276 42.8423 50.0511 42.8423ZM53.5286 45.8466V49H52.0158V43.5455H53.4576V44.5078H53.5215C53.6422 44.1906 53.8446 43.9396 54.1287 43.755C54.4128 43.5679 54.7573 43.4744 55.1621 43.4744C55.5409 43.4744 55.8712 43.5573 56.1529 43.723C56.4346 43.8887 56.6536 44.1255 56.8098 44.4332C56.9661 44.7386 57.0442 45.1032 57.0442 45.527V49H55.5314V45.7969C55.5338 45.4631 55.4486 45.2027 55.2757 45.0156C55.1029 44.8262 54.865 44.7315 54.562 44.7315C54.3584 44.7315 54.1784 44.7753 54.0222 44.8629C53.8683 44.9505 53.7476 45.0784 53.66 45.2464C53.5748 45.4122 53.531 45.6122 53.5286 45.8466ZM60.6939 51.1591C60.2038 51.1591 59.7836 51.0916 59.4332 50.9567C59.0852 50.8241 58.8082 50.643 58.6023 50.4134C58.3963 50.1837 58.2625 49.9257 58.201 49.6392L59.6001 49.451C59.6428 49.5599 59.7102 49.6617 59.8026 49.7564C59.8949 49.8511 60.0168 49.9268 60.1683 49.9837C60.3222 50.0429 60.5092 50.0724 60.7294 50.0724C61.0585 50.0724 61.3295 49.992 61.5426 49.831C61.758 49.6723 61.8658 49.406 61.8658 49.032V48.0341H61.8018C61.7356 48.1856 61.6361 48.3288 61.5036 48.4638C61.371 48.5987 61.2005 48.7088 60.9922 48.794C60.7839 48.8793 60.5353 48.9219 60.2464 48.9219C59.8369 48.9219 59.464 48.8272 59.1278 48.6378C58.794 48.446 58.5277 48.1536 58.3288 47.7607C58.1323 47.3653 58.0341 46.8658 58.0341 46.2621C58.0341 45.6442 58.1347 45.1281 58.3359 44.7138C58.5372 44.2995 58.8047 43.9893 59.1385 43.7834C59.4747 43.5774 59.8428 43.4744 60.2429 43.4744C60.5483 43.4744 60.804 43.5265 61.0099 43.6307C61.2159 43.7325 61.3816 43.8603 61.5071 44.0142C61.6349 44.1657 61.7332 44.3149 61.8018 44.4616H61.8587V43.5455H63.3608V49.0533C63.3608 49.5173 63.2472 49.9055 63.0199 50.218C62.7926 50.5305 62.4777 50.7649 62.0753 50.9212C61.6752 51.0798 61.2147 51.1591 60.6939 51.1591ZM60.7259 47.7855C60.9697 47.7855 61.1757 47.7251 61.3438 47.6044C61.5142 47.4813 61.6444 47.3061 61.7344 47.0788C61.8267 46.8492 61.8729 46.5746 61.8729 46.255C61.8729 45.9354 61.8279 45.6584 61.7379 45.424C61.648 45.1873 61.5178 45.0038 61.3473 44.8736C61.1768 44.7434 60.9697 44.6783 60.7259 44.6783C60.4773 44.6783 60.2678 44.7457 60.0973 44.8807C59.9268 45.0133 59.7978 45.1979 59.7102 45.4347C59.6226 45.6714 59.5788 45.9448 59.5788 46.255C59.5788 46.5698 59.6226 46.8421 59.7102 47.0717C59.8002 47.299 59.9292 47.4754 60.0973 47.6009C60.2678 47.724 60.4773 47.7855 60.7259 47.7855Z" fill="#F8FAFB"/>
<defs>
<linearGradient id="paint0_linear_2238_11675" x1="68.1107" y1="-3.76071" x2="5.57143" y2="85.2429" gradientUnits="userSpaceOnUse">
<stop stop-color="#5B5BF0"/>
<stop offset="1" stop-color="#00AFF0"/>
</linearGradient>
</defs>
</svg>
