<svg width="14" height="12" viewBox="0 0 14 12" fill="none" xmlns="http://www.w3.org/2000/svg">
<path fill-rule="evenodd" clip-rule="evenodd" d="M5.78202 0H8.21723C9.28837 0 10.1519 -2.43837e-08 10.8309 0.0843772C11.5358 0.172845 12.1295 0.361035 12.601 0.798769C13.0724 1.2365 13.2756 1.78778 13.3703 2.44238C13.4612 3.07291 13.4612 3.8747 13.4612 4.86937V7.13063C13.4612 8.12527 13.4612 8.92715 13.3703 9.55762C13.2756 10.2122 13.0724 10.7634 12.601 11.2012C12.1295 11.639 11.5359 11.8277 10.8309 11.9156C10.1519 12 9.28841 12 8.21723 12H5.78202C4.71088 12 3.84731 12 3.16834 11.9156C2.46342 11.8277 1.86976 11.639 1.3983 11.2012C0.926837 10.7635 0.72423 10.2122 0.628954 9.55762C0.538086 8.92709 0.538086 8.12531 0.538086 7.13063V4.86937C0.538086 3.87474 0.538086 3.07285 0.628954 2.44238C0.724227 1.78781 0.926893 1.23655 1.3983 0.798769C1.8697 0.360983 2.46338 0.172848 3.16834 0.0843772C3.84737 -2.43837e-08 4.71084 0 5.78202 0ZM4.64976 2.18153C3.67665 2.18153 2.88747 2.91434 2.88747 3.81794C2.88747 4.11915 3.15072 4.36359 3.47509 4.36359C3.79946 4.36359 4.06271 4.11915 4.06271 3.81794C4.06271 3.51674 4.3254 3.27281 4.64978 3.27281H6.41206V8.72716C6.08769 8.72716 5.825 8.9716 5.825 9.2728C5.825 9.57401 6.08769 9.81845 6.41206 9.81845H7.58728C7.91166 9.81845 8.17435 9.57401 8.17435 9.2728C8.17435 8.9716 7.91166 8.72716 7.58728 8.72716V3.27281H9.34957C9.67395 3.27281 9.93664 3.51674 9.93664 3.81794C9.93664 4.11915 10.1999 4.36359 10.5243 4.36359C10.8486 4.36359 11.1119 4.11915 11.1119 3.81794C11.1119 2.91434 10.3227 2.18153 9.34959 2.18153H4.64976Z" fill="white"/>
</svg>
