<svg width="12" height="4" viewBox="0 0 12 4" fill="none" xmlns="http://www.w3.org/2000/svg">
<path d="M9.6 2.00078C9.6 1.68252 9.72643 1.3773 9.95147 1.15225C10.1765 0.927209 10.4817 0.800781 10.8 0.800781C11.1183 0.800781 11.4235 0.927209 11.6485 1.15225C11.8736 1.3773 12 1.68252 12 2.00078C12 2.31904 11.8736 2.62427 11.6485 2.84931C11.4235 3.07435 11.1183 3.20078 10.8 3.20078C10.4817 3.20078 10.1765 3.07435 9.95147 2.84931C9.72643 2.62427 9.6 2.31904 9.6 2.00078ZM4.8 2.00078C4.8 1.68252 4.92643 1.3773 5.15147 1.15225C5.37652 0.927209 5.68174 0.800781 6 0.800781C6.31826 0.800781 6.62348 0.927209 6.84853 1.15225C7.07357 1.3773 7.2 1.68252 7.2 2.00078C7.2 2.31904 7.07357 2.62427 6.84853 2.84931C6.62348 3.07435 6.31826 3.20078 6 3.20078C5.68174 3.20078 5.37652 3.07435 5.15147 2.84931C4.92643 2.62427 4.8 2.31904 4.8 2.00078ZM0 2.00078C0 1.68252 0.126428 1.3773 0.351472 1.15225C0.576515 0.927209 0.88174 0.800781 1.2 0.800781C1.51826 0.800781 1.82348 0.927209 2.04853 1.15225C2.27357 1.3773 2.4 1.68252 2.4 2.00078C2.4 2.31904 2.27357 2.62427 2.04853 2.84931C1.82348 3.07435 1.51826 3.20078 1.2 3.20078C0.88174 3.20078 0.576515 3.07435 0.351472 2.84931C0.126428 2.62427 0 2.31904 0 2.00078Z" fill="#1D1D1D"/>
</svg>
