<svg width="16" height="16" viewBox="0 0 16 16" fill="none" xmlns="http://www.w3.org/2000/svg">
<path d="M1.91074 4.32848L2.61056 13.6467C2.70449 14.8951 3.75748 15.8711 5.00777 15.8711H10.8317C12.082 15.8711 13.135 14.8951 13.229 13.6467L13.9269 4.32848H15.2786C15.6778 4.32848 16 4.0063 16 3.60707C16 3.20784 15.6778 2.88566 15.2786 2.88566H11.3305C11.0544 1.25026 9.63314 0 7.92064 0C6.20815 0 4.78514 1.25026 4.51076 2.88566H0.721414C0.322183 2.88566 0 3.20784 0 3.60707C0 4.0063 0.322183 4.32848 0.721414 4.32848H1.91074ZM7.9206 1.44283C8.83458 1.44283 9.60671 2.05151 9.85658 2.88566H5.98451C6.23439 2.05151 7.00661 1.44283 7.9206 1.44283ZM12.4792 4.32848L11.7888 13.5388C11.7503 14.0366 11.3294 14.4283 10.8316 14.4283H5.00762C4.5079 14.4283 4.08707 14.0385 4.05043 13.5388L3.35813 4.32848H12.4792Z" fill="#55565B"/>
</svg>
