<svg
  class="w-5 h-5 text-black dark:text-[white]"
  width="20"
  height="20"
  viewBox="0 0 20 20"
  xmlns="http://www.w3.org/2000/svg"
>
  <path d="M18.2507 20H1.74933C1.28538 20 0.840431 19.8106 0.512368 19.4736C0.184304 19.1365 0 18.6794 0 18.2027V1.79726C0 1.3206 0.184304 0.863457 0.512368 0.526405C0.840431 0.189354 1.28538 0 1.74933 0H18.2507C18.7146 0 19.1596 0.189354 19.4876 0.526405C19.8157 0.863457 20 1.3206 20 1.79726V18.2027C20 18.6794 19.8157 19.1365 19.4876 19.4736C19.1596 19.8106 18.7146 20 18.2507 20ZM13.2347 10.4959C13.2762 10.5615 13.3309 10.6171 13.3951 10.6592C13.4592 10.7012 13.5314 10.7286 13.6068 10.7396C13.6822 10.7506 13.759 10.7449 13.832 10.7229C13.905 10.7008 13.9726 10.663 14.0303 10.6119C14.0879 10.5608 14.1342 10.4976 14.1661 10.4266C14.1979 10.3555 14.2147 10.2783 14.2151 10.2001C14.2155 10.1219 14.1996 10.0445 14.1685 9.97314C14.1374 9.90176 14.0917 9.83806 14.0347 9.7863L10.3947 5.40274C10.3446 5.34443 10.2831 5.29774 10.2141 5.26575C10.1451 5.23377 10.0703 5.21723 9.99467 5.21723C9.919 5.21723 9.8442 5.23377 9.77523 5.26575C9.70627 5.29774 9.64472 5.34443 9.59467 5.40274L5.95467 9.7863C5.89759 9.83806 5.85197 9.90176 5.82085 9.97314C5.78973 10.0445 5.77385 10.1219 5.77427 10.2001C5.77468 10.2783 5.79139 10.3555 5.82327 10.4266C5.85514 10.4976 5.90144 10.5608 5.95906 10.6119C6.01668 10.663 6.08429 10.7008 6.15733 10.7229C6.23037 10.7449 6.30715 10.7506 6.38252 10.7396C6.45789 10.7286 6.53009 10.7012 6.59428 10.6592C6.65847 10.6171 6.71316 10.5615 6.75467 10.4959L9.46667 7.2411V15.8904C9.46667 16.0357 9.52286 16.1751 9.62288 16.2779C9.7229 16.3806 9.85855 16.4384 10 16.4384C10.1414 16.4384 10.2771 16.3806 10.3771 16.2779C10.4771 16.1751 10.5333 16.0357 10.5333 15.8904V7.2411L13.2347 10.4959Z"/>
</svg>
