<svg width="20" height="20" viewBox="0 0 20 20" fill="none" xmlns="http://www.w3.org/2000/svg">
<g clip-path="url(#clip0_3616_62835)">
<path d="M9.25462 0.817957C9.00769 0.818726 8.73462 0.929495 8.48538 1.17796L4.08615 6.15411H0.769231C0.345385 6.15411 0 6.4995 0 6.92334V13.0772C0 13.501 0.345385 13.8464 0.769231 13.8464H4.08692L8.46154 18.7987C9.23077 19.568 10 19.1741 10 18.1257V1.75411C10 1.14565 9.66692 0.814111 9.25462 0.816418V0.817957ZM14.8315 2.35642C14.6679 2.38496 14.518 2.46568 14.404 2.58651C14.2901 2.70734 14.2184 2.8618 14.1995 3.02679C14.1806 3.19179 14.2156 3.35846 14.2993 3.5019C14.383 3.64533 14.5109 3.75783 14.6638 3.82257C15.8084 4.39769 16.77 5.28038 17.4408 6.37159C18.1116 7.4628 18.4651 8.71936 18.4615 10.0003C18.4615 12.711 16.9231 15.0387 14.6631 16.178C14.5602 16.2137 14.4662 16.271 14.3871 16.3458C14.308 16.4207 14.2457 16.5115 14.2043 16.6122C14.1629 16.7129 14.1434 16.8213 14.1471 16.9301C14.1507 17.0389 14.1774 17.1458 14.2254 17.2435C14.2734 17.3413 14.3416 17.4277 14.4255 17.4971C14.5094 17.5665 14.607 17.6174 14.712 17.6462C14.817 17.6751 14.927 17.6813 15.0346 17.6645C15.1422 17.6477 15.245 17.6082 15.3362 17.5487C18.1 16.1541 20 13.2987 20 10.0003C20 6.7018 18.0992 3.84642 15.3362 2.4518C15.2045 2.37833 15.0542 2.34516 14.9038 2.35642C14.8798 2.35528 14.8556 2.35528 14.8315 2.35642ZM13.0046 5.33642C12.839 5.34858 12.6817 5.41402 12.5564 5.52296C12.431 5.6319 12.3443 5.77848 12.3091 5.94079C12.274 6.10311 12.2923 6.27244 12.3614 6.42347C12.4305 6.57451 12.5465 6.69914 12.6923 6.77873C13.8792 7.51642 14.6154 8.68488 14.6154 10.0003C14.6154 11.3249 13.8677 12.5087 12.6685 13.2456C12.5742 13.2948 12.4912 13.3629 12.4247 13.4458C12.3581 13.5286 12.3094 13.6243 12.2817 13.7269C12.2539 13.8295 12.2478 13.9367 12.2635 14.0418C12.2793 14.1469 12.3167 14.2475 12.3733 14.3375C12.4299 14.4274 12.5045 14.5046 12.5925 14.5643C12.6804 14.6239 12.7797 14.6647 12.8842 14.684C12.9887 14.7034 13.0961 14.7009 13.1995 14.6766C13.303 14.6524 13.4003 14.607 13.4854 14.5433C15.0777 13.5664 16.1538 11.9049 16.1538 10.0003C16.1538 8.10719 15.0869 6.43642 13.5092 5.45719C13.3803 5.37485 13.2298 5.3328 13.0769 5.33642C13.0528 5.33528 13.0287 5.33528 13.0046 5.33642Z" fill="#1D1D1D"/>
</g>
<defs>
<clipPath id="clip0_3616_62835">
<rect width="20" height="20" fill="white"/>
</clipPath>
</defs>
</svg>
