<svg width="72" height="17" viewBox="0 0 72 17" fill="none" xmlns="http://www.w3.org/2000/svg">
<path d="M22.3812 3.00353C22.1176 2.02471 21.3459 1.25294 20.3671 0.989412C18.5788 0.5 11.4259 0.5 11.4259 0.5C11.4259 0.5 4.27294 0.5 2.48471 0.970588C1.52471 1.23412 0.734118 2.02471 0.470588 3.00353C0 4.79176 0 8.5 0 8.5C0 8.5 0 12.2271 0.470588 13.9965C0.734118 14.9753 1.50588 15.7471 2.48471 16.0106C4.29176 16.5 11.4259 16.5 11.4259 16.5C11.4259 16.5 18.5788 16.5 20.3671 16.0294C21.3459 15.7659 22.1176 14.9941 22.3812 14.0153C22.8518 12.2271 22.8518 8.51882 22.8518 8.51882C22.8518 8.51882 22.8706 4.79176 22.3812 3.00353Z" fill="#E33B2E"/>
<path d="M9.14844 5.07422V11.926L15.0967 8.5001L9.14844 5.07422Z" fill="white"/>
<path d="M33.1877 15.0694C32.7359 14.7682 32.4159 14.2977 32.2277 13.6388C32.0394 12.9988 31.9453 12.1329 31.9453 11.0788V9.62941C31.9453 8.55647 32.0583 7.69059 32.2653 7.03177C32.4912 6.37294 32.83 5.90236 33.2818 5.60118C33.7524 5.3 34.3547 5.14941 35.1077 5.14941C35.8418 5.14941 36.4441 5.3 36.8959 5.60118C37.3477 5.90236 37.6677 6.39177 37.8747 7.03177C38.0818 7.67177 38.1947 8.53765 38.1947 9.62941V11.0788C38.1947 12.1518 38.1006 12.9988 37.8935 13.6576C37.6865 14.2976 37.3665 14.7871 36.9147 15.0882C36.463 15.3894 35.8418 15.54 35.07 15.54C34.2794 15.5212 33.6394 15.3706 33.1877 15.0694ZM35.7288 13.4882C35.8606 13.1682 35.9171 12.6224 35.9171 11.8882V8.76353C35.9171 8.04824 35.8606 7.52118 35.7288 7.18236C35.5971 6.84353 35.39 6.69294 35.07 6.69294C34.7688 6.69294 34.543 6.86236 34.43 7.18236C34.2983 7.52118 34.2418 8.04824 34.2418 8.76353V11.8882C34.2418 12.6224 34.2983 13.1682 34.43 13.4882C34.543 13.8082 34.7688 13.9776 35.0888 13.9776C35.39 13.9776 35.5971 13.8271 35.7288 13.4882Z" fill="#55565B"/>
<path d="M67.9374 11.0975V11.6057C67.9374 12.2457 67.9563 12.7351 67.9939 13.0551C68.0316 13.3751 68.1069 13.6198 68.2386 13.7516C68.3516 13.9022 68.5398 13.9775 68.8033 13.9775C69.1421 13.9775 69.368 13.8457 69.4998 13.5822C69.6316 13.3186 69.688 12.8857 69.7068 12.2645L71.6457 12.3775C71.6645 12.4716 71.6645 12.5845 71.6645 12.7351C71.6645 13.6575 71.4198 14.3539 70.9116 14.8057C70.4033 15.2575 69.688 15.4833 68.7657 15.4833C67.6551 15.4833 66.8833 15.1257 66.4316 14.4292C65.9798 13.7327 65.7539 12.6598 65.7539 11.1916V9.44098C65.7539 7.9351 65.9798 6.84334 66.4504 6.14687C66.921 5.4504 67.7116 5.11157 68.8221 5.11157C69.5939 5.11157 70.1963 5.26216 70.6104 5.54451C71.0245 5.82687 71.3069 6.27863 71.4763 6.86216C71.6457 7.46451 71.721 8.29275 71.721 9.34687V11.0598H67.9374V11.0975ZM68.2198 6.88098C68.1068 7.03157 68.0316 7.25745 67.9939 7.57745C67.9563 7.89745 67.9374 8.38687 67.9374 9.04569V9.76098H69.5939V9.04569C69.5939 8.40569 69.5751 7.91628 69.5374 7.57745C69.4998 7.23863 69.4057 7.01275 69.2927 6.88098C69.1798 6.74922 68.9916 6.67392 68.7657 6.67392C68.5021 6.6551 68.3327 6.7304 68.2198 6.88098Z" fill="#55565B"/>
<path d="M27.6928 10.9094L25.1328 1.62939H27.3728L28.2763 5.82704C28.5022 6.86234 28.6716 7.74704 28.7846 8.48116H28.841C28.9163 7.9541 29.0858 7.08822 29.3493 5.84587L30.2905 1.62939H32.5305L29.9328 10.9094V15.3517H27.7116V10.9094H27.6928Z" fill="#55565B"/>
<path d="M45.4809 5.33765V15.3706H43.7115L43.5233 14.1471H43.4668C42.9962 15.0694 42.2621 15.54 41.3021 15.54C40.6433 15.54 40.1539 15.3141 39.8339 14.8812C39.5139 14.4482 39.3633 13.7706 39.3633 12.8294V5.33765H41.6221V12.6976C41.6221 13.1494 41.6786 13.4694 41.7727 13.6576C41.8668 13.8459 42.0362 13.94 42.2621 13.94C42.4503 13.94 42.6386 13.8835 42.8268 13.7518C43.015 13.6388 43.1468 13.4882 43.2221 13.3V5.33765H45.4809Z" fill="#55565B"/>
<path d="M57.0591 5.33765V15.3706H55.2896L55.1014 14.1471H55.0449C54.5743 15.0694 53.8402 15.54 52.8802 15.54C52.2214 15.54 51.732 15.3141 51.412 14.8812C51.092 14.4482 50.9414 13.7706 50.9414 12.8294V5.33765H53.2002V12.6976C53.2002 13.1494 53.2567 13.4694 53.3508 13.6576C53.4449 13.8459 53.6143 13.94 53.8402 13.94C54.0285 13.94 54.2167 13.8835 54.4049 13.7518C54.5932 13.6388 54.7249 13.4882 54.8002 13.3V5.33765H57.0591Z" fill="#55565B"/>
<path d="M51.616 3.45528H49.3759V15.3517H47.1736V3.45528H44.9336V1.62939H51.616V3.45528Z" fill="#55565B"/>
<path d="M64.5317 6.93757C64.3999 6.29756 64.1741 5.8458 63.8729 5.56345C63.5717 5.28109 63.1388 5.13051 62.6117 5.13051C62.1976 5.13051 61.8023 5.24345 61.4447 5.48815C61.087 5.71404 60.8047 6.03404 60.6164 6.41051H60.5976V1.12109H58.4141V15.3517H60.2776L60.5035 14.4105H60.5599C60.7294 14.7493 60.9929 15.0129 61.3505 15.2199C61.7082 15.4082 62.0847 15.5211 62.5176 15.5211C63.2894 15.5211 63.8352 15.1634 64.1929 14.467C64.5505 13.7705 64.7388 12.6599 64.7388 11.1729V9.59168C64.7199 8.44345 64.6635 7.55874 64.5317 6.93757ZM62.4611 11.0223C62.4611 11.7564 62.4235 12.3211 62.367 12.7352C62.3105 13.1493 62.1976 13.4505 62.0658 13.6199C61.9152 13.7893 61.727 13.8834 61.5011 13.8834C61.3129 13.8834 61.1435 13.8458 60.9929 13.7517C60.8423 13.6576 60.7105 13.5258 60.6164 13.3564V7.67168C60.6917 7.40815 60.8235 7.18227 61.0117 6.99404C61.1999 6.82462 61.407 6.73051 61.6141 6.73051C61.8399 6.73051 62.0282 6.82462 62.1411 6.99404C62.2729 7.18227 62.3482 7.48345 62.4047 7.89756C62.4611 8.33051 62.4799 8.93286 62.4799 9.70462V11.0223H62.4611Z" fill="#55565B"/>
</svg>
