<svg width="15" height="11" viewBox="0 0 15 11" fill="none" xmlns="http://www.w3.org/2000/svg">
<path fill-rule="evenodd" clip-rule="evenodd" d="M0.555664 5.49996C0.555664 5.03973 0.92876 4.66663 1.389 4.66663L12.1552 4.66663L9.13311 1.6448C8.80765 1.31938 8.80763 0.791746 9.13305 0.466293C9.45847 0.14084 9.9861 0.140813 10.3116 0.466234L14.7564 4.91068C14.9127 5.06696 15.0006 5.27893 15.0006 5.49996C15.0006 5.72099 14.9127 5.93297 14.7564 6.08925L10.3116 10.5337C9.9861 10.8591 9.45847 10.8591 9.13305 10.5336C8.80763 10.2082 8.80765 9.68054 9.13311 9.35512L12.1552 6.3333L1.389 6.3333C0.92876 6.3333 0.555664 5.9602 0.555664 5.49996Z" fill="#1D1D1D"/>
</svg>
