<svg width="21" height="20" viewBox="0 0 21 20" fill="none" xmlns="http://www.w3.org/2000/svg">
<path d="M6.50339 4.23705L2.4832 0.163276L1.06914 1.59619L19.07 19.837L20.4841 18.4041L18.464 16.357C19.9631 14.5883 20.7839 12.3317 20.7761 10.0001C20.7761 5.8544 18.304 2.44743 14.7768 0.879733V2.90649C17.1639 4.31103 18.776 7.00762 18.776 10.0001C18.7708 11.8005 18.1839 13.5495 17.1049 14.9799L15.8188 13.6767C16.4209 12.57 16.7769 11.206 16.7769 10.0001C16.7769 8.20543 16.0018 6.04795 14.7768 4.93324V12.6207L12.7767 10.594V0.00012207L6.50339 4.23705ZM2.77622 15.067H5.47334L12.7767 20.0001V16.203L1.87818 5.15922C1.54805 5.32667 1.27025 5.58366 1.07568 5.90158C0.881114 6.21951 0.777415 6.5859 0.776123 6.95999V13.0403C0.776123 14.158 1.67317 15.067 2.77622 15.067Z" fill="white"/>
</svg>
