<svg width="21" height="22" viewBox="0 0 21 22" fill="none" xmlns="http://www.w3.org/2000/svg">
<mask id="path-1-outside-1_803_254" maskUnits="userSpaceOnUse" x="-0.273438" y="0.00012207" width="22" height="22" fill="black">
<rect fill="white" x="-0.273438" y="0.00012207" width="22" height="22"/>
<path fill-rule="evenodd" clip-rule="evenodd" d="M11.2896 2.20012H10.1636L9.51856 4.77812L8.87156 4.97812C8.49455 5.0943 8.12927 5.24563 7.78056 5.43012L7.18156 5.74712L4.90156 4.37912L4.10556 5.17612L5.47356 7.45612L5.15656 8.05412C4.97172 8.4028 4.82006 8.76807 4.70356 9.14512L4.50456 9.79212L1.92656 10.4371V11.5631L4.50456 12.2081L4.70456 12.8551C4.8199 13.2338 4.97056 13.5975 5.15656 13.9461L5.47356 14.5451L4.10556 16.8251L4.90256 17.6211L7.18256 16.2531L7.78056 16.5701C8.12923 16.7555 8.4929 16.9065 8.87156 17.0231L9.51856 17.2221L10.1636 19.8001H11.2896L11.9346 17.2221L12.5816 17.0221C12.9586 16.9059 13.3239 16.7546 13.6726 16.5701L14.2716 16.2531L16.5516 17.6211L17.3476 16.8241L15.9796 14.5441L16.2966 13.9461C16.4819 13.5975 16.6329 13.2338 16.7496 12.8551L16.9486 12.2081L19.5266 11.5631V10.4371L16.9486 9.79212L16.7486 9.14512C16.6324 8.76811 16.4811 8.40283 16.2966 8.05412L15.9796 7.45512L17.3476 5.17512L16.5506 4.37912L14.2706 5.74712L13.6726 5.43012C13.3239 5.24528 12.9586 5.09362 12.5816 4.97712L11.9346 4.77812L11.2896 2.20012ZM14.2346 4.37012L16.0676 3.27012C16.2587 3.15548 16.4826 3.10798 16.7039 3.13516C16.9251 3.16233 17.1309 3.26263 17.2886 3.42012L18.3066 4.43812C18.4641 4.59582 18.5644 4.80162 18.5915 5.02283C18.6187 5.24404 18.5712 5.46799 18.4566 5.65912L17.3566 7.49212C17.5766 7.90546 17.7566 8.33879 17.8966 8.79212L19.9696 9.31112C20.1858 9.36529 20.3778 9.49017 20.5149 9.66591C20.6521 9.84166 20.7266 10.0582 20.7266 10.2811V11.7191C20.7266 11.9421 20.6521 12.1586 20.5149 12.3343C20.3778 12.5101 20.1858 12.635 19.9696 12.6891L17.8966 13.2081C17.7566 13.6615 17.5766 14.0948 17.3566 14.5081L18.4566 16.3411C18.5712 16.5323 18.6187 16.7562 18.5915 16.9774C18.5644 17.1986 18.4641 17.4044 18.3066 17.5621L17.2886 18.5801C17.1309 18.7376 16.9251 18.8379 16.7039 18.8651C16.4826 18.8923 16.2587 18.8448 16.0676 18.7301L14.2346 17.6301C13.8212 17.8501 13.3879 18.0301 12.9346 18.1701L12.4156 20.2431C12.3614 20.4594 12.2365 20.6513 12.0608 20.7885C11.885 20.9256 11.6685 21.0001 11.4456 21.0001H10.0076C9.78463 21.0001 9.5681 20.9256 9.39235 20.7885C9.21661 20.6513 9.09173 20.4594 9.03756 20.2431L8.51856 18.1701C8.06926 18.0313 7.63401 17.8505 7.21856 17.6301L5.38556 18.7301C5.19443 18.8448 4.97048 18.8923 4.74927 18.8651C4.52806 18.8379 4.32226 18.7376 4.16456 18.5801L3.14656 17.5621C2.98907 17.4044 2.88877 17.1986 2.8616 16.9774C2.83442 16.7562 2.88192 16.5323 2.99656 16.3411L4.09656 14.5081C3.8762 14.0927 3.69541 13.6574 3.55656 13.2081L1.48356 12.6891C1.26748 12.635 1.07566 12.5103 0.938525 12.3347C0.801389 12.1592 0.726791 11.9429 0.726562 11.7201V10.2821C0.726568 10.0592 0.801065 9.84266 0.938218 9.66691C1.07537 9.49117 1.26732 9.36629 1.48356 9.31212L3.55656 8.79312C3.69656 8.33979 3.87656 7.90646 4.09656 7.49312L2.99656 5.66012C2.88192 5.46899 2.83442 5.24504 2.8616 5.02383C2.88877 4.80262 2.98907 4.59682 3.14656 4.43912L4.16456 3.42012C4.32226 3.26263 4.52806 3.16233 4.74927 3.13516C4.97048 3.10798 5.19443 3.15548 5.38556 3.27012L7.21856 4.37012C7.6319 4.15012 8.06523 3.97012 8.51856 3.83012L9.03756 1.75712C9.09169 1.54104 9.21642 1.34922 9.39196 1.21208C9.5675 1.07495 9.7838 1.00035 10.0066 1.00012H11.4446C11.6675 1.00013 11.884 1.07462 12.0598 1.21178C12.2355 1.34893 12.3604 1.54088 12.4146 1.75712L12.9336 3.83012C13.3869 3.97012 13.8202 4.15012 14.2336 4.37012H14.2346ZM10.7266 13.8001C11.4692 13.8001 12.1814 13.5051 12.7065 12.98C13.2316 12.4549 13.5266 11.7427 13.5266 11.0001C13.5266 10.2575 13.2316 9.54532 12.7065 9.02022C12.1814 8.49512 11.4692 8.20012 10.7266 8.20012C9.98396 8.20012 9.27176 8.49512 8.74666 9.02022C8.22156 9.54532 7.92656 10.2575 7.92656 11.0001C7.92656 11.7427 8.22156 12.4549 8.74666 12.98C9.27176 13.5051 9.98396 13.8001 10.7266 13.8001ZM10.7266 15.0001C9.6657 15.0001 8.64828 14.5787 7.89814 13.8285C7.14799 13.0784 6.72656 12.061 6.72656 11.0001C6.72656 9.93926 7.14799 8.92184 7.89814 8.17169C8.64828 7.42155 9.6657 7.00012 10.7266 7.00012C11.7874 7.00012 12.8048 7.42155 13.555 8.17169C14.3051 8.92184 14.7266 9.93926 14.7266 11.0001C14.7266 12.061 14.3051 13.0784 13.555 13.8285C12.8048 14.5787 11.7874 15.0001 10.7266 15.0001Z"/>
</mask>
<path fill-rule="evenodd" clip-rule="evenodd" d="M11.2896 2.20012H10.1636L9.51856 4.77812L8.87156 4.97812C8.49455 5.0943 8.12927 5.24563 7.78056 5.43012L7.18156 5.74712L4.90156 4.37912L4.10556 5.17612L5.47356 7.45612L5.15656 8.05412C4.97172 8.4028 4.82006 8.76807 4.70356 9.14512L4.50456 9.79212L1.92656 10.4371V11.5631L4.50456 12.2081L4.70456 12.8551C4.8199 13.2338 4.97056 13.5975 5.15656 13.9461L5.47356 14.5451L4.10556 16.8251L4.90256 17.6211L7.18256 16.2531L7.78056 16.5701C8.12923 16.7555 8.4929 16.9065 8.87156 17.0231L9.51856 17.2221L10.1636 19.8001H11.2896L11.9346 17.2221L12.5816 17.0221C12.9586 16.9059 13.3239 16.7546 13.6726 16.5701L14.2716 16.2531L16.5516 17.6211L17.3476 16.8241L15.9796 14.5441L16.2966 13.9461C16.4819 13.5975 16.6329 13.2338 16.7496 12.8551L16.9486 12.2081L19.5266 11.5631V10.4371L16.9486 9.79212L16.7486 9.14512C16.6324 8.76811 16.4811 8.40283 16.2966 8.05412L15.9796 7.45512L17.3476 5.17512L16.5506 4.37912L14.2706 5.74712L13.6726 5.43012C13.3239 5.24528 12.9586 5.09362 12.5816 4.97712L11.9346 4.77812L11.2896 2.20012ZM14.2346 4.37012L16.0676 3.27012C16.2587 3.15548 16.4826 3.10798 16.7039 3.13516C16.9251 3.16233 17.1309 3.26263 17.2886 3.42012L18.3066 4.43812C18.4641 4.59582 18.5644 4.80162 18.5915 5.02283C18.6187 5.24404 18.5712 5.46799 18.4566 5.65912L17.3566 7.49212C17.5766 7.90546 17.7566 8.33879 17.8966 8.79212L19.9696 9.31112C20.1858 9.36529 20.3778 9.49017 20.5149 9.66591C20.6521 9.84166 20.7266 10.0582 20.7266 10.2811V11.7191C20.7266 11.9421 20.6521 12.1586 20.5149 12.3343C20.3778 12.5101 20.1858 12.635 19.9696 12.6891L17.8966 13.2081C17.7566 13.6615 17.5766 14.0948 17.3566 14.5081L18.4566 16.3411C18.5712 16.5323 18.6187 16.7562 18.5915 16.9774C18.5644 17.1986 18.4641 17.4044 18.3066 17.5621L17.2886 18.5801C17.1309 18.7376 16.9251 18.8379 16.7039 18.8651C16.4826 18.8923 16.2587 18.8448 16.0676 18.7301L14.2346 17.6301C13.8212 17.8501 13.3879 18.0301 12.9346 18.1701L12.4156 20.2431C12.3614 20.4594 12.2365 20.6513 12.0608 20.7885C11.885 20.9256 11.6685 21.0001 11.4456 21.0001H10.0076C9.78463 21.0001 9.5681 20.9256 9.39235 20.7885C9.21661 20.6513 9.09173 20.4594 9.03756 20.2431L8.51856 18.1701C8.06926 18.0313 7.63401 17.8505 7.21856 17.6301L5.38556 18.7301C5.19443 18.8448 4.97048 18.8923 4.74927 18.8651C4.52806 18.8379 4.32226 18.7376 4.16456 18.5801L3.14656 17.5621C2.98907 17.4044 2.88877 17.1986 2.8616 16.9774C2.83442 16.7562 2.88192 16.5323 2.99656 16.3411L4.09656 14.5081C3.8762 14.0927 3.69541 13.6574 3.55656 13.2081L1.48356 12.6891C1.26748 12.635 1.07566 12.5103 0.938525 12.3347C0.801389 12.1592 0.726791 11.9429 0.726562 11.7201V10.2821C0.726568 10.0592 0.801065 9.84266 0.938218 9.66691C1.07537 9.49117 1.26732 9.36629 1.48356 9.31212L3.55656 8.79312C3.69656 8.33979 3.87656 7.90646 4.09656 7.49312L2.99656 5.66012C2.88192 5.46899 2.83442 5.24504 2.8616 5.02383C2.88877 4.80262 2.98907 4.59682 3.14656 4.43912L4.16456 3.42012C4.32226 3.26263 4.52806 3.16233 4.74927 3.13516C4.97048 3.10798 5.19443 3.15548 5.38556 3.27012L7.21856 4.37012C7.6319 4.15012 8.06523 3.97012 8.51856 3.83012L9.03756 1.75712C9.09169 1.54104 9.21642 1.34922 9.39196 1.21208C9.5675 1.07495 9.7838 1.00035 10.0066 1.00012H11.4446C11.6675 1.00013 11.884 1.07462 12.0598 1.21178C12.2355 1.34893 12.3604 1.54088 12.4146 1.75712L12.9336 3.83012C13.3869 3.97012 13.8202 4.15012 14.2336 4.37012H14.2346ZM10.7266 13.8001C11.4692 13.8001 12.1814 13.5051 12.7065 12.98C13.2316 12.4549 13.5266 11.7427 13.5266 11.0001C13.5266 10.2575 13.2316 9.54532 12.7065 9.02022C12.1814 8.49512 11.4692 8.20012 10.7266 8.20012C9.98396 8.20012 9.27176 8.49512 8.74666 9.02022C8.22156 9.54532 7.92656 10.2575 7.92656 11.0001C7.92656 11.7427 8.22156 12.4549 8.74666 12.98C9.27176 13.5051 9.98396 13.8001 10.7266 13.8001ZM10.7266 15.0001C9.6657 15.0001 8.64828 14.5787 7.89814 13.8285C7.14799 13.0784 6.72656 12.061 6.72656 11.0001C6.72656 9.93926 7.14799 8.92184 7.89814 8.17169C8.64828 7.42155 9.6657 7.00012 10.7266 7.00012C11.7874 7.00012 12.8048 7.42155 13.555 8.17169C14.3051 8.92184 14.7266 9.93926 14.7266 11.0001C14.7266 12.061 14.3051 13.0784 13.555 13.8285C12.8048 14.5787 11.7874 15.0001 10.7266 15.0001Z" fill="white"/>
<path fill-rule="evenodd" clip-rule="evenodd" d="M11.2896 2.20012H10.1636L9.51856 4.77812L8.87156 4.97812C8.49455 5.0943 8.12927 5.24563 7.78056 5.43012L7.18156 5.74712L4.90156 4.37912L4.10556 5.17612L5.47356 7.45612L5.15656 8.05412C4.97172 8.4028 4.82006 8.76807 4.70356 9.14512L4.50456 9.79212L1.92656 10.4371V11.5631L4.50456 12.2081L4.70456 12.8551C4.8199 13.2338 4.97056 13.5975 5.15656 13.9461L5.47356 14.5451L4.10556 16.8251L4.90256 17.6211L7.18256 16.2531L7.78056 16.5701C8.12923 16.7555 8.4929 16.9065 8.87156 17.0231L9.51856 17.2221L10.1636 19.8001H11.2896L11.9346 17.2221L12.5816 17.0221C12.9586 16.9059 13.3239 16.7546 13.6726 16.5701L14.2716 16.2531L16.5516 17.6211L17.3476 16.8241L15.9796 14.5441L16.2966 13.9461C16.4819 13.5975 16.6329 13.2338 16.7496 12.8551L16.9486 12.2081L19.5266 11.5631V10.4371L16.9486 9.79212L16.7486 9.14512C16.6324 8.76811 16.4811 8.40283 16.2966 8.05412L15.9796 7.45512L17.3476 5.17512L16.5506 4.37912L14.2706 5.74712L13.6726 5.43012C13.3239 5.24528 12.9586 5.09362 12.5816 4.97712L11.9346 4.77812L11.2896 2.20012ZM14.2346 4.37012L16.0676 3.27012C16.2587 3.15548 16.4826 3.10798 16.7039 3.13516C16.9251 3.16233 17.1309 3.26263 17.2886 3.42012L18.3066 4.43812C18.4641 4.59582 18.5644 4.80162 18.5915 5.02283C18.6187 5.24404 18.5712 5.46799 18.4566 5.65912L17.3566 7.49212C17.5766 7.90546 17.7566 8.33879 17.8966 8.79212L19.9696 9.31112C20.1858 9.36529 20.3778 9.49017 20.5149 9.66591C20.6521 9.84166 20.7266 10.0582 20.7266 10.2811V11.7191C20.7266 11.9421 20.6521 12.1586 20.5149 12.3343C20.3778 12.5101 20.1858 12.635 19.9696 12.6891L17.8966 13.2081C17.7566 13.6615 17.5766 14.0948 17.3566 14.5081L18.4566 16.3411C18.5712 16.5323 18.6187 16.7562 18.5915 16.9774C18.5644 17.1986 18.4641 17.4044 18.3066 17.5621L17.2886 18.5801C17.1309 18.7376 16.9251 18.8379 16.7039 18.8651C16.4826 18.8923 16.2587 18.8448 16.0676 18.7301L14.2346 17.6301C13.8212 17.8501 13.3879 18.0301 12.9346 18.1701L12.4156 20.2431C12.3614 20.4594 12.2365 20.6513 12.0608 20.7885C11.885 20.9256 11.6685 21.0001 11.4456 21.0001H10.0076C9.78463 21.0001 9.5681 20.9256 9.39235 20.7885C9.21661 20.6513 9.09173 20.4594 9.03756 20.2431L8.51856 18.1701C8.06926 18.0313 7.63401 17.8505 7.21856 17.6301L5.38556 18.7301C5.19443 18.8448 4.97048 18.8923 4.74927 18.8651C4.52806 18.8379 4.32226 18.7376 4.16456 18.5801L3.14656 17.5621C2.98907 17.4044 2.88877 17.1986 2.8616 16.9774C2.83442 16.7562 2.88192 16.5323 2.99656 16.3411L4.09656 14.5081C3.8762 14.0927 3.69541 13.6574 3.55656 13.2081L1.48356 12.6891C1.26748 12.635 1.07566 12.5103 0.938525 12.3347C0.801389 12.1592 0.726791 11.9429 0.726562 11.7201V10.2821C0.726568 10.0592 0.801065 9.84266 0.938218 9.66691C1.07537 9.49117 1.26732 9.36629 1.48356 9.31212L3.55656 8.79312C3.69656 8.33979 3.87656 7.90646 4.09656 7.49312L2.99656 5.66012C2.88192 5.46899 2.83442 5.24504 2.8616 5.02383C2.88877 4.80262 2.98907 4.59682 3.14656 4.43912L4.16456 3.42012C4.32226 3.26263 4.52806 3.16233 4.74927 3.13516C4.97048 3.10798 5.19443 3.15548 5.38556 3.27012L7.21856 4.37012C7.6319 4.15012 8.06523 3.97012 8.51856 3.83012L9.03756 1.75712C9.09169 1.54104 9.21642 1.34922 9.39196 1.21208C9.5675 1.07495 9.7838 1.00035 10.0066 1.00012H11.4446C11.6675 1.00013 11.884 1.07462 12.0598 1.21178C12.2355 1.34893 12.3604 1.54088 12.4146 1.75712L12.9336 3.83012C13.3869 3.97012 13.8202 4.15012 14.2336 4.37012H14.2346ZM10.7266 13.8001C11.4692 13.8001 12.1814 13.5051 12.7065 12.98C13.2316 12.4549 13.5266 11.7427 13.5266 11.0001C13.5266 10.2575 13.2316 9.54532 12.7065 9.02022C12.1814 8.49512 11.4692 8.20012 10.7266 8.20012C9.98396 8.20012 9.27176 8.49512 8.74666 9.02022C8.22156 9.54532 7.92656 10.2575 7.92656 11.0001C7.92656 11.7427 8.22156 12.4549 8.74666 12.98C9.27176 13.5051 9.98396 13.8001 10.7266 13.8001ZM10.7266 15.0001C9.6657 15.0001 8.64828 14.5787 7.89814 13.8285C7.14799 13.0784 6.72656 12.061 6.72656 11.0001C6.72656 9.93926 7.14799 8.92184 7.89814 8.17169C8.64828 7.42155 9.6657 7.00012 10.7266 7.00012C11.7874 7.00012 12.8048 7.42155 13.555 8.17169C14.3051 8.92184 14.7266 9.93926 14.7266 11.0001C14.7266 12.061 14.3051 13.0784 13.555 13.8285C12.8048 14.5787 11.7874 15.0001 10.7266 15.0001Z" stroke="white" stroke-width="0.4" mask="url(#path-1-outside-1_803_254)"/>
</svg>
