<svg width="17" height="18" viewBox="0 0 17 18" fill="none" xmlns="http://www.w3.org/2000/svg">
<path d="M10.7924 7.13793C11.3066 7.13793 11.7234 7.55477 11.7234 8.06896V13.3448C11.7234 13.859 11.3066 14.2759 10.7924 14.2759C10.2782 14.2759 9.86133 13.859 9.86133 13.3448V8.06896C9.86133 7.55477 10.2782 7.13793 10.7924 7.13793Z" fill="#606060"/>
<path d="M7.99926 8.06896C7.99926 7.55477 7.58242 7.13793 7.06822 7.13793C6.55403 7.13793 6.13719 7.55477 6.13719 8.06896V13.3448C6.13719 13.859 6.55403 14.2759 7.06822 14.2759C7.58242 14.2759 7.99926 13.859 7.99926 13.3448V8.06896Z" fill="#606060"/>
<path fill-rule="evenodd" clip-rule="evenodd" d="M5.51643 3.41379C5.51643 1.52841 7.04483 0 8.93022 0C10.8156 0 12.344 1.52841 12.344 3.41379H16.0682C16.5824 3.41379 16.9993 3.83063 16.9993 4.34483C16.9993 4.85902 16.5824 5.27586 16.0682 5.27586H15.1371L15.1369 12.0415C15.1369 14.1272 15.1369 15.17 14.731 15.9666C14.3739 16.6674 13.8042 17.2371 13.1034 17.5941C12.3068 18 11.264 18 9.17826 18H8.682C6.59623 18 5.55334 18 4.75669 17.5941C4.05593 17.237 3.48621 16.6673 3.12916 15.9665C2.72326 15.1699 2.72328 14.127 2.72332 12.0413L2.72346 5.27586H1.79236C1.27817 5.27586 0.861328 4.85902 0.861328 4.34483C0.861328 3.83063 1.27817 3.41379 1.79236 3.41379H5.51643ZM7.37849 3.41379C7.37849 2.5568 8.07323 1.86207 8.93022 1.86207C9.78721 1.86207 10.4819 2.5568 10.4819 3.41379H7.37849ZM4.58555 5.27586H13.275L13.2748 12.0415C13.2748 13.115 13.2734 13.8082 13.2302 14.3358C13.1889 14.8416 13.1187 15.0292 13.0718 15.1212C12.8933 15.4716 12.6084 15.7565 12.2581 15.935C12.166 15.9819 11.9785 16.052 11.4726 16.0934C10.945 16.1365 10.2518 16.1379 9.17826 16.1379H8.682C7.60839 16.1379 6.91517 16.1365 6.38756 16.0934C5.88169 16.052 5.69414 15.9819 5.60207 15.935C5.25169 15.7564 4.96683 15.4716 4.78831 15.1212C4.7414 15.0291 4.67124 14.8416 4.62992 14.3357C4.58682 13.8081 4.58539 13.1149 4.58541 12.0413L4.58555 5.27586Z" fill="#606060"/>
</svg>
