<svg width="23" height="26" viewBox="0 0 23 26" fill="none" xmlns="http://www.w3.org/2000/svg">
<path d="M3.7143 3.8147e-06C4.73573 3.8147e-06 5.60982 0.363384 6.33658 1.09015C7.06334 1.81691 7.42734 2.69162 7.42858 3.71429V22.2857C7.42858 23.3071 7.06458 24.1812 6.33658 24.908C5.60858 25.6348 4.73449 25.9988 3.7143 26C2.69411 26.0012 1.81939 25.6372 1.09016 24.908C0.360918 24.1788 -0.00246239 23.3047 1.33514e-05 22.2857V3.71429C1.33514e-05 2.69286 0.363394 1.81815 1.09016 1.09015C1.81692 0.362146 2.69163 -0.00123405 3.7143 3.8147e-06ZM18.5714 3.8147e-06C19.5929 3.8147e-06 20.467 0.363384 21.1937 1.09015C21.9205 1.81691 22.2845 2.69162 22.2857 3.71429V22.2857C22.2857 23.3071 21.9217 24.1812 21.1937 24.908C20.4657 25.6348 19.5916 25.9988 18.5714 26C17.5512 26.0012 16.6765 25.6372 15.9473 24.908C15.2181 24.1788 14.8547 23.3047 14.8572 22.2857V3.71429C14.8572 2.69286 15.2205 1.81815 15.9473 1.09015C16.6741 0.362146 17.5488 -0.00123405 18.5714 3.8147e-06Z" fill="white"/>
</svg>
