<svg width="15" height="17" viewBox="0 0 15 17" fill="none" xmlns="http://www.w3.org/2000/svg">
<path d="M10.717 10.7555C11.692 9.77186 12.1817 8.5845 12.2077 7.04613C12.186 6.86413 12.1687 6.52612 12.0994 6.19678C11.315 2.49169 6.9859 0.953322 4.06083 3.34971C2.66113 4.49374 2.05445 6.01044 2.24946 7.81748C2.37079 8.95284 2.86914 9.91486 3.66649 10.7252C4.16917 11.2366 4.51584 11.8302 4.70651 12.5193C4.74118 12.6406 4.73685 12.7143 4.61985 12.7966C4.35117 12.9829 4.22117 13.2516 4.2125 13.5809C4.20817 13.7066 4.2125 13.8323 4.2125 13.958C4.21684 14.4606 4.48551 14.8203 4.97085 14.9763C5.02719 14.9936 5.07919 15.063 5.10519 15.1193C5.13552 15.1843 5.13552 15.2667 5.15286 15.336C5.4172 16.5233 6.60023 17.2514 7.77025 16.9177C8.64994 16.6664 9.14395 16.051 9.30862 15.1626C9.33029 15.0413 9.37796 14.9893 9.49929 14.9546C9.93264 14.829 10.2056 14.4563 10.2143 14.01C10.2186 13.867 10.2186 13.724 10.2143 13.5766C10.2013 13.2559 10.0756 12.9916 9.81563 12.8053C9.69863 12.7229 9.67696 12.6493 9.71163 12.5149C9.88063 11.8389 10.223 11.2539 10.717 10.7555ZM7.19824 16.2027C6.53522 16.2027 6.01088 15.7303 5.90254 15.024H8.5026C8.38127 15.739 7.86125 16.2027 7.19824 16.2027ZM8.94028 14.192C8.3596 14.192 7.77892 14.192 7.19824 14.192V14.1963C6.55689 14.1963 5.91121 14.1963 5.26986 14.1963C5.07486 14.1963 5.00119 14.1356 5.00119 13.945C4.99252 13.3989 4.97952 13.3946 5.5212 13.3946C6.70856 13.4033 7.89592 13.3989 9.07895 13.3989C9.35196 13.3989 9.40396 13.4509 9.40396 13.724C9.40829 14.192 9.40829 14.192 8.94028 14.192ZM8.89261 12.4673C8.86661 12.5886 8.79728 12.5886 8.70194 12.5886C8.19493 12.5886 7.68792 12.5886 7.18524 12.5886C6.69123 12.5886 6.19722 12.5843 5.7032 12.5886C5.58187 12.5886 5.5342 12.5539 5.50387 12.4283C5.29153 11.5616 4.86685 10.8075 4.2385 10.1662C3.41082 9.32551 2.99048 8.31149 3.00348 7.12846C3.02514 5.09608 4.61985 3.30638 6.64356 3.03337C8.92728 2.7257 11.0247 4.28573 11.354 6.56945C11.549 7.92582 11.1633 9.12184 10.21 10.1099C9.55996 10.7902 9.09195 11.5529 8.89261 12.4673Z" fill="#1D1D1D"/>
<path d="M7.60144 1.391C7.59277 1.63367 7.4151 1.80267 7.19843 1.79834C6.97742 1.79401 6.81708 1.62934 6.79975 1.38233C6.79108 1.25233 6.79975 1.11799 6.79975 0.987987C6.79975 0.862318 6.79542 0.736648 6.79975 0.615312C6.81275 0.368306 6.97309 0.203636 7.19409 0.199302C7.4151 0.194969 7.58844 0.359639 7.5971 0.602312C7.6101 0.866651 7.6101 1.12666 7.60144 1.391Z" fill="#1D1D1D"/>
<path d="M1.59904 7.40576C1.5947 7.6181 1.43437 7.78711 1.20036 7.79577C0.931688 7.80877 0.663015 7.80877 0.394342 7.79577C0.156004 7.78711 0 7.61377 0 7.40143C0 7.18042 0.160337 7.01142 0.407343 6.99842C0.537346 6.98975 0.671682 6.99842 0.801685 6.99842C0.931688 6.99842 1.06602 6.98975 1.19603 6.99842C1.43437 7.01575 1.60337 7.18909 1.59904 7.40576Z" fill="#1D1D1D"/>
<path d="M14.4002 7.40597C14.3959 7.62264 14.2399 7.78298 14.0016 7.80031C13.8716 7.80898 13.7416 7.80031 13.6072 7.80031C13.4772 7.80031 13.3429 7.80898 13.2129 7.80031C12.9659 7.78731 12.8012 7.61831 12.7969 7.40164C12.7969 7.18063 12.9615 7.00729 13.2042 6.99863C13.4642 6.98996 13.7286 6.98996 13.9929 6.99863C14.2399 7.01163 14.4046 7.18496 14.4002 7.40597Z" fill="#1D1D1D"/>
<path d="M12.3369 2.80819C12.1289 3.04652 11.8949 3.26753 11.6609 3.4842C11.6132 3.53187 11.5266 3.54054 11.4572 3.56654C11.4442 3.5752 11.4312 3.5882 11.4182 3.59687C11.3099 3.51454 11.1799 3.44953 11.1019 3.34553C11.0022 3.21553 11.0152 3.04652 11.1236 2.92519C11.3359 2.69552 11.5526 2.47018 11.7866 2.26651C11.9339 2.1365 12.1419 2.16684 12.2849 2.30117C12.4279 2.43551 12.4669 2.65652 12.3369 2.80819Z" fill="#1D1D1D"/>
<path d="M3.38472 11.6526C3.32838 11.7522 3.28938 11.8649 3.21572 11.9472C3.05538 12.1292 2.87771 12.2982 2.70004 12.4672C2.50937 12.6492 2.28403 12.6579 2.11502 12.4932C1.94169 12.3242 1.95035 12.0902 2.14102 11.8952C2.31869 11.7132 2.5007 11.5312 2.68704 11.3535C2.81271 11.2322 2.96438 11.2105 3.12038 11.2799C3.26772 11.3449 3.34572 11.4705 3.38472 11.6526Z" fill="#1D1D1D"/>
<path d="M12.3683 12.3848C12.2946 12.5321 12.1646 12.6014 11.9566 12.6144C11.9003 12.5841 11.7963 12.5494 11.7226 12.4801C11.5363 12.3068 11.3542 12.1247 11.1766 11.9384C11.0076 11.7607 11.0032 11.5267 11.1592 11.3664C11.3196 11.2017 11.5579 11.2017 11.7443 11.3751C11.9349 11.5571 12.1213 11.7434 12.2989 11.9297C12.4203 12.0641 12.4463 12.2244 12.3683 12.3848Z" fill="#1D1D1D"/>
<path d="M3.23223 3.44078C3.0719 3.59245 2.83789 3.59245 2.66022 3.42344C2.46955 3.24144 2.28754 3.05943 2.10554 2.86876C1.9842 2.73876 1.93654 2.56976 2.04054 2.42242C2.11854 2.30975 2.25288 2.24042 2.36555 2.14508C2.49988 2.21875 2.60388 2.24908 2.67755 2.31842C2.86822 2.49176 3.04589 2.67376 3.22357 2.85576C3.3969 3.0421 3.3969 3.28477 3.23223 3.44078Z" fill="#1D1D1D"/>
<path d="M7.17188 5.72229C7.69142 5.69343 8.13259 6.13559 8.12793 6.7135V6.7262L8.04785 6.71252L8.12695 6.7262L7.90137 8.09045C7.84961 8.4096 7.80138 8.73329 7.73145 9.05237C7.68217 9.28829 7.50601 9.43878 7.28809 9.46936L7.19238 9.47522C6.93949 9.47016 6.73978 9.31541 6.66992 9.06116V9.06018L6.65137 8.97913C6.59078 8.61129 6.52807 8.24154 6.4668 7.8717L6.29102 6.76331C6.21009 6.21999 6.62532 5.74753 7.17188 5.72327V5.72229Z" stroke="#1D1D1D" stroke-width="0.16"/>
<path d="M7.29004 9.73096C7.51084 9.77369 7.68149 9.97238 7.68164 10.2007C7.68164 10.4304 7.51699 10.6181 7.30273 10.6646L7.20898 10.6753C6.93857 10.6805 6.71979 10.4622 6.71973 10.1968C6.71973 9.93945 6.93373 9.72743 7.19238 9.72217L7.29004 9.73096Z" stroke="#1D1D1D" stroke-width="0.16"/>
</svg>
