<svg width="22" height="16" viewBox="0 0 22 16" fill="none" xmlns="http://www.w3.org/2000/svg">
<path d="M4.76667 0C2.41218 0 0.5 1.91218 0.5 4.26667V11.7333C0.5 14.0878 2.41218 16 4.76667 16H17.5667C19.9212 16 21.8333 14.0878 21.8333 11.7333V4.26667C21.8333 1.91218 19.9212 0 17.5667 0H4.76667ZM4.76667 1.06667H17.5667C19.3487 1.06667 20.7667 2.48466 20.7667 4.26667V11.7333C20.7667 13.5153 19.3487 14.9333 17.5667 14.9333H4.76667C2.98467 14.9333 1.56667 13.5153 1.56667 11.7333V4.26667C1.56667 2.48466 2.98467 1.06667 4.76667 1.06667ZM8.725 4.26667C8.5909 4.27719 8.46572 4.338 8.37455 4.4369C8.28337 4.5358 8.23293 4.66549 8.23333 4.8V11.2C8.23276 11.3332 8.28204 11.4618 8.37148 11.5605C8.46093 11.6592 8.58406 11.7208 8.71667 11.7333C8.82297 11.7452 8.9304 11.7249 9.025 11.675L14.8917 8.47498C14.9771 8.42952 15.0485 8.3617 15.0983 8.27876C15.1481 8.19582 15.1744 8.10091 15.1744 8.00417C15.1744 7.90743 15.1481 7.81249 15.0983 7.72956C15.0485 7.64662 14.9771 7.57879 14.8917 7.53333L9.025 4.33333C8.93371 4.28216 8.82938 4.25898 8.725 4.26667ZM9.3 5.70832L13.5083 8L9.3 10.3V5.70832Z" fill="#606060"/>
</svg>
