<svg width="30" height="20" viewBox="0 0 30 20" fill="none" xmlns="http://www.w3.org/2000/svg">
<path d="M25.171 20.0001H5.17101C2.71686 20.0001 0.726562 18.0098 0.726562 15.5557V4.44457C0.726562 1.99042 2.71686 0.00012207 5.17101 0.00012207H25.171C26.3502 0.00012207 27.4807 0.468175 28.314 1.30153C29.1474 2.13488 29.6155 3.2654 29.6155 4.44457V15.5557C29.6155 16.7348 29.1474 17.8654 28.314 18.6987C27.4807 19.532 26.3502 20.0001 25.171 20.0001ZM5.17101 2.22234C3.94324 2.22234 2.94878 3.2168 2.94878 4.44457V15.5557C2.94878 16.1445 3.18351 16.7098 3.60016 17.1265C4.01682 17.5432 4.5821 17.7779 5.17101 17.7779H25.171C25.7599 17.7779 26.3252 17.5432 26.7419 17.1265C27.1585 16.7099 27.3932 16.1446 27.3932 15.5557V4.44457C27.3932 3.8557 27.1585 3.2904 26.7419 2.87372C26.3252 2.45705 25.7599 2.22234 25.171 2.22234H5.17101Z" fill="white"/>
<path d="M10.9266 15.5554C9.10158 15.5568 7.39324 14.6624 6.35448 13.1624C5.31573 11.6623 5.08088 9.74708 5.72394 8.04023C6.36839 6.33328 7.80867 5.04994 9.57959 4.60969C11.3504 4.16802 13.224 4.62497 14.5936 5.83052C14.8172 6.02358 14.9547 6.29858 14.9756 6.59301C14.9964 6.88746 14.8978 7.17911 14.7033 7.40133C14.5089 7.62356 14.2339 7.75966 13.9381 7.77911C13.6436 7.79856 13.3534 7.69856 13.1312 7.50272C12.1492 6.63467 10.7492 6.42216 9.55355 6.96107C8.35789 7.49999 7.58968 8.68886 7.58968 9.99997C7.58968 11.3111 8.35775 12.5 9.55355 13.0389C10.7494 13.5778 12.1494 13.3653 13.1312 12.4972C13.5937 12.0972 14.2923 12.1458 14.695 12.6055C15.0978 13.0667 15.052 13.7653 14.5936 14.1694C13.5797 15.0597 12.277 15.5527 10.9271 15.5555L10.9266 15.5554Z" fill="white"/>
<path d="M20.9266 15.5554C19.1016 15.5568 17.3932 14.6624 16.3545 13.1624C15.3157 11.6623 15.0809 9.74708 15.7239 8.04023C16.3684 6.33328 17.8087 5.04994 19.5796 4.60969C21.3504 4.16802 23.224 4.62497 24.5936 5.83052C24.8172 6.02358 24.9547 6.29858 24.9756 6.59301C24.9964 6.88746 24.8978 7.17911 24.7033 7.40133C24.5089 7.62356 24.2339 7.75966 23.9381 7.77911C23.6436 7.79856 23.3534 7.69856 23.1312 7.50272C22.1492 6.63467 20.7492 6.42216 19.5536 6.96107C18.3579 7.49999 17.5897 8.68886 17.5897 9.99997C17.5897 11.3111 18.3577 12.5 19.5536 13.0389C20.7494 13.5778 22.1494 13.3653 23.1312 12.4972C23.5937 12.0972 24.2923 12.1458 24.695 12.6055C25.0978 13.0667 25.052 13.7653 24.5936 14.1694C23.5797 15.0597 22.277 15.5527 20.9271 15.5555L20.9266 15.5554Z" fill="white"/>
</svg>
