<svg width="11" height="11" viewBox="0 0 11 11" fill="none" xmlns="http://www.w3.org/2000/svg">
<path d="M9.71967 10.5303C10.0126 10.8232 10.4874 10.8232 10.7803 10.5303C11.0732 10.2374 11.0732 9.76256 10.7803 9.46967L6.81066 5.5L10.7803 1.53033C11.0732 1.23744 11.0732 0.762564 10.7803 0.46967C10.4874 0.176777 10.0126 0.176777 9.71967 0.46967L5.75 4.43934L1.78033 0.46967C1.48744 0.176777 1.01256 0.176777 0.71967 0.46967C0.426777 0.762563 0.426777 1.23744 0.71967 1.53033L4.68934 5.5L0.71967 9.46967C0.426777 9.76256 0.426777 10.2374 0.71967 10.5303C1.01256 10.8232 1.48744 10.8232 1.78033 10.5303L5.75 6.56066L9.71967 10.5303Z" fill="#606060"/>
</svg>
