<svg width="14" height="15" viewBox="0 0 14 15" fill="none" xmlns="http://www.w3.org/2000/svg">
<path d="M6.99998 11.5C6.58577 11.5 6.24999 11.1642 6.25 10.75L6.25006 7.24999C6.25007 6.83577 6.58586 6.49999 7.00007 6.5C7.41428 6.50001 7.75006 6.8358 7.75006 7.25001L7.75 10.75C7.74999 11.1642 7.4142 11.5 6.99998 11.5Z" fill="#1D1D1D"/>
<path d="M6 4.5C6 3.94772 6.44772 3.5 7 3.5C7.55228 3.5 8 3.94772 8 4.5C8 5.05228 7.55228 5.5 7 5.5C6.44772 5.5 6 5.05228 6 4.5Z" fill="#1D1D1D"/>
<path fill-rule="evenodd" clip-rule="evenodd" d="M14 7.5C14 11.366 10.866 14.5 7 14.5C3.13401 14.5 0 11.366 0 7.5C0 3.63401 3.13401 0.5 7 0.5C10.866 0.5 14 3.63401 14 7.5ZM12.5 7.5C12.5 10.5376 10.0376 13 7 13C3.96243 13 1.5 10.5376 1.5 7.5C1.5 4.46243 3.96243 2 7 2C10.0376 2 12.5 4.46243 12.5 7.5Z" fill="#1D1D1D"/>
</svg>
