<svg width="24" height="24" viewBox="0 0 24 24" fill="none" xmlns="http://www.w3.org/2000/svg">
<path d="M12 0C9.62663 0 7.30655 0.703788 5.33316 2.02236C3.35977 3.34094 1.8217 5.21508 0.913451 7.4078C0.0051994 9.60051 -0.232441 12.0133 0.230582 14.3411C0.693605 16.6689 1.83649 18.807 3.51472 20.4853C5.19295 22.1635 7.33115 23.3064 9.65892 23.7694C11.9867 24.2324 14.3995 23.9948 16.5922 23.0865C18.7849 22.1783 20.6591 20.6402 21.9776 18.6668C23.2962 16.6934 24 14.3734 24 12C24 8.8174 22.7357 5.76515 20.4853 3.51472C18.2348 1.26428 15.1826 0 12 0ZM17.6143 12.7114L9.9 17.8543C9.77109 17.9392 9.62164 17.9877 9.46744 17.9947C9.31324 18.0017 9.16002 17.9669 9.02394 17.8941C8.88786 17.8212 8.77399 17.7129 8.69434 17.5807C8.61469 17.4485 8.57223 17.2972 8.57143 17.1429V6.85714C8.57185 6.70208 8.61432 6.55004 8.69432 6.41721C8.77432 6.28438 8.88885 6.17573 9.02572 6.10286C9.15602 6.02763 9.30383 5.98802 9.45429 5.98802C9.60475 5.98802 9.75256 6.02763 9.88286 6.10286L17.5971 11.2457C17.7138 11.3241 17.8094 11.43 17.8755 11.5541C17.9416 11.6781 17.9762 11.8166 17.9762 11.9571C17.9762 12.0977 17.9416 12.2361 17.8755 12.3602C17.8094 12.4843 17.7138 12.5902 17.5971 12.6686L17.6143 12.7114Z" fill="#1D1D1D"/>
</svg>
