<svg width="23" height="16" viewBox="0 0 23 16" fill="none" xmlns="http://www.w3.org/2000/svg">
<path d="M0 2.48264L5.61788 -0.00012207V1.50458C8.45639 1.4539 10.5951 3.84083 11.3097 5.04063C12.6107 2.51273 15.6463 1.62997 17.0015 1.50458V-0.00012207L22.5455 2.48264L17.0015 5.04063V3.61116C13.4534 3.97229 12.4185 7.17229 12.3446 8.72715H10.2009C9.96435 4.87511 7.04699 3.71148 5.61788 3.61116V5.04063L0 2.48264Z" fill="black"/>
<path d="M0 2.48264L5.61788 -0.00012207V1.50458C8.45639 1.4539 10.5951 3.84083 11.3097 5.04063C12.6107 2.51273 15.6463 1.62997 17.0015 1.50458V-0.00012207L22.5455 2.48264L17.0015 5.04063V3.61116C13.4534 3.97229 12.4185 7.17229 12.3446 8.72715H10.2009C9.96435 4.87511 7.04699 3.71148 5.61788 3.61116V5.04063L0 2.48264Z" fill="url(#paint0_linear_909_2406)"/>
<path d="M12.3635 8.72717H10.1816V15.9999H12.3635V8.72717Z" fill="black"/>
<path d="M12.3635 8.72717H10.1816V15.9999H12.3635V8.72717Z" fill="url(#paint1_linear_909_2406)"/>
<defs>
<linearGradient id="paint0_linear_909_2406" x1="24.0118" y1="-5.07138" x2="19.9684" y2="17.4517" gradientUnits="userSpaceOnUse">
<stop stop-color="#5B5BF0"/>
<stop offset="1" stop-color="#00AFF0"/>
</linearGradient>
<linearGradient id="paint1_linear_909_2406" x1="13.818" y1="24.3635" x2="22.8065" y2="13.3192" gradientUnits="userSpaceOnUse">
<stop offset="0.227848" stop-color="#5B5BF0"/>
<stop offset="1" stop-color="#00AFF0"/>
</linearGradient>
</defs>
</svg>
