<svg width="20" height="20" viewBox="0 0 20 20" fill="none" xmlns="http://www.w3.org/2000/svg">
<path d="M16.25 6.26C16.25 6.53614 16.0261 6.76 15.75 6.76C15.4739 6.76 15.25 6.53614 15.25 6.26V5C15.25 4.86193 15.1381 4.75 15 4.75L5 4.75C4.86193 4.75 4.75 4.86193 4.75 5L4.75 6.26C4.75 6.53614 4.52614 6.76 4.25 6.76C3.97386 6.76 3.75 6.53614 3.75 6.26V5C3.75 4.30964 4.30964 3.75 5 3.75H15C15.6904 3.75 16.25 4.30964 16.25 5V6.26Z" fill="#4A4A4A"/>
<path d="M10.5 16.01C10.5 16.2861 10.2761 16.51 10 16.51C9.72386 16.51 9.5 16.2861 9.5 16.01V8.71711L7.35355 10.8636C7.15829 11.0588 6.84171 11.0588 6.64645 10.8636C6.45118 10.6683 6.45118 10.3517 6.64645 10.1564L9.64645 7.15645C9.84171 6.96118 10.1583 6.96118 10.3536 7.15645L13.3536 10.1564C13.5488 10.3517 13.5488 10.6683 13.3536 10.8636C13.1583 11.0588 12.8417 11.0588 12.6464 10.8636L10.5 8.71711L10.5 16.01Z" fill="#4A4A4A"/>
</svg>
