
<svg width="15" height="11" viewBox="0 0 15 11" fill="none" xmlns="http://www.w3.org/2000/svg">
<path fill-rule="evenodd" clip-rule="evenodd" d="M0.554687 5.50005C0.554687 5.03982 0.927784 4.66672 1.38802 4.66672L12.1543 4.66672L9.13213 1.6449C8.80668 1.31948 8.80665 0.791838 9.13207 0.466385C9.45749 0.140931 9.98513 0.140904 10.3106 0.466326L14.7555 4.91077C14.9118 5.06705 14.9996 5.27903 14.9996 5.50005C14.9996 5.72108 14.9118 5.93306 14.7555 6.08934L10.3106 10.5338C9.98513 10.8592 9.45749 10.8592 9.13207 10.5337C8.80665 10.2083 8.80668 9.68063 9.13213 9.35521L12.1543 6.33339L1.38802 6.33339C0.927784 6.33339 0.554687 5.96029 0.554687 5.50005Z" fill="#1D1D1D"/>
</svg>
