<svg width="17" height="20" viewBox="0 0 17 20" fill="none" xmlns="http://www.w3.org/2000/svg">
<path d="M4.25 0.000488281H1.41667C0.634263 0.000488281 0 0.640081 0 1.42906V18.5719C0 19.3609 0.634263 20.0005 1.41667 20.0005H4.25C5.0324 20.0005 5.66667 19.3609 5.66667 18.5719V1.42906C5.66667 0.640081 5.0324 0.000488281 4.25 0.000488281Z" fill="white"/>
<path d="M15.582 0.000488281H12.7487C11.9663 0.000488281 11.332 0.640081 11.332 1.42906V18.5719C11.332 19.3609 11.9663 20.0005 12.7487 20.0005H15.582C16.3644 20.0005 16.9987 19.3609 16.9987 18.5719V1.42906C16.9987 0.640081 16.3644 0.000488281 15.582 0.000488281Z" fill="white"/>
</svg>
