<svg xmlns="http://www.w3.org/2000/svg" width="20" height="20" viewBox="0 0 20 20" fill="none">
  <g clip-path="url(#clip0_3491_101857)">
    <rect width="20" height="20" rx="10" fill="#9E9E9E" fill-opacity="0.5"/>
    <path fill-rule="evenodd" clip-rule="evenodd" d="M8.91429 6.11429C8.82939 6.05061 8.72844 6.01184 8.62275 6.00231C8.51705 5.99278 8.4108 6.01287 8.31588 6.06033C8.22096 6.10779 8.14113 6.18074 8.08534 6.27101C8.02955 6.36128 8 6.46531 8 6.57143V13.4286C8 13.5347 8.02955 13.6387 8.08534 13.729C8.14113 13.8193 8.22096 13.8922 8.31588 13.9397C8.4108 13.9871 8.51705 14.0072 8.62275 13.9977C8.72844 13.9882 8.82939 13.9494 8.91429 13.8857L13.4857 10.4571C13.5567 10.4039 13.6143 10.3349 13.654 10.2555C13.6936 10.1762 13.7143 10.0887 13.7143 10C13.7143 9.91129 13.6936 9.8238 13.654 9.74445C13.6143 9.6651 13.5567 9.59608 13.4857 9.54286L8.91429 6.11429Z" fill="white"/>
  </g>
  <defs>
    <clipPath id="clip0_3491_101857">
      <rect width="20" height="20" rx="10" fill="white"/>
    </clipPath>
  </defs>
</svg>