<svg width="23" height="20" viewBox="0 0 23 20" fill="none" xmlns="http://www.w3.org/2000/svg">
<path fill-rule="evenodd" clip-rule="evenodd" d="M2.50647 6.38522H2.41007C1.77088 6.38522 1.15787 6.63913 0.705893 7.09111C0.253917 7.54308 0 8.15609 0 8.79528V11.2054C0 11.8445 0.253917 12.4576 0.705893 12.9095C1.15787 13.3615 1.77088 13.6154 2.41007 13.6154H2.50647C2.85419 13.6153 3.19783 13.6904 3.51379 13.8356C3.82975 13.9807 4.11055 14.1926 4.33692 14.4565L8.72565 19.5779C9.45349 20.4263 10.8453 19.9117 10.8453 18.7935V1.20718C10.8453 0.0889114 9.45349 -0.425638 8.72445 0.423911L4.33812 5.5429C4.11174 5.80722 3.83079 6.01938 3.5146 6.16478C3.19842 6.31018 2.85449 6.38539 2.50647 6.38522ZM18.8419 0.691429C18.7279 0.579033 18.5926 0.490494 18.4439 0.430986C18.2952 0.371479 18.1362 0.342195 17.9761 0.344847C17.816 0.347498 17.658 0.382031 17.5114 0.446429C17.3648 0.510827 17.2325 0.603797 17.1223 0.719907C17.012 0.836017 16.926 0.97294 16.8692 1.12267C16.8125 1.27241 16.7862 1.43195 16.7918 1.59197C16.7974 1.752 16.8348 1.9093 16.9019 2.05469C16.969 2.20008 17.0645 2.33063 17.1826 2.43873C21.587 6.62261 21.587 13.378 17.1826 17.5619C17.0645 17.67 16.969 17.8006 16.9019 17.9459C16.8348 18.0913 16.7974 18.2486 16.7918 18.4087C16.7862 18.5687 16.8125 18.7282 16.8692 18.878C16.926 19.0277 17.012 19.1646 17.1223 19.2807C17.2325 19.3968 17.3648 19.4898 17.5114 19.5542C17.658 19.6186 17.816 19.6531 17.9761 19.6558C18.1362 19.6584 18.2952 19.6292 18.4439 19.5696C18.5926 19.5101 18.7279 19.4216 18.8419 19.3092C24.2465 14.1758 24.2465 5.82487 18.8419 0.691429ZM15.2907 4.06552C15.059 3.84532 14.7493 3.72619 14.4297 3.73432C14.1102 3.74246 13.807 3.8772 13.5868 4.10891C13.3666 4.34061 13.2474 4.6503 13.2556 4.96985C13.2637 5.2894 13.3984 5.59262 13.6301 5.81282C16.0727 8.13251 16.0727 11.8681 13.6301 14.1878C13.5154 14.2968 13.4233 14.4274 13.359 14.572C13.2947 14.7167 13.2596 14.8726 13.2556 15.0308C13.2515 15.189 13.2787 15.3465 13.3355 15.4942C13.3924 15.6419 13.4777 15.777 13.5868 15.8917C13.807 16.1234 14.1102 16.2582 14.4297 16.2663C14.588 16.2703 14.7454 16.2432 14.8931 16.1863C15.0409 16.1295 15.176 16.0441 15.2907 15.9351C18.7335 12.6646 18.7335 7.33599 15.2907 4.06552Z" fill="white"/>
</svg>
