<svg width="18" height="23" viewBox="0 0 18 23" fill="none" xmlns="http://www.w3.org/2000/svg">
<path d="M13.489 22.5H4.50804C2.46581 22.5 0.804688 20.7562 0.804688 18.6126V8.21796C0.804688 6.07442 2.46607 4.33032 4.50804 4.33032H13.489C15.5312 4.33032 17.1926 6.07416 17.1926 8.21796V18.6126C17.1926 20.7562 15.5312 22.5 13.489 22.5ZM4.50804 5.41505C3.06419 5.41505 1.88915 6.67227 1.88915 8.21796V18.6126C1.88915 20.1583 3.06392 21.4153 4.50804 21.4153H13.489C14.9331 21.4153 16.1081 20.1583 16.1081 18.6126V8.21796C16.1081 6.67227 14.9334 5.41505 13.489 5.41505H4.50804Z" fill="#ffffff"/>
<path d="M12.9458 6.29143H5.04959C4.61664 6.29143 4.26562 5.94041 4.26562 5.50747V4.06937C4.26562 3.63642 4.61664 3.2854 5.04959 3.2854H12.9461C13.379 3.2854 13.73 3.63642 13.73 4.06937V5.50747C13.73 5.94041 13.379 6.29143 12.9458 6.29143Z" fill="#ffffff"/>
<path d="M8.99712 4.45543C7.90663 4.45543 7.01953 3.56833 7.01953 2.47785C7.01953 1.38736 7.90663 0.5 8.99712 0.5C10.0876 0.5 10.975 1.3871 10.975 2.47785C10.975 3.56807 10.0876 4.45543 8.99712 4.45543ZM8.99712 1.80146C8.62437 1.80146 8.32099 2.10484 8.32099 2.47758C8.32099 2.85033 8.62411 3.15371 8.99712 3.15371C9.36986 3.15371 9.67324 2.85059 9.67324 2.47758C9.67324 2.10458 9.36986 1.80146 8.99712 1.80146Z" fill="#ffffff"/>
<path d="M13.5991 10.5852H4.39467C4.15516 10.5852 3.96094 10.391 3.96094 10.1515C3.96094 9.912 4.15516 9.71777 4.39467 9.71777H13.5994C13.8389 9.71777 14.0331 9.912 14.0331 10.1515C14.0331 10.391 13.8389 10.5852 13.5991 10.5852Z" fill="#ffffff"/>
<path d="M13.5991 14.1487H4.39467C4.15516 14.1487 3.96094 13.9548 3.96094 13.715C3.96094 13.4752 4.15516 13.2812 4.39467 13.2812H13.5994C13.8389 13.2812 14.0331 13.4752 14.0331 13.715C14.0331 13.9548 13.8389 14.1487 13.5991 14.1487Z" fill="#ffffff"/>
<path d="M13.5991 17.7119H4.39467C4.15516 17.7119 3.96094 17.518 3.96094 17.2782C3.96094 17.0384 4.15516 16.8445 4.39467 16.8445H13.5994C13.8389 16.8445 14.0331 17.0384 14.0331 17.2782C14.0331 17.518 13.8389 17.7119 13.5991 17.7119Z" fill="#ffffff"/>
</svg>
