<svg width="12" height="14" viewBox="0 0 12 14" fill="none" xmlns="http://www.w3.org/2000/svg">
<path d="M10.7273 5.5011V5.51573L6.11293 0.911514L6.02464 0.823417L5.93635 0.911514L1.11421 5.72305C1.04612 5.77658 0.989845 5.84372 0.948983 5.92022C0.906751 5.99928 0.881958 6.0865 0.876266 6.17598C0.870574 6.26546 0.884116 6.35512 0.915982 6.43891C0.947848 6.5227 0.997303 6.59868 1.06102 6.66168C1.12474 6.72468 1.20124 6.77324 1.28534 6.80405C1.36945 6.83485 1.45918 6.84718 1.54847 6.84018C1.63775 6.83318 1.72448 6.80702 1.80278 6.76349C1.87813 6.7216 1.94397 6.66457 1.99621 6.59603L5.39988 3.21042V12.4987C5.39988 12.6647 5.46561 12.824 5.58274 12.9414C5.69987 13.0589 5.85882 13.125 6.02464 13.125C6.19045 13.125 6.3494 13.0589 6.46654 12.9414C6.58366 12.824 6.64939 12.6647 6.64939 12.4987V3.21042L10.0594 6.60235C10.177 6.71948 10.3363 6.78501 10.5022 6.78443C10.6681 6.78384 10.8268 6.71717 10.9436 6.59922C11.0604 6.48128 11.1256 6.32173 11.125 6.15568C11.1244 5.98964 11.0581 5.83055 10.9405 5.71344L10.7273 5.5011Z" fill="white" stroke="white" stroke-width="0.25"/>
</svg>
