<svg width="20" height="24" viewBox="0 0 20 24" fill="none" xmlns="http://www.w3.org/2000/svg">
<path d="M17.6 13.449V9.62358C17.5983 7.91915 16.9949 6.27033 15.8968 4.9691C14.7986 3.66788 13.2765 2.79823 11.6 2.51416V1.20295C11.6 0.883906 11.4736 0.577931 11.2486 0.352335C11.0235 0.126739 10.7183 0 10.4 0C10.0818 0 9.77656 0.126739 9.55152 0.352335C9.32648 0.577931 9.20005 0.883906 9.20005 1.20295V2.51416C7.52358 2.79823 6.00148 3.66788 4.90331 4.9691C3.80514 6.27033 3.20177 7.91915 3.20005 9.62358V13.449C2.49979 13.6971 1.89325 14.1564 1.46357 14.7637C1.0339 15.371 0.802136 16.0967 0.800049 16.8413V19.2472C0.800049 19.5662 0.926477 19.8722 1.15152 20.0978C1.37656 20.3234 1.68179 20.4501 2.00005 20.4501H5.76805C6.04439 21.4694 6.64765 22.3693 7.48476 23.0109C8.32188 23.6524 9.34632 24 10.4 24C11.4538 24 12.4782 23.6524 13.3153 23.0109C14.1524 22.3693 14.7557 21.4694 15.032 20.4501H18.8C19.1183 20.4501 19.4235 20.3234 19.6486 20.0978C19.8736 19.8722 20 19.5662 20 19.2472V16.8413C19.998 16.0967 19.7662 15.371 19.3365 14.7637C18.9068 14.1564 18.3003 13.6971 17.6 13.449ZM5.60005 9.62358C5.60005 8.34741 6.10576 7.12351 7.00594 6.22113C7.90611 5.31874 9.12701 4.81179 10.4 4.81179C11.6731 4.81179 12.894 5.31874 13.7942 6.22113C14.6943 7.12351 15.2 8.34741 15.2 9.62358V13.2324H5.60005V9.62358ZM10.4 21.6531C9.98121 21.6505 9.57034 21.5381 9.20825 21.3271C8.84615 21.1161 8.54546 20.8137 8.33605 20.4501H12.464C12.2546 20.8137 11.9539 21.1161 11.5918 21.3271C11.2298 21.5381 10.8189 21.6505 10.4 21.6531ZM17.6 18.0442H3.20005V16.8413C3.20005 16.5222 3.32648 16.2162 3.55152 15.9906C3.77656 15.7651 4.08179 15.6383 4.40005 15.6383H16.4C16.7183 15.6383 17.0235 15.7651 17.2486 15.9906C17.4736 16.2162 17.6 16.5222 17.6 16.8413V18.0442Z" fill="#72767C"/>
<circle cx="15.3" cy="6.5" r="3.75" fill="#00AFF0" stroke="white" stroke-width="1.5"/>
</svg>