<svg width="22" height="22" viewBox="0 0 22 22" fill="none" xmlns="http://www.w3.org/2000/svg">
<g id="Group 38791">
<path id="Vector" d="M20.1898 6.67999L20.5671 6.05739C20.5671 6.05739 20.8993 5.50666 20.8993 4.76709C20.8993 2.97556 19.1899 3.02286 19.1899 3.02286L15.4656 2.00903L13.4339 6.10352e-05L10.7606 0.727894L9.88387 0.489194L9.21763 1.14809L5.36873 2.19603C5.36873 2.19603 3.8874 2.15533 3.8874 3.70779C3.8874 4.34873 4.1756 4.82613 4.1756 4.82613L4.67097 5.64379L4.23573 6.07353L2.08707 6.65873C2.08707 6.65873 0.377667 6.61143 0.377667 8.40296C0.381085 8.82036 0.478725 9.2316 0.6633 9.60599L0 10.262L0.347967 10.3998C0.355667 10.4185 0.3586 10.4394 0.373633 10.4545C1.04647 11.1288 0.9911 12.0344 0.895033 12.5236L0.4884 12.9309L3.56877 14.4119L7.79937 21.3951C8.47733 22.4606 9.9165 21.794 9.9165 21.794L20.7878 16.5668L20.3812 16.1594C20.2851 15.6703 20.2297 14.7646 20.9026 14.09C20.9176 14.0749 20.9205 14.054 20.9282 14.0357L21.2762 13.8975L19.2548 11.8991L21.5758 10.7834L21.2234 10.4303C21.1402 10.0064 21.0921 9.22136 21.6755 8.63689C21.6883 8.62369 21.6905 8.6061 21.6975 8.58959L22 8.4697L20.1898 6.67999ZM18.1053 3.44049L17.6469 4.16576L16.4611 2.99316L18.1053 3.44049ZM13.6312 1.88619L15.3336 3.70596L9.17767 5.93053L7.72383 3.67333L13.6312 1.88619ZM5.03947 6.25246L9.24037 13.1865L1.23713 10.0119L5.03947 6.25246ZM3.28863 7.01036L2.79547 7.49803L2.5982 7.19553L3.28863 7.01036ZM1.7314 7.38949L2.19047 8.09606L1.1957 9.07946C1.11743 8.86241 1.0764 8.63369 1.07433 8.40296C1.07433 7.73343 1.40653 7.47859 1.7314 7.38949ZM1.15647 12.8429L1.16197 12.8217L10.3825 16.8576L1.2342 12.4964C1.24263 12.4469 1.24923 12.3923 1.2562 12.3373L8.4183 15.3366L1.28113 11.9941C1.28295 11.8413 1.27241 11.6887 1.2496 11.5376L7.87857 14.2674L1.1605 11.1467C1.11738 11.0023 1.05963 10.8626 0.988167 10.7298L10.1119 14.6257L10.3195 14.9681C10.7474 15.6406 11.5236 15.5163 11.9148 15.3997C12.4557 15.6666 13.4251 16.2841 13.1769 17.1938C13.046 17.6749 12.7582 17.9081 12.2973 17.9081C11.8305 17.9081 11.3645 17.6639 11.3597 17.6606L1.15647 12.8429ZM10.34 17.6679L9.61913 17.9664L9.0068 17.0266L10.34 17.6679ZM7.5482 19.6409L4.71423 14.9626L7.53097 16.3167L8.86307 18.3671C8.3259 18.5967 7.72567 19.1206 7.5482 19.6409ZM20.027 15.1735C20.0042 15.3245 19.9936 15.4772 19.9954 15.63L12.8583 18.9725L20.0204 15.9732C20.0273 16.0278 20.0336 16.0828 20.0424 16.1323L10.894 20.4938L20.1146 16.4579C20.1166 16.4649 20.1185 16.472 20.1201 16.4792L9.91687 21.2961C9.9121 21.2994 9.4468 21.5436 8.9793 21.5436C8.51803 21.5436 8.23057 21.31 8.09967 20.8293C7.76307 19.5947 9.67707 18.8948 9.70567 18.8841L11.3832 18.1684C11.5632 18.245 12.8476 18.7492 13.4772 17.7596L13.8743 17.1047L20.2888 14.3657C20.2173 14.4985 20.1595 14.6382 20.1161 14.7826L13.398 17.9033L20.027 15.1735ZM20.0394 13.6478L14.6036 15.9006L16.1121 13.4105L18.5933 12.2178L20.0394 13.6478ZM20.9169 9.57519C20.8974 9.70615 20.8882 9.83843 20.8894 9.97083L14.7044 12.8675L20.9114 10.2682C20.9176 10.3155 20.9227 10.3635 20.9304 10.4061L13.0016 14.1857L20.9928 10.688C20.9947 10.694 20.9963 10.7002 20.9975 10.7064L12.1546 14.8816C12.1506 14.8842 11.7469 15.0961 11.3421 15.0961C10.9421 15.0961 10.6931 14.8933 10.5798 14.4768C10.2879 13.4069 11.9467 12.8004 11.9717 12.7912L21.1435 8.87523C21.0816 8.99038 21.0316 9.11151 20.9942 9.23676L15.1716 11.9413L20.9169 9.57519Z" fill="#5F6165"/>
</g>
</svg>
