<svg width="14" height="14" viewBox="0 0 14 14" fill="none" xmlns="http://www.w3.org/2000/svg">
<path d="M5.5 0H3C2.20435 0 1.44129 0.316071 0.87868 0.87868C0.316071 1.44129 0 2.20435 0 3V3.5C0 3.63261 0.0526785 3.75979 0.146447 3.85355C0.240215 3.94732 0.367392 4 0.5 4C0.632608 4 0.759785 3.94732 0.853553 3.85355C0.947321 3.75979 1 3.63261 1 3.5V3C1 2.46957 1.21071 1.96086 1.58579 1.58579C1.96086 1.21071 2.46957 1 3 1H5.5C5.63261 1 5.75979 0.947321 5.85355 0.853553C5.94732 0.759785 6 0.632608 6 0.5C6 0.367392 5.94732 0.240215 5.85355 0.146447C5.75979 0.0526785 5.63261 0 5.5 0ZM2.796 12.99C2.30339 12.9395 1.84704 12.708 1.51527 12.3404C1.18349 11.9728 0.999893 11.4952 1 11V8C1 7.46957 1.21071 6.96086 1.58579 6.58579C1.96086 6.21071 2.46957 6 3 6H6C6.53043 6 7.03914 6.21071 7.41421 6.58579C7.78929 6.96086 8 7.46957 8 8V11C8 11.5304 7.78929 12.0391 7.41421 12.4142C7.03914 12.7893 6.53043 13 6 13H3C2.93067 13 2.86267 12.9967 2.796 12.99ZM0 11C0 11.7956 0.316071 12.5587 0.87868 13.1213C1.44129 13.6839 2.20435 14 3 14H6C6.79565 14 7.55871 13.6839 8.12132 13.1213C8.68393 12.5587 9 11.7956 9 11V8C9 7.20435 8.68393 6.44129 8.12132 5.87868C7.55871 5.31607 6.79565 5 6 5H3C2.20435 5 1.44129 5.31607 0.87868 5.87868C0.316071 6.44129 0 7.20435 0 8V11ZM10.5 14C10.3674 14 10.2402 13.9473 10.1464 13.8536C10.0527 13.7598 10 13.6326 10 13.5C10 13.3674 10.0527 13.2402 10.1464 13.1464C10.2402 13.0527 10.3674 13 10.5 13H11C11.5304 13 12.0391 12.7893 12.4142 12.4142C12.7893 12.0391 13 11.5304 13 11V8.5C13 8.36739 13.0527 8.24021 13.1464 8.14645C13.2402 8.05268 13.3674 8 13.5 8C13.6326 8 13.7598 8.05268 13.8536 8.14645C13.9473 8.24021 14 8.36739 14 8.5V11C14 11.7956 13.6839 12.5587 13.1213 13.1213C12.5587 13.6839 11.7956 14 11 14H10.5ZM14 5.5C14 5.63261 13.9473 5.75979 13.8536 5.85355C13.7598 5.94732 13.6326 6 13.5 6C13.3674 6 13.2402 5.94732 13.1464 5.85355C13.0527 5.75979 13 5.63261 13 5.5V3C13 2.46957 12.7893 1.96086 12.4142 1.58579C12.0391 1.21071 11.5304 1 11 1H8.5C8.36739 1 8.24021 0.947321 8.14645 0.853553C8.05268 0.759785 8 0.632608 8 0.5C8 0.367392 8.05268 0.240215 8.14645 0.146447C8.24021 0.0526785 8.36739 0 8.5 0H11C11.7956 0 12.5587 0.316071 13.1213 0.87868C13.6839 1.44129 14 2.20435 14 3V5.5Z" fill="#1D1D1D"/>
</svg>
