<svg width="24" height="24" viewBox="0 0 24 24" fill="none" xmlns="http://www.w3.org/2000/svg">
<g clip-path="url(#clip0_2641_59670)">
<path d="M9 0.416959C9.14642 0.594878 9.23612 0.812617 9.25751 1.04204C9.2789 1.27147 9.231 1.50204 9.12 1.70396C8.25279 3.29617 7.7999 5.0809 7.803 6.89396C7.803 12.9255 12.72 17.8095 18.78 17.8095C19.5705 17.8095 20.34 17.727 21.0795 17.5695C21.3062 17.5204 21.5423 17.5391 21.7584 17.6234C21.9745 17.7077 22.1609 17.8538 22.2945 18.0435C22.4355 18.2406 22.5074 18.4789 22.4989 18.7211C22.4905 18.9634 22.4023 19.196 22.248 19.383C21.0715 20.8281 19.5874 21.9925 17.9037 22.7912C16.2201 23.59 14.3795 24.0029 12.516 24C5.601 24 0 18.429 0 11.565C0 6.39896 3.171 1.96796 7.686 0.0899595C7.91091 -0.00509275 8.16058 -0.0246018 8.39752 0.034363C8.63446 0.0933277 8.84588 0.227582 9 0.416959Z" fill="#1D1D1D"/>
<path d="M16.191 4.72196C16.2125 4.657 16.2539 4.60047 16.3094 4.56041C16.3649 4.52034 16.4316 4.49878 16.5 4.49878C16.5684 4.49878 16.6351 4.52034 16.6906 4.56041C16.7461 4.60047 16.7875 4.657 16.809 4.72196L17.3895 6.46496C17.649 7.24196 18.258 7.85096 19.035 8.11046L20.778 8.69096C20.843 8.71247 20.8995 8.7539 20.9395 8.80937C20.9796 8.86485 21.0012 8.93153 21.0012 8.99996C21.0012 9.06839 20.9796 9.13507 20.9395 9.19054C20.8995 9.24602 20.843 9.28745 20.778 9.30896L19.035 9.88946C18.6518 10.0171 18.3036 10.2323 18.018 10.5179C17.7323 10.8035 17.5172 11.1517 17.3895 11.535L16.809 13.278C16.7875 13.3429 16.7461 13.3994 16.6906 13.4395C16.6351 13.4796 16.5684 13.5011 16.5 13.5011C16.4316 13.5011 16.3649 13.4796 16.3094 13.4395C16.2539 13.3994 16.2125 13.3429 16.191 13.278L15.6105 11.535C15.4828 11.1517 15.2677 10.8035 14.982 10.5179C14.6964 10.2323 14.3482 10.0171 13.965 9.88946L12.222 9.30896C12.157 9.28745 12.1005 9.24602 12.0604 9.19054C12.0204 9.13507 11.9988 9.06839 11.9988 8.99996C11.9988 8.93153 12.0204 8.86485 12.0604 8.80937C12.1005 8.7539 12.157 8.71247 12.222 8.69096L13.965 8.11046C14.3482 7.98279 14.6964 7.76761 14.982 7.482C15.2677 7.19638 15.4828 6.84817 15.6105 6.46496L16.191 4.72196ZM20.7945 0.148459C20.8093 0.105749 20.8371 0.0687134 20.8739 0.0425019C20.9107 0.0162904 20.9548 0.00220552 21 0.00220552C21.0452 0.00220552 21.0893 0.0162904 21.1261 0.0425019C21.1629 0.0687134 21.1907 0.105749 21.2055 0.148459L21.5925 1.30946C21.765 1.82846 22.1715 2.23496 22.6905 2.40746L23.8515 2.79446C23.8942 2.80927 23.9312 2.83701 23.9575 2.87384C23.9837 2.91067 23.9978 2.95475 23.9978 2.99996C23.9978 3.04516 23.9837 3.08925 23.9575 3.12607C23.9312 3.1629 23.8942 3.19065 23.8515 3.20546L22.6905 3.59246C22.4347 3.67754 22.2023 3.82108 22.0117 4.01168C21.8211 4.20228 21.6776 4.43469 21.5925 4.69046L21.2055 5.85146C21.1907 5.89417 21.1629 5.93121 21.1261 5.95742C21.0893 5.98363 21.0452 5.99771 21 5.99771C20.9548 5.99771 20.9107 5.98363 20.8739 5.95742C20.8371 5.93121 20.8093 5.89417 20.7945 5.85146L20.4075 4.69046C20.3224 4.43469 20.1789 4.20228 19.9883 4.01168C19.7977 3.82108 19.5653 3.67754 19.3095 3.59246L18.1485 3.20546C18.1058 3.19065 18.0688 3.1629 18.0425 3.12607C18.0163 3.08925 18.0022 3.04516 18.0022 2.99996C18.0022 2.95475 18.0163 2.91067 18.0425 2.87384C18.0688 2.83701 18.1058 2.80927 18.1485 2.79446L19.3095 2.40746C19.8285 2.23496 20.235 1.82846 20.4075 1.30946L20.7945 0.149959V0.148459Z" fill="#1D1D1D"/>
</g>
<defs>
<clipPath id="clip0_2641_59670">
<rect width="24" height="24" fill="white"/>
</clipPath>
</defs>
</svg>
