<svg width="16" height="17" viewBox="0 0 16 17" fill="none" xmlns="http://www.w3.org/2000/svg">
<path d="M11.3363 6.51758C12.7863 6.52558 13.5717 6.59025 14.0837 7.1023C14.6697 7.68835 14.6697 8.6311 14.6697 10.5166V11.1833C14.6697 13.0695 14.6697 14.0122 14.0837 14.5983C13.4984 15.1837 12.555 15.1837 10.6696 15.1837H5.33607C3.45068 15.1837 2.50731 15.1837 1.92196 14.5983C1.33594 14.0116 1.33594 13.0695 1.33594 11.1833V10.5166C1.33594 8.6311 1.33594 7.68835 1.92196 7.1023C2.43397 6.59025 3.21933 6.52558 4.66938 6.51758" stroke="#55565B" stroke-width="1.45877" stroke-linecap="round"/>
<path d="M8.00416 10.5159V1.84766M8.00416 1.84766L10.0044 4.18142M8.00416 1.84766L6.00391 4.18142" stroke="#55565B" stroke-width="1.45877" stroke-linecap="round" stroke-linejoin="round"/>
</svg>
