<svg width="18" height="9" viewBox="0 0 18 9" fill="none" xmlns="http://www.w3.org/2000/svg">
<path d="M0.880682 8V0.727273H5.26989V1.50852H1.76136V3.96591H5.04261V4.74716H1.76136V7.21875H5.3267V8H0.880682ZM8.80327 8.11364C8.34872 8.11364 7.94744 7.99882 7.59943 7.76918C7.25142 7.53717 6.97917 7.21046 6.78267 6.78906C6.58617 6.36529 6.48793 5.86458 6.48793 5.28693C6.48793 4.71402 6.58617 4.21686 6.78267 3.79545C6.97917 3.37405 7.2526 3.04853 7.60298 2.81889C7.95336 2.58925 8.35819 2.47443 8.81747 2.47443C9.17259 2.47443 9.45313 2.53362 9.65909 2.65199C9.86742 2.76799 10.026 2.90057 10.1349 3.04972C10.2462 3.1965 10.3326 3.31723 10.3942 3.41193H10.4652V0.727273H11.3033V8H10.4936V7.16193H10.3942C10.3326 7.26136 10.245 7.38684 10.1314 7.53835C10.0178 7.6875 9.85559 7.82126 9.64489 7.93963C9.43419 8.05563 9.15365 8.11364 8.80327 8.11364ZM8.9169 7.3608C9.25308 7.3608 9.53717 7.2732 9.76918 7.09801C10.0012 6.92045 10.1776 6.67543 10.2983 6.36293C10.419 6.04806 10.4794 5.68466 10.4794 5.27273C10.4794 4.86553 10.4202 4.50923 10.3018 4.20384C10.1835 3.89607 10.0083 3.65696 9.77628 3.48651C9.54427 3.31368 9.25781 3.22727 8.9169 3.22727C8.56179 3.22727 8.26586 3.31842 8.02912 3.50071C7.79474 3.68063 7.61837 3.92566 7.5 4.2358C7.384 4.54356 7.32599 4.8892 7.32599 5.27273C7.32599 5.66098 7.38518 6.01373 7.50355 6.33097C7.62429 6.64583 7.80185 6.89678 8.03622 7.08381C8.27296 7.26847 8.56652 7.3608 8.9169 7.3608ZM12.9545 8V2.54545H13.7926V8H12.9545ZM13.3807 1.63636C13.2173 1.63636 13.0765 1.58073 12.9581 1.46946C12.8421 1.35819 12.7841 1.22443 12.7841 1.06818C12.7841 0.911932 12.8421 0.778172 12.9581 0.666903C13.0765 0.555634 13.2173 0.5 13.3807 0.5C13.544 0.5 13.6837 0.555634 13.7997 0.666903C13.9181 0.778172 13.9773 0.911932 13.9773 1.06818C13.9773 1.22443 13.9181 1.35819 13.7997 1.46946C13.6837 1.58073 13.544 1.63636 13.3807 1.63636ZM17.6998 2.54545V3.25568H14.873V2.54545H17.6998ZM15.6969 1.23864H16.535V6.4375C16.535 6.67424 16.5693 6.8518 16.638 6.97017C16.709 7.08617 16.7989 7.1643 16.9078 7.20455C17.0191 7.24242 17.1363 7.26136 17.2594 7.26136C17.3517 7.26136 17.4275 7.25663 17.4867 7.24716C17.5459 7.23532 17.5932 7.22585 17.6287 7.21875L17.7992 7.97159C17.7424 7.9929 17.6631 8.0142 17.5613 8.03551C17.4595 8.05919 17.3304 8.07102 17.1742 8.07102C16.9374 8.07102 16.7054 8.02012 16.4782 7.91832C16.2533 7.81652 16.0662 7.66146 15.9171 7.45312C15.7703 7.24479 15.6969 6.98201 15.6969 6.66477V1.23864Z" fill="white" fill-opacity="0.8"/>
</svg>
