<svg width="12" height="12" viewBox="0 0 12 12" fill="none" xmlns="http://www.w3.org/2000/svg">
<rect width="12" height="12" rx="6" fill="white"/>
<path d="M8.31444 4.25628L7.73751 3.67963C7.61691 3.56433 7.45657 3.5 7.28982 3.5C7.12307 3.5 6.96273 3.56433 6.84213 3.67963L3.55635 6.97029C3.52028 7.00639 3.50001 7.05535 3.5 7.10641V8.30746C3.5 8.35853 3.52026 8.4075 3.55633 8.44361C3.59239 8.47972 3.64131 8.5 3.69231 8.5H4.89174C4.94273 8.49999 4.99164 8.4797 5.0277 8.44359L8.31444 5.15293C8.37327 5.09406 8.41993 5.02417 8.45177 4.94725C8.48361 4.87032 8.5 4.78787 8.5 4.7046C8.5 4.62133 8.48361 4.53888 8.45177 4.46196C8.41993 4.38503 8.37327 4.31514 8.31444 4.25628ZM4.81212 8.11492H3.88462V7.18612L6.39116 4.67659L7.31867 5.6052L4.81212 8.11492ZM8.0429 4.88029L7.59098 5.33276L6.66309 4.40434L7.11501 3.95188C7.16166 3.90527 7.22488 3.8791 7.29078 3.8791C7.35669 3.8791 7.4199 3.90527 7.46655 3.95188L8.04252 4.52949C8.06561 4.55259 8.08393 4.58003 8.09643 4.61022C8.10894 4.64042 8.11537 4.67278 8.11537 4.70547C8.11537 4.73816 8.10894 4.77052 8.09643 4.80072C8.08393 4.83091 8.066 4.85719 8.0429 4.88029Z" fill="#1D1D1D"/>
</svg>
