<svg width="12" height="13" viewBox="0 0 12 13" fill="none" xmlns="http://www.w3.org/2000/svg">
<path d="M2.77 10.2598C2.465 10.2598 2.18 10.1548 1.975 9.95978C1.715 9.71478 1.59 9.34478 1.635 8.94478L1.82 7.32478C1.855 7.01978 2.04 6.61478 2.255 6.39478L6.36 2.04978C7.385 0.96478 8.455 0.93478 9.54 1.95978C10.625 2.98478 10.655 4.05478 9.63 5.13978L5.525 9.48478C5.315 9.70978 4.925 9.91978 4.62 9.96978L3.01 10.2448C2.925 10.2498 2.85 10.2598 2.77 10.2598ZM7.965 1.95478C7.58 1.95478 7.245 2.19478 6.905 2.55478L2.8 6.90478C2.7 7.00978 2.585 7.25978 2.565 7.40478L2.38 9.02478C2.36 9.18978 2.4 9.32478 2.49 9.40978C2.58 9.49478 2.715 9.52478 2.88 9.49978L4.49 9.22478C4.635 9.19978 4.875 9.06978 4.975 8.96478L9.08 4.61978C9.7 3.95978 9.925 3.34978 9.02 2.49978C8.62 2.11478 8.275 1.95478 7.965 1.95478Z" fill="#55565B"/>
<path d="M8.67 5.97478C8.66 5.97478 8.645 5.97478 8.635 5.97478C7.075 5.81978 5.82 4.63478 5.58 3.08478C5.55 2.87978 5.69 2.68978 5.895 2.65478C6.1 2.62478 6.29 2.76478 6.325 2.96978C6.515 4.17978 7.495 5.10978 8.715 5.22978C8.92 5.24978 9.07 5.43478 9.05 5.63978C9.025 5.82978 8.86 5.97478 8.67 5.97478Z" fill="#55565B"/>
<path d="M10.5 11.8748H1.5C1.295 11.8748 1.125 11.7048 1.125 11.4998C1.125 11.2948 1.295 11.1248 1.5 11.1248H10.5C10.705 11.1248 10.875 11.2948 10.875 11.4998C10.875 11.7048 10.705 11.8748 10.5 11.8748Z" fill="#55565B"/>
</svg>
