<svg width="22" height="23" viewBox="0 0 22 23" fill="none" xmlns="http://www.w3.org/2000/svg">
<g id="icons/Grid/Line">
<path id="Shape" fill-rule="evenodd" clip-rule="evenodd" d="M16.041 14.2501C15.6265 14.2501 15.0409 14.3074 14.4312 14.3909C14.1463 14.4299 13.9292 14.6471 13.8901 14.9319C13.8066 15.5416 13.7493 16.1272 13.7493 16.5417C13.7493 16.9562 13.8066 17.5419 13.8901 18.1516C13.9292 18.4364 14.1463 18.6536 14.4312 18.6926C15.0409 18.7761 15.6265 18.8334 16.041 18.8334C16.4555 18.8334 17.0412 18.7761 17.6509 18.6926C17.9357 18.6536 18.1529 18.4364 18.1919 18.1516C18.2754 17.5419 18.3327 16.9562 18.3327 16.5417C18.3327 16.1272 18.2754 15.5416 18.1919 14.9319C18.1529 14.6471 17.9357 14.4299 17.6509 14.3909C17.0412 14.3074 16.4555 14.2501 16.041 14.2501ZM14.1824 12.5745C13.0825 12.7251 12.2244 13.5832 12.0738 14.6831C11.9874 15.314 11.916 15.9992 11.916 16.5417C11.916 17.0843 11.9874 17.7695 12.0738 18.4003C12.2244 19.5003 13.0825 20.3584 14.1824 20.509C14.8133 20.5954 15.4985 20.6667 16.041 20.6667C16.5835 20.6667 17.2688 20.5954 17.8996 20.509C18.9995 20.3584 19.8576 19.5003 20.0083 18.4003C20.0947 17.7695 20.166 17.0843 20.166 16.5417C20.166 15.9992 20.0947 15.314 20.0083 14.6831C19.8576 13.5832 18.9995 12.7251 17.8996 12.5745C17.2688 12.4881 16.5835 12.4167 16.041 12.4167C15.4985 12.4167 14.8133 12.4881 14.1824 12.5745Z" fill="#1D1D1D"/>
<path id="Shape_2" fill-rule="evenodd" clip-rule="evenodd" d="M5.95898 14.2501C5.54449 14.2501 4.95883 14.3074 4.34914 14.3909C4.06431 14.4299 3.84712 14.6471 3.80811 14.9319C3.72461 15.5416 3.66732 16.1272 3.66732 16.5417C3.66732 16.9562 3.72461 17.5419 3.80811 18.1516C3.84712 18.4364 4.06431 18.6536 4.34914 18.6926C4.95883 18.7761 5.54449 18.8334 5.95898 18.8334C6.37348 18.8334 6.95914 18.7761 7.56882 18.6926C7.85366 18.6536 8.07085 18.4364 8.10986 18.1516C8.19336 17.5419 8.25065 16.9562 8.25065 16.5417C8.25065 16.1272 8.19336 15.5416 8.10986 14.9319C8.07085 14.6471 7.85366 14.4299 7.56882 14.3909C6.95914 14.3074 6.37348 14.2501 5.95898 14.2501ZM4.10038 12.5745C3.00047 12.7251 2.14237 13.5832 1.99174 14.6831C1.90534 15.314 1.83398 15.9992 1.83398 16.5417C1.83398 17.0843 1.90534 17.7695 1.99174 18.4003C2.14237 19.5003 3.00047 20.3584 4.10038 20.509C4.73124 20.5954 5.41647 20.6667 5.95898 20.6667C6.5015 20.6667 7.18673 20.5954 7.81758 20.509C8.9175 20.3584 9.7756 19.5003 9.92623 18.4003C10.0126 17.7695 10.084 17.0843 10.084 16.5417C10.084 15.9992 10.0126 15.314 9.92623 14.6831C9.7756 13.5832 8.9175 12.7251 7.81758 12.5745C7.18673 12.4881 6.5015 12.4167 5.95898 12.4167C5.41647 12.4167 4.73124 12.4881 4.10038 12.5745Z" fill="#1D1D1D"/>
<path id="Shape_3" fill-rule="evenodd" clip-rule="evenodd" d="M16.041 4.16659C15.6265 4.16659 15.0409 4.22388 14.4312 4.30738C14.1463 4.34639 13.9292 4.56358 13.8901 4.84841C13.8066 5.4581 13.7493 6.04375 13.7493 6.45825C13.7493 6.87275 13.8066 7.4584 13.8901 8.06809C13.9292 8.35293 14.1463 8.57011 14.4312 8.60912C15.0409 8.69262 15.6265 8.74992 16.041 8.74992C16.4555 8.74992 17.0412 8.69262 17.6509 8.60912C17.9357 8.57011 18.1529 8.35293 18.1919 8.06809C18.2754 7.4584 18.3327 6.87275 18.3327 6.45825C18.3327 6.04375 18.2754 5.4581 18.1919 4.84841C18.1529 4.56358 17.9357 4.34639 17.6509 4.30738C17.0412 4.22388 16.4555 4.16659 16.041 4.16659ZM14.1824 2.491C13.0825 2.64164 12.2244 3.49974 12.0738 4.59965C11.9874 5.23051 11.916 5.91573 11.916 6.45825C11.916 7.00077 11.9874 7.68599 12.0738 8.31685C12.2244 9.41676 13.0825 10.2749 14.1824 10.4255C14.8133 10.5119 15.4985 10.5833 16.041 10.5833C16.5835 10.5833 17.2688 10.5119 17.8996 10.4255C18.9995 10.2749 19.8576 9.41676 20.0083 8.31685C20.0947 7.68599 20.166 7.00077 20.166 6.45825C20.166 5.91573 20.0947 5.23051 20.0083 4.59965C19.8576 3.49974 18.9995 2.64164 17.8996 2.491C17.2688 2.4046 16.5835 2.33325 16.041 2.33325C15.4985 2.33325 14.8133 2.4046 14.1824 2.491Z" fill="#1D1D1D"/>
<path id="Shape_4" fill-rule="evenodd" clip-rule="evenodd" d="M5.95898 4.16659C5.54449 4.16659 4.95883 4.22388 4.34914 4.30738C4.06431 4.34639 3.84712 4.56358 3.80811 4.84841C3.72461 5.4581 3.66732 6.04375 3.66732 6.45825C3.66732 6.87275 3.72461 7.4584 3.80811 8.06809C3.84712 8.35293 4.06431 8.57011 4.34914 8.60912C4.95883 8.69262 5.54449 8.74992 5.95898 8.74992C6.37348 8.74992 6.95914 8.69262 7.56882 8.60912C7.85366 8.57011 8.07085 8.35293 8.10986 8.06809C8.19336 7.4584 8.25065 6.87275 8.25065 6.45825C8.25065 6.04375 8.19336 5.4581 8.10986 4.84841C8.07085 4.56358 7.85366 4.34639 7.56882 4.30738C6.95914 4.22388 6.37348 4.16659 5.95898 4.16659ZM4.10038 2.491C3.00047 2.64164 2.14237 3.49974 1.99174 4.59965C1.90534 5.23051 1.83398 5.91573 1.83398 6.45825C1.83398 7.00077 1.90534 7.68599 1.99174 8.31685C2.14237 9.41676 3.00047 10.2749 4.10038 10.4255C4.73124 10.5119 5.41647 10.5833 5.95898 10.5833C6.5015 10.5833 7.18673 10.5119 7.81758 10.4255C8.9175 10.2749 9.7756 9.41676 9.92623 8.31685C10.0126 7.68599 10.084 7.00077 10.084 6.45825C10.084 5.91573 10.0126 5.23051 9.92623 4.59965C9.7756 3.49974 8.9175 2.64164 7.81758 2.491C7.18673 2.4046 6.5015 2.33325 5.95898 2.33325C5.41647 2.33325 4.73124 2.4046 4.10038 2.491Z" fill="#1D1D1D"/>
</g>
</svg>
