<svg width="81" height="27" viewBox="0 0 81 27" fill="none" xmlns="http://www.w3.org/2000/svg">
<path fill-rule="evenodd" clip-rule="evenodd" d="M18.9642 7.84247C18.9642 11.6597 15.7608 14.7504 11.8045 14.7504C7.84812 14.7504 4.64478 11.6597 4.64478 7.84247C4.64478 4.02525 7.84812 0.93457 11.8045 0.93457C15.7608 0.93457 18.9642 4.02525 18.9642 7.84247ZM8.94777 10.5756H12.4977C12.5575 10.5756 12.5814 10.5064 12.5575 10.4603L9.68884 7.0352C9.64103 6.98907 9.58127 7.01213 9.56932 7.05826L8.87605 10.4834C8.8641 10.541 8.89996 10.5756 8.94777 10.5756ZM8.87605 5.40913H12.426C12.4738 5.40913 12.5097 5.45526 12.4977 5.48986L11.8045 8.91498C11.7925 8.97264 11.7208 8.98417 11.685 8.93804L8.81629 5.50139C8.79239 5.46679 8.81629 5.40913 8.87605 5.40913ZM12.7846 5.45526C12.7966 5.4322 12.8205 5.3976 12.8563 5.3976H15.4142C15.462 5.3976 15.4979 5.44373 15.4859 5.47833L15.0078 7.70408C14.9959 7.73867 14.972 7.76174 14.9361 7.76174H14.8644C13.6094 7.76174 12.6053 6.6431 12.7846 5.45526ZM24.2473 4.92477H26.8052C26.9247 4.92477 27.0084 4.99397 26.9725 5.12083L26.8291 5.91656C27.3311 5.21308 28.0602 4.78639 28.8133 4.78639C29.1838 4.78639 29.5782 4.92477 29.7934 5.12083C29.9129 5.23615 29.9129 5.30534 29.8293 5.42067L29.0882 6.43552C28.9926 6.56237 28.9328 6.55084 28.7774 6.48164C28.634 6.42398 28.4427 6.36632 28.2515 6.36632C27.367 6.36632 26.614 6.93141 26.2673 8.6382L25.7534 11.2099C25.7175 11.3829 25.586 11.4175 25.5143 11.4175H24.1636C24.0561 11.4175 23.9604 11.3252 23.9963 11.2099L25.0003 6.26253L24.1517 5.10929C24.08 5.01703 24.1278 4.92477 24.2473 4.92477ZM29.136 8.11924C29.4826 6.11261 31.0126 4.78639 32.9967 4.78639C35.0168 4.78639 35.973 6.34326 35.6861 8.02698C35.6144 8.46521 35.459 8.81119 35.0885 8.81119H30.7855C30.8213 9.75684 31.5026 10.2066 32.4111 10.2066C33.0087 10.2066 33.5705 9.98749 33.9888 9.72224C34.0964 9.64152 34.2159 9.60692 34.2876 9.72224L34.7777 10.4603C34.8614 10.5756 34.8136 10.6564 34.694 10.7602C34.0605 11.3252 33.0206 11.579 32.0764 11.579C29.9607 11.579 28.8133 10.0682 29.136 8.11924ZM34.1442 7.68101C34.204 6.66616 33.4868 6.23946 32.8055 6.23946C31.8971 6.23946 31.2038 6.82761 30.9289 7.68101H34.1442ZM42.1167 11.256L43.6586 3.66775L42.9056 2.69903C42.8697 2.62983 42.9175 2.5491 43.0132 2.5491H45.3798C45.5113 2.5491 45.583 2.62983 45.5471 2.74515L44.8539 6.08954C45.3798 5.31687 46.1806 4.79792 47.113 4.79792C48.6071 4.79792 49.4557 6.03188 49.133 7.54262L48.368 11.2215C48.3441 11.3598 48.2246 11.429 48.1289 11.429H46.7305C46.599 11.429 46.5273 11.3483 46.5512 11.2215L47.2444 7.90013C47.4237 7.0006 47.1727 6.44705 46.6109 6.44705C45.5471 6.44705 44.7104 7.60029 44.3519 9.22635L43.8977 11.2676C43.8857 11.3483 43.814 11.4175 43.7184 11.4175H42.2482C42.1645 11.406 42.1047 11.3368 42.1167 11.256ZM49.6111 8.18844C49.9577 6.04342 51.5235 4.77485 53.3523 4.77485C54.3205 4.77485 55.0735 5.20155 55.3723 5.90503L55.5277 5.12083C55.5516 4.98244 55.6592 4.91324 55.7787 4.91324H57.0696C57.213 4.91324 57.2728 5.0055 57.2369 5.12083L56.0058 11.2099C55.9819 11.3252 55.8982 11.406 55.7548 11.406H54.452C54.3324 11.406 54.2727 11.3368 54.2966 11.2099L54.4161 10.5756C53.8065 11.2445 53.0535 11.579 52.2287 11.579C50.3522 11.5905 49.3003 10.0913 49.6111 8.18844ZM52.7547 10.0336C53.8304 10.0336 54.6312 9.15716 54.7866 8.14231C54.942 7.11592 54.3683 6.34326 53.3762 6.34326C52.3124 6.34326 51.5474 7.17359 51.3681 8.15384C51.2008 9.14562 51.7148 10.0336 52.7547 10.0336ZM56.8425 11.1984L58.0975 5.08623C58.1215 4.98243 58.1812 4.92477 58.2529 4.92477H59.6634C59.7829 4.92477 59.8666 4.99397 59.8307 5.12083L59.6873 5.91656C60.1893 5.21308 60.9184 4.78639 61.6595 4.78639C62.03 4.78639 62.4364 4.92477 62.6396 5.12083C62.7591 5.23615 62.7591 5.30534 62.6755 5.42067L61.9344 6.43552C61.8388 6.56237 61.767 6.55084 61.6236 6.48164C61.4802 6.42398 61.2889 6.36632 61.0857 6.36632C60.2012 6.36632 59.4482 6.93141 59.1135 8.6382L58.5996 11.2099C58.5637 11.3829 58.4203 11.4175 58.3605 11.4175H57.0098C56.9142 11.406 56.8186 11.3137 56.8425 11.1984ZM61.4802 13.2627C61.3965 13.205 61.3965 13.1012 61.4563 13.009L62.0778 12.0633C62.1495 11.9595 62.2452 11.9365 62.3288 11.9941C62.9384 12.3632 63.5361 12.5938 64.2652 12.5938C65.5441 12.5938 66.6079 12.0979 66.9785 10.4373C66.2732 11.0715 65.6278 11.3829 64.6357 11.3829C62.7113 11.3829 61.7073 9.82604 62.0181 8.07311C62.3766 6.10108 63.9066 4.76332 65.831 4.76332C66.8948 4.76332 67.6239 5.33994 67.851 5.81277L68.0064 5.10929C68.0303 4.9709 68.1259 4.90171 68.2335 4.90171H69.5363C69.6678 4.90171 69.7395 4.98244 69.7156 5.10929L68.6279 10.4718C68.1498 12.8014 66.4764 14.0238 64.2054 14.0238C63.2492 14.0353 62.1734 13.8047 61.4802 13.2627ZM65.1497 9.89523C66.2254 9.89523 67.0263 9.0649 67.1817 8.07311C67.337 7.08133 66.7753 6.34326 65.7712 6.34326C64.7074 6.34326 63.9424 7.15052 63.7632 8.08464C63.5958 9.04183 64.1098 9.89523 65.1497 9.89523ZM69.7635 8.11924C70.1101 6.11261 71.64 4.78639 73.6242 4.78639C75.6442 4.78639 76.6004 6.34326 76.3016 8.02698C76.2419 8.46521 76.0745 8.81119 75.704 8.81119H71.401C71.4368 9.75684 72.1181 10.2066 73.0266 10.2066C73.6242 10.2066 74.186 9.98749 74.6043 9.72224C74.7119 9.64152 74.8314 9.60692 74.9031 9.72224L75.3932 10.4603C75.4769 10.5756 75.4291 10.6564 75.3095 10.7602C74.676 11.3252 73.6361 11.579 72.6919 11.579C70.5882 11.579 69.4407 10.0682 69.7635 8.11924ZM74.7717 7.68101C74.8314 6.66616 74.1143 6.23946 73.4329 6.23946C72.5245 6.23946 71.8313 6.82761 71.5564 7.68101H74.7717ZM39.1405 11.5905C40.0369 11.5905 40.9095 11.3483 41.7103 10.6218C41.8298 10.518 41.8418 10.3796 41.7581 10.2989L41.029 9.51466C40.9573 9.43394 40.8497 9.43393 40.766 9.50313C40.4553 9.72224 39.9652 9.97596 39.3795 9.97596C38.3277 9.97596 37.742 9.18022 37.8735 8.18844C38.0049 7.19665 38.8177 6.40092 39.8457 6.40092C40.4075 6.40092 40.766 6.59697 41.1605 6.97754C41.2681 7.08133 41.3278 7.08133 41.4473 6.98907L42.3916 6.20487C42.4872 6.12414 42.5111 6.04342 42.4394 5.93962C41.8657 5.15542 40.9812 4.78639 40.0011 4.78639C38.0169 4.78639 36.4152 6.20487 36.1523 8.09618C35.8654 10.1374 37.2758 11.5905 39.1405 11.5905Z" fill="black"/>
<path d="M5.39352 24.0659L3.53431 21.737C3.48694 21.7396 3.41458 21.7409 3.31721 21.7409C3.05668 21.7409 2.75142 21.7278 2.40142 21.7014V24.0659H1.5251V18.362C2.12247 18.2278 2.73958 18.1607 3.37642 18.1607C4.24221 18.1607 4.88431 18.3028 5.30273 18.587C5.72116 18.8685 5.93037 19.3185 5.93037 19.937C5.93037 20.3843 5.80405 20.7501 5.55142 21.0343C5.30142 21.3185 4.93037 21.5172 4.43826 21.6304L6.4001 24.0659H5.39352ZM2.40142 21.0304C2.58037 21.0488 2.73694 21.062 2.87116 21.0699C3.008 21.0778 3.16852 21.0817 3.35273 21.0817C3.958 21.0817 4.39879 20.9909 4.6751 20.8093C4.95142 20.6251 5.08958 20.3383 5.08958 19.9488C5.08958 19.6725 5.03168 19.4514 4.91589 19.2857C4.80273 19.1199 4.6251 19.0001 4.383 18.9264C4.14352 18.8528 3.82773 18.8159 3.43563 18.8159C3.23826 18.8159 3.06063 18.8238 2.90273 18.8396C2.74484 18.8554 2.57773 18.8791 2.40142 18.9107V21.0304ZM10.7511 22.1791H7.63662C7.65241 22.4896 7.71951 22.7409 7.83793 22.933C7.95635 23.1225 8.13398 23.262 8.37083 23.3514C8.60767 23.4409 8.91162 23.4857 9.28267 23.4857C9.65109 23.4857 10.059 23.4291 10.5064 23.3159V23.9672C10.0406 24.0857 9.59188 24.1449 9.1603 24.1449C8.3603 24.1449 7.7603 23.9646 7.3603 23.6041C6.96293 23.2409 6.76425 22.6817 6.76425 21.9264C6.76425 21.4528 6.84451 21.0501 7.00504 20.7185C7.16556 20.387 7.39714 20.1357 7.69977 19.9646C8.00504 19.7909 8.37214 19.7041 8.80109 19.7041C9.43267 19.7041 9.91556 19.8975 10.2498 20.2843C10.584 20.6685 10.7511 21.2238 10.7511 21.9501V22.1791ZM8.78925 20.2843C8.42083 20.2843 8.13925 20.3962 7.94451 20.6199C7.74977 20.8409 7.64583 21.1843 7.63267 21.6501H9.92609C9.91556 21.1843 9.81556 20.8409 9.62609 20.6199C9.43662 20.3962 9.15767 20.2843 8.78925 20.2843ZM15.0241 19.7712H15.8886L14.0373 24.0659H12.9596L11.1123 19.7712H12.0439L13.536 23.3238L15.0241 19.7712ZM16.6113 24.0659V19.7712H17.4876V24.0659H16.6113ZM17.0495 18.9343C16.8626 18.9343 16.7205 18.8935 16.6232 18.812C16.5284 18.7304 16.4811 18.6133 16.4811 18.4607C16.4811 18.3054 16.5284 18.187 16.6232 18.1054C16.7205 18.0212 16.8626 17.9791 17.0495 17.9791C17.2363 17.9791 17.3771 18.0212 17.4719 18.1054C17.5692 18.187 17.6179 18.3054 17.6179 18.4607C17.6179 18.6133 17.5692 18.7304 17.4719 18.812C17.3771 18.8935 17.2363 18.9343 17.0495 18.9343ZM22.5392 22.1791H19.4248C19.4405 22.4896 19.5076 22.7409 19.6261 22.933C19.7445 23.1225 19.9221 23.262 20.159 23.3514C20.3958 23.4409 20.6998 23.4857 21.0708 23.4857C21.4392 23.4857 21.8471 23.4291 22.2945 23.3159V23.9672C21.8287 24.0857 21.38 24.1449 20.9484 24.1449C20.1484 24.1449 19.5484 23.9646 19.1484 23.6041C18.7511 23.2409 18.5524 22.6817 18.5524 21.9264C18.5524 21.4528 18.6326 21.0501 18.7932 20.7185C18.9537 20.387 19.1853 20.1357 19.4879 19.9646C19.7932 19.7909 20.1603 19.7041 20.5892 19.7041C21.2208 19.7041 21.7037 19.8975 22.0379 20.2843C22.3721 20.6685 22.5392 21.2238 22.5392 21.9501V22.1791ZM20.5774 20.2843C20.209 20.2843 19.9274 20.3962 19.7326 20.6199C19.5379 20.8409 19.434 21.1843 19.4208 21.6501H21.7142C21.7037 21.1843 21.6037 20.8409 21.4142 20.6199C21.2248 20.3962 20.9458 20.2843 20.5774 20.2843ZM29.3544 19.7712H30.1754L28.8136 24.0659H27.7951L26.6623 20.5567L25.5215 24.0659H24.507L23.1333 19.7712H23.9938L25.0636 23.2093L26.1649 19.7712H27.1794L28.2767 23.1857L29.3544 19.7712ZM32.3698 24.1449C31.8304 24.1449 31.3409 24.0817 30.9014 23.9554V23.3199C31.3725 23.4514 31.8633 23.5172 32.3738 23.5172C32.7685 23.5172 33.0527 23.4646 33.2264 23.3593C33.4001 23.2514 33.4869 23.0949 33.4869 22.8896C33.4869 22.7791 33.4672 22.6883 33.4277 22.6172C33.3883 22.5435 33.3212 22.483 33.2264 22.4357C33.1317 22.3857 33.0014 22.3475 32.8356 22.3212L32.0738 22.2028C31.6317 22.1317 31.3119 21.9975 31.1146 21.8001C30.9198 21.6028 30.8225 21.3383 30.8225 21.0067C30.8225 20.6041 30.9883 20.287 31.3198 20.0554C31.654 19.8212 32.1633 19.7041 32.8475 19.7041C33.0633 19.7041 33.2777 19.7185 33.4909 19.7475C33.7067 19.7738 33.9054 19.8133 34.0869 19.8659V20.4975C33.6869 20.387 33.2751 20.3317 32.8514 20.3317C32.4172 20.3317 32.1106 20.3883 31.9317 20.5014C31.7527 20.6146 31.6633 20.7712 31.6633 20.9712C31.6633 21.1212 31.7093 21.2435 31.8014 21.3383C31.8935 21.4304 32.058 21.4975 32.2948 21.5396L33.0567 21.658C33.4962 21.7264 33.8185 21.8528 34.0238 22.037C34.229 22.2212 34.3317 22.4883 34.3317 22.8383C34.3317 23.1093 34.258 23.3422 34.1106 23.537C33.9659 23.7317 33.7462 23.8817 33.4514 23.987C33.1593 24.0922 32.7988 24.1449 32.3698 24.1449Z" fill="black"/>
<path d="M42.0397 17.1187L42.9259 19.8462H45.7938L43.4736 21.5319L44.3599 24.2595L42.0397 22.5738L39.7194 24.2595L40.6057 21.5319L38.2855 19.8462H41.1534L42.0397 17.1187Z" fill="black"/>
<path d="M50.5924 17.1187L51.4786 19.8462H54.3466L52.0264 21.5319L52.9126 24.2595L50.5924 22.5738L48.2722 24.2595L49.1584 21.5319L46.8382 19.8462H49.7061L50.5924 17.1187Z" fill="black"/>
<path d="M59.1449 17.1187L60.0311 19.8462H62.899L60.5788 21.5319L61.4651 24.2595L59.1449 22.5738L56.8247 24.2595L57.7109 21.5319L55.3907 19.8462H58.2586L59.1449 17.1187Z" fill="black"/>
<path d="M67.6976 17.1187L68.5839 19.8462H71.4518L69.1316 21.5319L70.0178 24.2595L67.6976 22.5738L65.3774 24.2595L66.2636 21.5319L63.9434 19.8462H66.8114L67.6976 17.1187Z" fill="black"/>
<path d="M76.2501 17.1187L77.1363 19.8462H80.0043L77.6841 21.5319L78.5703 24.2595L76.2501 22.5738L73.9299 24.2595L74.8161 21.5319L72.4959 19.8462H75.3639L76.2501 17.1187Z" fill="black"/>
</svg>
