<svg width="17" height="14" viewBox="0 0 17 14" fill="none" xmlns="http://www.w3.org/2000/svg">
<path d="M15.3706 0C15.7999 0 16.2117 0.163888 16.5153 0.455612C16.8189 0.747335 16.9894 1.143 16.9894 1.55556V12.4444C16.9894 12.857 16.8189 13.2527 16.5153 13.5444C16.2117 13.8361 15.7999 14 15.3706 14H2.41965C1.9903 14 1.57853 13.8361 1.27494 13.5444C0.97134 13.2527 0.800781 12.857 0.800781 12.4444V1.55556C0.800781 1.143 0.97134 0.747335 1.27494 0.455612C1.57853 0.163888 1.9903 0 2.41965 0H15.3706ZM15.3706 1.55556H2.41965V12.4444H3.17161L10.7058 5.20489C10.7998 5.11458 10.9113 5.04295 11.0341 4.99407C11.1569 4.9452 11.2885 4.92004 11.4214 4.92004C11.5542 4.92004 11.6858 4.9452 11.8086 4.99407C11.9314 5.04295 12.0429 5.11458 12.1369 5.20489L15.3706 8.31133V1.55556ZM11.4214 6.71689L5.46069 12.4444H15.3706V10.5117L11.4214 6.71689ZM5.25266 3.11111C5.57468 3.11111 5.8835 3.23403 6.1112 3.45282C6.3389 3.67161 6.46681 3.96836 6.46681 4.27778C6.46681 4.5872 6.3389 4.88394 6.1112 5.10274C5.8835 5.32153 5.57468 5.44444 5.25266 5.44444C4.93065 5.44444 4.62183 5.32153 4.39413 5.10274C4.16643 4.88394 4.03851 4.5872 4.03851 4.27778C4.03851 3.96836 4.16643 3.67161 4.39413 3.45282C4.62183 3.23403 4.93065 3.11111 5.25266 3.11111Z" fill="#1D1D1D" fill-opacity="0.6"/>
</svg>
