<svg width="24" height="24" viewBox="0 0 24 24" fill="none" xmlns="http://www.w3.org/2000/svg">
<g id="icon/male/light">
<g id="Group">
<g id="Group_2">
<path id="Vector" d="M4.94254 9.85486L4.94191 9.85549C2.40515 12.3922 2.40515 16.5169 4.94191 19.0536C7.47867 21.5904 11.6033 21.5904 14.1401 19.0536C16.6768 16.5169 16.6768 12.3922 14.1401 9.85549L14.1394 9.85486C12.8714 8.59132 11.2055 7.955 9.54099 7.955C7.87646 7.955 6.2106 8.59132 4.94254 9.85486ZM9.54099 21.4999C7.73505 21.4999 5.93484 20.8114 4.5616 19.4381C1.81541 16.6919 1.81541 12.2214 4.5616 9.47517C7.30779 6.72898 11.7784 6.72898 14.5246 9.47517C17.2707 12.2213 17.2707 16.6918 14.5247 19.438C13.1472 20.8114 11.3426 21.4999 9.54099 21.4999Z" fill="#7C7C8D" stroke="#7C7C8D"/>
</g>
<g id="Group_3">
<g id="Group_4">
<g id="Group_5">
<path id="Vector_2" d="M14.3313 10.4388C14.1355 10.4388 13.9397 10.3639 13.7855 10.2139C13.4856 9.91388 13.4856 9.42642 13.7855 9.12644L20.685 2.22694C20.985 1.92696 21.4725 1.92696 21.7725 2.22694C22.0724 2.52692 22.0724 3.01438 21.7725 3.31436L14.8771 10.2139C14.723 10.3639 14.5271 10.4388 14.3313 10.4388Z" fill="#7C7C8D"/>
</g>
<g id="Group_6">
<g id="Group_7">
<path id="Vector_3" d="M21.0197 9.22983C21.0113 9.22983 20.9988 9.22983 20.9905 9.22983C20.5655 9.21316 20.2364 8.85902 20.2489 8.43405L20.4281 3.5719L15.5659 3.74689C15.1284 3.76772 14.7826 3.43024 14.7701 3.00528C14.7535 2.58031 15.0868 2.222 15.5117 2.2095L21.203 2.00118C21.4155 1.98868 21.6238 2.07618 21.7738 2.22616C21.9238 2.37615 22.0071 2.58447 21.9988 2.79696L21.7905 8.48405C21.7738 8.90485 21.4322 9.22983 21.0197 9.22983Z" fill="#7C7C8D"/>
</g>
</g>
</g>
</g>
</g>
</g>
</svg>
