<svg xmlns="http://www.w3.org/2000/svg" width="18" height="16" viewBox="0 0 18 16" fill="none">
  <path d="M12.9837 0.179688C11.2688 0.179688 9.80345 1.40205 8.99836 2.24478C8.19327 1.40205 6.73118 0.179688 5.01709 0.179688C2.06264 0.179687 0 2.23905 0 5.18696C0 8.43514 2.56173 10.5346 5.04 12.5653C6.21 13.5251 7.42091 14.5167 8.34955 15.6163C8.50582 15.8004 8.73491 15.9068 8.97545 15.9068H9.02291C9.26427 15.9068 9.49255 15.7996 9.648 15.6163C10.5783 14.5167 11.7884 13.5242 12.9592 12.5653C15.4366 10.5354 18 8.43596 18 5.18696C18 2.23905 15.9374 0.179688 12.9837 0.179688Z" fill="#D4D5D6"/>
</svg>