<svg width="22" height="22" viewBox="0 0 22 22" fill="none" xmlns="http://www.w3.org/2000/svg">
<path d="M10.9999 0.75C7.15005 0.75 3.92946 3.2816 3.92946 6.49499V8.51845H1.65019C1.20766 8.51845 0.75 8.81838 0.75 9.29229V20.4762C0.75 20.9501 1.20767 21.25 1.65019 21.25H20.3498C20.7923 21.25 21.25 20.9501 21.25 20.4762V9.29229C21.25 8.81837 20.7923 8.51845 20.3498 8.51845H18.0705V6.49499C18.0705 3.28153 14.8495 0.75 10.9999 0.75ZM5.72976 8.51845V6.50153C5.80359 5.1112 6.46919 4.07404 7.43761 3.37789C8.41355 2.67633 9.70236 2.31887 11.0023 2.3192C12.3023 2.31952 13.5907 2.67762 14.5658 3.37932C15.5335 4.07564 16.1978 5.11244 16.27 6.5014V8.51845H5.72976ZM2.55024 19.7024V10.0662H19.4496V19.7024H2.55024Z" fill="#7C7C8D" stroke="#7C7C8D" stroke-width="0.5"/>
</svg>
