<svg width="22" height="21" viewBox="0 0 22 21" fill="none" xmlns="http://www.w3.org/2000/svg">
<g id="Group 1261156654">
<path id="Vector" d="M1.33333 15.15H14.6667C14.9335 15.15 15.15 14.9335 15.15 14.6667C15.15 14.3998 14.9335 14.1833 14.6667 14.1833H1.81667V5.81667H12.6667C12.9335 5.81667 13.15 5.6002 13.15 5.33333C13.15 5.06646 12.9335 4.85 12.6667 4.85H1.33333C1.06646 4.85 0.85 5.06646 0.85 5.33333V14.6667C0.85 14.9335 1.06646 15.15 1.33333 15.15Z" fill="#5F6165" stroke="#5F6165" stroke-width="0.3"/>
<path id="Vector_2" d="M14.183 14.6666C14.183 14.9335 14.3995 15.15 14.6663 15.15C16.0357 15.15 17.1497 14.036 17.1497 12.6666V10.6666C17.1497 10.3998 16.9332 10.1833 16.6663 10.1833C16.3995 10.1833 16.183 10.3998 16.183 10.6666V12.6666C16.183 13.5031 15.5028 14.1833 14.6663 14.1833C14.3995 14.1833 14.183 14.3998 14.183 14.6666Z" fill="#5F6165" stroke="#5F6165" stroke-width="0.3"/>
<path id="Vector_3" d="M16.1837 12.6667C16.1837 12.9335 16.4001 13.15 16.667 13.15C16.9339 13.15 17.1503 12.9335 17.1503 12.6667V3.33333C17.1503 1.96402 16.0363 0.85 14.667 0.85H14.0003C13.7335 0.85 13.517 1.06646 13.517 1.33333V10.6667C13.517 10.9335 13.7335 11.15 14.0003 11.15H14.667C15.5034 11.15 16.1837 11.8302 16.1837 12.6667ZM14.667 10.1833H14.4837V1.81671H14.667C15.5034 1.81671 16.1837 2.49695 16.1837 3.33338V10.7011C15.7642 10.3769 15.2381 10.1833 14.667 10.1833Z" fill="#5F6165" stroke="#5F6165" stroke-width="0.3"/>
<path id="Vector_4" d="M1.33333 20.4834H20.6667C20.9335 20.4834 21.15 20.2669 21.15 20C21.15 19.7332 20.9335 19.5167 20.6667 19.5167H1.33333C1.06646 19.5167 0.85 19.7332 0.85 20C0.85 20.2669 1.06646 20.4834 1.33333 20.4834Z" fill="#5F6165" stroke="#5F6165" stroke-width="0.3"/>
<path id="Vector_5" d="M1.33333 19.15H20.6667C20.9335 19.15 21.15 18.9335 21.15 18.6666C21.15 18.3998 20.9335 18.1833 20.6667 18.1833H1.33333C1.06646 18.1833 0.85 18.3998 0.85 18.6666C0.85 18.9335 1.06646 19.15 1.33333 19.15Z" fill="#5F6165" stroke="#5F6165" stroke-width="0.3"/>
<path id="Vector_6" d="M1.33333 17.8167H20.6667C20.9335 17.8167 21.15 17.6002 21.15 17.3333C21.15 17.0665 20.9335 16.85 20.6667 16.85H1.33333C1.06646 16.85 0.85 17.0665 0.85 17.3333C0.85 17.6002 1.06646 17.8167 1.33333 17.8167Z" fill="#5F6165" stroke="#5F6165" stroke-width="0.3"/>
<path id="Vector_7" d="M1.33333 16.4833H20.6667C20.9335 16.4833 21.15 16.2668 21.15 16V6.66665C21.15 6.39978 20.9335 6.18331 20.6667 6.18331H18C17.7331 6.18331 17.5167 6.39978 17.5167 6.66665C17.5167 6.93352 17.7331 7.14998 18 7.14998H20.1833V15.5166H1.33333C1.06646 15.5166 0.85 15.7331 0.85 16C0.85 16.2668 1.06646 16.4833 1.33333 16.4833Z" fill="#5F6165" stroke="#5F6165" stroke-width="0.3"/>
<path id="Vector_8" d="M11.2943 7.07221H11.6339C12.4398 7.07221 13.0946 7.72703 13.0946 8.53296C13.0946 8.79983 12.8782 9.0163 12.6113 9.0163C12.3444 9.0163 12.128 8.79983 12.128 8.53296C12.128 8.26078 11.9061 8.03888 11.6339 8.03888H9.92122C9.65003 8.03888 9.42799 8.26063 9.42799 8.53296C9.42799 8.73894 9.55865 8.92589 9.75237 8.99718C9.75241 8.99719 9.75245 8.99721 9.7525 8.99722L12.135 9.86687L11.2943 7.07221ZM11.2943 7.07221V6.88888C11.2943 6.62201 11.0778 6.40554 10.811 6.40554C10.5441 6.40554 10.3276 6.62201 10.3276 6.88888V7.07221H9.92122C9.11609 7.07221 8.46133 7.7271 8.46133 8.53296C8.46133 9.14363 8.84611 9.69471 9.42002 9.90474L9.42011 9.90477L11.8039 10.7754L11.804 10.7755C11.9966 10.8456 12.1281 11.0318 12.1281 11.2448C12.1281 11.517 11.9062 11.7389 11.634 11.7389H9.92131C9.64937 11.7389 9.42808 11.5173 9.42808 11.2448C9.42808 10.9779 9.21162 10.7615 8.94475 10.7615C8.67788 10.7615 8.46142 10.9779 8.46142 11.2448C8.46142 12.0507 9.11618 12.7056 9.92131 12.7056H10.3277V12.8889C10.3277 13.1558 10.5442 13.3722 10.8111 13.3722C11.0779 13.3722 11.2944 13.1558 11.2944 12.8889V12.7056H11.634C12.4404 12.7056 13.0947 12.0503 13.0947 11.2387C13.0947 10.6271 12.709 10.076 12.1351 9.8669L11.2943 7.07221Z" fill="#5F6165" stroke="#5F6165" stroke-width="0.3"/>
</g>
</svg>
