<svg width="23" height="31" viewBox="0 0 23 31" fill="none" xmlns="http://www.w3.org/2000/svg">
<path d="M11.4983 19.25C14.6423 19.25 17.1903 16.7321 17.1903 13.625V6.125C17.1903 3.01786 14.6423 0.5 11.4983 0.5C8.35435 0.5 5.80636 3.01786 5.80636 6.125V13.625C5.80636 16.7321 8.35435 19.25 11.4983 19.25ZM22.5474 13.558C22.5474 13.4107 22.4269 13.2902 22.2796 13.2902H20.2706C20.1233 13.2902 20.0028 13.4107 20.0028 13.558C20.0028 18.2556 16.1959 22.0625 11.4983 22.0625C6.80078 22.0625 2.99386 18.2556 2.99386 13.558C2.99386 13.4107 2.87333 13.2902 2.726 13.2902H0.717076C0.569754 13.2902 0.449219 13.4107 0.449219 13.558C0.449219 19.2065 4.68806 23.8672 10.159 24.5268V27.9554H5.29409C4.83538 27.9554 4.46708 28.4342 4.46708 29.0268V30.2321C4.46708 30.3795 4.56083 30.5 4.67467 30.5H18.322C18.4358 30.5 18.5296 30.3795 18.5296 30.2321V29.0268C18.5296 28.4342 18.1613 27.9554 17.7026 27.9554H12.7037V24.5435C18.2383 23.9408 22.5474 19.2533 22.5474 13.558Z" fill="#1D1D1D" fill-opacity="0.5"/>
</svg>
