<svg width="10" height="12" viewBox="0 0 10 12" fill="none" xmlns="http://www.w3.org/2000/svg">
<path d="M4.9998 7.5C6.1949 7.5 7.16344 6.49286 7.16344 5.25V2.25C7.16344 1.00714 6.1949 0 4.9998 0C3.80471 0 2.83617 1.00714 2.83617 2.25V5.25C2.83617 6.49286 3.80471 7.5 4.9998 7.5ZM9.1998 5.22321C9.1998 5.16429 9.15399 5.11607 9.09799 5.11607H8.33435C8.27835 5.11607 8.23253 5.16429 8.23253 5.22321C8.23253 7.10223 6.78544 8.625 4.9998 8.625C3.21417 8.625 1.76708 7.10223 1.76708 5.22321C1.76708 5.16429 1.72126 5.11607 1.66526 5.11607H0.901623C0.845623 5.11607 0.799805 5.16429 0.799805 5.22321C0.799805 7.48259 2.41108 9.34688 4.49071 9.61071V10.9821H2.64144C2.46708 10.9821 2.32708 11.1737 2.32708 11.4107V11.8929C2.32708 11.9518 2.36271 12 2.40599 12H7.59362C7.6369 12 7.67253 11.9518 7.67253 11.8929V11.4107C7.67253 11.1737 7.53253 10.9821 7.35817 10.9821H5.45799V9.61741C7.5618 9.37634 9.1998 7.50134 9.1998 5.22321Z" fill="#55565B"/>
</svg>
