<svg width="21" height="21" viewBox="0 0 21 21" fill="none" xmlns="http://www.w3.org/2000/svg">
<path d="M6.00266 4.89708L1.98247 0.82331L0.568404 2.25622L18.5693 20.497L19.9833 19.0641L17.9632 17.0171C19.4624 15.2483 20.2831 12.9918 20.2753 10.6602C20.2753 6.51443 17.8032 3.10746 14.2761 1.53977V3.56652C16.6632 4.97106 18.2752 7.66766 18.2752 10.6602C18.2701 12.4605 17.6832 14.2096 16.6042 15.6399L15.3181 14.3367C15.9201 13.2301 16.2761 11.8661 16.2761 10.6602C16.2761 8.86547 15.5011 6.70799 14.2761 5.59327V13.2807L12.276 11.254V0.660156L6.00266 4.89708ZM2.27549 15.727H4.97261L12.276 20.6602V16.863L1.37744 5.81926C1.04732 5.98671 0.769514 6.24369 0.574948 6.56162C0.380382 6.87954 0.276683 7.24593 0.275391 7.62003V13.7003C0.275391 14.818 1.17243 15.727 2.27549 15.727Z" fill="white"/>
</svg>
