<svg width="20" height="23" viewBox="0 0 20 23" fill="none" xmlns="http://www.w3.org/2000/svg">
<path d="M10.0662 12.6324C6.7211 12.6324 4 9.91128 4 6.56619C4 3.2211 6.7211 0.5 10.0662 0.5C13.4113 0.5 16.1324 3.2211 16.1324 6.56619C16.1324 9.91128 13.4113 12.6324 10.0662 12.6324ZM10.0662 2.16611C7.6398 2.16611 5.66611 4.1398 5.66611 6.56619C5.66611 8.99259 7.6398 10.9663 10.0662 10.9663C12.4926 10.9663 14.4663 8.99259 14.4663 6.56619C14.4663 4.1398 12.4926 2.16611 10.0662 2.16611Z" fill="#1D1D1D"/>
<path d="M19.019 22.5H0.977588C0.517638 22.5 0.144531 22.1273 0.144531 21.667C0.144531 16.1134 4.74886 11.2417 9.99807 11.2417C15.3394 11.2417 19.8516 16.0157 19.8516 21.667C19.852 22.1273 19.4789 22.5 19.019 22.5ZM1.85125 20.8343H18.1449C17.7248 16.5247 14.0982 12.9078 9.99807 12.9078C5.89793 12.9078 2.2718 16.5247 1.85125 20.8343Z" fill="#1D1D1D"/>
</svg>
