<svg width="23" height="31" viewBox="0 0 23 31" fill="none" xmlns="http://www.w3.org/2000/svg">
<path d="M19 0.155762H4C3.00544 0.155762 2.05161 0.55085 1.34835 1.25411C0.645088 1.95737 0.25 2.9112 0.25 3.90576V26.4058C0.25 27.4003 0.645088 28.3542 1.34835 29.0574C2.05161 29.7607 3.00544 30.1558 4 30.1558H19C19.9946 30.1558 20.9484 29.7607 21.6516 29.0574C22.3549 28.3542 22.75 27.4003 22.75 26.4058V3.90576C22.75 2.9112 22.3549 1.95737 21.6516 1.25411C20.9484 0.55085 19.9946 0.155762 19 0.155762ZM5.875 7.65576H17.125C17.3736 7.65576 17.6121 7.75453 17.7879 7.93035C17.9637 8.10616 18.0625 8.34462 18.0625 8.59326C18.0625 8.8419 17.9637 9.08036 17.7879 9.25617C17.6121 9.43199 17.3736 9.53076 17.125 9.53076H5.875C5.62636 9.53076 5.3879 9.43199 5.21209 9.25617C5.03627 9.08036 4.9375 8.8419 4.9375 8.59326C4.9375 8.34462 5.03627 8.10616 5.21209 7.93035C5.3879 7.75453 5.62636 7.65576 5.875 7.65576ZM4.9375 12.3433C4.9375 12.0946 5.03627 11.8562 5.21209 11.6803C5.3879 11.5045 5.62636 11.4058 5.875 11.4058H17.125C17.3736 11.4058 17.6121 11.5045 17.7879 11.6803C17.9637 11.8562 18.0625 12.0946 18.0625 12.3433C18.0625 12.5919 17.9637 12.8304 17.7879 13.0062C17.6121 13.182 17.3736 13.2808 17.125 13.2808H5.875C5.62636 13.2808 5.3879 13.182 5.21209 13.0062C5.03627 12.8304 4.9375 12.5919 4.9375 12.3433ZM5.875 15.1558H17.125C17.3736 15.1558 17.6121 15.2545 17.7879 15.4303C17.9637 15.6062 18.0625 15.8446 18.0625 16.0933C18.0625 16.3419 17.9637 16.5804 17.7879 16.7562C17.6121 16.932 17.3736 17.0308 17.125 17.0308H5.875C5.62636 17.0308 5.3879 16.932 5.21209 16.7562C5.03627 16.5804 4.9375 16.3419 4.9375 16.0933C4.9375 15.8446 5.03627 15.6062 5.21209 15.4303C5.3879 15.2545 5.62636 15.1558 5.875 15.1558ZM5.875 18.9058H11.5C11.7486 18.9058 11.9871 19.0045 12.1629 19.1803C12.3387 19.3562 12.4375 19.5946 12.4375 19.8433C12.4375 20.0919 12.3387 20.3304 12.1629 20.5062C11.9871 20.682 11.7486 20.7808 11.5 20.7808H5.875C5.62636 20.7808 5.3879 20.682 5.21209 20.5062C5.03627 20.3304 4.9375 20.0919 4.9375 19.8433C4.9375 19.5946 5.03627 19.3562 5.21209 19.1803C5.3879 19.0045 5.62636 18.9058 5.875 18.9058Z" fill="#1D1D1D" fill-opacity="0.5"/>
</svg>
