<svg width="15" height="14" viewBox="0 0 15 14" fill="none" xmlns="http://www.w3.org/2000/svg">
<path d="M2.6 8.75V7.7H3.65V8.75H2.6Z" fill="#1D1D1D"/>
<path fill-rule="evenodd" clip-rule="evenodd" d="M10.3 14H1.9C1.5287 14 1.1726 13.8525 0.91005 13.5899C0.6475 13.3274 0.5 12.9713 0.5 12.6V1.4C0.5 1.0287 0.6475 0.672601 0.91005 0.41005C1.1726 0.1475 1.5287 0 1.9 0H10.3C10.6713 0 11.0274 0.1475 11.2899 0.41005C11.5525 0.672601 11.7 1.0287 11.7 1.4V12.6C11.7 12.9713 11.5525 13.3274 11.2899 13.5899C11.0274 13.8525 10.6713 14 10.3 14ZM5.4 3.15C5.4 3.05717 5.43687 2.96815 5.50251 2.90251C5.56815 2.83687 5.65717 2.8 5.75 2.8H9.95C10.0428 2.8 10.1318 2.83687 10.1975 2.90251C10.2631 2.96815 10.3 3.05717 10.3 3.15C10.3 3.24283 10.2631 3.33185 10.1975 3.39749C10.1318 3.46312 10.0428 3.5 9.95 3.5H5.75C5.65717 3.5 5.56815 3.46312 5.50251 3.39749C5.43687 3.33185 5.4 3.24283 5.4 3.15ZM5.75 4.2C5.65717 4.2 5.56815 4.23687 5.50251 4.30251C5.43687 4.36815 5.4 4.45717 5.4 4.55C5.4 4.64283 5.43687 4.73185 5.50251 4.79749C5.56815 4.86313 5.65717 4.9 5.75 4.9H9.95C10.0428 4.9 10.1318 4.86313 10.1975 4.79749C10.2631 4.73185 10.3 4.64283 10.3 4.55C10.3 4.45717 10.2631 4.36815 10.1975 4.30251C10.1318 4.23687 10.0428 4.2 9.95 4.2H5.75ZM4.59745 2.90255C4.66306 2.96818 4.69992 3.05719 4.69992 3.15C4.69992 3.24281 4.66306 3.33182 4.59745 3.39745L2.95 5.0449L2.00255 4.09745C1.96912 4.06516 1.94246 4.02654 1.92411 3.98384C1.90577 3.94114 1.89612 3.89521 1.89571 3.84874C1.89531 3.80227 1.90416 3.75618 1.92176 3.71317C1.93936 3.67015 1.96535 3.63107 1.99821 3.59821C2.03107 3.56535 2.07015 3.53936 2.11317 3.52176C2.15618 3.50416 2.20227 3.49531 2.24874 3.49571C2.29521 3.49612 2.34114 3.50577 2.38384 3.52411C2.42654 3.54246 2.46516 3.56912 2.49745 3.60255L2.95 4.0551L4.10255 2.90255C4.16818 2.83694 4.25719 2.80007 4.35 2.80007C4.44281 2.80007 4.53182 2.83694 4.59745 2.90255ZM5.75 7C5.65717 7 5.56815 7.03687 5.50251 7.10251C5.43687 7.16815 5.4 7.25717 5.4 7.35C5.4 7.44283 5.43687 7.53185 5.50251 7.59749C5.56815 7.66313 5.65717 7.7 5.75 7.7H9.95C10.0428 7.7 10.1318 7.66313 10.1975 7.59749C10.2631 7.53185 10.3 7.44283 10.3 7.35C10.3 7.25717 10.2631 7.16815 10.1975 7.10251C10.1318 7.03687 10.0428 7 9.95 7H5.75ZM5.4 8.75C5.4 8.65717 5.43687 8.56815 5.50251 8.50251C5.56815 8.43687 5.65717 8.4 5.75 8.4H9.95C10.0428 8.4 10.1318 8.43687 10.1975 8.50251C10.2631 8.56815 10.3 8.65717 10.3 8.75C10.3 8.84283 10.2631 8.93185 10.1975 8.99749C10.1318 9.06313 10.0428 9.1 9.95 9.1H5.75C5.65717 9.1 5.56815 9.06313 5.50251 8.99749C5.43687 8.93185 5.4 8.84283 5.4 8.75ZM4 7H2.25C2.15717 7 2.06815 7.03687 2.00251 7.10251C1.93687 7.16815 1.9 7.25717 1.9 7.35V9.1C1.9 9.19283 1.93687 9.28185 2.00251 9.34749C2.06815 9.41313 2.15717 9.45 2.25 9.45H4C4.09283 9.45 4.18185 9.41313 4.24749 9.34749C4.31312 9.28185 4.35 9.19283 4.35 9.1V7.35C4.35 7.25717 4.31312 7.16815 4.24749 7.10251C4.18185 7.03687 4.09283 7 4 7Z" fill="#1D1D1D"/>
<path fill-rule="evenodd" clip-rule="evenodd" d="M14.5 12.6L13.45 14L12.4 12.6V6.3H14.5V12.6Z" fill="#1D1D1D"/>
<path fill-rule="evenodd" clip-rule="evenodd" d="M13.1 3.85H13.8C13.9857 3.85 14.1637 3.92375 14.295 4.05503C14.4263 4.1863 14.5 4.36435 14.5 4.55V5.95H12.4V4.55C12.4 4.36435 12.4737 4.1863 12.605 4.05503C12.7363 3.92375 12.9143 3.85 13.1 3.85Z" fill="#1D1D1D"/>
</svg>
