<svg width="25" height="31" viewBox="0 0 25 31" fill="none" xmlns="http://www.w3.org/2000/svg">
<path d="M6.90053 19.1758C6.62453 19.1758 6.43853 19.2028 6.34253 19.2298V20.9968C6.45653 21.0238 6.59903 21.0313 6.79553 21.0313C7.51403 21.0313 7.95653 20.6683 7.95653 20.0548C7.95653 19.5058 7.57553 19.1758 6.90053 19.1758ZM12.131 19.1938C11.831 19.1938 11.636 19.2208 11.5205 19.2478V23.1628C11.636 23.1898 11.822 23.1898 11.99 23.1898C13.2155 23.1988 14.0135 22.5238 14.0135 21.0958C14.0225 19.8508 13.295 19.1938 12.131 19.1938Z" fill="#1D1D1D" fill-opacity="0.5"/>
<path d="M15.5 0.155762H3.5C2.70435 0.155762 1.94129 0.471832 1.37868 1.03444C0.81607 1.59705 0.5 2.36011 0.5 3.15576V27.1558C0.5 27.9514 0.81607 28.7145 1.37868 29.2771C1.94129 29.8397 2.70435 30.1558 3.5 30.1558H21.5C22.2956 30.1558 23.0587 29.8397 23.6213 29.2771C24.1839 28.7145 24.5 27.9514 24.5 27.1558V9.15576L15.5 0.155762ZM8.747 21.4408C8.2835 21.8758 7.5995 22.0708 6.803 22.0708C6.64856 22.0724 6.49419 22.0634 6.341 22.0438V24.1828H5V18.2788C5.60518 18.1885 6.21668 18.1474 6.8285 18.1558C7.664 18.1558 8.258 18.3148 8.6585 18.6343C9.0395 18.9373 9.2975 19.4338 9.2975 20.0188C9.296 20.6068 9.101 21.1033 8.747 21.4408ZM14.4575 23.4733C13.8275 23.9968 12.869 24.2458 11.6975 24.2458C10.9955 24.2458 10.499 24.2008 10.1615 24.1558V18.2803C10.7669 18.1919 11.3782 18.1503 11.99 18.1558C13.1255 18.1558 13.8635 18.3598 14.4395 18.7948C15.062 19.2568 15.452 19.9933 15.452 21.0508C15.452 22.1953 15.0335 22.9858 14.4575 23.4733ZM20 19.3108H17.702V20.6773H19.85V21.7783H17.702V24.1843H16.343V18.2008H20V19.3108ZM14 10.6558V3.15576L21.5 10.6558H14Z" fill="#1D1D1D" fill-opacity="0.5"/>
</svg>
