<svg width="17" height="14" viewBox="0 0 17 14" fill="none" xmlns="http://www.w3.org/2000/svg">
<path d="M14.894 0C15.3234 0 15.7351 0.163888 16.0387 0.455612C16.3423 0.747335 16.5129 1.143 16.5129 1.55556V12.4444C16.5129 12.857 16.3423 13.2527 16.0387 13.5444C15.7351 13.8361 15.3234 14 14.894 14H1.94309C1.51374 14 1.10197 13.8361 0.798374 13.5444C0.494777 13.2527 0.324219 12.857 0.324219 12.4444V1.55556C0.324219 1.143 0.494777 0.747335 0.798374 0.455612C1.10197 0.163888 1.51374 0 1.94309 0H14.894ZM14.894 1.55556H1.94309V12.4444H2.69505L10.2293 5.20489C10.3232 5.11458 10.4348 5.04295 10.5575 4.99407C10.6803 4.9452 10.8119 4.92004 10.9448 4.92004C11.0777 4.92004 11.2093 4.9452 11.3321 4.99407C11.4548 5.04295 11.5664 5.11458 11.6603 5.20489L14.894 8.31133V1.55556ZM10.9448 6.71689L4.98413 12.4444H14.894V10.5117L10.9448 6.71689ZM4.7761 3.11111C5.09811 3.11111 5.40694 3.23403 5.63464 3.45282C5.86233 3.67161 5.99025 3.96836 5.99025 4.27778C5.99025 4.5872 5.86233 4.88394 5.63464 5.10274C5.40694 5.32153 5.09811 5.44444 4.7761 5.44444C4.45409 5.44444 4.14527 5.32153 3.91757 5.10274C3.68987 4.88394 3.56195 4.5872 3.56195 4.27778C3.56195 3.96836 3.68987 3.67161 3.91757 3.45282C4.14527 3.23403 4.45409 3.11111 4.7761 3.11111Z" fill="#1D1D1D" fill-opacity="0.6"/>
</svg>
