<svg xmlns="http://www.w3.org/2000/svg" width="68" height="66" viewBox="0 0 68 66" fill="none">
  <mask id="path-1-outside-1_1895_27058" maskUnits="userSpaceOnUse" x="0.935547" y="0" width="67" height="66" fill="black">
    <rect fill="white" x="0.935547" width="67" height="66"/>
    <path d="M33.9988 9C29.2395 9 24.5872 10.4076 20.63 13.0447C16.6728 15.6819 13.5886 19.4302 11.7673 23.8156C9.94597 28.201 9.46944 33.0266 10.3979 37.6822C11.3264 42.3377 13.6182 46.6141 16.9835 49.9706C20.3488 53.327 24.6365 55.6128 29.3043 56.5388C33.9721 57.4649 38.8104 56.9896 43.2074 55.1731C47.6044 53.3566 51.3625 50.2805 54.0066 46.3337C56.6507 42.3869 58.062 37.7467 58.062 33C58.062 26.6348 55.5268 20.5303 51.0141 16.0294C46.5013 11.5286 40.3808 9 33.9988 9ZM46.7987 34.5343L26.1731 44.82C25.911 44.9506 25.6197 45.0123 25.327 44.999C25.0343 44.9858 24.7498 44.8982 24.5006 44.7444C24.2514 44.5907 24.0458 44.376 23.9032 44.1207C23.7606 43.8654 23.6858 43.578 23.686 43.2857V22.7143C23.6861 22.4222 23.7611 22.135 23.9038 21.8799C24.0465 21.6248 24.2522 21.4103 24.5014 21.2568C24.7505 21.1033 25.0349 21.0158 25.3274 21.0026C25.62 20.9895 25.9111 21.0511 26.1731 21.1817L46.7987 31.4674C47.0838 31.6099 47.3236 31.8288 47.4911 32.0994C47.6586 32.3701 47.7474 32.6819 47.7474 33C47.7474 33.3181 47.6586 33.6299 47.4911 33.9006C47.3236 34.1712 47.0838 34.39 46.7987 34.5326"/>
  </mask>
  <path d="M33.9988 9C29.2395 9 24.5872 10.4076 20.63 13.0447C16.6728 15.6819 13.5886 19.4302 11.7673 23.8156C9.94597 28.201 9.46944 33.0266 10.3979 37.6822C11.3264 42.3377 13.6182 46.6141 16.9835 49.9706C20.3488 53.327 24.6365 55.6128 29.3043 56.5388C33.9721 57.4649 38.8104 56.9896 43.2074 55.1731C47.6044 53.3566 51.3625 50.2805 54.0066 46.3337C56.6507 42.3869 58.062 37.7467 58.062 33C58.062 26.6348 55.5268 20.5303 51.0141 16.0294C46.5013 11.5286 40.3808 9 33.9988 9ZM46.7987 34.5343L26.1731 44.82C25.911 44.9506 25.6197 45.0123 25.327 44.999C25.0343 44.9858 24.7498 44.8982 24.5006 44.7444C24.2514 44.5907 24.0458 44.376 23.9032 44.1207C23.7606 43.8654 23.6858 43.578 23.686 43.2857V22.7143C23.6861 22.4222 23.7611 22.135 23.9038 21.8799C24.0465 21.6248 24.2522 21.4103 24.5014 21.2568C24.7505 21.1033 25.0349 21.0158 25.3274 21.0026C25.62 20.9895 25.9111 21.0511 26.1731 21.1817L46.7987 31.4674C47.0838 31.6099 47.3236 31.8288 47.4911 32.0994C47.6586 32.3701 47.7474 32.6819 47.7474 33C47.7474 33.3181 47.6586 33.6299 47.4911 33.9006C47.3236 34.1712 47.0838 34.39 46.7987 34.5326" fill="white"/>
  <path d="M26.1731 44.82L30.1876 52.875L30.1895 52.8741L26.1731 44.82ZM23.686 43.2857L32.686 43.2899V43.2857H23.686ZM23.686 22.7143L14.686 22.7095V22.7143H23.686ZM26.1731 21.1817L30.1895 13.1276L30.1876 13.1267L26.1731 21.1817ZM46.7987 31.4674L50.8228 23.4172L50.8152 23.4134L46.7987 31.4674ZM47.7474 33H38.7474H47.7474ZM33.9988 0C27.4648 0 21.0755 1.93236 15.6389 5.55543L25.621 20.534C28.0988 18.8828 31.0143 18 33.9988 18V0ZM15.6389 5.55543C10.2021 9.17869 5.96095 14.3311 3.45556 20.3637L20.079 27.2675C21.2162 24.5293 23.1435 22.1851 25.621 20.534L15.6389 5.55543ZM3.45556 20.3637C0.950069 26.3966 0.294145 33.0364 1.57174 39.4424L19.2241 35.9219C18.6447 33.0169 18.9419 30.0055 20.079 27.2675L3.45556 20.3637ZM1.57174 39.4424C2.84932 45.8483 6.00218 51.7293 10.6279 56.3429L23.3391 43.5982C21.2342 41.4989 19.8035 38.8271 19.2241 35.9219L1.57174 39.4424ZM10.6279 56.3429C15.2534 60.9562 21.1438 64.0953 27.5529 65.3668L31.0557 47.7109C28.1292 47.1303 25.4442 45.6978 23.3391 43.5982L10.6279 56.3429ZM27.5529 65.3668C33.9619 66.6383 40.6052 65.9859 46.6438 63.4912L39.771 46.855C37.0156 47.9933 33.9823 48.2915 31.0557 47.7109L27.5529 65.3668ZM46.6438 63.4912C52.6826 60.9964 57.8479 56.7701 61.4838 51.3429L46.5295 41.3244C44.8772 43.7909 42.5261 45.7168 39.771 46.855L46.6438 63.4912ZM61.4838 51.3429C65.1198 45.9155 67.062 39.5321 67.062 33H49.062C49.062 35.9614 48.1817 38.8583 46.5295 41.3244L61.4838 51.3429ZM67.062 33C67.062 24.2402 63.5728 15.844 57.3697 9.65711L44.6585 22.4018C47.4808 25.2166 49.062 29.0294 49.062 33H67.062ZM57.3697 9.65711C51.1673 3.47104 42.7601 0 33.9988 0V18C38.0014 18 41.8354 19.5861 44.6585 22.4018L57.3697 9.65711ZM42.7823 26.4802L22.1566 36.7659L30.1895 52.8741L50.8152 42.5884L42.7823 26.4802ZM22.1586 36.765C23.2672 36.2124 24.4976 35.9524 25.7331 36.0082L24.9209 53.9899C26.7419 54.0721 28.5547 53.6888 30.1876 52.875L22.1586 36.765ZM25.7331 36.0082C26.9688 36.064 28.171 36.434 29.2259 37.0847L19.7754 52.4042C21.3286 53.3624 23.0999 53.9076 24.9209 53.9899L25.7331 36.0082ZM29.2259 37.0847C30.2809 37.7355 31.1543 38.6462 31.7609 39.7324L16.0455 48.509C16.9373 50.1058 18.222 51.4459 19.7754 52.4042L29.2259 37.0847ZM31.7609 39.7324C32.3676 40.8188 32.6866 42.0435 32.686 43.2899L14.686 43.2815C14.6851 45.1124 15.1537 46.912 16.0455 48.509L31.7609 39.7324ZM32.686 43.2857V22.7143H14.686V43.2857H32.686ZM32.686 22.7191C32.6853 23.9649 32.3654 25.1887 31.7582 26.2741L16.0494 17.4857C15.1568 19.0812 14.687 20.8794 14.686 22.7095L32.686 22.7191ZM31.7582 26.2741C31.1511 27.3592 30.2776 28.269 29.2228 28.9189L19.7799 13.5947C18.2268 14.5517 16.942 15.8904 16.0494 17.4857L31.7582 26.2741ZM29.2228 28.9189C28.1681 29.5688 26.9663 29.9381 25.7313 29.9936L24.9236 12.0117C23.1034 12.0935 21.3329 12.6377 19.7799 13.5947L29.2228 28.9189ZM25.7313 29.9936C24.4963 30.0491 23.2666 29.789 22.1586 29.2367L30.1876 13.1267C28.5556 12.3133 26.7437 11.93 24.9236 12.0117L25.7313 29.9936ZM22.1566 29.2358L42.7823 39.5215L50.8152 23.4134L30.1895 13.1276L22.1566 29.2358ZM42.7746 39.5177C41.5685 38.9148 40.551 37.9874 39.8386 36.8364L55.1437 27.3625C54.0961 25.6702 52.5992 24.3051 50.8228 23.4172L42.7746 39.5177ZM39.8386 36.8364C39.126 35.6852 38.7474 34.3568 38.7474 33H56.7474C56.7474 31.007 56.1913 29.055 55.1437 27.3625L39.8386 36.8364ZM38.7474 33C38.7474 31.6432 39.126 30.3148 39.8386 29.1636L55.1437 38.6375C56.1913 36.945 56.7474 34.9929 56.7474 33L38.7474 33ZM39.8386 29.1636C40.5511 28.0126 41.5685 27.0852 42.7746 26.4823L50.8228 42.5828C52.5991 41.6949 54.0961 40.3298 55.1437 38.6375L39.8386 29.1636Z" fill="white" fill-opacity="0.1" mask="url(#path-1-outside-1_1895_27058)"/>
</svg>