<svg width="22" height="22" viewBox="0 0 22 22" fill="none" xmlns="http://www.w3.org/2000/svg">
<g id="Group 38792">
<path id="Vector" d="M8.41177 13.5882H12.9153V12.2941H8.41177V13.5882ZM8.41177 9.70588H17.4214V8.41177H8.41177V9.70588ZM8.41177 5.82353H17.4214V4.52941H8.41177V5.82353ZM5.97365 18.1176C5.37749 18.1176 4.88012 17.9184 4.48153 17.5198C4.08294 17.1212 3.88322 16.6238 3.88235 16.0276V2.09C3.88235 1.49471 4.08208 0.997337 4.48153 0.597886C4.88098 0.198435 5.37836 -0.000859002 5.97365 3.74272e-06H19.91C20.5053 3.74272e-06 21.0027 0.199298 21.4021 0.597886C21.8016 0.996474 22.0009 1.49385 22 2.09V16.0276C22 16.6229 21.8007 17.1199 21.4021 17.5185C21.0035 17.9171 20.5057 18.1168 19.9087 18.1176H5.97365ZM5.97365 16.8235H19.91C20.1084 16.8235 20.2909 16.7407 20.4574 16.5751C20.6239 16.4094 20.7067 16.2269 20.7059 16.0276V2.09C20.7059 1.89157 20.6231 1.7091 20.4574 1.54259C20.2918 1.37608 20.1089 1.29326 19.9087 1.29412H5.97365C5.77435 1.29412 5.59145 1.37694 5.42494 1.54259C5.25843 1.70824 5.17561 1.89071 5.17647 2.09V16.0276C5.17647 16.2261 5.2593 16.4085 5.42494 16.5751C5.59059 16.7416 5.77306 16.8244 5.97235 16.8235M2.09 22C1.49471 22 0.997336 21.8007 0.597885 21.4021C0.198434 21.0035 -0.000859956 20.5062 2.78905e-06 19.91V4.67824H1.29412V19.91C1.29412 20.1084 1.37694 20.2909 1.54259 20.4574C1.70824 20.6239 1.89071 20.7067 2.09 20.7059H17.3218V22H2.09Z" fill="#5F6165"/>
</g>
</svg>
