<svg width="14" height="14" viewBox="0 0 14 14" fill="none" xmlns="http://www.w3.org/2000/svg">
<path d="M0.0470819 8.25973C-0.0732231 8.75568 0.0397892 9.28075 0.354527 9.68431C0.669258 10.0867 1.15049 10.3225 1.66208 10.3261H2.76913C3.07901 10.3261 3.32935 10.5765 3.32935 10.8852V13.4403C3.33178 13.749 3.58089 13.9994 3.88956 14.0006H13.4398C13.7484 13.9994 13.9988 13.749 14 13.4403V10.8852C14 10.5765 13.7497 10.3261 13.4398 10.3261H12.3327C11.8211 10.3225 11.3399 10.0866 11.0252 9.68431C10.7104 9.28075 10.5974 8.75565 10.7177 8.25973C10.9267 7.51099 11.6158 6.99923 12.3911 7.01504H13.4398C13.7497 7.01504 14 6.76343 14 6.45468V3.88751C13.9988 3.57877 13.7485 3.32958 13.4398 3.32715H10.8854C10.5768 3.32715 10.3264 3.07675 10.3264 2.76679V1.66552C10.3264 0.746598 9.58031 0.00146484 8.6616 0.00146484C7.74288 0.00146484 6.99676 0.746567 6.99676 1.66552V2.76679C6.99554 3.07553 6.74642 3.32594 6.43775 3.32715H3.88947C3.58081 3.32958 3.33169 3.57876 3.32926 3.88751V6.44252C3.32804 6.75004 3.07771 6.99923 2.76904 6.99923H1.71183C0.934098 6.98951 0.248826 7.50853 0.0470819 8.25973Z" fill="white"/>
</svg>
