<svg width="56" height="56" viewBox="0 0 56 56" fill="none" xmlns="http://www.w3.org/2000/svg">
<rect width="56" height="56" rx="26" fill="#1D1D1D" fill-opacity="0.1"/>
<rect x="2" y="2" width="52" height="52" rx="26" fill="#55565B"/>
<rect x="2" y="2" width="52" height="52" rx="26" fill="url(#paint0_linear_2871_103983)"/>
<path d="M28 30.75C30.7032 30.75 32.8939 28.9036 32.8939 26.625V21.125C32.8939 18.8464 30.7032 17 28 17C25.2968 17 23.1061 18.8464 23.1061 21.125V26.625C23.1061 28.9036 25.2968 30.75 28 30.75ZM37.5 26.5759C37.5 26.4679 37.3964 26.3795 37.2697 26.3795H35.5424C35.4158 26.3795 35.3121 26.4679 35.3121 26.5759C35.3121 30.0208 32.0389 32.8125 28 32.8125C23.9611 32.8125 20.6879 30.0208 20.6879 26.5759C20.6879 26.4679 20.5842 26.3795 20.4576 26.3795H18.7303C18.6036 26.3795 18.5 26.4679 18.5 26.5759C18.5 30.7181 22.1445 34.1359 26.8485 34.6196V37.1339H22.6656C22.2712 37.1339 21.9545 37.485 21.9545 37.9196V38.8036C21.9545 38.9116 22.0352 39 22.133 39H33.867C33.9648 39 34.0455 38.9116 34.0455 38.8036V37.9196C34.0455 37.485 33.7288 37.1339 33.3344 37.1339H29.0364V34.6319C33.795 34.19 37.5 30.7525 37.5 26.5759Z" fill="white"/>
<defs>
<linearGradient id="paint0_linear_2871_103983" x1="47.4071" y1="-0.507143" x2="5.71429" y2="58.8286" gradientUnits="userSpaceOnUse">
<stop stop-color="#5B5BF0"/>
<stop offset="1" stop-color="#00AFF0"/>
</linearGradient>
</defs>
</svg>
