<svg width="52" height="52" viewBox="0 0 52 52" fill="none" xmlns="http://www.w3.org/2000/svg">
<rect width="52" height="52" rx="26" fill="#55565B"/>
<rect width="52" height="52" rx="26" fill="url(#paint0_linear_2238_9429)"/>
<path d="M26 28.75C28.7032 28.75 30.8939 26.9036 30.8939 24.625V19.125C30.8939 16.8464 28.7032 15 26 15C23.2968 15 21.1061 16.8464 21.1061 19.125V24.625C21.1061 26.9036 23.2968 28.75 26 28.75ZM35.5 24.5759C35.5 24.4679 35.3964 24.3795 35.2697 24.3795H33.5424C33.4158 24.3795 33.3121 24.4679 33.3121 24.5759C33.3121 28.0208 30.0389 30.8125 26 30.8125C21.9611 30.8125 18.6879 28.0208 18.6879 24.5759C18.6879 24.4679 18.5842 24.3795 18.4576 24.3795H16.7303C16.6036 24.3795 16.5 24.4679 16.5 24.5759C16.5 28.7181 20.1445 32.1359 24.8485 32.6196V35.1339H20.6656C20.2712 35.1339 19.9545 35.485 19.9545 35.9196V36.8036C19.9545 36.9116 20.0352 37 20.133 37H31.867C31.9648 37 32.0455 36.9116 32.0455 36.8036V35.9196C32.0455 35.485 31.7288 35.1339 31.3344 35.1339H27.0364V32.6319C31.795 32.19 35.5 28.7525 35.5 24.5759Z" fill="white"/>
<defs>
<linearGradient id="paint0_linear_2238_9429" x1="45.4071" y1="-2.50714" x2="3.71429" y2="56.8286" gradientUnits="userSpaceOnUse">
<stop stop-color="#5B5BF0"/>
<stop offset="1" stop-color="#00AFF0"/>
</linearGradient>
</defs>
</svg>
