<svg width="15" height="18" viewBox="0 0 15 18" fill="none" xmlns="http://www.w3.org/2000/svg">
<path id="Vector" d="M5.32499 3.65849C5.82042 3.90255 6.02421 4.50202 5.78015 4.99746C5.53609 5.49289 4.93662 5.69667 4.44118 5.45262L5.32499 3.65849ZM0.00430107 10.5354C0.00430107 9.98307 0.452016 9.53535 1.0043 9.53535C1.55659 9.53535 2.0043 9.98307 2.0043 10.5354H0.00430107ZM6.76184 0.292893C7.15237 -0.0976311 7.78553 -0.0976311 8.17606 0.292893C8.56658 0.683417 8.56658 1.31658 8.17606 1.70711L6.76184 0.292893ZM4.23663 4.23232L3.52952 4.93943C3.139 4.54891 3.139 3.91574 3.52952 3.52522L4.23663 4.23232ZM8.17606 6.75754C8.56658 7.14806 8.56658 7.78123 8.17606 8.17175C7.78553 8.56228 7.15237 8.56228 6.76184 8.17175L8.17606 6.75754ZM4.88309 4.55555C4.44118 5.45262 4.44055 5.4523 4.43991 5.45199C4.43969 5.45188 4.43904 5.45156 4.4386 5.45134C4.43771 5.4509 4.43681 5.45045 4.43588 5.44998C4.43402 5.44906 4.43207 5.44808 4.43004 5.44704C4.42597 5.44498 4.42154 5.4427 4.41677 5.44021C4.40728 5.43524 4.39628 5.42933 4.38406 5.42248C4.3601 5.40905 4.32905 5.39069 4.2941 5.36746C4.23612 5.32891 4.1158 5.24349 4.00527 5.10581C3.89982 4.97445 3.69811 4.65873 3.77558 4.22595C3.85281 3.79451 4.15175 3.55915 4.31931 3.4577C4.62617 3.27191 5.03855 3.19804 5.44852 3.15256C5.91027 3.10134 6.55922 3.07071 7.46895 3.07071V5.07071C6.59362 5.07071 6.02681 5.10068 5.66902 5.14037C5.25944 5.1858 5.24849 5.23313 5.35515 5.16856C5.42261 5.12771 5.67723 4.95296 5.74429 4.57835C5.81159 4.20238 5.63385 3.93969 5.56489 3.85378C5.49085 3.76155 5.41954 3.71402 5.40143 3.70198C5.38643 3.69201 5.37304 3.68407 5.36175 3.67774C5.35587 3.67444 5.34996 3.67125 5.34397 3.66812C5.34096 3.66654 5.33789 3.66496 5.33474 3.66336C5.33316 3.66256 5.33157 3.66176 5.32994 3.66095C5.32913 3.66054 5.32831 3.66014 5.32749 3.65973C5.32708 3.65952 5.32645 3.65921 5.32624 3.65911C5.32562 3.6588 5.32499 3.65849 4.88309 4.55555ZM7.46895 3.07071C8.94531 3.07071 10.3885 3.5085 11.6161 4.32873L10.5049 5.99167C9.60628 5.3912 8.54975 5.07071 7.46895 5.07071V3.07071ZM11.6161 4.32873C12.8436 5.14895 13.8004 6.31477 14.3654 7.67876L12.5176 8.44412C12.104 7.44559 11.4036 6.59213 10.5049 5.99167L11.6161 4.32873ZM14.3654 7.67876C14.9304 9.04274 15.0782 10.5436 14.7902 11.9916L12.8286 11.6015C13.0394 10.5414 12.9312 9.44266 12.5176 8.44412L14.3654 7.67876ZM14.7902 11.9916C14.5021 13.4396 13.7912 14.7697 12.7472 15.8137L11.333 14.3994C12.0973 13.6352 12.6177 12.6615 12.8286 11.6015L14.7902 11.9916ZM12.7472 15.8137C11.7033 16.8576 10.3732 17.5685 8.92523 17.8566L8.53504 15.895C9.59508 15.6841 10.5688 15.1637 11.333 14.3994L12.7472 15.8137ZM8.92523 17.8566C7.47723 18.1446 5.97634 17.9968 4.61235 17.4318L5.37772 15.584C6.37625 15.9976 7.47501 16.1059 8.53504 15.895L8.92523 17.8566ZM4.61235 17.4318C3.24836 16.8668 2.08255 15.91 1.26232 14.6825L2.92526 13.5713C3.52572 14.47 4.37918 15.1704 5.37772 15.584L4.61235 17.4318ZM1.26232 14.6825C0.442095 13.4549 0.00430107 12.0117 0.00430107 10.5354H2.0043C2.0043 11.6162 2.3248 12.6727 2.92526 13.5713L1.26232 14.6825ZM8.17606 1.70711L4.94373 4.93943L3.52952 3.52522L6.76184 0.292893L8.17606 1.70711ZM4.94373 3.52522L8.17606 6.75754L6.76184 8.17175L3.52952 4.93943L4.94373 3.52522Z" fill="#9797A5"/>
</svg>
