<svg width="42" height="60" viewBox="0 0 42 60" fill="none" xmlns="http://www.w3.org/2000/svg">
<mask id="path-1-inside-1_3021_42142" fill="white">
<path d="M20.7168 0C22.1038 -6.06291e-08 23.2285 1.12466 23.2285 2.51172V3.76758H27.3721C28.5511 3.76758 29.5068 4.72335 29.5068 5.90234V10.0459H30.7627C32.1497 10.0459 33.2744 11.1706 33.2744 12.5576C33.2744 13.9446 32.1497 15.0693 30.7627 15.0693H29.5068V19.2129C29.5068 20.3919 28.5511 21.3477 27.3721 21.3477H14.0508C12.8718 21.3477 11.916 20.3919 11.916 19.2129V15.0693H10.6602C9.27316 15.0693 8.14849 13.9446 8.14844 12.5576C8.14844 11.1706 9.27312 10.0459 10.6602 10.0459H11.916V5.90234C11.916 4.72335 12.8718 3.76758 14.0508 3.76758H18.1943V2.51172C18.1943 1.12466 19.319 -6.06291e-08 20.7061 0H20.7168Z"/>
</mask>
<path d="M20.7168 0C22.1038 -6.06291e-08 23.2285 1.12466 23.2285 2.51172V3.76758H27.3721C28.5511 3.76758 29.5068 4.72335 29.5068 5.90234V10.0459H30.7627C32.1497 10.0459 33.2744 11.1706 33.2744 12.5576C33.2744 13.9446 32.1497 15.0693 30.7627 15.0693H29.5068V19.2129C29.5068 20.3919 28.5511 21.3477 27.3721 21.3477H14.0508C12.8718 21.3477 11.916 20.3919 11.916 19.2129V15.0693H10.6602C9.27316 15.0693 8.14849 13.9446 8.14844 12.5576C8.14844 11.1706 9.27312 10.0459 10.6602 10.0459H11.916V5.90234C11.916 4.72335 12.8718 3.76758 14.0508 3.76758H18.1943V2.51172C18.1943 1.12466 19.319 -6.06291e-08 20.7061 0H20.7168Z" fill="#D8E2EA"/>
<path d="M20.7168 0V0.624999V0ZM23.2285 2.51172H23.8535H23.2285ZM23.2285 3.76758H22.6035V4.39258H23.2285V3.76758ZM27.3721 3.76758V4.39258V3.76758ZM29.5068 5.90234H30.1318H29.5068ZM29.5068 10.0459H28.8818V10.6709H29.5068V10.0459ZM30.7627 10.0459V10.6709V10.0459ZM33.2744 12.5576L33.8994 12.5576V12.5576H33.2744ZM30.7627 15.0693V15.6943V15.0693ZM29.5068 15.0693V14.4443H28.8818V15.0693H29.5068ZM29.5068 19.2129H28.8818H29.5068ZM27.3721 21.3477V21.9727V21.3477ZM14.0508 21.3477V21.9727V21.3477ZM11.916 19.2129H12.541H11.916ZM11.916 15.0693H12.541V14.4443H11.916V15.0693ZM10.6602 15.0693V15.6943V15.0693ZM8.14844 12.5576H7.52344V12.5576L8.14844 12.5576ZM10.6602 10.0459V10.6709V10.0459ZM11.916 10.0459V10.6709H12.541V10.0459H11.916ZM11.916 5.90234H11.291H11.916ZM14.0508 3.76758V4.39258V3.76758ZM18.1943 3.76758V4.39258H18.8193V3.76758H18.1943ZM18.1943 2.51172H17.5693H18.1943ZM20.7061 0V0.624999V0ZM20.7168 0V0.624999C21.7587 0.624999 22.6035 1.46984 22.6035 2.51172H23.2285H23.8535C23.8535 0.779479 22.449 -0.625 20.7168 -0.624999V0ZM23.2285 2.51172H22.6035V3.76758H23.2285H23.8535V2.51172H23.2285ZM23.2285 3.76758V4.39258H27.3721V3.76758V3.14258H23.2285V3.76758ZM27.3721 3.76758V4.39258C28.2059 4.39258 28.8818 5.06852 28.8818 5.90234H29.5068H30.1318C30.1318 4.37817 28.8962 3.14258 27.3721 3.14258V3.76758ZM29.5068 5.90234H28.8818V10.0459H29.5068H30.1318V5.90234H29.5068ZM29.5068 10.0459V10.6709H30.7627V10.0459V9.4209H29.5068V10.0459ZM30.7627 10.0459V10.6709C31.8046 10.6709 32.6494 11.5157 32.6494 12.5576H33.2744H33.8994C33.8994 10.8254 32.4949 9.4209 30.7627 9.4209V10.0459ZM33.2744 12.5576L32.6494 12.5576C32.6494 13.5994 31.8045 14.4443 30.7627 14.4443V15.0693V15.6943C32.4949 15.6943 33.8993 14.2898 33.8994 12.5576L33.2744 12.5576ZM30.7627 15.0693V14.4443H29.5068V15.0693V15.6943H30.7627V15.0693ZM29.5068 15.0693H28.8818V19.2129H29.5068H30.1318V15.0693H29.5068ZM29.5068 19.2129H28.8818C28.8818 20.0467 28.2059 20.7227 27.3721 20.7227V21.3477V21.9727C28.8962 21.9727 30.1318 20.737 30.1318 19.2129H29.5068ZM27.3721 21.3477V20.7227H14.0508V21.3477V21.9727H27.3721V21.3477ZM14.0508 21.3477V20.7227C13.217 20.7227 12.541 20.0467 12.541 19.2129H11.916H11.291C11.291 20.737 12.5266 21.9727 14.0508 21.9727V21.3477ZM11.916 19.2129H12.541V15.0693H11.916H11.291V19.2129H11.916ZM11.916 15.0693V14.4443H10.6602V15.0693V15.6943H11.916V15.0693ZM10.6602 15.0693V14.4443C9.61836 14.4443 8.77348 13.5994 8.77344 12.5576L8.14844 12.5576L7.52344 12.5576C7.5235 14.2898 8.92796 15.6943 10.6602 15.6943V15.0693ZM8.14844 12.5576H8.77344C8.77344 11.5157 9.6183 10.6709 10.6602 10.6709V10.0459V9.4209C8.92795 9.4209 7.52344 10.8254 7.52344 12.5576H8.14844ZM10.6602 10.0459V10.6709H11.916V10.0459V9.4209H10.6602V10.0459ZM11.916 10.0459H12.541V5.90234H11.916H11.291V10.0459H11.916ZM11.916 5.90234H12.541C12.541 5.06852 13.217 4.39258 14.0508 4.39258V3.76758V3.14258C12.5266 3.14258 11.291 4.37817 11.291 5.90234H11.916ZM14.0508 3.76758V4.39258H18.1943V3.76758V3.14258H14.0508V3.76758ZM18.1943 3.76758H18.8193V2.51172H18.1943H17.5693V3.76758H18.1943ZM18.1943 2.51172H18.8193C18.8193 1.46984 19.6642 0.624999 20.7061 0.624999V0V-0.624999C18.9738 -0.625 17.5693 0.779479 17.5693 2.51172H18.1943ZM20.7061 0V0.624999H20.7168V0V-0.624999H20.7061V0Z" fill="#33444E" mask="url(#path-1-inside-1_3021_42142)"/>
<path fill-rule="evenodd" clip-rule="evenodd" d="M17.4773 9.61303C17.3541 9.44067 17.1571 9.35449 16.9354 9.35449C16.7384 9.35449 16.5413 9.44067 16.3935 9.61303C16.2704 9.75666 16.1719 9.98647 16.1719 10.245C16.1719 10.4748 16.2704 10.7046 16.3935 10.8483C16.5413 11.0206 16.7384 11.1068 16.9354 11.1068C17.1571 11.1068 17.3541 11.0206 17.4773 10.8483C17.6251 10.7046 17.699 10.4748 17.699 10.245C17.699 9.98647 17.6251 9.75666 17.4773 9.61303Z" fill="#32363D"/>
<path fill-rule="evenodd" clip-rule="evenodd" d="M19.4492 10.245C19.4492 10.245 16.9369 6.76914 14.4492 10.245C16.9369 13.6922 19.4492 10.245 19.4492 10.245ZM16.9369 9.06726C17.2325 9.06726 17.4788 9.18216 17.6512 9.41197C17.8482 9.61306 17.9468 9.90032 17.9468 10.245C17.9468 10.561 17.8482 10.8483 17.6512 11.0781C17.4788 11.2792 17.2325 11.3941 16.9369 11.3941C16.666 11.3941 16.4197 11.2792 16.2226 11.0781C16.0502 10.8483 15.927 10.561 15.927 10.245C15.927 9.90032 16.0502 9.61306 16.2226 9.41197C16.4197 9.18216 16.666 9.06726 16.9369 9.06726Z" fill="#32363D"/>
<path fill-rule="evenodd" clip-rule="evenodd" d="M24.9773 9.61303C24.8541 9.44067 24.6571 9.35449 24.4354 9.35449C24.2384 9.35449 24.0413 9.44067 23.8935 9.61303C23.7704 9.75666 23.6719 9.98647 23.6719 10.245C23.6719 10.4748 23.7704 10.7046 23.8935 10.8483C24.0413 11.0206 24.2384 11.1068 24.4354 11.1068C24.6571 11.1068 24.8541 11.0206 24.9773 10.8483C25.1251 10.7046 25.199 10.4748 25.199 10.245C25.199 9.98647 25.1251 9.75666 24.9773 9.61303Z" fill="#32363D"/>
<path fill-rule="evenodd" clip-rule="evenodd" d="M26.9492 10.245C26.9492 10.245 24.4369 6.76914 21.9492 10.245C24.4369 13.6922 26.9492 10.245 26.9492 10.245ZM24.4369 9.06726C24.7325 9.06726 24.9788 9.18216 25.1512 9.41197C25.3482 9.61306 25.4468 9.90032 25.4468 10.245C25.4468 10.561 25.3482 10.8483 25.1512 11.0781C24.9788 11.2792 24.7325 11.3941 24.4369 11.3941C24.166 11.3941 23.9197 11.2792 23.7226 11.0781C23.5502 10.8483 23.427 10.561 23.427 10.245C23.427 9.90032 23.5502 9.61306 23.7226 9.41197C23.9197 9.18216 24.166 9.06726 24.4369 9.06726Z" fill="#32363D"/>
<path d="M20.7818 16.163C19.9223 16.163 19.0627 16.1617 18.2032 16.1639C17.9794 16.1646 17.7455 16.1195 17.7313 15.8709C17.713 15.5511 18.0063 15.6235 18.191 15.6227C19.8508 15.615 21.5107 15.6171 23.1705 15.6185C23.4077 15.6187 23.6922 15.5978 23.668 15.9504C23.6463 16.265 23.3683 16.169 23.1826 16.1711C22.3825 16.18 21.5822 16.1749 20.7819 16.1749C20.7818 16.1709 20.7818 16.167 20.7818 16.163Z" fill="#2B333E"/>
<path d="M24.012 25.3485C24.0373 25.4002 24.0462 25.4545 24.0389 25.5115C24.2748 25.8453 24.6301 25.7253 24.9387 25.7276C26.5675 25.7399 28.1967 25.7206 29.8255 25.7371C31.5066 25.7542 32.2077 26.5153 32.3011 28.1917C32.4049 30.0539 32.4292 31.916 32.485 33.7785C32.5827 37.0421 31.6637 40.083 30.7372 43.1537C29.5814 46.9841 26.687 48.8007 23.2119 50.0347C21.6458 50.5908 20.0343 51.0244 18.4043 51.2848C16.2443 51.6299 14.0567 51.7637 12.4326 49.7988C12.2819 49.6165 12.0759 49.4883 11.8679 49.3722C10.778 48.567 10.4177 47.3056 9.92398 46.1509C8.62882 43.1217 8.11582 39.9162 7.94349 36.647C7.91221 36.0536 7.73857 35.4817 7.70468 34.8894C7.77223 33.1458 7.8207 31.4028 7.62891 29.6631C8.00709 29.3778 8.01 28.9675 8.01596 28.5486C8.03354 27.3134 8.68294 26.4572 9.87268 26.2939C11.7946 26.0301 13.7309 25.9438 15.6616 26.2333C16.2116 26.3158 16.766 26.0152 17.3042 26.2858C17.5818 26.6603 17.9824 26.7202 18.4082 26.7209C19.7645 26.7229 21.1209 26.7317 22.4769 26.7139C22.7756 26.71 23.2159 26.8256 23.2789 26.3852C23.3349 25.9946 22.8856 26.0285 22.6485 25.8909C22.5162 25.8141 22.4024 25.7316 22.4011 25.5594C22.9005 25.2005 23.4527 25.2467 24.012 25.3485Z" fill="#D5DFE7"/>
<path d="M11.9381 49.2193C12.4483 49.2583 12.6583 49.7062 12.9725 50C13.7821 50.7571 14.6825 51.1809 15.8331 51.1871C19.5228 51.2066 22.9116 50.066 26.1481 48.468C27.5163 47.7924 28.7654 46.7536 29.5285 45.4057C30.1734 44.2663 30.4996 42.9443 30.948 41.6964C32.2745 38.0058 32.3526 34.1705 32.1945 30.3204C32.1572 29.4103 32.0547 28.5001 32.0199 27.585C31.9823 26.5967 31.0601 25.931 29.7783 25.9173C28.0292 25.8987 26.2798 25.9181 24.5306 25.9059C24.298 25.9043 23.8402 26.0909 24.0388 25.5117C24.0898 25.5437 24.1453 25.5623 24.2055 25.5671C25.8466 25.7479 27.4932 25.5907 29.1361 25.6482C29.8085 25.6717 30.4861 25.5605 31.1533 25.7223C32.177 25.9319 32.8654 26.7696 32.9312 27.8293C32.9663 28.3958 32.742 29.0323 33.3046 29.4836C33.4872 29.6605 33.5395 29.8936 33.5401 30.1288C33.5433 31.565 33.6534 33.0032 33.4751 34.4357C33.1436 35.1131 33.086 35.8524 32.9969 36.5861C32.5096 40.5975 31.7687 44.54 29.8136 48.147C29.1216 49.4235 28.3355 50.6341 27.2925 51.6594C26.4491 51.9866 25.5624 51.9352 24.6824 51.9617C24.4683 51.9682 24.1404 51.9221 24.1282 52.2413C24.1191 52.4784 24.4093 52.4985 24.6006 52.5532C25.0913 52.6935 25.5558 52.8654 25.7697 53.3925C25.8586 54.1887 25.5214 54.8934 25.2816 55.6149C25.1306 56.069 24.7279 56.1755 24.2958 56.2317C22.7495 56.4327 21.1908 56.5215 19.6496 56.7588C19.1771 56.7793 18.7027 56.7371 18.2303 56.7629C16.9023 56.8355 16.0935 55.9541 15.3568 55.0857C14.7494 54.3697 15.6937 52.9172 16.7718 52.9021C18.069 52.884 19.3403 52.579 20.643 52.626C19.2938 52.4479 17.9423 52.5096 16.5933 52.4925C15.8286 52.4828 15.0666 52.5646 14.4426 51.9181C14.0009 51.4603 13.924 52.1721 13.6433 52.2703C13.2831 51.2156 12.5347 50.4121 11.8842 49.5444C11.8086 49.4435 11.8621 49.3186 11.9381 49.2193Z" fill="#BFC8D1"/>
<path d="M10.8058 59.8975C10.3584 59.5604 10.5151 59.1138 10.5807 58.6804C10.7087 57.8357 10.8364 56.9899 10.5026 56.1591C10.651 56.003 10.8276 55.999 11.0168 56.0622C11.2057 56.1633 11.3206 56.337 11.434 56.5081C11.7823 57.0337 12.1055 57.4037 12.7088 56.7245C13.07 56.3179 13.6462 56.4377 14.1388 56.5016C14.634 56.5658 15.1201 56.6958 15.5842 56.8936C16.1326 57.0984 16.6588 57.3541 17.2034 57.5675C17.8869 57.8353 18.5377 57.915 19.2231 57.5329C19.7515 57.2384 20.3655 57.348 20.948 57.3271C21.6186 57.3119 22.289 57.2755 22.9551 57.3852C24.739 57.638 26.53 57.4732 28.3159 57.4767C28.4859 57.4238 28.6376 57.3324 28.7841 57.2338C28.8514 57.1867 28.9245 57.1477 28.999 57.1128C29.2241 57.0378 29.4468 56.9405 29.6949 56.9928C29.7656 57.6476 29.6817 58.3123 29.878 58.9628C29.954 59.2147 29.9884 59.5471 29.6636 59.7311C29.2915 60.0633 28.8298 59.9902 28.3935 59.9954C26.2322 60.0211 24.0712 59.9345 21.9098 59.9667C18.3752 59.9564 14.8404 59.973 11.3058 59.96C11.1365 59.9611 10.9727 59.9171 10.8058 59.8975Z" fill="#D3DDE6"/>
<path d="M0.558594 41.5848C0.893378 40.0287 1.65093 38.6251 2.17575 37.1373C2.21183 37.035 2.40575 36.9883 2.52629 36.9158C2.8208 36.6488 3.18693 36.6546 3.53089 36.7159C4.48316 36.8857 5.47192 36.8562 6.3875 37.2285C6.85082 39.1222 6.72815 41.0204 6.31182 42.8922C6.10435 43.825 6.06702 44.8228 5.51538 45.662C5.35265 45.7319 5.23667 45.6365 5.11755 45.5517C4.66502 45.2508 4.10721 45.3814 3.62668 45.1915C3.01712 45.058 2.39976 45.1584 1.78793 45.1203C1.47887 45.1011 1.13355 45.2179 0.887266 44.9152C0.560288 44.2188 0.791022 43.4775 0.711874 42.7616C0.668474 42.3687 0.858603 41.944 0.558594 41.5848Z" fill="#D2DFE6"/>
<path d="M7.62889 29.6632C7.74175 29.8925 8.01543 30.0102 8.01167 30.3296C7.9946 31.7762 8.00261 33.2231 7.98983 34.6698C7.98889 34.7754 7.8944 34.8801 7.84341 34.9853C7.36001 35.7336 6.6134 36.1581 5.87081 36.5906C5.16216 36.7467 4.47163 36.6028 3.78627 36.4508C3.47533 36.3818 3.13566 36.2936 3.20226 35.8415C2.28954 35.5267 1.58681 34.963 1.09175 34.1253C0.0351923 32.3375 0.448249 29.9222 2.04096 28.6662C3.54303 27.4817 5.48807 27.6899 7.09578 29.2041C7.26635 29.3647 7.45086 29.5105 7.62889 29.6632Z" fill="#33424A"/>
<path d="M33.2656 34.6339C33.2784 32.9171 33.2911 31.2003 33.3038 29.4834C33.9598 28.879 34.6374 28.2953 35.5105 28.0349C37.101 27.5606 38.7305 28.1895 39.6004 29.5822C40.6076 31.1949 40.4451 33.3785 39.2119 34.7029C38.9972 34.9335 38.652 35.0888 38.8244 35.5022C38.064 36.1996 37.0325 35.9485 36.1591 36.2572C35.915 36.3434 35.6336 36.3239 35.3683 36.3356C34.4209 36.0746 33.6216 35.6277 33.2656 34.6339Z" fill="#33444E"/>
<path d="M3.39272 53.3053C3.09351 52.8164 3.10963 52.1235 2.45917 51.8616C2.44641 51.7732 2.43554 51.6602 2.49616 51.6101C3.63442 50.6693 4.41997 49.3436 5.75716 48.6196C7.79597 48.8672 9.22844 50.2725 10.8502 51.3079C11.555 51.7579 12.3734 52.1311 12.6037 53.0695C12.5665 53.4777 12.259 53.7643 12.128 54.1308C11.8838 54.5825 11.8631 55.1388 11.4799 55.5259C11.2009 55.7635 10.9281 55.6533 10.6616 55.5034C9.14191 54.6484 7.4603 54.0934 6.01022 53.1296C5.013 52.4667 4.21974 52.5667 3.39272 53.3053Z" fill="#D7E4EA"/>
<path d="M40.9221 44.7826C40.8033 45.2022 40.6654 45.6175 40.5706 46.0424C40.4447 46.6066 40.1564 47.1248 40.7571 47.7044C41.1873 48.1196 40.7437 48.9114 41.0693 49.4898C41.1954 49.7138 41.2142 49.9986 41.2797 50.2563C41.7142 51.9665 41.6025 52.1127 39.7718 52.2434C39.512 52.2619 39.233 52.1882 39.0078 52.3898C38.472 52.1157 38.5272 51.3667 37.9734 51.107C37.3392 50.539 36.883 49.8132 36.2856 49.2119C36.0982 49.0232 35.9536 48.7984 36.0425 48.5044C36.7831 47.7299 37.1799 46.8494 36.8854 45.7552C36.9513 45.5775 37.0649 45.4422 37.2343 45.3553C37.9694 45.0917 38.812 45.4412 39.5078 44.9546C39.8213 44.7353 40.1942 44.7183 40.5515 44.6462C40.6947 44.6378 40.8227 44.6718 40.9221 44.7826Z" fill="#30363B"/>
<path d="M5.7089 48.6813C4.65131 49.7677 3.63007 50.8911 2.45877 51.8613C2.29066 51.9102 2.12507 51.9885 1.95402 52.0033C0.573763 52.1228 0.428835 51.9248 0.677911 50.5731C0.840064 49.6932 1.22605 48.8384 1.0095 47.901C0.900016 47.427 1.33071 47.287 1.63121 47.0836C1.73107 46.4627 2.17115 46.323 2.71328 46.2911C3.3119 46.2559 3.83781 46.146 4.14939 45.4897C4.38426 44.9951 4.89361 45.2027 5.311 45.3168C5.3257 45.4301 5.34041 45.5434 5.35511 45.6567C5.0725 46.7118 5.3254 47.7042 5.7089 48.6813Z" fill="#252A2F"/>
<path d="M29.0514 57.2423C28.9381 57.363 28.8248 57.4837 28.7115 57.6044C26.7696 57.7075 24.8276 57.6965 22.8855 57.6086C22.201 57.5928 21.5166 57.5771 20.8321 57.5614C20.6849 56.8989 19.8507 57.0653 19.5938 56.5353C21.1201 56.3488 22.6432 56.1238 24.1744 55.9952C24.7783 55.9445 25.0787 55.7332 25.1886 55.155C25.3032 54.5515 25.4597 53.956 25.5978 53.357C25.5185 53.1147 25.6917 53.0475 25.862 52.9942C26.0658 52.9303 26.2715 52.9883 26.4772 53.0073C27.1962 53.0736 27.9937 53.5001 28.5081 52.5801C29.541 52.664 30.371 53.0011 30.6319 54.1509C30.7346 54.6038 31.0604 54.9836 31.152 55.4515C31.1751 55.7093 31.1458 55.9499 30.9262 56.1263C30.4722 56.3528 30.02 56.5818 29.6961 56.993C29.4864 57.1078 29.3226 57.3391 29.0341 57.2547C28.838 56.9813 29.0633 56.7987 29.2078 56.6465C29.8398 55.9809 29.7879 55.2001 29.632 54.3952C29.5997 54.2283 29.6043 54.0008 29.3683 53.9958C29.1159 53.9905 29.0127 54.1759 29.0123 54.4112C29.0119 54.6481 29.0357 54.8866 29.0872 55.1158C29.1909 55.5761 29.0386 55.8896 28.6663 56.1843C28.0015 56.7106 28.0346 56.8114 28.8392 57.0959C28.9245 57.126 28.9996 57.166 29.0514 57.2423Z" fill="#1D2126"/>
<path d="M30.9258 56.1261C30.9437 55.8971 30.9617 55.6682 30.9796 55.4392C31.076 54.8136 31.643 54.6127 32.0719 54.3692C34.0667 53.2368 36.088 52.1507 38.0799 51.0122C38.8243 51.1782 38.7009 51.9306 39.011 52.3901C38.618 52.4411 38.3248 52.6787 38.251 53.0346C38.1041 53.7429 37.5791 53.9286 37.0011 54.1099C35.2133 54.6707 33.4293 55.2437 31.6462 55.8196C31.3989 55.8995 31.1656 56.0229 30.9258 56.1261Z" fill="#BFC8D0"/>
<path d="M40.924 44.783C40.8135 44.7863 40.7031 44.7896 40.5926 44.793C40.1702 44.8739 39.7453 44.9007 39.3168 44.853C38.8514 44.536 38.8846 44.0386 38.8939 43.5759C38.9336 41.6027 38.5829 39.6422 38.7143 37.6668C38.7282 37.4589 38.6732 37.2578 38.6094 37.0619C38.6261 36.3468 39.4643 36.517 39.71 36.0454C40.3206 38.9293 40.9094 41.8163 40.924 44.783Z" fill="#C3CDD4"/>
<path d="M3.39062 53.305C3.63757 52.5802 4.68466 52.1122 5.3316 52.513C7.09001 53.6022 9.03308 54.3266 10.8206 55.3529C11.0101 55.4617 11.1591 55.5847 11.3714 55.4387C11.6061 55.7994 11.4645 56.0239 11.1067 56.1701C10.9047 56.1663 10.7028 56.1625 10.5008 56.1588C8.24418 55.4379 5.97699 54.7458 3.83772 53.706C3.64957 53.6146 3.47345 53.5125 3.39062 53.305Z" fill="#C1CBD3"/>
<path d="M17.5906 23.8287C16.7056 23.5628 17.3793 23.0742 17.4258 22.6752C17.5624 22.1756 17.8516 21.9077 18.4076 21.9075C19.8551 21.9069 21.3026 21.8888 22.7499 21.9179C23.101 21.925 23.4733 21.9423 23.6506 22.3431C23.5306 22.7888 23.773 23.1815 23.8349 23.6006C23.4767 23.8657 23.0577 23.8447 22.6465 23.8462C21.1721 23.8513 19.6977 23.8469 18.224 23.8496C18.0128 23.8565 17.8016 23.8438 17.5906 23.8287Z" fill="#363C42"/>
<path d="M22.4619 25.5716C22.8912 25.8655 23.8904 25.5064 23.6557 26.5554C23.4531 27.4609 22.6891 26.9994 22.1949 27.0235C20.8067 27.0913 19.413 27.0397 18.0216 27.053C17.4783 27.0582 17.1459 26.9138 17.3059 26.2858C17.68 26.1688 18.0069 25.9977 18.1165 25.578C18.299 25.3467 18.5628 25.2976 18.8291 25.2859C19.8011 25.2434 20.7737 25.2446 21.7457 25.2851C22.0123 25.2962 22.2758 25.3452 22.4619 25.5716Z" fill="#363D45"/>
<path d="M23.6532 22.3428C22.8878 22.0139 22.0839 22.2112 21.2985 22.1834C20.328 22.1491 19.3552 22.1849 18.3836 22.1699C17.9768 22.1636 17.6103 22.1639 17.5795 22.703C17.579 22.7114 17.5272 22.726 17.5026 22.7212C17.4759 22.7159 17.453 22.6912 17.4284 22.675C17.4396 22.383 17.1781 22.2319 17.0781 21.9974C17.0891 21.6484 17.0209 21.3223 17.6039 21.3343C19.5264 21.3741 21.4504 21.3475 23.3737 21.343C23.6457 21.3424 23.9162 21.3258 24.0436 21.6411C24.0103 21.9288 23.9392 22.1956 23.6532 22.3428Z" fill="#252B30"/>
<path d="M39.7101 36.0452C39.8447 36.9739 38.9533 36.6146 38.5993 36.93C37.4398 37.4948 36.239 37.8351 34.9324 37.6062C34.342 36.9042 34.3873 36.6923 35.2197 36.262C36.019 35.9263 36.8833 35.8686 37.7211 35.7146C38.0886 35.647 38.4575 35.5743 38.8254 35.5024C39.1054 35.7077 39.5101 35.7097 39.7101 36.0452Z" fill="#20252B"/>
<path d="M22.4613 25.5717C21.0129 25.5738 19.5644 25.5759 18.116 25.578C17.9099 25.5673 17.7039 25.5478 17.4978 25.5478C16.9707 25.5477 16.9454 25.2672 17.1998 24.9353C17.4582 24.5981 17.7338 24.2958 17.5922 23.8288C17.6694 23.6586 17.8115 23.6022 17.9868 23.604C18.1593 23.7006 18.2666 23.8369 18.2571 24.0443C18.2355 24.4838 18.5096 24.6049 18.8762 24.5915C20.4153 24.5353 21.9747 24.8103 23.4869 24.3121C23.7157 24.6304 24.0345 24.9031 24.0132 25.3485C23.5304 25.663 22.9848 25.5403 22.4613 25.5717Z" fill="#21252C"/>
<path d="M23.4847 24.312C23.1744 24.7115 22.7742 24.8598 22.2634 24.8488C21.0639 24.823 19.8631 24.8242 18.6635 24.8475C17.8791 24.8627 17.6833 24.6052 18.1587 23.9441C18.6192 23.6461 19.1341 23.794 19.6239 23.7827C20.6247 23.7596 21.6266 23.7681 22.6279 23.7803C22.941 23.7842 23.2856 23.6939 23.5409 23.9809C23.5222 24.0912 23.5035 24.2016 23.4847 24.312Z" fill="#3B4046"/>
<path d="M3.20316 35.8413C3.669 36.4983 4.42407 36.2219 5.03882 36.3893C5.36525 36.4782 5.73781 36.3977 6.08955 36.3936C6.63571 36.5213 6.6881 36.8206 6.38487 37.2435C5.07368 37.4376 3.8297 36.8407 2.52859 36.9158C2.20103 36.684 1.72608 36.9387 1.43558 36.5847C1.42972 36.5251 1.42386 36.4654 1.41797 36.4058C1.44682 35.9164 1.71551 35.8227 2.13348 35.97C2.51055 36.1029 2.87479 36.1184 3.20316 35.8413Z" fill="#1E242A"/>
<path d="M5.31125 45.3169C4.78361 45.3296 4.28677 45.1785 4.17236 46.0667C4.10937 46.5559 3.24776 46.537 2.71295 46.5329C2.22309 46.5291 1.87564 46.6703 1.63146 47.0837C1.616 46.9979 1.6078 46.91 1.58402 46.8266C1.20632 45.5027 1.22813 45.4913 2.6089 45.5106C3.01892 45.5163 3.46133 45.7273 3.84675 45.4051C3.85182 45.4009 3.83423 45.3612 3.8199 45.3443C3.80146 45.3225 3.77562 45.307 3.75293 45.2888C3.68949 45.2543 3.66734 45.2181 3.68627 45.18C3.70558 45.1411 3.72529 45.1216 3.7457 45.1216C4.26761 45.1864 4.81617 45.0373 5.31125 45.3169Z" fill="#535A60"/>
<path d="M23.5407 23.9804C21.7467 23.9682 19.9526 23.9561 18.1585 23.9438C18.1005 23.8303 18.0424 23.7168 17.9844 23.6035C19.9343 23.6024 21.8842 23.6013 23.8341 23.6001C23.8977 23.8513 23.7667 23.9525 23.5407 23.9804Z" fill="#161C21"/>
<path d="M31.1548 25.7222C29.089 25.7246 27.0232 25.7289 24.9574 25.7267C24.6996 25.7264 24.4193 25.7957 24.207 25.567C26.3023 25.5636 28.3975 25.5593 30.4927 25.5581C30.7249 25.558 30.9709 25.5199 31.1548 25.7222Z" fill="#D5DFE7"/>
<path d="M3.74699 45.1218C3.74541 45.1778 3.74781 45.2335 3.75421 45.2891C2.91448 45.2961 2.07464 45.3114 1.235 45.3046C1.01341 45.3028 0.596197 45.4041 0.890709 44.9155C1.83863 45.042 2.81495 44.7754 3.74699 45.1218Z" fill="#848C91"/>
<path d="M12.4741 53.1809C13.025 53.0818 13.2975 52.6781 13.523 52.2229C13.8486 51.9823 13.5943 51.5991 13.7753 51.2549C14.2162 51.4388 14.7186 51.5512 14.9383 52.0373C15.1085 52.4136 15.3889 52.2439 15.6149 52.244C17.0952 52.2444 18.5754 52.2183 20.0557 52.2065C20.2917 52.2047 20.5338 52.2043 20.7629 52.252C21.0502 52.3119 21.2533 52.5162 21.2132 52.8173C21.1738 53.1126 20.8841 53.0084 20.7029 53.0125C19.4005 53.0421 18.0974 53.0463 16.7951 53.0767C16.2753 53.0889 15.2423 54.1823 15.2788 54.674C15.2884 54.8022 15.3821 54.9568 15.4851 55.0403C16.5287 55.8866 17.4866 56.945 19.0616 56.5323C19.2267 56.489 19.4144 56.5321 19.5916 56.5351C19.7221 56.5851 19.8607 56.6928 19.9817 56.6756C20.6934 56.5746 20.9378 56.8921 20.83 57.5612C20.1302 57.6951 19.3603 57.4725 18.7501 58.0836C18.5269 58.3071 18.1225 58.137 17.8189 58.0397C17.0087 57.7803 16.2191 57.4667 15.4733 57.0517C14.9203 56.5837 14.2408 56.5322 13.5686 56.515C11.8308 56.4706 11.528 56.1042 11.9241 54.467C11.9581 54.3264 11.9979 54.1796 11.9624 54.0297C11.9727 53.6502 12.2716 53.4446 12.4741 53.1809Z" fill="#323840"/>
<path d="M27.1966 51.5361C27.206 52.3616 27.6891 52.6432 28.4393 52.6182C28.5224 52.6339 28.5462 52.68 28.5107 52.7568C28.4398 52.798 28.3689 52.8392 28.2981 52.8804C28.4123 53.0462 28.8712 52.8686 28.7336 53.2375C28.6075 53.5756 28.2341 53.5045 27.9499 53.4688C27.3989 53.3997 26.8501 53.3054 26.3054 53.1965C26.0339 53.1422 25.7824 53.0723 25.598 53.3567C25.2422 52.9782 24.8145 52.7654 24.2888 52.7128C23.9687 52.6808 23.6151 52.6006 23.6649 52.1433C23.7088 51.7392 24.0242 51.7265 24.3255 51.7407C25.2912 51.7862 26.2436 51.6607 27.1966 51.5361Z" fill="#31373F"/>
<path d="M11.9603 54.0298C12.2207 54.3005 12.058 54.5684 11.9718 54.8502C11.7012 55.7354 12.1314 56.3326 13.0882 56.3177C13.9336 56.3045 14.7207 56.4992 15.4958 56.7907C15.7565 56.8887 15.7589 56.991 15.4712 57.0517C14.8371 56.9397 14.2506 56.607 13.59 56.6268C13.1579 56.6398 12.7069 56.5924 12.589 57.2219C12.5116 57.635 12.1904 57.5702 11.9083 57.3734C11.4845 57.0776 11.2467 56.6558 11.1055 56.1704C11.2868 55.9603 11.3423 55.7046 11.3702 55.439C11.5669 54.9693 11.7636 54.4995 11.9603 54.0298Z" fill="#1B1F25"/>
<path d="M22.8828 57.6082C24.8248 57.6068 26.7667 57.6054 28.7088 57.604C28.1608 57.9173 27.5649 57.7432 26.9966 57.7392C25.6251 57.7297 24.2493 57.7934 22.8828 57.6082Z" fill="#33393D"/>
<path d="M4.27222 29.9605C5.49558 29.9703 6.24554 30.7301 6.24791 31.9621C6.25028 33.2001 5.34341 34.1064 4.13029 34.0784C3.11045 34.0549 2.16149 33.0342 2.16016 31.9594C2.1587 30.7774 3.0324 29.9506 4.27222 29.9605Z" fill="#BFC8D1"/>
<path d="M36.5487 33.9531C35.3552 33.9579 34.5248 33.1452 34.5313 31.9787C34.5384 30.6908 35.3323 29.8343 36.5091 29.8448C37.7483 29.8559 38.5756 30.6725 38.5917 31.9002C38.6078 33.1317 37.7953 33.9481 36.5487 33.9531Z" fill="#BFC8D1"/>
<path d="M28.5089 52.7566C28.4792 52.7135 28.4554 52.6673 28.4375 52.618C28.8319 52.604 29.1063 52.4358 29.4108 52.148C30.9821 50.6631 32.8421 49.5873 34.7432 48.5883C35.1726 48.3627 35.6754 48.5193 36.145 48.5118C36.5823 49.5055 37.4913 50.1344 38.0786 51.012C37.4042 51.8839 36.342 52.1745 35.464 52.739C34.1874 53.5597 32.7331 54.0754 31.5114 54.9963C31.3271 55.1352 31.1557 55.2911 30.9783 55.4391C30.7124 54.8224 30.4658 54.1728 30.1444 53.6115C29.8603 53.1153 29.2532 52.6599 28.5089 52.7566Z" fill="#D9E4E9"/>
<path d="M36.9974 45.8354C35.3578 44.9102 35.6716 43.1987 35.4532 41.759C35.2525 40.4364 34.9256 39.1026 35.0909 37.7361C35.1008 37.6533 34.9608 37.5525 34.8906 37.46C35.9151 37.6638 36.842 37.1578 37.8246 37.0553C38.0849 37.0281 38.3423 36.9726 38.601 36.9302C38.8991 36.9399 39.0338 36.9915 39.0016 37.3888C38.8214 39.6163 39.2494 41.8339 39.1537 44.0628C39.1433 44.3068 39.2024 44.5271 39.3238 44.7347C38.675 45.386 37.8584 45.1297 37.0924 45.1467C37.0414 45.1479 37.0075 45.1432 37.0059 45.1462C36.9789 45.1979 37.0041 45.2332 37.0844 45.2536C37.1712 45.3205 37.2252 45.4017 37.2374 45.5075C37.1574 45.6168 37.0774 45.7261 36.9974 45.8354Z" fill="#D8E5EA"/>
<path d="M37.0274 45.32C36.8268 45.3102 36.6262 45.3005 36.2148 45.2804C37.3366 44.769 38.3856 45.0621 39.3222 44.7344C39.7458 44.7538 40.1693 44.7732 40.5928 44.7926C40.3581 45.0871 39.8926 44.7534 39.6865 45.1258C38.8132 45.3687 37.919 45.327 37.0274 45.32Z" fill="#7C858A"/>
<path d="M37.0273 45.3202C37.9008 45.0794 38.7971 45.1498 39.6864 45.126C38.936 45.6803 38.063 45.4467 37.2358 45.5074C37.1663 45.445 37.0968 45.3826 37.0273 45.3202Z" fill="#FEFEFE"/>
<path d="M26.9068 55.9793C26.6006 55.7894 25.8677 56.374 25.8255 55.4779C25.7867 54.6513 26.6148 53.8328 27.4309 53.8399C28.2009 53.8466 28.6302 54.2647 28.6475 55.0247C28.6621 55.6675 28.1179 55.9783 26.9068 55.9793Z" fill="#33393D"/>
<path d="M29.0505 57.2418C28.7665 57.2248 28.4783 57.3789 28.1976 57.1695C27.8223 56.8896 27.6033 56.5228 28.1255 56.2958C29.0406 55.8981 29.0163 55.208 28.7664 54.4994C28.5298 53.8284 28.9918 53.8162 29.3615 53.7024C29.9577 53.5189 29.7601 54.0679 29.8374 54.2959C30.229 55.4499 29.8236 56.4094 29.0332 57.2541C29.0333 57.2542 29.0505 57.2418 29.0505 57.2418Z" fill="#33393D"/>
<path d="M3.02429 32.0287C3.02323 31.2151 3.32715 30.749 4.09518 30.717C4.72812 30.6907 5.35675 31.3777 5.34512 32.0474C5.3351 32.6258 4.62933 33.2545 3.9908 33.1634C3.32697 33.0686 2.93512 32.6714 3.02429 32.0287Z" fill="#D5DFE7"/>
<path d="M37.5626 31.8353C37.5617 32.4838 37.3116 32.8873 36.6791 32.8295C36.0603 32.773 35.5385 32.4715 35.4359 31.7965C35.3598 31.2955 35.9964 30.678 36.5148 30.7413C37.1618 30.8204 37.6178 31.1399 37.5626 31.8353Z" fill="#D5DFE7"/>
<g clip-path="url(#clip0_3021_42142)">
<path d="M22.6313 39.1043C23.3931 38.3724 23.7756 37.489 23.7959 36.3445C23.779 36.209 23.7655 35.9576 23.7113 35.7125C23.0985 32.9559 19.7164 31.8113 17.4312 33.5943C16.3377 34.4454 15.8637 35.5739 16.0161 36.9184C16.1109 37.7631 16.5002 38.4788 17.1231 39.0817C17.5159 39.4622 17.7867 39.9039 17.9357 40.4165C17.9627 40.5068 17.9594 40.5616 17.868 40.6229C17.6581 40.7615 17.5565 40.9614 17.5497 41.2065C17.5463 41.3 17.5497 41.3935 17.5497 41.487C17.5531 41.861 17.763 42.1286 18.1422 42.2446C18.1862 42.2575 18.2268 42.3091 18.2471 42.351C18.2708 42.3994 18.2708 42.4606 18.2844 42.5122C18.4909 43.3956 19.4151 43.9373 20.3292 43.689C21.0165 43.502 21.4024 43.0442 21.5311 42.3833C21.548 42.293 21.5852 42.2543 21.68 42.2285C22.0186 42.135 22.2319 41.8577 22.2386 41.5256C22.242 41.4193 22.242 41.3129 22.2386 41.2032C22.2285 40.9646 22.1303 40.768 21.9272 40.6293C21.8357 40.5681 21.8188 40.5133 21.8459 40.4133C21.9779 39.9104 22.2454 39.4751 22.6313 39.1043ZM19.8823 43.1571C19.3643 43.1571 18.9547 42.8056 18.8701 42.2801H20.9014C20.8066 42.8121 20.4003 43.1571 19.8823 43.1571ZM21.2433 41.6611C20.7896 41.6611 20.336 41.6611 19.8823 41.6611V41.6643C19.3813 41.6643 18.8768 41.6643 18.3758 41.6643C18.2234 41.6643 18.1659 41.6191 18.1659 41.4773C18.1591 41.071 18.1489 41.0678 18.5721 41.0678C19.4998 41.0743 20.4274 41.071 21.3516 41.071C21.5649 41.071 21.6055 41.1097 21.6055 41.3129C21.6089 41.6611 21.6089 41.6611 21.2433 41.6611ZM21.206 40.3779C21.1857 40.4681 21.1316 40.4681 21.0571 40.4681C20.661 40.4681 20.2649 40.4681 19.8722 40.4681C19.4862 40.4681 19.1003 40.4649 18.7143 40.4681C18.6195 40.4681 18.5823 40.4423 18.5586 40.3488C18.3927 39.704 18.0609 39.143 17.57 38.6658C16.9234 38.0404 16.595 37.2859 16.6052 36.4057C16.6221 34.8936 17.868 33.562 19.449 33.3589C21.2331 33.13 22.8717 34.2907 23.129 35.9898C23.2814 36.999 22.98 37.8888 22.2352 38.6239C21.7274 39.1301 21.3618 39.6976 21.206 40.3779Z" fill="black"/>
<path d="M20.1957 32.1367C20.189 32.3173 20.0502 32.443 19.8809 32.4398C19.7082 32.4365 19.583 32.314 19.5694 32.1303C19.5626 32.0335 19.5694 31.9336 19.5694 31.8369C19.5694 31.7434 19.566 31.6499 19.5694 31.5596C19.5796 31.3758 19.7048 31.2533 19.8775 31.2501C20.0502 31.2468 20.1856 31.3694 20.1923 31.5499C20.2025 31.7466 20.2025 31.94 20.1957 32.1367Z" fill="black"/>
<path d="M15.5071 36.6116C15.5037 36.7696 15.3784 36.8953 15.1956 36.9018C14.9857 36.9114 14.7758 36.9114 14.5659 36.9018C14.3797 36.8953 14.2578 36.7664 14.2578 36.6084C14.2578 36.4439 14.3831 36.3182 14.576 36.3085C14.6776 36.3021 14.7826 36.3085 14.8841 36.3085C14.9857 36.3085 15.0906 36.3021 15.1922 36.3085C15.3784 36.3214 15.5104 36.4504 15.5071 36.6116Z" fill="black"/>
<path d="M25.5104 36.6116C25.5071 36.7728 25.3852 36.8921 25.199 36.905C25.0974 36.9115 24.9959 36.905 24.8909 36.905C24.7893 36.905 24.6844 36.9115 24.5828 36.905C24.3898 36.8953 24.2612 36.7696 24.2578 36.6084C24.2578 36.444 24.3865 36.315 24.576 36.3085C24.7792 36.3021 24.9857 36.3021 25.1922 36.3085C25.3852 36.3182 25.5138 36.4472 25.5104 36.6116Z" fill="black"/>
<path d="M23.8967 33.1911C23.7342 33.3684 23.5513 33.5328 23.3685 33.694C23.3313 33.7295 23.2636 33.7359 23.2094 33.7553C23.1993 33.7617 23.1891 33.7714 23.1789 33.7778C23.0943 33.7166 22.9927 33.6682 22.9318 33.5908C22.8539 33.4941 22.8641 33.3684 22.9487 33.2781C23.1146 33.1072 23.2839 32.9396 23.4667 32.788C23.5818 32.6913 23.7443 32.7139 23.856 32.8138C23.9678 32.9138 23.9982 33.0782 23.8967 33.1911Z" fill="black"/>
<path d="M16.9012 39.7713C16.8572 39.8454 16.8267 39.9292 16.7691 39.9905C16.6439 40.1259 16.5051 40.2516 16.3663 40.3774C16.2173 40.5128 16.0413 40.5193 15.9092 40.3967C15.7738 40.271 15.7806 40.0969 15.9295 39.9518C16.0683 39.8164 16.2105 39.681 16.3561 39.5488C16.4543 39.4585 16.5728 39.4424 16.6947 39.494C16.8098 39.5423 16.8707 39.6358 16.9012 39.7713Z" fill="black"/>
<path d="M23.9198 40.3165C23.8623 40.4262 23.7607 40.4778 23.5982 40.4874C23.5542 40.4649 23.4729 40.4391 23.4154 40.3875C23.2698 40.2585 23.1276 40.1231 22.9888 39.9845C22.8568 39.8523 22.8534 39.6782 22.9753 39.5589C23.1005 39.4364 23.2867 39.4364 23.4323 39.5653C23.5813 39.7007 23.7268 39.8394 23.8657 39.978C23.9604 40.078 23.9808 40.1973 23.9198 40.3165Z" fill="black"/>
<path d="M16.7842 33.6618C16.659 33.7746 16.4762 33.7746 16.3374 33.6489C16.1884 33.5135 16.0462 33.378 15.904 33.2362C15.8092 33.1395 15.772 33.0137 15.8532 32.9041C15.9142 32.8203 16.0191 32.7687 16.1071 32.6978C16.2121 32.7526 16.2933 32.7751 16.3509 32.8267C16.4999 32.9557 16.6387 33.0911 16.7775 33.2265C16.9129 33.3652 16.9129 33.5457 16.7842 33.6618Z" fill="black"/>
<path d="M23.1295 35.9958C22.8689 34.2999 21.2337 33.1393 19.4495 33.3649C17.8685 33.5681 16.6226 34.8996 16.6057 36.4118C16.5955 37.2919 16.9239 38.0464 17.5706 38.6719C18.0615 39.1458 18.3899 39.7068 18.5591 40.3549C18.5828 40.4452 18.6201 40.4742 18.7149 40.4742C19.1008 40.4709 19.4868 40.4742 19.8727 40.4742C20.2688 40.4742 20.6649 40.4742 21.0576 40.4742C21.1287 40.4742 21.1863 40.4742 21.2066 40.3839C21.3657 39.7036 21.7313 39.1362 22.2392 38.6364C22.9806 37.8949 23.2819 37.005 23.1295 35.9958ZM19.8896 38.9846C19.7136 38.9878 19.5714 38.8524 19.5714 38.688C19.5714 38.53 19.7102 38.3978 19.8795 38.3946C20.0521 38.3914 20.1977 38.53 20.1977 38.6912C20.1977 38.8524 20.0589 38.9814 19.8896 38.9846ZM20.3704 37.1114C20.3297 37.35 20.2925 37.5886 20.2383 37.8239C20.2011 37.998 20.0555 38.0948 19.8795 38.0915C19.7102 38.0883 19.5782 37.9916 19.5308 37.8272C19.524 37.8078 19.5206 37.7917 19.5172 37.7723C19.4224 37.2242 19.3209 36.6761 19.2362 36.1248C19.1787 35.7573 19.4732 35.4348 19.8659 35.4187C20.2349 35.4026 20.5532 35.6992 20.5498 36.099C20.4922 36.4053 20.4313 36.76 20.3704 37.1114Z" fill="#00AFF0"/>
<path d="M19.8824 41.664C19.3813 41.664 18.8769 41.664 18.3758 41.664C18.2235 41.664 18.1693 41.6189 18.1659 41.477C18.1591 41.0708 18.149 41.0675 18.5722 41.0708C19.4998 41.074 20.4274 41.0708 21.3517 41.0708C21.565 41.0708 21.6056 41.1095 21.609 41.3158C21.6123 41.6608 21.6123 41.6608 21.2467 41.6608C20.7931 41.6608 20.3394 41.6608 19.8857 41.6608C19.8824 41.6608 19.8824 41.664 19.8824 41.664Z" fill="#00AFF0"/>
<path d="M20.9029 42.2798C20.8115 42.8085 20.4019 43.1568 19.8873 43.1568C19.3693 43.1568 18.9596 42.8053 18.875 42.2798C19.5453 42.2798 20.219 42.2798 20.9029 42.2798Z" fill="#00AFF0"/>
<path d="M19.8604 35.3564C20.263 35.3352 20.6101 35.6621 20.6064 36.0967V36.1064H20.6055L20.4297 37.1221C20.3893 37.3594 20.3515 37.6003 20.2969 37.8379C20.2522 38.0416 20.0773 38.1579 19.876 38.1543C19.6804 38.1506 19.5231 38.0365 19.4678 37.8447L19.4688 37.8438L19.4531 37.7832C19.3585 37.2361 19.2566 36.6835 19.1719 36.1348C19.1077 35.7251 19.4363 35.3751 19.8604 35.3574V35.3564Z" fill="#D5DFE7" stroke="black" stroke-width="0.125"/>
<path d="M19.877 38.332C20.0819 38.3282 20.2588 38.4926 20.2588 38.6914C20.2587 38.8909 20.0884 39.0431 19.8896 39.0469C19.6814 39.0507 19.5078 38.8895 19.5078 38.6875C19.5081 38.4919 19.6779 38.3359 19.877 38.332Z" fill="#D5DFE7" stroke="black" stroke-width="0.125"/>
</g>
<defs>
<clipPath id="clip0_3021_42142">
<rect width="11.25" height="12.5" fill="white" transform="translate(14.2578 31.25)"/>
</clipPath>
</defs>
</svg>
