<svg width="14" height="15" viewBox="0 0 14 15" fill="none" xmlns="http://www.w3.org/2000/svg">
<path d="M13.8589 13.6458L10.4689 10.2558H10.4683C11.7959 8.68143 12.2114 6.53086 11.5666 4.57477C10.9217 2.61934 9.30889 1.13757 7.3049 0.660839C5.30156 0.18474 3.19375 0.781753 1.73776 2.23776C0.281765 3.69377 -0.315239 5.80153 0.160817 7.80485C0.637549 9.80881 2.11934 11.4217 4.07479 12.0665C6.0309 12.7114 8.18159 12.2958 9.75592 10.9682L13.1459 14.3582V14.3588C13.3437 14.5496 13.6579 14.5465 13.8525 14.3525C14.0465 14.1579 14.0497 13.8437 13.8588 13.6459L13.8589 13.6458ZM5.94522 11.3573C4.64223 11.3573 3.39276 10.8396 2.47203 9.91828C1.55068 8.99757 1.03299 7.7481 1.03299 6.44512C1.03299 5.14214 1.55066 3.89269 2.47203 2.97196C3.39275 2.05062 4.64223 1.53294 5.94522 1.53294C7.24822 1.53294 8.49769 2.0506 9.41842 2.97196C10.3398 3.89267 10.8575 5.14214 10.8575 6.44512C10.8562 7.74747 10.3379 8.99627 9.41716 9.91699C8.49644 10.8377 7.24757 11.356 5.94522 11.3573Z" fill="black"/>
</svg>
