<svg width="20" height="21" viewBox="0 0 20 21" fill="none" xmlns="http://www.w3.org/2000/svg" version="1.1" xmlns:xlink="http://www.w3.org/1999/xlink" transform="matrix(-1,1.2246467991473532e-16,-1.2246467991473532e-16,-1,0,0)"><path fill-rule="evenodd" clip-rule="evenodd" d="M16.625 6.409a2.5 2.5 0 0 0-.732-1.801 2.5 2.5 0 0 0-3.196-.285.15.15 0 0 1-.145.016.15.15 0 0 1-.09-.114 2.5 2.5 0 0 0-.67-1.302A2.5 2.5 0 0 0 10 2.167a2.504 2.504 0 0 0-2.461 2.058.15.15 0 0 1-.09.114.15.15 0 0 1-.146-.016 2.5 2.5 0 0 0-1.394-.447 2.5 2.5 0 0 0-1.802.732 2.5 2.5 0 0 0-.732 1.8 2.5 2.5 0 0 0 .448 1.395.15.15 0 0 1 .016.145.15.15 0 0 1-.114.091 2.5 2.5 0 0 0-1.302.67 2.5 2.5 0 0 0-.756 1.791 2.5 2.5 0 0 0 .756 1.791 2.5 2.5 0 0 0 1.302.67c.05.01.094.043.114.091a.15.15 0 0 1-.016.145 2.5 2.5 0 0 0-.448 1.394c-.008.65.236 1.305.732 1.802a2.5 2.5 0 0 0 3.196.285.15.15 0 0 1 .145-.017c.048.02.082.063.09.114a2.5 2.5 0 0 0 .67 1.302c.454.466 1.09.756 1.792.756s1.337-.29 1.791-.756a2.5 2.5 0 0 0 .67-1.302.15.15 0 0 1 .09-.114.15.15 0 0 1 .146.016 2.5 2.5 0 0 0 1.394.448 2.5 2.5 0 0 0 1.802-.732 2.505 2.505 0 0 0 .285-3.196.15.15 0 0 1-.017-.145.15.15 0 0 1 .114-.09 2.5 2.5 0 0 0 1.302-.67c.466-.454.756-1.09.756-1.792a2.5 2.5 0 0 0-.756-1.791 2.5 2.5 0 0 0-1.302-.67.15.15 0 0 1-.114-.09.15.15 0 0 1 .016-.146 2.5 2.5 0 0 0 .448-1.394m-1.911-.623a.834.834 0 0 0-1.064-.096 1.82 1.82 0 0 1-2.83-1.172.834.834 0 0 0-1.64 0A1.82 1.82 0 0 1 6.35 5.69a.834.834 0 0 0-1.16 1.16 1.82 1.82 0 0 1-1.173 2.83.834.834 0 0 0 0 1.64 1.82 1.82 0 0 1 1.173 2.83.834.834 0 0 0 1.16 1.16 1.82 1.82 0 0 1 2.83 1.173.834.834 0 0 0 1.64 0 1.82 1.82 0 0 1 2.83-1.173.834.834 0 0 0 1.16-1.16 1.82 1.82 0 0 1 1.172-2.83.834.834 0 0 0 0-1.64 1.82 1.82 0 0 1-1.172-2.83.834.834 0 0 0-.096-1.064" fill="#FFFFFF"></path><path fill-rule="evenodd" clip-rule="evenodd" d="M10 12.167a1.667 1.667 0 1 0 0-3.333 1.667 1.667 0 0 0 0 3.333m0 1.666a3.333 3.333 0 1 0 0-6.666 3.333 3.333 0 0 0 0 6.666" fill="#FFFFFF"></path></svg>