<svg width="20" height="21" viewBox="0 0 20 21" fill="none" xmlns="http://www.w3.org/2000/svg">
<path fill-rule="evenodd" clip-rule="evenodd" d="M16.6245 6.40876C16.6332 5.75784 16.3892 5.10419 15.8925 4.60752C15.3958 4.11086 14.7422 3.86686 14.0913 3.87552C14.091 3.87552 14.0915 3.87551 14.0913 3.87552C13.7315 3.88041 13.3719 3.96249 13.0408 4.12176C12.9221 4.17884 12.807 4.24582 12.6968 4.32273C12.6543 4.35234 12.5997 4.3591 12.5518 4.33927C12.5041 4.31945 12.4701 4.27602 12.4611 4.22509C12.4375 4.09274 12.4035 3.964 12.3599 3.83974C12.2384 3.49301 12.0427 3.18118 11.7917 2.92333C11.7916 2.92316 11.7919 2.92351 11.7917 2.92333C11.3376 2.45694 10.7024 2.16675 9.99996 2.16675C9.29757 2.16675 8.66283 2.45641 8.20869 2.9228C8.20852 2.92298 8.20886 2.92263 8.20869 2.9228C7.95775 3.18065 7.76149 3.49301 7.63999 3.83974C7.59645 3.964 7.56244 4.09274 7.53885 4.22509C7.52977 4.27602 7.49587 4.31945 7.44808 4.33927C7.40026 4.3591 7.3456 4.35234 7.30314 4.32273C7.19288 4.24582 7.0778 4.17883 6.95914 4.12176C6.62805 3.96249 6.26914 3.88042 5.90937 3.87553C5.90913 3.87552 5.90962 3.87553 5.90937 3.87553C5.25846 3.86687 4.60407 4.11086 4.1074 4.60752C3.61074 5.10419 3.36673 5.75784 3.37539 6.40876C3.37539 6.40851 3.3754 6.409 3.37539 6.40876C3.38029 6.76852 3.46237 7.12817 3.62163 7.45926C3.67871 7.57791 3.7457 7.69299 3.8226 7.80326C3.85222 7.84573 3.85898 7.90038 3.83915 7.9482C3.81933 7.99599 3.7759 8.0299 3.72497 8.03897C3.59262 8.06257 3.46387 8.09657 3.3396 8.14012C2.99288 8.26162 2.68106 8.45737 2.42321 8.7083C2.42303 8.70847 2.42339 8.70813 2.42321 8.7083C1.95682 9.16244 1.66663 9.79769 1.66663 10.5001C1.66663 11.2025 1.95629 11.8372 2.42268 12.2914C2.42251 12.2912 2.42286 12.2915 2.42268 12.2914C2.68053 12.5423 2.99288 12.7385 3.3396 12.86C3.46387 12.9036 3.59262 12.9376 3.72497 12.9612C3.7759 12.9703 3.81933 13.0042 3.83915 13.052C3.85898 13.0998 3.85222 13.1544 3.8226 13.1969C3.7457 13.3072 3.67871 13.4223 3.62163 13.5409C3.46237 13.872 3.3803 14.2309 3.3754 14.5907C3.3754 14.5909 3.37541 14.5904 3.3754 14.5907C3.36674 15.2416 3.61074 15.896 4.1074 16.3926C4.60407 16.8893 5.25772 17.1333 5.90864 17.1246C5.90839 17.1247 5.90888 17.1246 5.90864 17.1246C6.2684 17.1198 6.62804 17.0377 6.95912 16.8784C7.07778 16.8213 7.19287 16.7543 7.30313 16.6774C7.3456 16.6478 7.40026 16.6411 7.44808 16.6609C7.49587 16.6807 7.52977 16.7241 7.53885 16.7751C7.56244 16.9074 7.59645 17.0362 7.64 17.1604C7.7615 17.5072 7.95725 17.819 8.20817 18.0768C8.208 18.0767 8.20835 18.077 8.20817 18.0768C8.66232 18.5432 9.29757 18.8334 9.99996 18.8334C10.7024 18.8334 11.3371 18.5437 11.7912 18.0774C11.7911 18.0775 11.7914 18.0772 11.7912 18.0774C12.0422 17.8195 12.2384 17.5072 12.3599 17.1604C12.4035 17.0362 12.4375 16.9074 12.4611 16.7751C12.4701 16.7241 12.5041 16.6807 12.5518 16.6609C12.5997 16.6411 12.6543 16.6478 12.6968 16.6774C12.8071 16.7543 12.9221 16.8213 13.0408 16.8784C13.3719 17.0377 13.7308 17.1197 14.0905 17.1246C14.0903 17.1246 14.0908 17.1246 14.0905 17.1246C14.7415 17.1333 15.3958 16.8893 15.8925 16.3926C16.3892 15.896 16.6332 15.2423 16.6245 14.5914C16.6245 14.5912 16.6245 14.5916 16.6245 14.5914C16.6196 14.2316 16.5375 13.872 16.3783 13.5409C16.3212 13.4223 16.2542 13.3072 16.1773 13.1969C16.1477 13.1544 16.1409 13.0998 16.1608 13.052C16.1806 13.0042 16.224 12.9703 16.275 12.9612C16.4073 12.9376 16.5361 12.9036 16.6603 12.86C17.007 12.7385 17.3189 12.5428 17.5767 12.2919C17.5765 12.292 17.5769 12.2917 17.5767 12.2919C18.0431 11.8377 18.3333 11.2025 18.3333 10.5001C18.3333 9.79769 18.0436 9.16295 17.5772 8.70881C17.5771 8.70864 17.5774 8.70898 17.5772 8.70881C17.3194 8.45788 17.007 8.26162 16.6603 8.14012C16.5361 8.09657 16.4073 8.06257 16.275 8.03897C16.224 8.0299 16.1806 7.99599 16.1608 7.9482C16.1409 7.90038 16.1477 7.84572 16.1773 7.80326C16.2542 7.69299 16.3212 7.57791 16.3783 7.45925C16.5376 7.12816 16.6196 6.76852 16.6245 6.40876C16.6245 6.40851 16.6245 6.409 16.6245 6.40876ZM14.714 5.78604C14.4253 5.49735 13.9742 5.46378 13.6502 5.68976C13.1586 6.03262 12.5057 6.12443 11.9134 5.87882C11.3227 5.63384 10.9256 5.10829 10.8203 4.51757C10.7509 4.12866 10.4082 3.83341 9.99996 3.83341C9.5917 3.83341 9.24898 4.12866 9.17965 4.51757C9.07436 5.10828 8.67727 5.63384 8.08649 5.87882C7.49419 6.12443 6.84133 6.03261 6.34973 5.68976C6.02571 5.46378 5.5746 5.49735 5.28591 5.78604C4.99723 6.07472 4.96366 6.52583 5.18964 6.84985C5.5325 7.34145 5.62431 7.99431 5.37869 8.58662C5.13372 9.17739 4.60816 9.57448 4.01745 9.67978C3.62854 9.7491 3.33329 10.0918 3.33329 10.5001C3.33329 10.9083 3.62854 11.2511 4.01745 11.3204C4.60816 11.4257 5.13372 11.8228 5.37869 12.4135C5.62431 13.0059 5.53249 13.6587 5.18964 14.1503C4.96366 14.4743 4.99723 14.9254 5.28591 15.2141C5.5746 15.5028 6.02571 15.5364 6.34973 15.3104C6.84132 14.9676 7.49418 14.8757 8.08649 15.1213C8.67726 15.3663 9.07436 15.8919 9.17966 16.4826C9.24898 16.8715 9.5917 17.1667 9.99996 17.1667C10.4082 17.1667 10.7509 16.8715 10.8203 16.4826C10.9256 15.8919 11.3227 15.3663 11.9134 15.1214C12.5057 14.8757 13.1586 14.9676 13.6502 15.3104C13.9742 15.5364 14.4253 15.5028 14.714 15.2141C15.0027 14.9254 15.0363 14.4743 14.8103 14.1503C14.4674 13.6587 14.3756 13.0059 14.6212 12.4135C14.8662 11.8228 15.3918 11.4257 15.9825 11.3204C16.3714 11.2511 16.6666 10.9083 16.6666 10.5001C16.6666 10.0918 16.3714 9.7491 15.9825 9.67978C15.3918 9.57448 14.8662 9.17739 14.6212 8.58662C14.3756 7.99431 14.4674 7.34144 14.8103 6.84985C15.0363 6.52583 15.0027 6.07472 14.714 5.78604Z" fill="#1D1D1D"/>
<path fill-rule="evenodd" clip-rule="evenodd" d="M9.99996 12.1667C10.9204 12.1667 11.6666 11.4206 11.6666 10.5001C11.6666 9.57961 10.9204 8.83341 9.99996 8.83341C9.07948 8.83341 8.33329 9.57961 8.33329 10.5001C8.33329 11.4206 9.07948 12.1667 9.99996 12.1667ZM9.99996 13.8334C11.8409 13.8334 13.3333 12.341 13.3333 10.5001C13.3333 8.65913 11.8409 7.16675 9.99996 7.16675C8.15901 7.16675 6.66663 8.65913 6.66663 10.5001C6.66663 12.341 8.15901 13.8334 9.99996 13.8334Z" fill="#1D1D1D"/>
</svg>
