<svg width="16" height="14" viewBox="0 0 16 14" fill="none" xmlns="http://www.w3.org/2000/svg">
<path d="M7.56027 14C7.24872 13.9987 6.94391 13.9092 6.68117 13.7418L2.87907 11.3957C2.79123 11.3366 2.68821 11.3042 2.58238 11.3023H1.94503C0.846157 11.3023 2.56155e-05 10.2309 2.56155e-05 8.87376V5.12111C-0.00546875 3.79148 0.873629 2.6926 1.95052 2.6926H2.58787C2.6937 2.6907 2.79673 2.65826 2.88457 2.5992L6.68117 0.253108C6.93166 0.0955314 7.21995 0.00829725 7.51578 0.000563151C7.81161 -0.00717095 8.10406 0.0648803 8.36244 0.209153C8.72963 0.442749 9.02899 0.768733 9.23053 1.15445C9.43206 1.54017 9.5287 1.97207 9.51077 2.4069V11.5715C9.5287 12.0063 9.43206 12.4382 9.23053 12.8239C9.02899 13.2097 8.72963 13.5356 8.36244 13.7692C8.11928 13.9137 7.84303 13.9932 7.56027 14ZM7.26357 12.8077C7.3471 12.8559 7.44184 12.8813 7.53829 12.8813C7.63473 12.8813 7.72948 12.8559 7.81301 12.8077C8.00848 12.6656 8.16452 12.476 8.26642 12.2568C8.36832 12.0376 8.41271 11.7961 8.39541 11.555V2.42338C8.41394 2.18328 8.37124 1.94241 8.2713 1.72331C8.17136 1.50422 8.01745 1.31407 7.824 1.17067C7.74047 1.12244 7.64572 1.09706 7.54928 1.09706C7.45283 1.09706 7.35808 1.12244 7.27456 1.17067L3.46147 3.53874C3.19815 3.70423 2.89338 3.79185 2.58238 3.79148H1.95052C1.49449 3.79148 1.0989 4.41234 1.0989 5.12111V8.87926C1.0989 9.59902 1.489 10.2034 1.95052 10.2089H2.58238C2.88965 10.2106 3.19033 10.2981 3.45048 10.4616L7.26357 12.8077Z" fill="#747475"/>
<path d="M10.8737 10.0332C10.7279 10.0332 10.5882 9.97534 10.4851 9.8723C10.3821 9.76927 10.3242 9.62951 10.3242 9.4838V4.29162C10.3242 4.1459 10.3821 4.00615 10.4851 3.90311C10.5882 3.80007 10.7279 3.74219 10.8737 3.74219C11.0194 3.74219 11.1591 3.80007 11.2622 3.90311C11.3652 4.00615 11.4231 4.1459 11.4231 4.29162V9.48929C11.4216 9.63405 11.3631 9.7724 11.2602 9.87425C11.1574 9.97611 11.0184 10.0332 10.8737 10.0332Z" fill="#747475"/>
<path d="M12.8229 10.6831C12.6772 10.6831 12.5374 10.6252 12.4344 10.5221C12.3313 10.4191 12.2734 10.2793 12.2734 10.1336V3.63928C12.2734 3.49356 12.3313 3.35381 12.4344 3.25077C12.5374 3.14773 12.6772 3.08984 12.8229 3.08984C12.9686 3.08984 13.1083 3.14773 13.2114 3.25077C13.3144 3.35381 13.3723 3.49356 13.3723 3.63928V10.1336C13.3723 10.2793 13.3144 10.4191 13.2114 10.5221C13.1083 10.6252 12.9686 10.6831 12.8229 10.6831Z" fill="#747475"/>
<path d="M14.774 11.3368C14.6283 11.3368 14.4886 11.2789 14.3855 11.1759C14.2825 11.0728 14.2246 10.9331 14.2246 10.7873V2.99084C14.2246 2.84512 14.2825 2.70537 14.3855 2.60233C14.4886 2.49929 14.6283 2.44141 14.774 2.44141C14.9198 2.44141 15.0595 2.49929 15.1626 2.60233C15.2656 2.70537 15.3235 2.84512 15.3235 2.99084V10.7873C15.3235 10.9331 15.2656 11.0728 15.1626 11.1759C15.0595 11.2789 14.9198 11.3368 14.774 11.3368Z" fill="#747475"/>
</svg>
