<svg width="15" height="14" viewBox="0 0 15 14" fill="none" xmlns="http://www.w3.org/2000/svg">
<path d="M14.3014 5.0283L10.1045 4.41999L8.22835 0.626698C8.1771 0.52284 8.0928 0.438765 7.98866 0.38766C7.72749 0.259074 7.41012 0.366229 7.27953 0.626698L5.4034 4.41999L1.20647 5.0283C1.09076 5.04478 0.984968 5.09918 0.903971 5.18161C0.806051 5.28199 0.752093 5.41702 0.753953 5.55705C0.755812 5.69708 0.813338 5.83065 0.913889 5.9284L3.95042 8.88093L3.23303 13.0501C3.2162 13.1471 3.22696 13.2468 3.26409 13.338C3.30121 13.4292 3.36322 13.5082 3.44307 13.566C3.52292 13.6239 3.61742 13.6583 3.71586 13.6653C3.8143 13.6723 3.91274 13.6516 4.00001 13.6056L7.75394 11.6373L11.5079 13.6056C11.6104 13.6601 11.7294 13.6782 11.8434 13.6584C12.131 13.6089 12.3244 13.3369 12.2749 13.0501L11.5575 8.88093L14.594 5.9284C14.6766 5.84762 14.7312 5.74212 14.7477 5.62672C14.7923 5.33822 14.5907 5.07116 14.3014 5.0283Z" fill="#00AFF0"/>
</svg>
