<svg width="86" height="86" viewBox="0 0 86 86" fill="none" xmlns="http://www.w3.org/2000/svg">
<g opacity="0.5">
<rect width="86" height="86" rx="43" fill="#1D1D1D" fill-opacity="0.9"/>
<rect width="86" height="86" rx="43" fill="url(#paint0_linear_2871_105634)"/>
<path d="M35.3313 35.8189C35.3029 35.5324 35.181 35.3099 34.9656 35.1513C34.7501 34.9927 34.4577 34.9134 34.0884 34.9134C33.8375 34.9134 33.6256 34.9489 33.4528 35.0199C33.2799 35.0885 33.1474 35.1844 33.055 35.3075C32.9651 35.4306 32.9201 35.5703 32.9201 35.7266C32.9154 35.8568 32.9426 35.9704 33.0018 36.0675C33.0633 36.1645 33.1474 36.2486 33.2539 36.3196C33.3604 36.3883 33.4835 36.4486 33.6232 36.5007C33.7629 36.5504 33.9121 36.593 34.0707 36.6286L34.7241 36.7848C35.0413 36.8558 35.3325 36.9505 35.5977 37.0689C35.8628 37.1873 36.0924 37.3329 36.2866 37.5057C36.4807 37.6785 36.631 37.8821 36.7376 38.1165C36.8465 38.3509 36.9021 38.6196 36.9045 38.9226C36.9021 39.3677 36.7885 39.7536 36.5636 40.0803C36.341 40.4046 36.0191 40.6567 35.5977 40.8366C35.1786 41.0142 34.6732 41.103 34.0813 41.103C33.4942 41.103 32.9828 41.013 32.5472 40.8331C32.114 40.6532 31.7754 40.3868 31.5316 40.0341C31.2901 39.679 31.1635 39.2398 31.1516 38.7166H32.6396C32.6561 38.9605 32.726 39.1641 32.8491 39.3274C32.9746 39.4884 33.1415 39.6103 33.3498 39.6932C33.5605 39.7737 33.7984 39.8139 34.0636 39.8139C34.324 39.8139 34.5501 39.776 34.7418 39.7003C34.936 39.6245 35.0863 39.5192 35.1928 39.3842C35.2994 39.2493 35.3526 39.0942 35.3526 38.919C35.3526 38.7557 35.3041 38.6184 35.207 38.5071C35.1123 38.3958 34.9727 38.3011 34.788 38.223C34.6057 38.1449 34.382 38.0739 34.1168 38.0099L33.3249 37.8111C32.7118 37.6619 32.2276 37.4287 31.8725 37.1115C31.5174 36.7943 31.341 36.367 31.3434 35.8295C31.341 35.3892 31.4582 35.0045 31.695 34.6754C31.9341 34.3464 32.262 34.0895 32.6786 33.9048C33.0953 33.7202 33.5688 33.6278 34.0991 33.6278C34.6388 33.6278 35.11 33.7202 35.5124 33.9048C35.9173 34.0895 36.2321 34.3464 36.457 34.6754C36.6819 35.0045 36.7979 35.3857 36.805 35.8189H35.3313ZM40.8116 35.5455V36.6818H37.5268V35.5455H40.8116ZM38.2725 34.2386H39.7853V39.3239C39.7853 39.4635 39.8066 39.5724 39.8493 39.6506C39.8919 39.7263 39.9511 39.7796 40.0268 39.8104C40.1049 39.8411 40.1949 39.8565 40.2967 39.8565C40.3677 39.8565 40.4387 39.8506 40.5098 39.8388C40.5808 39.8246 40.6352 39.8139 40.6731 39.8068L40.911 40.9325C40.8353 40.9562 40.7288 40.9834 40.5914 41.0142C40.4541 41.0473 40.2872 41.0675 40.0907 41.0746C39.7261 41.0888 39.4065 41.0402 39.1319 40.929C38.8597 40.8177 38.6478 40.6449 38.4963 40.4105C38.3448 40.1761 38.2702 39.8802 38.2725 39.5227V34.2386ZM43.3525 41.103C43.0044 41.103 42.6943 41.0426 42.4221 40.9219C42.1498 40.7988 41.9344 40.6177 41.7757 40.3786C41.6195 40.1371 41.5414 39.8364 41.5414 39.4766C41.5414 39.1735 41.597 38.919 41.7083 38.7131C41.8195 38.5071 41.9711 38.3414 42.1628 38.2159C42.3546 38.0904 42.5724 37.9957 42.8162 37.9318C43.0624 37.8679 43.3205 37.8229 43.5904 37.7969C43.9076 37.7637 44.1633 37.733 44.3574 37.7045C44.5516 37.6738 44.6924 37.6288 44.78 37.5696C44.8676 37.5104 44.9114 37.4228 44.9114 37.3068V37.2855C44.9114 37.0606 44.8404 36.8866 44.6983 36.7635C44.5587 36.6404 44.3598 36.5788 44.1017 36.5788C43.8295 36.5788 43.6129 36.6392 43.4519 36.7599C43.2909 36.8783 43.1844 37.0275 43.1323 37.2074L41.7331 37.0938C41.8042 36.7623 41.9438 36.4759 42.1522 36.2344C42.3605 35.9905 42.6292 35.8035 42.9583 35.6733C43.2897 35.5407 43.6732 35.4744 44.1088 35.4744C44.4119 35.4744 44.7019 35.5099 44.9789 35.581C45.2582 35.652 45.5056 35.7621 45.7211 35.9112C45.9389 36.0604 46.1105 36.2521 46.236 36.4865C46.3614 36.7185 46.4242 36.9967 46.4242 37.321V41H44.9895V40.2436H44.9469C44.8593 40.4141 44.7421 40.5644 44.5953 40.6946C44.4486 40.8224 44.2722 40.9231 44.0662 40.9964C43.8603 41.0675 43.6223 41.103 43.3525 41.103ZM43.7857 40.0589C44.0082 40.0589 44.2047 40.0152 44.3752 39.9276C44.5456 39.8376 44.6794 39.7169 44.7765 39.5653C44.8735 39.4138 44.9221 39.2422 44.9221 39.0504V38.4716C44.8747 38.5024 44.8096 38.5308 44.7267 38.5568C44.6462 38.5805 44.5551 38.603 44.4533 38.6243C44.3515 38.6432 44.2497 38.661 44.1479 38.6776C44.0461 38.6918 43.9538 38.7048 43.8709 38.7166C43.6934 38.7427 43.5383 38.7841 43.4057 38.8409C43.2731 38.8977 43.1702 38.9747 43.0968 39.0717C43.0234 39.1664 42.9867 39.2848 42.9867 39.4268C42.9867 39.6328 43.0613 39.7902 43.2104 39.8991C43.3619 40.0057 43.5537 40.0589 43.7857 40.0589ZM47.5978 41V35.5455H49.0645V36.4972H49.1213C49.2207 36.1586 49.3876 35.9029 49.622 35.7301C49.8564 35.5549 50.1262 35.4673 50.4316 35.4673C50.5074 35.4673 50.5891 35.4721 50.6767 35.4815C50.7643 35.491 50.8412 35.504 50.9075 35.5206V36.8629C50.8365 36.8416 50.7382 36.8227 50.6127 36.8061C50.4873 36.7895 50.3725 36.7812 50.2683 36.7812C50.0458 36.7812 49.8469 36.8298 49.6717 36.9268C49.4989 37.0215 49.3616 37.1541 49.2598 37.3246C49.1603 37.495 49.1106 37.6915 49.1106 37.9141V41H47.5978ZM54.8643 35.5455V36.6818H51.5795V35.5455H54.8643ZM52.3253 34.2386H53.8381V39.3239C53.8381 39.4635 53.8594 39.5724 53.902 39.6506C53.9446 39.7263 54.0038 39.7796 54.0795 39.8104C54.1577 39.8411 54.2476 39.8565 54.3494 39.8565C54.4205 39.8565 54.4915 39.8506 54.5625 39.8388C54.6335 39.8246 54.688 39.8139 54.7259 39.8068L54.9638 40.9325C54.888 40.9562 54.7815 40.9834 54.6442 41.0142C54.5069 41.0473 54.34 41.0675 54.1435 41.0746C53.7789 41.0888 53.4593 41.0402 53.1847 40.929C52.9124 40.8177 52.7005 40.6449 52.549 40.4105C52.3975 40.1761 52.3229 39.8802 52.3253 39.5227V34.2386ZM18.6712 53V45.7273H21.5405C22.0897 45.7273 22.5585 45.8255 22.9467 46.022C23.3374 46.2161 23.6345 46.492 23.8381 46.8494C24.044 47.2045 24.147 47.6224 24.147 48.103C24.147 48.5859 24.0429 49.0014 23.8345 49.3494C23.6262 49.6951 23.3243 49.9602 22.929 50.1449C22.536 50.3295 22.0601 50.4219 21.5014 50.4219H19.5803V49.1861H21.2528C21.5464 49.1861 21.7902 49.1458 21.9844 49.0653C22.1785 48.9848 22.3229 48.8641 22.4176 48.7031C22.5147 48.5421 22.5632 48.3421 22.5632 48.103C22.5632 47.8615 22.5147 47.6579 22.4176 47.4922C22.3229 47.3265 22.1773 47.201 21.9808 47.1158C21.7867 47.0282 21.5417 46.9844 21.2457 46.9844H20.2088V53H18.6712ZM22.5987 49.6903L24.4062 53H22.7088L20.9403 49.6903H22.5987ZM27.6032 53.1065C27.0421 53.1065 26.5591 52.9929 26.1543 52.7656C25.7518 52.536 25.4417 52.2116 25.2239 51.7926C25.0061 51.3712 24.8972 50.8729 24.8972 50.2976C24.8972 49.7365 25.0061 49.2441 25.2239 48.8203C25.4417 48.3965 25.7483 48.0663 26.1436 47.8295C26.5414 47.5928 27.0078 47.4744 27.5428 47.4744C27.9026 47.4744 28.2376 47.5324 28.5478 47.6484C28.8603 47.7621 29.1325 47.9337 29.3645 48.1634C29.5989 48.393 29.7812 48.6818 29.9114 49.0298C30.0416 49.3755 30.1067 49.7803 30.1067 50.2443V50.6598H25.5009V49.7223H28.6827C28.6827 49.5045 28.6354 49.3116 28.5407 49.1435C28.446 48.9754 28.3146 48.844 28.1465 48.7493C27.9808 48.6522 27.7878 48.6037 27.5676 48.6037C27.338 48.6037 27.1344 48.657 26.9569 48.7635C26.7817 48.8677 26.6444 49.0085 26.5449 49.1861C26.4455 49.3613 26.3946 49.5566 26.3922 49.772V50.6634C26.3922 50.9332 26.4419 51.1664 26.5414 51.3629C26.6432 51.5594 26.7864 51.7109 26.9711 51.8175C27.1557 51.924 27.3747 51.9773 27.628 51.9773C27.7961 51.9773 27.95 51.9536 28.0897 51.9062C28.2293 51.8589 28.3489 51.7879 28.4483 51.6932C28.5478 51.5985 28.6235 51.4825 28.6756 51.3452L30.0748 51.4375C30.0037 51.7737 29.8581 52.0672 29.638 52.3182C29.4202 52.5668 29.1384 52.7609 28.7928 52.9006C28.4495 53.0379 28.053 53.1065 27.6032 53.1065ZM33.5584 53.1065C32.9997 53.1065 32.5191 52.9882 32.1167 52.7514C31.7166 52.5123 31.4088 52.1809 31.1934 51.7571C30.9803 51.3333 30.8738 50.8456 30.8738 50.294C30.8738 49.7353 30.9815 49.2453 31.1969 48.8239C31.4147 48.4001 31.7237 48.0698 32.1238 47.8331C32.5239 47.594 32.9997 47.4744 33.5513 47.4744C34.0272 47.4744 34.4438 47.5608 34.8013 47.7337C35.1588 47.9065 35.4417 48.1491 35.65 48.4616C35.8584 48.7741 35.9732 49.1411 35.9945 49.5625H34.5669C34.5267 49.2902 34.4202 49.0713 34.2473 48.9055C34.0769 48.7375 33.8532 48.6534 33.5762 48.6534C33.3418 48.6534 33.137 48.7173 32.9618 48.8452C32.789 48.9706 32.6541 49.1541 32.557 49.3956C32.4599 49.6371 32.4114 49.9295 32.4114 50.2727C32.4114 50.6207 32.4587 50.9167 32.5534 51.1605C32.6505 51.4044 32.7866 51.5902 32.9618 51.718C33.137 51.8459 33.3418 51.9098 33.5762 51.9098C33.749 51.9098 33.9041 51.8743 34.0414 51.8033C34.181 51.7322 34.2959 51.6293 34.3858 51.4943C34.4782 51.357 34.5385 51.1925 34.5669 51.0007H35.9945C35.9708 51.4174 35.8572 51.7843 35.6536 52.1016C35.4524 52.4164 35.1742 52.6626 34.8191 52.8402C34.464 53.0178 34.0437 53.1065 33.5584 53.1065ZM39.4276 53.1065C38.8759 53.1065 38.3989 52.9893 37.9964 52.755C37.5964 52.5182 37.2874 52.1892 37.0696 51.7678C36.8518 51.344 36.7429 50.8527 36.7429 50.294C36.7429 49.7306 36.8518 49.2382 37.0696 48.8168C37.2874 48.393 37.5964 48.0639 37.9964 47.8295C38.3989 47.5928 38.8759 47.4744 39.4276 47.4744C39.9792 47.4744 40.455 47.5928 40.8551 47.8295C41.2576 48.0639 41.5677 48.393 41.7855 48.8168C42.0033 49.2382 42.1122 49.7306 42.1122 50.294C42.1122 50.8527 42.0033 51.344 41.7855 51.7678C41.5677 52.1892 41.2576 52.5182 40.8551 52.755C40.455 52.9893 39.9792 53.1065 39.4276 53.1065ZM39.4347 51.9347C39.6856 51.9347 39.8951 51.8636 40.0632 51.7216C40.2313 51.5772 40.358 51.3807 40.4432 51.1321C40.5308 50.8835 40.5746 50.6006 40.5746 50.2834C40.5746 49.9661 40.5308 49.6832 40.4432 49.4347C40.358 49.1861 40.2313 48.9896 40.0632 48.8452C39.8951 48.7008 39.6856 48.6286 39.4347 48.6286C39.1813 48.6286 38.9683 48.7008 38.7955 48.8452C38.625 48.9896 38.496 49.1861 38.4084 49.4347C38.3232 49.6832 38.2805 49.9661 38.2805 50.2834C38.2805 50.6006 38.3232 50.8835 38.4084 51.1321C38.496 51.3807 38.625 51.5772 38.7955 51.7216C38.9683 51.8636 39.1813 51.9347 39.4347 51.9347ZM43.0959 53V47.5455H44.5625V48.4972H44.6193C44.7188 48.1586 44.8857 47.9029 45.12 47.7301C45.3544 47.5549 45.6243 47.4673 45.9297 47.4673C46.0054 47.4673 46.0871 47.4721 46.1747 47.4815C46.2623 47.491 46.3393 47.504 46.4055 47.5206V48.8629C46.3345 48.8416 46.2363 48.8227 46.1108 48.8061C45.9853 48.7895 45.8705 48.7812 45.7663 48.7812C45.5438 48.7812 45.3449 48.8298 45.1697 48.9268C44.9969 49.0215 44.8596 49.1541 44.7578 49.3246C44.6584 49.495 44.6087 49.6915 44.6087 49.9141V53H43.0959ZM48.9437 53.0888C48.5294 53.0888 48.1542 52.9822 47.818 52.7692C47.4842 52.5537 47.219 52.2377 47.0225 51.821C46.8284 51.402 46.7314 50.8883 46.7314 50.2798C46.7314 49.6548 46.832 49.1352 47.0332 48.7209C47.2344 48.3042 47.502 47.9929 47.8358 47.7869C48.1719 47.5786 48.5401 47.4744 48.9402 47.4744C49.2456 47.4744 49.5001 47.5265 49.7037 47.6307C49.9096 47.7325 50.0753 47.8603 50.2008 48.0142C50.3287 48.1657 50.4257 48.3149 50.492 48.4616H50.5382V45.7273H52.0474V53H50.5559V52.1264H50.492C50.421 52.2779 50.3204 52.4283 50.1902 52.5774C50.0623 52.7242 49.8954 52.8461 49.6895 52.9432C49.4859 53.0402 49.2373 53.0888 48.9437 53.0888ZM49.4231 51.8849C49.667 51.8849 49.8729 51.8187 50.041 51.6861C50.2115 51.5511 50.3417 51.3629 50.4316 51.1214C50.524 50.88 50.5701 50.5971 50.5701 50.2727C50.5701 49.9484 50.5252 49.6667 50.4352 49.4276C50.3452 49.1884 50.215 49.0038 50.0446 48.8736C49.8741 48.7434 49.667 48.6783 49.4231 48.6783C49.1745 48.6783 48.965 48.7457 48.7946 48.8807C48.6241 49.0156 48.4951 49.2027 48.4075 49.4418C48.3199 49.6809 48.2761 49.9579 48.2761 50.2727C48.2761 50.59 48.3199 50.8705 48.4075 51.1143C48.4975 51.3558 48.6265 51.5452 48.7946 51.6825C48.965 51.8175 49.1745 51.8849 49.4231 51.8849ZM53.2912 53V47.5455H54.804V53H53.2912ZM54.0511 46.8423C53.8262 46.8423 53.6333 46.7678 53.4723 46.6186C53.3137 46.4671 53.2344 46.286 53.2344 46.0753C53.2344 45.867 53.3137 45.6882 53.4723 45.5391C53.6333 45.3875 53.8262 45.3118 54.0511 45.3118C54.276 45.3118 54.4678 45.3875 54.6264 45.5391C54.7874 45.6882 54.8679 45.867 54.8679 46.0753C54.8679 46.286 54.7874 46.4671 54.6264 46.6186C54.4678 46.7678 54.276 46.8423 54.0511 46.8423ZM57.5286 49.8466V53H56.0158V47.5455H57.4576V48.5078H57.5215C57.6422 48.1906 57.8446 47.9396 58.1287 47.755C58.4128 47.5679 58.7573 47.4744 59.1621 47.4744C59.5409 47.4744 59.8712 47.5573 60.1529 47.723C60.4346 47.8887 60.6536 48.1255 60.8098 48.4332C60.9661 48.7386 61.0442 49.1032 61.0442 49.527V53H59.5314V49.7969C59.5338 49.4631 59.4486 49.2027 59.2757 49.0156C59.1029 48.8262 58.865 48.7315 58.562 48.7315C58.3584 48.7315 58.1784 48.7753 58.0222 48.8629C57.8683 48.9505 57.7476 49.0784 57.66 49.2464C57.5748 49.4122 57.531 49.6122 57.5286 49.8466ZM64.6939 55.1591C64.2038 55.1591 63.7836 55.0916 63.4332 54.9567C63.0852 54.8241 62.8082 54.643 62.6023 54.4134C62.3963 54.1837 62.2625 53.9257 62.201 53.6392L63.6001 53.451C63.6428 53.5599 63.7102 53.6617 63.8026 53.7564C63.8949 53.8511 64.0168 53.9268 64.1683 53.9837C64.3222 54.0429 64.5092 54.0724 64.7294 54.0724C65.0585 54.0724 65.3295 53.992 65.5426 53.831C65.758 53.6723 65.8658 53.406 65.8658 53.032V52.0341H65.8018C65.7356 52.1856 65.6361 52.3288 65.5036 52.4638C65.371 52.5987 65.2005 52.7088 64.9922 52.794C64.7839 52.8793 64.5353 52.9219 64.2464 52.9219C63.8369 52.9219 63.464 52.8272 63.1278 52.6378C62.794 52.446 62.5277 52.1536 62.3288 51.7607C62.1323 51.3653 62.0341 50.8658 62.0341 50.2621C62.0341 49.6442 62.1347 49.1281 62.3359 48.7138C62.5372 48.2995 62.8047 47.9893 63.1385 47.7834C63.4747 47.5774 63.8428 47.4744 64.2429 47.4744C64.5483 47.4744 64.804 47.5265 65.0099 47.6307C65.2159 47.7325 65.3816 47.8603 65.5071 48.0142C65.6349 48.1657 65.7332 48.3149 65.8018 48.4616H65.8587V47.5455H67.3608V53.0533C67.3608 53.5173 67.2472 53.9055 67.0199 54.218C66.7926 54.5305 66.4777 54.7649 66.0753 54.9212C65.6752 55.0798 65.2147 55.1591 64.6939 55.1591ZM64.7259 51.7855C64.9697 51.7855 65.1757 51.7251 65.3438 51.6044C65.5142 51.4813 65.6444 51.3061 65.7344 51.0788C65.8267 50.8492 65.8729 50.5746 65.8729 50.255C65.8729 49.9354 65.8279 49.6584 65.7379 49.424C65.648 49.1873 65.5178 49.0038 65.3473 48.8736C65.1768 48.7434 64.9697 48.6783 64.7259 48.6783C64.4773 48.6783 64.2678 48.7457 64.0973 48.8807C63.9268 49.0133 63.7978 49.1979 63.7102 49.4347C63.6226 49.6714 63.5788 49.9448 63.5788 50.255C63.5788 50.5698 63.6226 50.8421 63.7102 51.0717C63.8002 51.299 63.9292 51.4754 64.0973 51.6009C64.2678 51.724 64.4773 51.7855 64.7259 51.7855Z" fill="#F8FAFB"/>
</g>
<rect x="4" y="4" width="78" height="78" rx="39" fill="#1D1D1D" fill-opacity="0.9"/>
<rect x="4" y="4" width="78" height="78" rx="39" fill="url(#paint1_linear_2871_105634)"/>
<path d="M36.1565 35.8189C36.1281 35.5324 36.0062 35.3099 35.7907 35.1513C35.5753 34.9927 35.2829 34.9134 34.9136 34.9134C34.6627 34.9134 34.4508 34.9489 34.278 35.0199C34.1051 35.0885 33.9726 35.1844 33.8802 35.3075C33.7903 35.4306 33.7453 35.5703 33.7453 35.7266C33.7406 35.8568 33.7678 35.9704 33.827 36.0675C33.8885 36.1645 33.9726 36.2486 34.0791 36.3196C34.1856 36.3883 34.3087 36.4486 34.4484 36.5007C34.5881 36.5504 34.7372 36.593 34.8959 36.6286L35.5493 36.7848C35.8665 36.8558 36.1577 36.9505 36.4229 37.0689C36.688 37.1873 36.9176 37.3329 37.1118 37.5057C37.3059 37.6785 37.4562 37.8821 37.5628 38.1165C37.6717 38.3509 37.7273 38.6196 37.7297 38.9226C37.7273 39.3677 37.6137 39.7536 37.3888 40.0803C37.1662 40.4046 36.8443 40.6567 36.4229 40.8366C36.0038 41.0142 35.4984 41.103 34.9065 41.103C34.3194 41.103 33.808 41.013 33.3724 40.8331C32.9392 40.6532 32.6006 40.3868 32.3568 40.0341C32.1153 39.679 31.9887 39.2398 31.9768 38.7166H33.4648C33.4813 38.9605 33.5512 39.1641 33.6743 39.3274C33.7997 39.4884 33.9666 39.6103 34.175 39.6932C34.3857 39.7737 34.6236 39.8139 34.8888 39.8139C35.1492 39.8139 35.3753 39.776 35.567 39.7003C35.7612 39.6245 35.9115 39.5192 36.018 39.3842C36.1246 39.2493 36.1778 39.0942 36.1778 38.919C36.1778 38.7557 36.1293 38.6184 36.0322 38.5071C35.9375 38.3958 35.7979 38.3011 35.6132 38.223C35.4309 38.1449 35.2072 38.0739 34.942 38.0099L34.1501 37.8111C33.537 37.6619 33.0528 37.4287 32.6977 37.1115C32.3426 36.7943 32.1662 36.367 32.1686 35.8295C32.1662 35.3892 32.2834 35.0045 32.5202 34.6754C32.7593 34.3464 33.0872 34.0895 33.5038 33.9048C33.9205 33.7202 34.394 33.6278 34.9243 33.6278C35.464 33.6278 35.9352 33.7202 36.3376 33.9048C36.7425 34.0895 37.0573 34.3464 37.2822 34.6754C37.5071 35.0045 37.6231 35.3857 37.6302 35.8189H36.1565ZM41.6368 35.5455V36.6818H38.352V35.5455H41.6368ZM39.0977 34.2386H40.6105V39.3239C40.6105 39.4635 40.6318 39.5724 40.6744 39.6506C40.7171 39.7263 40.7762 39.7796 40.852 39.8104C40.9301 39.8411 41.0201 39.8565 41.1219 39.8565C41.1929 39.8565 41.2639 39.8506 41.335 39.8388C41.406 39.8246 41.4604 39.8139 41.4983 39.8068L41.7362 40.9325C41.6605 40.9562 41.5539 40.9834 41.4166 41.0142C41.2793 41.0473 41.1124 41.0675 40.9159 41.0746C40.5513 41.0888 40.2317 41.0402 39.9571 40.929C39.6849 40.8177 39.473 40.6449 39.3215 40.4105C39.17 40.1761 39.0954 39.8802 39.0977 39.5227V34.2386ZM45.0281 41.1065C44.4765 41.1065 43.9995 40.9893 43.597 40.755C43.1969 40.5182 42.888 40.1892 42.6702 39.7678C42.4524 39.344 42.3435 38.8527 42.3435 38.294C42.3435 37.7306 42.4524 37.2382 42.6702 36.8168C42.888 36.393 43.1969 36.0639 43.597 35.8295C43.9995 35.5928 44.4765 35.4744 45.0281 35.4744C45.5798 35.4744 46.0556 35.5928 46.4557 35.8295C46.8582 36.0639 47.1683 36.393 47.3861 36.8168C47.6039 37.2382 47.7128 37.7306 47.7128 38.294C47.7128 38.8527 47.6039 39.344 47.3861 39.7678C47.1683 40.1892 46.8582 40.5182 46.4557 40.755C46.0556 40.9893 45.5798 41.1065 45.0281 41.1065ZM45.0352 39.9347C45.2862 39.9347 45.4957 39.8636 45.6638 39.7216C45.8319 39.5772 45.9585 39.3807 46.0438 39.1321C46.1314 38.8835 46.1752 38.6006 46.1752 38.2834C46.1752 37.9661 46.1314 37.6832 46.0438 37.4347C45.9585 37.1861 45.8319 36.9896 45.6638 36.8452C45.4957 36.7008 45.2862 36.6286 45.0352 36.6286C44.7819 36.6286 44.5689 36.7008 44.396 36.8452C44.2256 36.9896 44.0966 37.1861 44.009 37.4347C43.9237 37.6832 43.8811 37.9661 43.8811 38.2834C43.8811 38.6006 43.9237 38.8835 44.009 39.1321C44.0966 39.3807 44.2256 39.5772 44.396 39.7216C44.5689 39.8636 44.7819 39.9347 45.0352 39.9347ZM48.6965 43.0455V35.5455H50.1879V36.4616H50.2554C50.3217 36.3149 50.4176 36.1657 50.5431 36.0142C50.6709 35.8603 50.8366 35.7325 51.0402 35.6307C51.2462 35.5265 51.5019 35.4744 51.8073 35.4744C52.205 35.4744 52.5719 35.5786 52.9081 35.7869C53.2443 35.9929 53.513 36.3042 53.7142 36.7209C53.9155 37.1352 54.0161 37.6548 54.0161 38.2798C54.0161 38.8883 53.9178 39.402 53.7213 39.821C53.5272 40.2377 53.262 40.5537 52.9259 40.7692C52.5921 40.9822 52.218 41.0888 51.8037 41.0888C51.5102 41.0888 51.2604 41.0402 51.0544 40.9432C50.8508 40.8461 50.6839 40.7242 50.5537 40.5774C50.4235 40.4283 50.3241 40.2779 50.2554 40.1264H50.2093V43.0455H48.6965ZM50.1773 38.2727C50.1773 38.5971 50.2223 38.88 50.3122 39.1214C50.4022 39.3629 50.5324 39.5511 50.7029 39.6861C50.8733 39.8187 51.0805 39.8849 51.3243 39.8849C51.5705 39.8849 51.7789 39.8175 51.9493 39.6825C52.1198 39.5452 52.2488 39.3558 52.3364 39.1143C52.4263 38.8705 52.4713 38.59 52.4713 38.2727C52.4713 37.9579 52.4275 37.6809 52.3399 37.4418C52.2523 37.2027 52.1233 37.0156 51.9529 36.8807C51.7824 36.7457 51.5729 36.6783 51.3243 36.6783C51.0781 36.6783 50.8698 36.7434 50.6993 36.8736C50.5312 37.0038 50.4022 37.1884 50.3122 37.4276C50.2223 37.6667 50.1773 37.9484 50.1773 38.2727ZM18.6712 53V45.7273H21.5405C22.0897 45.7273 22.5585 45.8255 22.9467 46.022C23.3374 46.2161 23.6345 46.492 23.8381 46.8494C24.044 47.2045 24.147 47.6224 24.147 48.103C24.147 48.5859 24.0429 49.0014 23.8345 49.3494C23.6262 49.6951 23.3243 49.9602 22.929 50.1449C22.536 50.3295 22.0601 50.4219 21.5014 50.4219H19.5803V49.1861H21.2528C21.5464 49.1861 21.7902 49.1458 21.9844 49.0653C22.1785 48.9848 22.3229 48.8641 22.4176 48.7031C22.5147 48.5421 22.5632 48.3421 22.5632 48.103C22.5632 47.8615 22.5147 47.6579 22.4176 47.4922C22.3229 47.3265 22.1773 47.201 21.9808 47.1158C21.7867 47.0282 21.5417 46.9844 21.2457 46.9844H20.2088V53H18.6712ZM22.5987 49.6903L24.4062 53H22.7088L20.9403 49.6903H22.5987ZM27.6032 53.1065C27.0421 53.1065 26.5591 52.9929 26.1543 52.7656C25.7518 52.536 25.4417 52.2116 25.2239 51.7926C25.0061 51.3712 24.8972 50.8729 24.8972 50.2976C24.8972 49.7365 25.0061 49.2441 25.2239 48.8203C25.4417 48.3965 25.7483 48.0663 26.1436 47.8295C26.5414 47.5928 27.0078 47.4744 27.5428 47.4744C27.9026 47.4744 28.2376 47.5324 28.5478 47.6484C28.8603 47.7621 29.1325 47.9337 29.3645 48.1634C29.5989 48.393 29.7812 48.6818 29.9114 49.0298C30.0416 49.3755 30.1067 49.7803 30.1067 50.2443V50.6598H25.5009V49.7223H28.6827C28.6827 49.5045 28.6354 49.3116 28.5407 49.1435C28.446 48.9754 28.3146 48.844 28.1465 48.7493C27.9808 48.6522 27.7878 48.6037 27.5676 48.6037C27.338 48.6037 27.1344 48.657 26.9569 48.7635C26.7817 48.8677 26.6444 49.0085 26.5449 49.1861C26.4455 49.3613 26.3946 49.5566 26.3922 49.772V50.6634C26.3922 50.9332 26.4419 51.1664 26.5414 51.3629C26.6432 51.5594 26.7864 51.7109 26.9711 51.8175C27.1557 51.924 27.3747 51.9773 27.628 51.9773C27.7961 51.9773 27.95 51.9536 28.0897 51.9062C28.2293 51.8589 28.3489 51.7879 28.4483 51.6932C28.5478 51.5985 28.6235 51.4825 28.6756 51.3452L30.0748 51.4375C30.0037 51.7737 29.8581 52.0672 29.638 52.3182C29.4202 52.5668 29.1384 52.7609 28.7928 52.9006C28.4495 53.0379 28.053 53.1065 27.6032 53.1065ZM33.5584 53.1065C32.9997 53.1065 32.5191 52.9882 32.1167 52.7514C31.7166 52.5123 31.4088 52.1809 31.1934 51.7571C30.9803 51.3333 30.8738 50.8456 30.8738 50.294C30.8738 49.7353 30.9815 49.2453 31.1969 48.8239C31.4147 48.4001 31.7237 48.0698 32.1238 47.8331C32.5239 47.594 32.9997 47.4744 33.5513 47.4744C34.0272 47.4744 34.4438 47.5608 34.8013 47.7337C35.1588 47.9065 35.4417 48.1491 35.65 48.4616C35.8584 48.7741 35.9732 49.1411 35.9945 49.5625H34.5669C34.5267 49.2902 34.4202 49.0713 34.2473 48.9055C34.0769 48.7375 33.8532 48.6534 33.5762 48.6534C33.3418 48.6534 33.137 48.7173 32.9618 48.8452C32.789 48.9706 32.6541 49.1541 32.557 49.3956C32.4599 49.6371 32.4114 49.9295 32.4114 50.2727C32.4114 50.6207 32.4587 50.9167 32.5534 51.1605C32.6505 51.4044 32.7866 51.5902 32.9618 51.718C33.137 51.8459 33.3418 51.9098 33.5762 51.9098C33.749 51.9098 33.9041 51.8743 34.0414 51.8033C34.181 51.7322 34.2959 51.6293 34.3858 51.4943C34.4782 51.357 34.5385 51.1925 34.5669 51.0007H35.9945C35.9708 51.4174 35.8572 51.7843 35.6536 52.1016C35.4524 52.4164 35.1742 52.6626 34.8191 52.8402C34.464 53.0178 34.0437 53.1065 33.5584 53.1065ZM39.4276 53.1065C38.8759 53.1065 38.3989 52.9893 37.9964 52.755C37.5964 52.5182 37.2874 52.1892 37.0696 51.7678C36.8518 51.344 36.7429 50.8527 36.7429 50.294C36.7429 49.7306 36.8518 49.2382 37.0696 48.8168C37.2874 48.393 37.5964 48.0639 37.9964 47.8295C38.3989 47.5928 38.8759 47.4744 39.4276 47.4744C39.9792 47.4744 40.455 47.5928 40.8551 47.8295C41.2576 48.0639 41.5677 48.393 41.7855 48.8168C42.0033 49.2382 42.1122 49.7306 42.1122 50.294C42.1122 50.8527 42.0033 51.344 41.7855 51.7678C41.5677 52.1892 41.2576 52.5182 40.8551 52.755C40.455 52.9893 39.9792 53.1065 39.4276 53.1065ZM39.4347 51.9347C39.6856 51.9347 39.8951 51.8636 40.0632 51.7216C40.2313 51.5772 40.358 51.3807 40.4432 51.1321C40.5308 50.8835 40.5746 50.6006 40.5746 50.2834C40.5746 49.9661 40.5308 49.6832 40.4432 49.4347C40.358 49.1861 40.2313 48.9896 40.0632 48.8452C39.8951 48.7008 39.6856 48.6286 39.4347 48.6286C39.1813 48.6286 38.9683 48.7008 38.7955 48.8452C38.625 48.9896 38.496 49.1861 38.4084 49.4347C38.3232 49.6832 38.2805 49.9661 38.2805 50.2834C38.2805 50.6006 38.3232 50.8835 38.4084 51.1321C38.496 51.3807 38.625 51.5772 38.7955 51.7216C38.9683 51.8636 39.1813 51.9347 39.4347 51.9347ZM43.0959 53V47.5455H44.5625V48.4972H44.6193C44.7188 48.1586 44.8857 47.9029 45.12 47.7301C45.3544 47.5549 45.6243 47.4673 45.9297 47.4673C46.0054 47.4673 46.0871 47.4721 46.1747 47.4815C46.2623 47.491 46.3393 47.504 46.4055 47.5206V48.8629C46.3345 48.8416 46.2363 48.8227 46.1108 48.8061C45.9853 48.7895 45.8705 48.7812 45.7663 48.7812C45.5438 48.7812 45.3449 48.8298 45.1697 48.9268C44.9969 49.0215 44.8596 49.1541 44.7578 49.3246C44.6584 49.495 44.6087 49.6915 44.6087 49.9141V53H43.0959ZM48.9437 53.0888C48.5294 53.0888 48.1542 52.9822 47.818 52.7692C47.4842 52.5537 47.219 52.2377 47.0225 51.821C46.8284 51.402 46.7314 50.8883 46.7314 50.2798C46.7314 49.6548 46.832 49.1352 47.0332 48.7209C47.2344 48.3042 47.502 47.9929 47.8358 47.7869C48.1719 47.5786 48.5401 47.4744 48.9402 47.4744C49.2456 47.4744 49.5001 47.5265 49.7037 47.6307C49.9096 47.7325 50.0753 47.8603 50.2008 48.0142C50.3287 48.1657 50.4257 48.3149 50.492 48.4616H50.5382V45.7273H52.0474V53H50.5559V52.1264H50.492C50.421 52.2779 50.3204 52.4283 50.1902 52.5774C50.0623 52.7242 49.8954 52.8461 49.6895 52.9432C49.4859 53.0402 49.2373 53.0888 48.9437 53.0888ZM49.4231 51.8849C49.667 51.8849 49.8729 51.8187 50.041 51.6861C50.2115 51.5511 50.3417 51.3629 50.4316 51.1214C50.524 50.88 50.5701 50.5971 50.5701 50.2727C50.5701 49.9484 50.5252 49.6667 50.4352 49.4276C50.3452 49.1884 50.215 49.0038 50.0446 48.8736C49.8741 48.7434 49.667 48.6783 49.4231 48.6783C49.1745 48.6783 48.965 48.7457 48.7946 48.8807C48.6241 49.0156 48.4951 49.2027 48.4075 49.4418C48.3199 49.6809 48.2761 49.9579 48.2761 50.2727C48.2761 50.59 48.3199 50.8705 48.4075 51.1143C48.4975 51.3558 48.6265 51.5452 48.7946 51.6825C48.965 51.8175 49.1745 51.8849 49.4231 51.8849ZM53.2912 53V47.5455H54.804V53H53.2912ZM54.0511 46.8423C53.8262 46.8423 53.6333 46.7678 53.4723 46.6186C53.3137 46.4671 53.2344 46.286 53.2344 46.0753C53.2344 45.867 53.3137 45.6882 53.4723 45.5391C53.6333 45.3875 53.8262 45.3118 54.0511 45.3118C54.276 45.3118 54.4678 45.3875 54.6264 45.5391C54.7874 45.6882 54.8679 45.867 54.8679 46.0753C54.8679 46.286 54.7874 46.4671 54.6264 46.6186C54.4678 46.7678 54.276 46.8423 54.0511 46.8423ZM57.5286 49.8466V53H56.0158V47.5455H57.4576V48.5078H57.5215C57.6422 48.1906 57.8446 47.9396 58.1287 47.755C58.4128 47.5679 58.7573 47.4744 59.1621 47.4744C59.5409 47.4744 59.8712 47.5573 60.1529 47.723C60.4346 47.8887 60.6536 48.1255 60.8098 48.4332C60.9661 48.7386 61.0442 49.1032 61.0442 49.527V53H59.5314V49.7969C59.5338 49.4631 59.4486 49.2027 59.2757 49.0156C59.1029 48.8262 58.865 48.7315 58.562 48.7315C58.3584 48.7315 58.1784 48.7753 58.0222 48.8629C57.8683 48.9505 57.7476 49.0784 57.66 49.2464C57.5748 49.4122 57.531 49.6122 57.5286 49.8466ZM64.6939 55.1591C64.2038 55.1591 63.7836 55.0916 63.4332 54.9567C63.0852 54.8241 62.8082 54.643 62.6023 54.4134C62.3963 54.1837 62.2625 53.9257 62.201 53.6392L63.6001 53.451C63.6428 53.5599 63.7102 53.6617 63.8026 53.7564C63.8949 53.8511 64.0168 53.9268 64.1683 53.9837C64.3222 54.0429 64.5092 54.0724 64.7294 54.0724C65.0585 54.0724 65.3295 53.992 65.5426 53.831C65.758 53.6723 65.8658 53.406 65.8658 53.032V52.0341H65.8018C65.7356 52.1856 65.6361 52.3288 65.5036 52.4638C65.371 52.5987 65.2005 52.7088 64.9922 52.794C64.7839 52.8793 64.5353 52.9219 64.2464 52.9219C63.8369 52.9219 63.464 52.8272 63.1278 52.6378C62.794 52.446 62.5277 52.1536 62.3288 51.7607C62.1323 51.3653 62.0341 50.8658 62.0341 50.2621C62.0341 49.6442 62.1347 49.1281 62.3359 48.7138C62.5372 48.2995 62.8047 47.9893 63.1385 47.7834C63.4747 47.5774 63.8428 47.4744 64.2429 47.4744C64.5483 47.4744 64.804 47.5265 65.0099 47.6307C65.2159 47.7325 65.3816 47.8603 65.5071 48.0142C65.6349 48.1657 65.7332 48.3149 65.8018 48.4616H65.8587V47.5455H67.3608V53.0533C67.3608 53.5173 67.2472 53.9055 67.0199 54.218C66.7926 54.5305 66.4777 54.7649 66.0753 54.9212C65.6752 55.0798 65.2147 55.1591 64.6939 55.1591ZM64.7259 51.7855C64.9697 51.7855 65.1757 51.7251 65.3438 51.6044C65.5142 51.4813 65.6444 51.3061 65.7344 51.0788C65.8267 50.8492 65.8729 50.5746 65.8729 50.255C65.8729 49.9354 65.8279 49.6584 65.7379 49.424C65.648 49.1873 65.5178 49.0038 65.3473 48.8736C65.1768 48.7434 64.9697 48.6783 64.7259 48.6783C64.4773 48.6783 64.2678 48.7457 64.0973 48.8807C63.9268 49.0133 63.7978 49.1979 63.7102 49.4347C63.6226 49.6714 63.5788 49.9448 63.5788 50.255C63.5788 50.5698 63.6226 50.8421 63.7102 51.0717C63.8002 51.299 63.9292 51.4754 64.0973 51.6009C64.2678 51.724 64.4773 51.7855 64.7259 51.7855Z" fill="#F8FAFB"/>
<defs>
<linearGradient id="paint0_linear_2871_105634" x1="75.0964" y1="-4.14643" x2="6.14286" y2="93.9857" gradientUnits="userSpaceOnUse">
<stop stop-color="#5B5BF0"/>
<stop offset="1" stop-color="#00AFF0"/>
</linearGradient>
<linearGradient id="paint1_linear_2871_105634" x1="72.1107" y1="0.239286" x2="9.57143" y2="89.2429" gradientUnits="userSpaceOnUse">
<stop stop-color="#5B5BF0"/>
<stop offset="1" stop-color="#00AFF0"/>
</linearGradient>
</defs>
</svg>
