<svg width="15" height="14" viewBox="0 0 15 14" fill="none" xmlns="http://www.w3.org/2000/svg">
<path id="Vector" d="M4.43359 1.4C4.43359 1.0287 4.58109 0.672601 4.84364 0.41005C5.10619 0.1475 5.46229 0 5.83359 0H10.0336C10.4049 0 10.761 0.1475 11.0235 0.41005C11.2861 0.672601 11.4336 1.0287 11.4336 1.4V2.8H14.2336C14.4192 2.8 14.5973 2.87375 14.7286 3.00503C14.8598 3.1363 14.9336 3.31435 14.9336 3.5C14.9336 3.68565 14.8598 3.8637 14.7286 3.99497C14.5973 4.12625 14.4192 4.2 14.2336 4.2H13.4853L12.8784 12.6994C12.8533 13.0526 12.6952 13.3832 12.4361 13.6245C12.1769 13.8658 11.836 14 11.4819 14H4.38459C4.03049 14 3.68954 13.8658 3.43041 13.6245C3.17129 13.3832 3.01323 13.0526 2.98809 12.6994L2.38259 4.2H1.63359C1.44794 4.2 1.26989 4.12625 1.13862 3.99497C1.00734 3.8637 0.933594 3.68565 0.933594 3.5C0.933594 3.31435 1.00734 3.1363 1.13862 3.00503C1.26989 2.87375 1.44794 2.8 1.63359 2.8H4.43359V1.4ZM5.83359 2.8H10.0336V1.4H5.83359V2.8ZM3.78539 4.2L4.38529 12.6H11.4826L12.0825 4.2H3.78539ZM6.53359 5.6C6.71925 5.6 6.89729 5.67375 7.02857 5.80503C7.15984 5.9363 7.23359 6.11435 7.23359 6.3V10.5C7.23359 10.6857 7.15984 10.8637 7.02857 10.995C6.89729 11.1263 6.71925 11.2 6.53359 11.2C6.34794 11.2 6.16989 11.1263 6.03862 10.995C5.90734 10.8637 5.83359 10.6857 5.83359 10.5V6.3C5.83359 6.11435 5.90734 5.9363 6.03862 5.80503C6.16989 5.67375 6.34794 5.6 6.53359 5.6ZM9.33359 5.6C9.51925 5.6 9.69729 5.67375 9.82857 5.80503C9.95984 5.9363 10.0336 6.11435 10.0336 6.3V10.5C10.0336 10.6857 9.95984 10.8637 9.82857 10.995C9.69729 11.1263 9.51925 11.2 9.33359 11.2C9.14794 11.2 8.96989 11.1263 8.83862 10.995C8.70734 10.8637 8.63359 10.6857 8.63359 10.5V6.3C8.63359 6.11435 8.70734 5.9363 8.83862 5.80503C8.96989 5.67375 9.14794 5.6 9.33359 5.6Z" fill="#9797A5"/>
</svg>
