<svg width="22" height="23" viewBox="0 0 22 23" fill="none" xmlns="http://www.w3.org/2000/svg">
<g id="icons/Settings 01/Line">
<path id="Shape" fill-rule="evenodd" clip-rule="evenodd" d="M1.83268 15.1667C1.32642 15.1667 0.916016 15.5772 0.916016 16.0834C0.916016 16.5897 1.32642 17.0001 1.83268 17.0001H11.916C12.4223 17.0001 12.8327 16.5897 12.8327 16.0834C12.8327 15.5772 12.4223 15.1667 11.916 15.1667H1.83268ZM17.416 15.1667C16.9098 15.1667 16.4994 15.5772 16.4994 16.0834C16.4994 16.5897 16.9098 17.0001 17.416 17.0001H20.166C20.6723 17.0001 21.0827 16.5897 21.0827 16.0834C21.0827 15.5772 20.6723 15.1667 20.166 15.1667H17.416Z" fill="#5F6165"/>
<path id="Shape_2" fill-rule="evenodd" clip-rule="evenodd" d="M14.6667 17.9167C15.6792 17.9167 16.5 17.0959 16.5 16.0834C16.5 15.0709 15.6792 14.2501 14.6667 14.2501C13.6541 14.2501 12.8333 15.0709 12.8333 16.0834C12.8333 17.0959 13.6541 17.9167 14.6667 17.9167ZM14.6667 19.7501C16.6917 19.7501 18.3333 18.1085 18.3333 16.0834C18.3333 14.0584 16.6917 12.4167 14.6667 12.4167C12.6416 12.4167 11 14.0584 11 16.0834C11 18.1085 12.6416 19.7501 14.6667 19.7501Z" fill="#5F6165"/>
<path id="Shape_3" fill-rule="evenodd" clip-rule="evenodd" d="M1.83268 6C1.32642 6 0.916016 6.41041 0.916016 6.91667C0.916016 7.42293 1.32642 7.83333 1.83268 7.83333H4.58268C5.08894 7.83333 5.49935 7.42293 5.49935 6.91667C5.49935 6.41041 5.08894 6 4.58268 6H1.83268ZM10.0827 6C9.57642 6 9.16602 6.41041 9.16602 6.91667C9.16602 7.42293 9.57642 7.83333 10.0827 7.83333H20.166C20.6723 7.83333 21.0827 7.42293 21.0827 6.91667C21.0827 6.41041 20.6723 6 20.166 6H10.0827Z" fill="#5F6165"/>
<path id="Shape_4" fill-rule="evenodd" clip-rule="evenodd" d="M7.33268 8.75C8.3452 8.75 9.16602 7.92919 9.16602 6.91667C9.16602 5.90414 8.3452 5.08333 7.33268 5.08333C6.32016 5.08333 5.49935 5.90414 5.49935 6.91667C5.49935 7.92919 6.32016 8.75 7.33268 8.75ZM7.33268 10.5833C9.35773 10.5833 10.9993 8.94171 10.9993 6.91667C10.9993 4.89162 9.35773 3.25 7.33268 3.25C5.30764 3.25 3.66602 4.89162 3.66602 6.91667C3.66602 8.94171 5.30764 10.5833 7.33268 10.5833Z" fill="#5F6165"/>
</g>
</svg>
