<svg xmlns="http://www.w3.org/2000/svg" width="16" height="17" viewBox="0 0 16 17" fill="none">
  <path d="M11.3363 6.5166C12.7863 6.5246 13.5717 6.58927 14.0837 7.10132C14.6697 7.68737 14.6697 8.63012 14.6697 10.5156V11.1824C14.6697 13.0685 14.6697 14.0113 14.0837 14.5973C13.4984 15.1827 12.555 15.1827 10.6696 15.1827H5.33607C3.45068 15.1827 2.50731 15.1827 1.92196 14.5973C1.33594 14.0106 1.33594 13.0685 1.33594 11.1824V10.5156C1.33594 8.63012 1.33594 7.68737 1.92196 7.10132C2.43397 6.58927 3.21933 6.5246 4.66938 6.5166" stroke="#55565B" stroke-width="1.45877" stroke-linecap="round"/>
  <path d="M8.00416 10.5149V1.84668M8.00416 1.84668L10.0044 4.18044M8.00416 1.84668L6.00391 4.18044" stroke="#55565B" stroke-width="1.45877" stroke-linecap="round" stroke-linejoin="round"/>
</svg>