<svg width="22" height="19" viewBox="0 0 22 19" fill="none" xmlns="http://www.w3.org/2000/svg">
<path d="M8.70243 1.53801L8.7271 1.53801L0.911514 9.37081L0.823417 9.4591L0.911514 9.54739L8.93429 17.5878C9.01685 17.694 9.12088 17.7816 9.23963 17.845C9.36089 17.9098 9.49467 17.9478 9.63192 17.9566C9.76918 17.9653 9.90671 17.9445 10.0352 17.8956C10.1638 17.8468 10.2803 17.7709 10.3769 17.6732C10.4735 17.5755 10.5479 17.4582 10.5952 17.3293C10.6424 17.2003 10.6613 17.0628 10.6506 16.9259C10.6398 16.789 10.5997 16.6561 10.533 16.536C10.4679 16.4189 10.3788 16.3167 10.2717 16.2361L4.4836 10.417L20.1646 10.417C20.4192 10.417 20.6634 10.3162 20.8436 10.1366L20.7553 10.0481L20.8436 10.1366C21.0237 9.95697 21.125 9.71328 21.125 9.4591C21.125 9.20492 21.0237 8.96123 20.8436 8.78161C20.6634 8.60201 20.4192 8.50117 20.1646 8.50117L4.4836 8.50117L10.2782 2.67565C10.4578 2.49531 10.5583 2.25114 10.5574 1.99684C10.5565 1.74254 10.4543 1.49908 10.2734 1.32002C10.0925 1.14096 9.84782 1.04094 9.5931 1.04184C9.33837 1.04273 9.09437 1.14448 8.91477 1.32481L8.70243 1.53801Z" fill="#A5A5A5" stroke="white" stroke-width="0.25"/>
</svg>
