<svg width="14" height="15" viewBox="0 0 14 15" fill="none" xmlns="http://www.w3.org/2000/svg">
<path id="icon/av/volume_up_24px" fill-rule="evenodd" clip-rule="evenodd" d="M8.55522 1.7841V1.62854C8.55522 1.13851 9.04525 0.788487 9.49639 0.967387C12.1332 1.97078 14 4.51427 14 7.50113C14 10.488 12.1332 13.0315 9.49639 14.0349C9.04525 14.206 8.55522 13.8637 8.55522 13.3737V13.2181C8.55522 12.9226 8.7419 12.6659 9.02192 12.557C11.0287 11.7558 12.4444 9.78793 12.4444 7.50113C12.4444 5.21432 11.0287 3.24642 9.02192 2.44526C8.74968 2.33636 8.55522 2.07968 8.55522 1.7841ZM0 5.94704V9.05834C0 9.48615 0.350022 9.83617 0.777826 9.83617H3.1113L5.67035 12.3952C6.16038 12.8852 7.00043 12.5352 7.00043 11.843V3.15464C7.00043 2.46238 6.16038 2.11236 5.67035 2.60239L3.1113 5.16921H0.777826C0.350022 5.16921 0 5.51924 0 5.94704ZM10.4998 7.49987C10.4998 6.12312 9.7064 4.94083 8.55522 4.36523V10.6267C9.7064 10.0589 10.4998 8.87663 10.4998 7.49987Z" fill="#55565B"/>
</svg>
