<svg width="20" height="19" viewBox="0 0 20 19" fill="none" xmlns="http://www.w3.org/2000/svg">
<path fill-rule="evenodd" clip-rule="evenodd" d="M9.43622 0.579651C9.06222 0.425651 8.63222 0.510651 8.34622 0.796651L4.05322 5.50265H1.05322C0.503223 5.50265 0.0532227 5.95365 0.0532227 6.50265V12.5026C0.0532227 13.0526 0.503223 13.5026 1.05322 13.5026H4.05322L8.34622 18.2106C8.63222 18.4966 9.06222 18.5826 9.43622 18.4276C9.81022 18.2726 10.0532 17.9076 10.0532 17.5026V1.50265C10.0532 1.09965 9.81022 0.732651 9.43622 0.579651ZM12.0532 2.50256V4.50256C14.8102 4.50256 17.0532 6.74656 17.0532 9.50261C17.0532 12.2596 14.8102 14.5026 12.0532 14.5026V16.5026C15.9132 16.5026 19.0532 13.3636 19.0532 9.50261C19.0532 5.64356 15.9132 2.50256 12.0532 2.50256ZM12.0532 6.50256C13.7072 6.50256 15.0532 7.84961 15.0532 9.50261C15.0532 11.1576 13.7072 12.5026 12.0532 12.5026V10.5026C12.6042 10.5026 13.0532 10.0536 13.0532 9.50261C13.0532 8.95161 12.6042 8.50261 12.0532 8.50261V6.50256Z" fill="#FF0000" style="mix-blend-mode:saturation"/>
<path fill-rule="evenodd" clip-rule="evenodd" d="M9.43622 0.579651C9.06222 0.425651 8.63222 0.510651 8.34622 0.796651L4.05322 5.50265H1.05322C0.503223 5.50265 0.0532227 5.95365 0.0532227 6.50265V12.5026C0.0532227 13.0526 0.503223 13.5026 1.05322 13.5026H4.05322L8.34622 18.2106C8.63222 18.4966 9.06222 18.5826 9.43622 18.4276C9.81022 18.2726 10.0532 17.9076 10.0532 17.5026V1.50265C10.0532 1.09965 9.81022 0.732651 9.43622 0.579651ZM12.0532 2.50256V4.50256C14.8102 4.50256 17.0532 6.74656 17.0532 9.50261C17.0532 12.2596 14.8102 14.5026 12.0532 14.5026V16.5026C15.9132 16.5026 19.0532 13.3636 19.0532 9.50261C19.0532 5.64356 15.9132 2.50256 12.0532 2.50256ZM12.0532 6.50256C13.7072 6.50256 15.0532 7.84961 15.0532 9.50261C15.0532 11.1576 13.7072 12.5026 12.0532 12.5026V10.5026C12.6042 10.5026 13.0532 10.0536 13.0532 9.50261C13.0532 8.95161 12.6042 8.50261 12.0532 8.50261V6.50256Z" fill="white" style="mix-blend-mode:difference"/>
<path fill-rule="evenodd" clip-rule="evenodd" d="M9.43622 0.579651C9.06222 0.425651 8.63222 0.510651 8.34622 0.796651L4.05322 5.50265H1.05322C0.503223 5.50265 0.0532227 5.95365 0.0532227 6.50265V12.5026C0.0532227 13.0526 0.503223 13.5026 1.05322 13.5026H4.05322L8.34622 18.2106C8.63222 18.4966 9.06222 18.5826 9.43622 18.4276C9.81022 18.2726 10.0532 17.9076 10.0532 17.5026V1.50265C10.0532 1.09965 9.81022 0.732651 9.43622 0.579651ZM12.0532 2.50256V4.50256C14.8102 4.50256 17.0532 6.74656 17.0532 9.50261C17.0532 12.2596 14.8102 14.5026 12.0532 14.5026V16.5026C15.9132 16.5026 19.0532 13.3636 19.0532 9.50261C19.0532 5.64356 15.9132 2.50256 12.0532 2.50256ZM12.0532 6.50256C13.7072 6.50256 15.0532 7.84961 15.0532 9.50261C15.0532 11.1576 13.7072 12.5026 12.0532 12.5026V10.5026C12.6042 10.5026 13.0532 10.0536 13.0532 9.50261C13.0532 8.95161 12.6042 8.50261 12.0532 8.50261V6.50256Z" fill="white" style="mix-blend-mode:saturation"/>
<path fill-rule="evenodd" clip-rule="evenodd" d="M9.43622 0.579651C9.06222 0.425651 8.63222 0.510651 8.34622 0.796651L4.05322 5.50265H1.05322C0.503223 5.50265 0.0532227 5.95365 0.0532227 6.50265V12.5026C0.0532227 13.0526 0.503223 13.5026 1.05322 13.5026H4.05322L8.34622 18.2106C8.63222 18.4966 9.06222 18.5826 9.43622 18.4276C9.81022 18.2726 10.0532 17.9076 10.0532 17.5026V1.50265C10.0532 1.09965 9.81022 0.732651 9.43622 0.579651ZM12.0532 2.50256V4.50256C14.8102 4.50256 17.0532 6.74656 17.0532 9.50261C17.0532 12.2596 14.8102 14.5026 12.0532 14.5026V16.5026C15.9132 16.5026 19.0532 13.3636 19.0532 9.50261C19.0532 5.64356 15.9132 2.50256 12.0532 2.50256ZM12.0532 6.50256C13.7072 6.50256 15.0532 7.84961 15.0532 9.50261C15.0532 11.1576 13.7072 12.5026 12.0532 12.5026V10.5026C12.6042 10.5026 13.0532 10.0536 13.0532 9.50261C13.0532 8.95161 12.6042 8.50261 12.0532 8.50261V6.50256Z" fill="white" style="mix-blend-mode:overlay"/>
<path fill-rule="evenodd" clip-rule="evenodd" d="M9.43622 0.579651C9.06222 0.425651 8.63222 0.510651 8.34622 0.796651L4.05322 5.50265H1.05322C0.503223 5.50265 0.0532227 5.95365 0.0532227 6.50265V12.5026C0.0532227 13.0526 0.503223 13.5026 1.05322 13.5026H4.05322L8.34622 18.2106C8.63222 18.4966 9.06222 18.5826 9.43622 18.4276C9.81022 18.2726 10.0532 17.9076 10.0532 17.5026V1.50265C10.0532 1.09965 9.81022 0.732651 9.43622 0.579651ZM12.0532 2.50256V4.50256C14.8102 4.50256 17.0532 6.74656 17.0532 9.50261C17.0532 12.2596 14.8102 14.5026 12.0532 14.5026V16.5026C15.9132 16.5026 19.0532 13.3636 19.0532 9.50261C19.0532 5.64356 15.9132 2.50256 12.0532 2.50256ZM12.0532 6.50256C13.7072 6.50256 15.0532 7.84961 15.0532 9.50261C15.0532 11.1576 13.7072 12.5026 12.0532 12.5026V10.5026C12.6042 10.5026 13.0532 10.0536 13.0532 9.50261C13.0532 8.95161 12.6042 8.50261 12.0532 8.50261V6.50256Z" fill="#55565B" style="mix-blend-mode:overlay"/>
<path fill-rule="evenodd" clip-rule="evenodd" d="M9.43622 0.579651C9.06222 0.425651 8.63222 0.510651 8.34622 0.796651L4.05322 5.50265H1.05322C0.503223 5.50265 0.0532227 5.95365 0.0532227 6.50265V12.5026C0.0532227 13.0526 0.503223 13.5026 1.05322 13.5026H4.05322L8.34622 18.2106C8.63222 18.4966 9.06222 18.5826 9.43622 18.4276C9.81022 18.2726 10.0532 17.9076 10.0532 17.5026V1.50265C10.0532 1.09965 9.81022 0.732651 9.43622 0.579651ZM12.0532 2.50256V4.50256C14.8102 4.50256 17.0532 6.74656 17.0532 9.50261C17.0532 12.2596 14.8102 14.5026 12.0532 14.5026V16.5026C15.9132 16.5026 19.0532 13.3636 19.0532 9.50261C19.0532 5.64356 15.9132 2.50256 12.0532 2.50256ZM12.0532 6.50256C13.7072 6.50256 15.0532 7.84961 15.0532 9.50261C15.0532 11.1576 13.7072 12.5026 12.0532 12.5026V10.5026C12.6042 10.5026 13.0532 10.0536 13.0532 9.50261C13.0532 8.95161 12.6042 8.50261 12.0532 8.50261V6.50256Z" fill="white" style="mix-blend-mode:overlay"/>
<path fill-rule="evenodd" clip-rule="evenodd" d="M9.43622 0.579651C9.06222 0.425651 8.63222 0.510651 8.34622 0.796651L4.05322 5.50265H1.05322C0.503223 5.50265 0.0532227 5.95365 0.0532227 6.50265V12.5026C0.0532227 13.0526 0.503223 13.5026 1.05322 13.5026H4.05322L8.34622 18.2106C8.63222 18.4966 9.06222 18.5826 9.43622 18.4276C9.81022 18.2726 10.0532 17.9076 10.0532 17.5026V1.50265C10.0532 1.09965 9.81022 0.732651 9.43622 0.579651ZM12.0532 2.50256V4.50256C14.8102 4.50256 17.0532 6.74656 17.0532 9.50261C17.0532 12.2596 14.8102 14.5026 12.0532 14.5026V16.5026C15.9132 16.5026 19.0532 13.3636 19.0532 9.50261C19.0532 5.64356 15.9132 2.50256 12.0532 2.50256ZM12.0532 6.50256C13.7072 6.50256 15.0532 7.84961 15.0532 9.50261C15.0532 11.1576 13.7072 12.5026 12.0532 12.5026V10.5026C12.6042 10.5026 13.0532 10.0536 13.0532 9.50261C13.0532 8.95161 12.6042 8.50261 12.0532 8.50261V6.50256Z" fill="#55565B" style="mix-blend-mode:overlay"/>
</svg>
