 <svg xmlns="http://www.w3.org/2000/svg" width="14" height="14" viewBox="0 0 14 14" fill="none" className=' cursor-pointer'>
                <path d="M14 7C14 7.1185 13.9529 7.23215 13.8691 7.31594C13.7853 7.39973 13.6717 7.44681 13.5532 7.44681H7.44681V13.5532C7.44681 13.6717 7.39973 13.7853 7.31594 13.8691C7.23215 13.9529 7.1185 14 7 14C6.8815 14 6.76785 13.9529 6.68406 13.8691C6.60027 13.7853 6.55319 13.6717 6.55319 13.5532V7.44681H0.446809C0.328308 7.44681 0.21466 7.39973 0.130867 7.31594C0.0470743 7.23215 0 7.1185 0 7C0 6.8815 0.0470743 6.76785 0.130867 6.68406C0.21466 6.60027 0.328308 6.55319 0.446809 6.55319H6.55319V0.446809C6.55319 0.328308 6.60027 0.21466 6.68406 0.130867C6.76785 0.0470743 6.8815 0 7 0C7.1185 0 7.23215 0.0470743 7.31594 0.130867C7.39973 0.21466 7.44681 0.328308 7.44681 0.446809V6.55319H13.5532C13.6717 6.55319 13.7853 6.60027 13.8691 6.68406C13.9529 6.76785 14 6.8815 14 7Z" fill="#D1D1D1" />
              </svg>